<?xml version="1.0" encoding="utf-8"?>
<!-- Generated by IcoMoon.io -->
<!DOCTYPE svg PUBLIC "-//W3C//DTD SVG 1.1//EN" "http://www.w3.org/Graphics/SVG/1.1/DTD/svg11.dtd">
<svg version="1.1" xmlns="http://www.w3.org/2000/svg" xmlns:xlink="http://www.w3.org/1999/xlink" width="14" height="14" viewBox="0 0 14 14">
<path fill="#444444" d="M12.117 11.531q0.117-0.047 0.203-0.023t0.086 0.137-0.117 0.262q-0.102 0.125-0.344 0.34t-0.746 0.531-1.102 0.578-1.469 0.453-1.793 0.191q-0.93 0-1.859-0.242t-1.633-0.598-1.348-0.813-1.035-0.82-0.656-0.684q-0.062-0.070-0.078-0.129t0.008-0.094 0.062-0.055 0.090-0.016 0.090 0.035q1.5 0.914 2.344 1.297 3.039 1.375 6.242 0.703 1.484-0.312 3.055-1.055zM13.734 10.633q0.086 0.125 0.020 0.543t-0.223 0.801q-0.266 0.648-0.664 0.969-0.133 0.109-0.203 0.070t0-0.187q0.164-0.352 0.348-0.949t0.051-0.77q-0.039-0.055-0.121-0.090t-0.211-0.047-0.23-0.020-0.273 0-0.246 0.016-0.242 0.023-0.176 0.016q-0.047 0.008-0.102 0.012t-0.086 0.008-0.066 0.008-0.055 0.004h-0.078t-0.023-0.004-0.016-0.012l-0.012-0.023q-0.047-0.125 0.367-0.312t0.805-0.234q0.359-0.055 0.844-0.008t0.594 0.187zM10.656 7.172q0 0.242 0.105 0.5t0.25 0.453 0.293 0.359 0.258 0.25l0.102 0.086-1.773 1.75q-0.312-0.289-0.617-0.59t-0.453-0.457l-0.148-0.156q-0.086-0.086-0.195-0.258-0.297 0.461-0.762 0.801t-0.996 0.496-1.094 0.18-1.074-0.164-0.918-0.512-0.648-0.883-0.242-1.27q0-0.656 0.219-1.203t0.563-0.91 0.832-0.648 0.957-0.445 1.016-0.27 0.934-0.145 0.777-0.051v-0.992q0-0.508-0.164-0.758-0.266-0.414-0.945-0.414-0.047 0-0.129 0.008t-0.316 0.094-0.438 0.23-0.438 0.465-0.375 0.75l-2.297-0.211q0-0.469 0.172-0.93t0.523-0.883 0.844-0.742 1.184-0.512 1.488-0.191q0.781 0 1.414 0.195t1.012 0.48 0.633 0.648 0.352 0.672 0.098 0.574v4.602zM5.406 7.336q0 0.672 0.547 1.039 0.516 0.344 1.086 0.172 0.656-0.195 0.891-0.961 0.109-0.352 0.109-0.789v-1.266q-0.461 0.016-0.867 0.094t-0.832 0.262-0.68 0.555-0.254 0.895z"></path>
</svg>
