<?xml version="1.0" encoding="utf-8"?>
<!-- Generated by IcoMoon.io -->
<!DOCTYPE svg PUBLIC "-//W3C//DTD SVG 1.1//EN" "http://www.w3.org/Graphics/SVG/1.1/DTD/svg11.dtd">
<svg version="1.1" xmlns="http://www.w3.org/2000/svg" xmlns:xlink="http://www.w3.org/1999/xlink" width="15" height="14" viewBox="0 0 15 14">
<path fill="#444444" d="M5 11q0-0.414-0.293-0.707t-0.707-0.293-0.707 0.293-0.293 0.707 0.293 0.707 0.707 0.293 0.707-0.293 0.293-0.707zM2 7h3v-2h-1.234q-0.109 0.016-0.172 0.070l-1.523 1.523q-0.055 0.094-0.070 0.172v0.234zM12 11q0-0.414-0.293-0.707t-0.707-0.293-0.707 0.293-0.293 0.707 0.293 0.707 0.707 0.293 0.707-0.293 0.293-0.707zM13 5.75v-1.5q0-0.109-0.070-0.18t-0.18-0.070h-1.75v-1.75q0-0.109-0.070-0.18t-0.18-0.070h-1.5q-0.109 0-0.18 0.070t-0.070 0.18v1.75h-1.75q-0.109 0-0.18 0.070t-0.070 0.18v1.5q0 0.109 0.070 0.18t0.18 0.070h1.75v1.75q0 0.109 0.070 0.18t0.18 0.070h1.5q0.109 0 0.18-0.070t0.070-0.18v-1.75h1.75q0.109 0 0.18-0.070t0.070-0.18zM15 1.5v9q0 0.203-0.148 0.352t-0.352 0.148h-1.5q0 0.828-0.586 1.414t-1.414 0.586-1.414-0.586-0.586-1.414h-3q0 0.828-0.586 1.414t-1.414 0.586-1.414-0.586-0.586-1.414h-1q-0.203 0-0.352-0.148t-0.148-0.352 0.148-0.352 0.352-0.148v-3.25q0-0.203 0.102-0.453t0.25-0.398l1.547-1.547q0.148-0.148 0.398-0.25t0.453-0.102h1.25v-2.5q0-0.203 0.148-0.352t0.352-0.148h9q0.203 0 0.352 0.148t0.148 0.352z"></path>
</svg>
