<?xml version="1.0" encoding="utf-8"?>
<!-- Generated by IcoMoon.io -->
<!DOCTYPE svg PUBLIC "-//W3C//DTD SVG 1.1//EN" "http://www.w3.org/Graphics/SVG/1.1/DTD/svg11.dtd">
<svg version="1.1" xmlns="http://www.w3.org/2000/svg" xmlns:xlink="http://www.w3.org/1999/xlink" width="11" height="14" viewBox="0 0 11 14">
<path fill="#444444" d="M3.852 3.773q0.125 0 0.215-0.090t0.090-0.215-0.090-0.215-0.215-0.090-0.211 0.090-0.086 0.215 0.086 0.215 0.211 0.090zM7.148 3.773q0.125 0 0.211-0.090t0.086-0.215-0.086-0.215-0.211-0.090-0.215 0.090-0.090 0.215 0.090 0.215 0.215 0.090zM0.805 5.211q0.328 0 0.563 0.234t0.234 0.563v3.359q0 0.336-0.23 0.57t-0.566 0.234-0.57-0.234-0.234-0.57v-3.359q0-0.328 0.234-0.563t0.57-0.234zM9.086 5.359v5.203q0 0.359-0.25 0.609t-0.602 0.25h-0.586v1.773q0 0.336-0.234 0.57t-0.57 0.234-0.57-0.234-0.234-0.57v-1.773h-1.078v1.773q0 0.336-0.234 0.57t-0.57 0.234q-0.328 0-0.563-0.234t-0.234-0.57l-0.008-1.773h-0.578q-0.359 0-0.609-0.25t-0.25-0.609v-5.203h7.172zM7.273 2.195q0.836 0.43 1.336 1.199t0.5 1.684h-7.227q0-0.914 0.5-1.684t1.344-1.199l-0.555-1.023q-0.055-0.102 0.039-0.156 0.102-0.047 0.156 0.047l0.563 1.031q0.742-0.328 1.57-0.328t1.57 0.328l0.563-1.031q0.055-0.094 0.156-0.047 0.094 0.055 0.039 0.156zM11 6.008v3.359q0 0.336-0.234 0.57t-0.57 0.234q-0.328 0-0.563-0.234t-0.234-0.57v-3.359q0-0.336 0.234-0.566t0.563-0.23q0.336 0 0.57 0.23t0.234 0.566z"></path>
</svg>
