<?xml version="1.0" encoding="utf-8"?>
<!-- Generated by IcoMoon.io -->
<!DOCTYPE svg PUBLIC "-//W3C//DTD SVG 1.1//EN" "http://www.w3.org/Graphics/SVG/1.1/DTD/svg11.dtd">
<svg version="1.1" xmlns="http://www.w3.org/2000/svg" xmlns:xlink="http://www.w3.org/1999/xlink" width="10" height="14" viewBox="0 0 10 14">
<path fill="#444444" d="M7.445 2.953l-0.891 2.563 0.914 0.164q1.289-3.523 1.289-4.047 0-0.438-0.297-0.438-0.445 0-1.016 1.758zM5.109 8.32l0.258 0.688q0.289-0.328 0.555-0.523l-0.258-0.043t-0.301-0.055-0.254-0.066zM2.828 1.32q0 0.766 1.242 4.070 0.141-0.078 0.383-0.078 0.117 0 0.586 0.039l-0.945-2.742q-0.586-1.719-0.961-1.719-0.148 0-0.227 0.137t-0.078 0.293zM2.211 7.25q0 0.281 0.402 0.93t0.918 1.195 0.781 0.547q0.109 0 0.199-0.102t0.090-0.211q0-0.187-0.25-0.797-0.102-0.25-0.25-0.563t-0.371-0.695-0.48-0.633-0.484-0.25q-0.156 0-0.355 0.211t-0.199 0.367zM0.977 9.867q0 0.32 0.195 0.813 0.461 1.133 1.434 1.773t2.199 0.641q1.773 0 2.984-1.328 1.187-1.32 1.187-3.336 0-0.336-0.008-0.523t-0.090-0.484-0.238-0.438q-0.438-0.383-1.652-0.59t-2.113-0.207q-0.289 0-0.383 0.086-0.094 0.039-0.094 0.273 0 0.266 0.168 0.469t0.434 0.312 0.605 0.184 0.684 0.090 0.664 0.031 0.547 0h0.18q0.187 0 0.312 0.148 0.117 0.148 0.148 0.43-0.219 0.219-0.75 0.422-0.477 0.172-0.727 0.359-0.5 0.359-0.848 0.891t-0.348 1.070q0 0.242 0.145 0.691t0.145 0.684l-0.023 0.094q-0.031 0.094-0.031 0.109-1.070-0.078-1.141-1.688-0.062 0.016-0.32 0.016 0.016 0.055 0.016 0.164 0 0.414-0.316 0.699t-0.738 0.285q-0.641 0-1.301-0.609t-0.66-1.242q0-0.266 0.258-0.523 0.406 0.5 0.469 0.594 0.602 0.813 1.039 0.813 0.094 0 0.207-0.066t0.113-0.16q0-0.266-0.684-1.133t-0.91-0.867q-0.336 0-0.547 0.348t-0.211 0.707zM0.086 9.937q0-0.789 0.332-1.273t1.066-0.688q-0.219-0.578-0.219-0.813 0-0.484 0.477-0.961t0.953-0.477q0.227 0 0.547 0.117-1.273-3.609-1.273-4.43 0-0.625 0.32-1.020t0.93-0.395q1.023 0 2.539 4.539 0.047 0.133 0.062 0.18 0.047-0.125 0.227-0.621t0.34-0.926 0.422-0.996 0.504-0.961 0.551-0.676 0.598-0.281q0.555 0 0.875 0.383t0.32 0.953q0 0.844-1.242 4.297 0.477 0.117 0.785 0.359t0.457 0.609 0.203 0.73 0.055 0.863q0 1.172-0.367 2.188t-1.031 1.758-1.648 1.172-2.172 0.43q-0.867 0-1.742-0.328-1.164-0.445-2.016-1.496t-0.852-2.238z"></path>
</svg>
