<?xml version="1.0" encoding="utf-8"?>
<!-- Generated by IcoMoon.io -->
<!DOCTYPE svg PUBLIC "-//W3C//DTD SVG 1.1//EN" "http://www.w3.org/Graphics/SVG/1.1/DTD/svg11.dtd">
<svg version="1.1" xmlns="http://www.w3.org/2000/svg" xmlns:xlink="http://www.w3.org/1999/xlink" width="12" height="14" viewBox="0 0 12 14">
<path fill="#444444" d="M11.5 7.5q0 0.422-0.289 0.711l-5.086 5.086q-0.305 0.289-0.711 0.289-0.398 0-0.703-0.289l-0.586-0.586q-0.297-0.297-0.297-0.711t0.297-0.711l2.289-2.289h-5.5q-0.406 0-0.66-0.293t-0.254-0.707v-1q0-0.414 0.254-0.707t0.66-0.293h5.5l-2.289-2.297q-0.297-0.281-0.297-0.703t0.297-0.703l0.586-0.586q0.297-0.297 0.703-0.297 0.414 0 0.711 0.297l5.086 5.086q0.289 0.273 0.289 0.703z"></path>
</svg>
