<?xml version="1.0" encoding="utf-8"?>
<!-- Generated by IcoMoon.io -->
<!DOCTYPE svg PUBLIC "-//W3C//DTD SVG 1.1//EN" "http://www.w3.org/Graphics/SVG/1.1/DTD/svg11.dtd">
<svg version="1.1" xmlns="http://www.w3.org/2000/svg" xmlns:xlink="http://www.w3.org/1999/xlink" width="12" height="14" viewBox="0 0 12 14">
<path fill="#444444" d="M9 6.25v1.5q0 0.102-0.074 0.176t-0.176 0.074h-2.75v1.5q0 0.109-0.070 0.18t-0.18 0.070q-0.094 0-0.187-0.078l-2.492-2.492q-0.070-0.070-0.070-0.18t0.070-0.18l2.5-2.5q0.070-0.070 0.18-0.070 0.102 0 0.176 0.074t0.074 0.176v1.5h2.75q0.102 0 0.176 0.074t0.074 0.176zM10.25 7q0-1.156-0.57-2.133t-1.547-1.547-2.133-0.57-2.133 0.57-1.547 1.547-0.57 2.133 0.57 2.133 1.547 1.547 2.133 0.57 2.133-0.57 1.547-1.547 0.57-2.133zM12 7q0 1.633-0.805 3.012t-2.184 2.184-3.012 0.805-3.012-0.805-2.184-2.184-0.805-3.012 0.805-3.012 2.184-2.184 3.012-0.805 3.012 0.805 2.184 2.184 0.805 3.012z"></path>
</svg>
