<?xml version="1.0" encoding="utf-8"?>
<!-- Generated by IcoMoon.io -->
<!DOCTYPE svg PUBLIC "-//W3C//DTD SVG 1.1//EN" "http://www.w3.org/Graphics/SVG/1.1/DTD/svg11.dtd">
<svg version="1.1" xmlns="http://www.w3.org/2000/svg" xmlns:xlink="http://www.w3.org/1999/xlink" width="12" height="14" viewBox="0 0 12 14">
<path fill="#444444" d="M10.031 6.992q0-0.211-0.141-0.352l-3.539-3.539q-0.141-0.141-0.352-0.141t-0.352 0.141l-3.539 3.539q-0.141 0.141-0.141 0.352t0.141 0.352l0.711 0.711q0.141 0.141 0.352 0.141t0.352-0.141l1.477-1.477v3.922q0 0.203 0.148 0.352t0.352 0.148h1q0.203 0 0.352-0.148t0.148-0.352v-3.922l1.477 1.477q0.148 0.148 0.352 0.148t0.352-0.148l0.711-0.711q0.141-0.141 0.141-0.352zM12 7q0 1.633-0.805 3.012t-2.184 2.184-3.012 0.805-3.012-0.805-2.184-2.184-0.805-3.012 0.805-3.012 2.184-2.184 3.012-0.805 3.012 0.805 2.184 2.184 0.805 3.012z"></path>
</svg>
