<?xml version="1.0" encoding="utf-8"?>
<!-- Generated by IcoMoon.io -->
<!DOCTYPE svg PUBLIC "-//W3C//DTD SVG 1.1//EN" "http://www.w3.org/Graphics/SVG/1.1/DTD/svg11.dtd">
<svg version="1.1" xmlns="http://www.w3.org/2000/svg" xmlns:xlink="http://www.w3.org/1999/xlink" width="12" height="14" viewBox="0 0 12 14">
<path fill="#444444" d="M12 7v1q0 0.414-0.254 0.707t-0.66 0.293h-5.5l2.289 2.297q0.297 0.281 0.297 0.703t-0.297 0.703l-0.586 0.594q-0.289 0.289-0.703 0.289-0.406 0-0.711-0.289l-5.086-5.094q-0.289-0.289-0.289-0.703 0-0.406 0.289-0.711l5.086-5.078q0.297-0.297 0.711-0.297 0.406 0 0.703 0.297l0.586 0.578q0.297 0.297 0.297 0.711t-0.297 0.711l-2.289 2.289h5.5q0.406 0 0.66 0.293t0.254 0.707z"></path>
</svg>
