<?xml version="1.0" encoding="utf-8"?>
<!-- Generated by IcoMoon.io -->
<!DOCTYPE svg PUBLIC "-//W3C//DTD SVG 1.1//EN" "http://www.w3.org/Graphics/SVG/1.1/DTD/svg11.dtd">
<svg version="1.1" xmlns="http://www.w3.org/2000/svg" xmlns:xlink="http://www.w3.org/1999/xlink" width="13" height="14" viewBox="0 0 13 14">
<path fill="#444444" d="M11.578 8.203q0.359 0.203 0.465 0.605t-0.098 0.762l-0.5 0.859q-0.203 0.359-0.605 0.465t-0.762-0.098l-2.078-1.195v2.398q0 0.406-0.297 0.703t-0.703 0.297h-1q-0.406 0-0.703-0.297t-0.297-0.703v-2.398l-2.078 1.195q-0.359 0.203-0.762 0.098t-0.605-0.465l-0.5-0.859q-0.203-0.359-0.098-0.762t0.465-0.605l2.078-1.203-2.078-1.203q-0.359-0.203-0.465-0.605t0.098-0.762l0.5-0.859q0.203-0.359 0.605-0.465t0.762 0.098l2.078 1.195v-2.398q0-0.406 0.297-0.703t0.703-0.297h1q0.406 0 0.703 0.297t0.297 0.703v2.398l2.078-1.195q0.359-0.203 0.762-0.098t0.605 0.465l0.5 0.859q0.203 0.359 0.098 0.762t-0.465 0.605l-2.078 1.203z"></path>
</svg>
