<?xml version="1.0" encoding="utf-8"?>
<!-- Generated by IcoMoon.io -->
<!DOCTYPE svg PUBLIC "-//W3C//DTD SVG 1.1//EN" "http://www.w3.org/Graphics/SVG/1.1/DTD/svg11.dtd">
<svg version="1.1" xmlns="http://www.w3.org/2000/svg" xmlns:xlink="http://www.w3.org/1999/xlink" width="12" height="14" viewBox="0 0 12 14">
<path fill="#444444" d="M7.594 6.055q0-0.844-0.418-1.32t-1.152-0.477q-0.492 0-0.969 0.238t-0.859 0.66-0.621 1.070-0.238 1.406q0 0.875 0.418 1.352t1.176 0.477q0.75 0 1.375-0.52t0.957-1.297 0.332-1.59zM12 7q0 0.867-0.289 1.539t-0.77 1.055-1.027 0.582-1.133 0.215q-0.047 0-0.121 0.004t-0.129 0.004q-0.742 0-1.109-0.414-0.219-0.258-0.258-0.648-0.406 0.516-1.027 0.859t-1.355 0.344q-1.258 0-1.949-0.746t-0.691-2.105q0-1.227 0.516-2.266t1.398-1.645 1.922-0.605q0.68 0 1.211 0.277t0.828 0.777l0.016-0.148 0.086-0.438q0.008-0.047 0.043-0.094t0.074-0.047h0.922q0.039 0 0.102 0.086 0.039 0.039 0.023 0.125l-0.937 4.797q-0.039 0.187-0.039 0.375 0 0.305 0.098 0.406t0.348 0.102q0.219-0.008 0.445-0.043t0.57-0.187 0.602-0.391 0.445-0.699 0.187-1.070q0-2.281-1.359-3.641t-3.641-1.359q-1.016 0-1.941 0.398t-1.594 1.066-1.066 1.594-0.398 1.941 0.398 1.941 1.066 1.594 1.594 1.066 1.941 0.398q1.781 0 3.164-1.125 0.086-0.070 0.187-0.062t0.164 0.094l0.32 0.383q0.062 0.094 0.055 0.187-0.016 0.102-0.094 0.172-0.797 0.648-1.777 1t-2.020 0.352q-1.219 0-2.328-0.477t-1.914-1.281-1.281-1.914-0.477-2.328 0.477-2.328 1.281-1.914 1.914-1.281 2.328-0.477q2.687 0 4.344 1.656t1.656 4.344z"></path>
</svg>
