<?xml version="1.0" encoding="utf-8"?>
<!-- Generated by IcoMoon.io -->
<!DOCTYPE svg PUBLIC "-//W3C//DTD SVG 1.1//EN" "http://www.w3.org/Graphics/SVG/1.1/DTD/svg11.dtd">
<svg version="1.1" xmlns="http://www.w3.org/2000/svg" xmlns:xlink="http://www.w3.org/1999/xlink" width="17" height="14" viewBox="0 0 17 14">
<path fill="#444444" d="M13.5 3.5l-3 5.5h6zM3.5 3.5l-3 5.5h6zM9.914 2q-0.109 0.312-0.355 0.559t-0.559 0.355v10.086h4.75q0.109 0 0.18 0.070t0.070 0.18v0.5q0 0.109-0.070 0.18t-0.18 0.070h-10.5q-0.109 0-0.18-0.070t-0.070-0.18v-0.5q0-0.109 0.070-0.18t0.18-0.070h4.75v-10.086q-0.312-0.109-0.559-0.355t-0.355-0.559h-3.836q-0.109 0-0.18-0.070t-0.070-0.18v-0.5q0-0.109 0.070-0.18t0.18-0.070h3.836q0.164-0.445 0.547-0.723t0.867-0.277 0.867 0.277 0.547 0.723h3.836q0.109 0 0.18 0.070t0.070 0.18v0.5q0 0.109-0.070 0.18t-0.18 0.070h-3.836zM8.5 2.125q0.258 0 0.441-0.184t0.184-0.441-0.184-0.441-0.441-0.184-0.441 0.184-0.184 0.441 0.184 0.441 0.441 0.184zM17 9q0 0.57-0.363 1.023t-0.918 0.711-1.129 0.387-1.090 0.129-1.090-0.129-1.129-0.387-0.918-0.711-0.363-1.023q0-0.086 0.273-0.633t0.719-1.363 0.836-1.527 0.797-1.438 0.438-0.781q0.141-0.258 0.438-0.258t0.438 0.258q0.031 0.055 0.438 0.781t0.797 1.438 0.836 1.527 0.719 1.363 0.273 0.633zM7 9q0 0.57-0.363 1.023t-0.918 0.711-1.129 0.387-1.090 0.129-1.090-0.129-1.129-0.387-0.918-0.711-0.363-1.023q0-0.086 0.273-0.633t0.719-1.363 0.836-1.527 0.797-1.438 0.438-0.781q0.141-0.258 0.438-0.258t0.438 0.258q0.031 0.055 0.438 0.781t0.797 1.438 0.836 1.527 0.719 1.363 0.273 0.633z"></path>
</svg>
