<?xml version="1.0" encoding="utf-8"?>
<!-- Generated by IcoMoon.io -->
<!DOCTYPE svg PUBLIC "-//W3C//DTD SVG 1.1//EN" "http://www.w3.org/Graphics/SVG/1.1/DTD/svg11.dtd">
<svg version="1.1" xmlns="http://www.w3.org/2000/svg" xmlns:xlink="http://www.w3.org/1999/xlink" width="14" height="14" viewBox="0 0 14 14">
<path fill="#444444" d="M0.492 12h-0.492v-11h0.492v11zM0.984 11.992h-0.25v-10.992h0.25v10.992zM1.719 11.992h-0.242v-10.992h0.242v10.992zM2.945 11.992h-0.242v-10.992h0.242v10.992zM4.172 11.992h-0.484v-10.992h0.484v10.992zM5.156 11.992h-0.242v-10.992h0.242v10.992zM5.648 11.992h-0.242v-10.992h0.242v10.992zM6.141 11.992h-0.242v-10.992h0.242v10.992zM7.367 11.992h-0.492v-10.992h0.492v10.992zM8.594 11.992h-0.492v-10.992h0.492v10.992zM9.578 11.992h-0.492v-10.992h0.492v10.992zM10.562 11.992h-0.492v-10.992h0.492v10.992zM11.297 11.992h-0.492v-10.992h0.492v10.992zM12.773 11.992h-0.734v-10.992h0.734v10.992zM13.266 11.992h-0.25v-10.992h0.25v10.992zM14 12h-0.492v-11h0.492v11z"></path>
</svg>
