<?xml version="1.0" encoding="utf-8"?>
<!-- Generated by IcoMoon.io -->
<!DOCTYPE svg PUBLIC "-//W3C//DTD SVG 1.1//EN" "http://www.w3.org/Graphics/SVG/1.1/DTD/svg11.dtd">
<svg version="1.1" xmlns="http://www.w3.org/2000/svg" xmlns:xlink="http://www.w3.org/1999/xlink" width="18" height="14" viewBox="0 0 18 14">
<path fill="#444444" d="M2 10v-6h7v6h-7zM17 4.5q0.414 0 0.707 0.293t0.293 0.707v3q0 0.414-0.293 0.707t-0.707 0.293v1.25q0 0.516-0.367 0.883t-0.883 0.367h-14.5q-0.516 0-0.883-0.367t-0.367-0.883v-7.5q0-0.516 0.367-0.883t0.883-0.367h14.5q0.516 0 0.883 0.367t0.367 0.883v1.25zM17 8.5v-3h-1v-2.25q0-0.109-0.070-0.18t-0.18-0.070h-14.5q-0.109 0-0.18 0.070t-0.070 0.18v7.5q0 0.109 0.070 0.18t0.18 0.070h14.5q0.109 0 0.18-0.070t0.070-0.18v-2.25h1z"></path>
</svg>
