<?xml version="1.0" encoding="utf-8"?>
<!-- Generated by IcoMoon.io -->
<!DOCTYPE svg PUBLIC "-//W3C//DTD SVG 1.1//EN" "http://www.w3.org/Graphics/SVG/1.1/DTD/svg11.dtd">
<svg version="1.1" xmlns="http://www.w3.org/2000/svg" xmlns:xlink="http://www.w3.org/1999/xlink" width="16" height="14" viewBox="0 0 16 14">
<path fill="#444444" d="M2 8h13.5q0.203 0 0.352 0.148t0.148 0.352v3.5h-2v-2h-12v2h-2v-9.5q0-0.203 0.148-0.352t0.352-0.148h1q0.203 0 0.352 0.148t0.148 0.352v5.5zM6.5 5.5q0-0.828-0.586-1.414t-1.414-0.586-1.414 0.586-0.586 1.414 0.586 1.414 1.414 0.586 1.414-0.586 0.586-1.414zM16 7.5v-0.5q0-1.242-0.879-2.121t-2.121-0.879h-5.5q-0.203 0-0.352 0.148t-0.148 0.352v3h9z"></path>
</svg>
