<?xml version="1.0" encoding="utf-8"?>
<!-- Generated by IcoMoon.io -->
<!DOCTYPE svg PUBLIC "-//W3C//DTD SVG 1.1//EN" "http://www.w3.org/Graphics/SVG/1.1/DTD/svg11.dtd">
<svg version="1.1" xmlns="http://www.w3.org/2000/svg" xmlns:xlink="http://www.w3.org/1999/xlink" width="12" height="14" viewBox="0 0 12 14">
<path fill="#444444" d="M9.75 1q0.93 0 1.59 0.66t0.66 1.59v7.5q0 0.93-0.66 1.59t-1.59 0.66h-7.5q-0.93 0-1.59-0.66t-0.66-1.59v-7.5q0-0.93 0.66-1.59t1.59-0.66h7.5zM3.898 3.867h-2.898v6.148h2.984q0.914 0 1.539-0.449t0.625-1.332q0-1.234-1.117-1.563 0.836-0.406 0.836-1.281 0-0.445-0.152-0.754t-0.441-0.473-0.617-0.23-0.758-0.066zM3.727 6.352h-1.375v-1.438h1.273q0.93 0 0.93 0.703 0 0.734-0.828 0.734zM3.797 8.969h-1.445v-1.695h1.477q0.969 0 0.969 0.883 0 0.813-1 0.813zM8.875 9.219q-0.531 0-0.813-0.297t-0.281-0.836h3.211q0.008-0.078 0.008-0.234 0-1.031-0.582-1.723t-1.59-0.691q-1 0-1.641 0.672t-0.641 1.688q0 1.055 0.617 1.695t1.664 0.641q1.602 0 2.086-1.492h-1.078q-0.086 0.266-0.371 0.422t-0.59 0.156zM8.797 6.359q0.883 0 0.969 0.953h-1.984q0.031-0.438 0.305-0.695t0.711-0.258zM7.531 4.281h2.492v0.602h-2.492v-0.602z"></path>
</svg>
