<?xml version="1.0" encoding="utf-8"?>
<!-- Generated by IcoMoon.io -->
<!DOCTYPE svg PUBLIC "-//W3C//DTD SVG 1.1//EN" "http://www.w3.org/Graphics/SVG/1.1/DTD/svg11.dtd">
<svg version="1.1" xmlns="http://www.w3.org/2000/svg" xmlns:xlink="http://www.w3.org/1999/xlink" width="16" height="14" viewBox="0 0 16 14">
<path fill="#444444" d="M14.438 2.648h-3.992v0.969h3.992v-0.969zM12.469 5.977q-0.703 0-1.141 0.41t-0.484 1.113h3.188q-0.141-1.523-1.563-1.523zM12.594 10.547q0.492 0 0.953-0.25t0.594-0.68h1.727q-0.781 2.398-3.336 2.398-1.672 0-2.66-1.031t-0.988-2.711q0-1.625 1.020-2.699t2.629-1.074q1.078 0 1.879 0.531t1.195 1.398 0.395 1.937q0 0.133-0.016 0.367h-5.141q0 0.867 0.449 1.34t1.301 0.473zM2.164 10.156h2.313q1.602 0 1.602-1.305 0-1.406-1.555-1.406h-2.359v2.711zM2.164 5.961h2.195q0.609 0 0.965-0.285t0.355-0.887q0-1.125-1.484-1.125h-2.031v2.297zM0 1.984h4.641q0.68 0 1.211 0.109t0.988 0.371 0.703 0.754 0.246 1.203q0 1.414-1.344 2.055 0.891 0.25 1.344 0.898t0.453 1.594q0 0.586-0.191 1.066t-0.516 0.809-0.77 0.555-0.945 0.328-1.047 0.102h-4.773v-9.844z"></path>
</svg>
