<?xml version="1.0" encoding="utf-8"?>
<!-- Generated by IcoMoon.io -->
<!DOCTYPE svg PUBLIC "-//W3C//DTD SVG 1.1//EN" "http://www.w3.org/Graphics/SVG/1.1/DTD/svg11.dtd">
<svg version="1.1" xmlns="http://www.w3.org/2000/svg" xmlns:xlink="http://www.w3.org/1999/xlink" width="16" height="14" viewBox="0 0 16 14">
<path fill="#444444" d="M8.125 13.25q0-0.125-0.125-0.125-0.461 0-0.793-0.332t-0.332-0.793q0-0.125-0.125-0.125t-0.125 0.125q0 0.57 0.402 0.973t0.973 0.402q0.125 0 0.125-0.125zM3.93 9.539l6.852-5.938q-0.328-0.688-1.035-1.145t-1.746-0.457q-0.727 0-1.324 0.246t-0.949 0.629-0.539 0.805-0.187 0.82q0 3-1.070 5.039zM14.5 11q0 0.406-0.297 0.703t-0.703 0.297h-3.5q0 0.828-0.586 1.414t-1.414 0.586-1.41-0.582-0.59-1.41l1.164-1.008h5.914q-1.297-1.461-1.773-3.586l0.867-0.758q0.477 2.781 2.328 4.344zM15.172 0.125l0.656 0.75q0.062 0.078 0.059 0.184t-0.082 0.176l-14.625 12.672q-0.078 0.062-0.184 0.055t-0.168-0.086l-0.656-0.75q-0.062-0.078-0.059-0.184t0.082-0.168l1.453-1.258q-0.148-0.25-0.148-0.516 0.391-0.328 0.711-0.688t0.664-0.934 0.582-1.238 0.391-1.609 0.152-2.031q0-1.187 0.914-2.207t2.398-1.238q-0.062-0.148-0.062-0.305 0-0.312 0.219-0.531t0.531-0.219 0.531 0.219 0.219 0.531q0 0.156-0.062 0.305 0.969 0.141 1.711 0.645t1.156 1.23l3.266-2.836q0.078-0.062 0.184-0.055t0.168 0.086z"></path>
</svg>
