<?xml version="1.0" encoding="utf-8"?>
<!-- Generated by IcoMoon.io -->
<!DOCTYPE svg PUBLIC "-//W3C//DTD SVG 1.1//EN" "http://www.w3.org/Graphics/SVG/1.1/DTD/svg11.dtd">
<svg version="1.1" xmlns="http://www.w3.org/2000/svg" xmlns:xlink="http://www.w3.org/1999/xlink" width="14" height="14" viewBox="0 0 14 14">
<path fill="#444444" d="M5.5 2.5v6q0 0.203-0.148 0.352t-0.352 0.148v4.5q0 0.203-0.148 0.352t-0.352 0.148h-4q-0.203 0-0.352-0.148t-0.148-0.352v-4l1.945-6.82q0.055-0.18 0.242-0.18h3.313zM8 2.5v5.5h-2v-5.5h2zM14 9.5v4q0 0.203-0.148 0.352t-0.352 0.148h-4q-0.203 0-0.352-0.148t-0.148-0.352v-4.5q-0.203 0-0.352-0.148t-0.148-0.352v-6h3.313q0.187 0 0.242 0.18zM5.75 0.25v1.75h-2.75v-1.75q0-0.109 0.070-0.18t0.18-0.070h2.25q0.109 0 0.18 0.070t0.070 0.18zM11 0.25v1.75h-2.75v-1.75q0-0.109 0.070-0.18t0.18-0.070h2.25q0.109 0 0.18 0.070t0.070 0.18z"></path>
</svg>
