<?xml version="1.0" encoding="utf-8"?>
<!-- Generated by IcoMoon.io -->
<!DOCTYPE svg PUBLIC "-//W3C//DTD SVG 1.1//EN" "http://www.w3.org/Graphics/SVG/1.1/DTD/svg11.dtd">
<svg version="1.1" xmlns="http://www.w3.org/2000/svg" xmlns:xlink="http://www.w3.org/1999/xlink" width="14" height="14" viewBox="0 0 14 14">
<path fill="#444444" d="M14 11v3h-14v-3q0.352 0 0.664-0.109t0.461-0.215 0.367-0.293q0.234-0.211 0.402-0.297t0.441-0.086 0.434 0.086 0.41 0.297q0.227 0.195 0.367 0.297t0.453 0.211 0.672 0.109q0.352 0 0.664-0.113t0.453-0.211 0.375-0.293q0.164-0.148 0.254-0.211t0.242-0.117 0.34-0.055q0.273 0 0.441 0.086t0.402 0.297q0.219 0.187 0.367 0.293t0.461 0.215 0.664 0.109 0.664-0.109 0.461-0.215 0.367-0.293q0.234-0.211 0.402-0.297t0.441-0.086q0.266 0 0.434 0.086t0.402 0.297q0.219 0.187 0.367 0.293t0.461 0.215 0.664 0.109zM14 8.5v1.5q-0.273 0-0.434-0.086t-0.41-0.297q-0.227-0.195-0.367-0.297t-0.453-0.211-0.664-0.109q-0.359 0-0.672 0.109t-0.453 0.211-0.367 0.297q-0.172 0.148-0.258 0.211t-0.242 0.117-0.344 0.055q-0.273 0-0.441-0.086t-0.402-0.297q-0.227-0.195-0.367-0.297t-0.453-0.211-0.672-0.109q-0.352 0-0.664 0.113t-0.453 0.211-0.375 0.293q-0.164 0.148-0.254 0.211t-0.242 0.117-0.34 0.055q-0.273 0-0.441-0.086t-0.402-0.297q-0.219-0.187-0.367-0.293t-0.461-0.215-0.664-0.109q-0.359 0-0.672 0.109t-0.453 0.211-0.367 0.297q-0.234 0.211-0.402 0.297t-0.441 0.086v-1.5q0-0.625 0.438-1.062t1.062-0.438h0.5v-3.5h2v3.5h2v-3.5h2v3.5h2v-3.5h2v3.5h0.5q0.625 0 1.062 0.438t0.438 1.062zM4 1.75q0 0.602-0.281 0.926t-0.719 0.324q-0.414 0-0.707-0.293t-0.293-0.707q0-0.227 0.074-0.398t0.184-0.266 0.242-0.219 0.242-0.246 0.184-0.348 0.074-0.523q0.297 0 0.648 0.578t0.352 1.172zM8 1.75q0 0.602-0.281 0.926t-0.719 0.324q-0.414 0-0.707-0.293t-0.293-0.707q0-0.227 0.074-0.398t0.184-0.266 0.242-0.219 0.242-0.246 0.184-0.348 0.074-0.523q0.297 0 0.648 0.578t0.352 1.172zM12 1.75q0 0.602-0.281 0.926t-0.719 0.324q-0.414 0-0.707-0.293t-0.293-0.707q0-0.227 0.074-0.398t0.184-0.266 0.242-0.219 0.242-0.246 0.184-0.348 0.074-0.523q0.297 0 0.648 0.578t0.352 1.172z"></path>
</svg>
