<?xml version="1.0" encoding="utf-8"?>
<!-- Generated by IcoMoon.io -->
<!DOCTYPE svg PUBLIC "-//W3C//DTD SVG 1.1//EN" "http://www.w3.org/Graphics/SVG/1.1/DTD/svg11.dtd">
<svg version="1.1" xmlns="http://www.w3.org/2000/svg" xmlns:xlink="http://www.w3.org/1999/xlink" width="12" height="14" viewBox="0 0 12 14">
<path fill="#444444" d="M6.625 6.797q0-0.336-0.32-0.516t-0.602-0.008q-0.336 0.156-0.332 0.566t0.34 0.551q0.305 0.18 0.633-0.031t0.281-0.563zM7.25 6.672q0.062 0.516-0.281 0.945t-0.859 0.477-0.93-0.312-0.438-0.883q-0.016-0.383 0.199-0.727t0.566-0.5q0.547-0.242 1.105 0.078t0.637 0.922zM8.594 3.617q-0.156 0.164-0.418 0.266t-0.414 0.125-0.496 0.062q-1.211 0.156-2.531 0-0.344-0.047-0.492-0.074t-0.41-0.125-0.426-0.254q0.102-0.148 0.281-0.242t0.312-0.121 0.367-0.066q1.547-0.273 3.188-0.008 0.258 0.039 0.398 0.066t0.336 0.125 0.305 0.246zM8.922 9.445q0-0.055 0.043-0.207t0.023-0.25-0.137-0.129q-1.258 0.828-2.852 0.828t-2.859-0.828l-0.094 0.047-0.039 0.094q0.203 1.203 0.32 1.641 0.367 0.633 1.594 0.844 1.945 0.359 3.344-0.414 0.266-0.148 0.383-0.402t0.176-0.668 0.098-0.555zM9.937 4.031q0.070-0.414-0.062-0.586-0.336-0.43-1.211-0.688-1.688-0.492-3.805-0.281-1.031 0.094-1.766 0.359-0.297 0.117-0.465 0.195t-0.367 0.266-0.23 0.422q0.062 0.531 0.148 1.078t0.227 1.336 0.187 1.070q0.008 0.039 0.039 0.242t0.055 0.281 0.094 0.211 0.172 0.219q0.82 0.625 2.219 0.781 2.023 0.219 3.438-0.492 0.187-0.102 0.309-0.18t0.242-0.227 0.152-0.312q0.375-2.086 0.625-3.695zM12 3.25v7.5q0 0.93-0.66 1.59t-1.59 0.66h-7.5q-0.93 0-1.59-0.66t-0.66-1.59v-7.5q0-0.93 0.66-1.59t1.59-0.66h7.5q0.93 0 1.59 0.66t0.66 1.59z"></path>
</svg>
