<?xml version="1.0" encoding="utf-8"?>
<!-- Generated by IcoMoon.io -->
<!DOCTYPE svg PUBLIC "-//W3C//DTD SVG 1.1//EN" "http://www.w3.org/Graphics/SVG/1.1/DTD/svg11.dtd">
<svg version="1.1" xmlns="http://www.w3.org/2000/svg" xmlns:xlink="http://www.w3.org/1999/xlink" width="11" height="14" viewBox="0 0 11 14">
<path fill="#444444" d="M6.367 6.711q0.062 0.492-0.395 0.789t-0.871 0.047q-0.305-0.133-0.418-0.453t-0.004-0.641 0.406-0.453q0.281-0.141 0.566-0.094t0.5 0.277 0.215 0.527zM7.234 6.547q-0.109-0.836-0.883-1.281t-1.539-0.102q-0.492 0.219-0.785 0.691t-0.27 1.012q0.031 0.711 0.605 1.211t1.293 0.438q0.711-0.062 1.187-0.656t0.391-1.313zM9.102 2.313q-0.156-0.211-0.438-0.348t-0.453-0.172-0.555-0.098q-2.273-0.367-4.422 0.016-0.336 0.055-0.516 0.094t-0.43 0.172-0.391 0.336q0.234 0.219 0.594 0.355t0.574 0.172 0.684 0.090q1.781 0.227 3.5 0.008 0.492-0.062 0.699-0.094t0.566-0.168 0.586-0.363zM9.547 10.398q-0.062 0.203-0.121 0.598t-0.109 0.656-0.223 0.547-0.453 0.441q-0.672 0.375-1.48 0.559t-1.578 0.172-1.574-0.145q-0.359-0.062-0.637-0.141t-0.598-0.211-0.57-0.34-0.406-0.48q-0.195-0.75-0.445-2.281l0.047-0.125 0.141-0.070q1.742 1.156 3.957 1.156t3.965-1.156q0.164 0.047 0.187 0.18t-0.039 0.352-0.062 0.289zM10.961 2.891q-0.203 1.305-0.867 5.117-0.039 0.234-0.211 0.438t-0.34 0.312-0.426 0.242q-1.969 0.984-4.766 0.688-1.937-0.211-3.078-1.086-0.117-0.094-0.199-0.207t-0.133-0.273-0.070-0.266-0.047-0.309-0.043-0.273q-0.070-0.391-0.207-1.172t-0.219-1.262-0.184-1.152-0.172-1.234q0.023-0.203 0.137-0.379t0.246-0.293 0.352-0.234 0.359-0.176 0.375-0.145q0.977-0.359 2.445-0.5 2.961-0.289 5.281 0.391 1.211 0.359 1.68 0.953 0.125 0.156 0.129 0.398t-0.043 0.422z"></path>
</svg>
