<?xml version="1.0" encoding="utf-8"?>
<!-- Generated by IcoMoon.io -->
<!DOCTYPE svg PUBLIC "-//W3C//DTD SVG 1.1//EN" "http://www.w3.org/Graphics/SVG/1.1/DTD/svg11.dtd">
<svg version="1.1" xmlns="http://www.w3.org/2000/svg" xmlns:xlink="http://www.w3.org/1999/xlink" width="10" height="14" viewBox="0 0 10 14">
<path fill="#444444" d="M9.117 5q0.141 1.422-1.023 2.016 0.914 0.219 1.367 0.805t0.352 1.672q-0.055 0.555-0.254 0.977t-0.504 0.695-0.758 0.457-0.949 0.27-1.137 0.117v1.992h-1.203v-1.961q-0.625 0-0.953-0.008v1.969h-1.203v-1.992q-0.141 0-0.422-0.004t-0.43-0.004h-1.563l0.242-1.43h0.867q0.391 0 0.453-0.398v-3.141h0.125q-0.047-0.008-0.125-0.008v-2.242q-0.102-0.531-0.695-0.531h-0.867v-1.281l1.656 0.008q0.5 0 0.758-0.008v-1.969h1.203v1.93q0.641-0.016 0.953-0.016v-1.914h1.203v1.969q0.617 0.055 1.094 0.176t0.883 0.352 0.645 0.609 0.285 0.895zM7.438 9.258q0-0.281-0.117-0.5t-0.289-0.359-0.449-0.238-0.512-0.145-0.578-0.070-0.539-0.023-0.504 0.008-0.371 0.008v2.641q0.062 0 0.289 0.004t0.375 0.004 0.414-0.012 0.457-0.031 0.445-0.066 0.434-0.109 0.371-0.164 0.309-0.234 0.191-0.312 0.074-0.398zM6.883 5.539q0-0.258-0.098-0.457t-0.238-0.328-0.375-0.219-0.43-0.129-0.48-0.062-0.453-0.020-0.422 0.008-0.309 0.004v2.398q0.039 0 0.27 0.004t0.363 0 0.391-0.016 0.43-0.043 0.402-0.086 0.379-0.145 0.289-0.211 0.211-0.301 0.070-0.398z"></path>
</svg>
