<?xml version="1.0" encoding="utf-8"?>
<!-- Generated by IcoMoon.io -->
<!DOCTYPE svg PUBLIC "-//W3C//DTD SVG 1.1//EN" "http://www.w3.org/Graphics/SVG/1.1/DTD/svg11.dtd">
<svg version="1.1" xmlns="http://www.w3.org/2000/svg" xmlns:xlink="http://www.w3.org/1999/xlink" width="11" height="14" viewBox="0 0 11 14">
<path fill="#444444" d="M4.336 11.883q0.578 0.25 1.094 0.25 2.937 0 2.937-2.617 0-0.891-0.32-1.406-0.211-0.344-0.48-0.578t-0.527-0.363-0.629-0.195-0.656-0.082-0.738-0.016q-0.57 0-0.789 0.078 0 0.414-0.004 1.242t-0.004 1.234q0 0.062-0.008 0.527t-0.004 0.754 0.035 0.652 0.094 0.52zM4.227 6.055q0.328 0.055 0.852 0.055 0.641 0 1.117-0.102t0.859-0.348 0.582-0.699 0.199-1.109q0-0.547-0.227-0.957t-0.617-0.641-0.844-0.34-0.969-0.109q-0.391 0-1.016 0.102 0 0.391 0.031 1.18t0.031 1.187q0 0.211-0.004 0.625t-0.004 0.617q0 0.359 0.008 0.539zM0 13l0.016-0.734q0.117-0.031 0.664-0.125t0.828-0.211q0.055-0.094 0.098-0.211t0.066-0.262 0.043-0.254 0.023-0.293 0.004-0.266v-0.512q0-7.672-0.172-8.008-0.031-0.062-0.172-0.113t-0.348-0.086-0.387-0.055-0.379-0.035-0.238-0.023l-0.031-0.648q0.766-0.016 2.656-0.090t2.914-0.074q0.18 0 0.535 0.004t0.527 0.004q0.547 0 1.066 0.102t1.004 0.328 0.844 0.555 0.578 0.816 0.219 1.074q0 0.406-0.129 0.746t-0.305 0.563-0.504 0.449-0.57 0.352-0.656 0.312q1.203 0.273 2.004 1.047t0.801 1.937q0 0.781-0.273 1.402t-0.73 1.020-1.078 0.668-1.277 0.379-1.375 0.109q-0.344 0-1.031-0.023t-1.031-0.023q-0.828 0-2.398 0.086t-1.805 0.094z"></path>
</svg>
