<?xml version="1.0" encoding="utf-8"?>
<!-- Generated by IcoMoon.io -->
<!DOCTYPE svg PUBLIC "-//W3C//DTD SVG 1.1//EN" "http://www.w3.org/Graphics/SVG/1.1/DTD/svg11.dtd">
<svg version="1.1" xmlns="http://www.w3.org/2000/svg" xmlns:xlink="http://www.w3.org/1999/xlink" width="7" height="14" viewBox="0 0 7 14">
<path fill="#444444" d="M6.914 4.422q0.141 0.156 0.055 0.344l-4.219 9.039q-0.102 0.195-0.328 0.195-0.031 0-0.109-0.016-0.133-0.039-0.199-0.148t-0.035-0.234l1.539-6.312-3.172 0.789q-0.031 0.008-0.094 0.008-0.141 0-0.242-0.086-0.141-0.117-0.102-0.305l1.57-6.445q0.031-0.109 0.125-0.18t0.219-0.070h2.563q0.148 0 0.25 0.098t0.102 0.23q0 0.062-0.039 0.141l-1.336 3.617 3.094-0.766q0.062-0.016 0.094-0.016 0.148 0 0.266 0.117z"></path>
</svg>
