<?xml version="1.0" encoding="utf-8"?>
<!-- Generated by IcoMoon.io -->
<!DOCTYPE svg PUBLIC "-//W3C//DTD SVG 1.1//EN" "http://www.w3.org/Graphics/SVG/1.1/DTD/svg11.dtd">
<svg version="1.1" xmlns="http://www.w3.org/2000/svg" xmlns:xlink="http://www.w3.org/1999/xlink" width="14" height="14" viewBox="0 0 14 14">
<path fill="#444444" d="M4.461 4.602q-0.078-0.195-0.266-0.273t-0.383 0q-0.844 0.344-1.492 0.992t-0.992 1.492q-0.078 0.195 0 0.383t0.273 0.266q0.102 0.039 0.187 0.039 0.328 0 0.469-0.312 0.266-0.656 0.77-1.16t1.16-0.77q0.195-0.086 0.273-0.273t0-0.383zM11.82 1.82l0.359 0.359-1.906 1.898 0.531 0.531q0.148 0.148 0.148 0.355t-0.148 0.355l-0.5 0.5q0.695 1.258 0.695 2.68 0 1.117-0.434 2.137t-1.172 1.758-1.758 1.172-2.137 0.434-2.137-0.434-1.758-1.172-1.172-1.758-0.434-2.137 0.434-2.137 1.172-1.758 1.758-1.172 2.137-0.434q1.422 0 2.68 0.695l0.5-0.5q0.148-0.148 0.355-0.148t0.355 0.148l0.531 0.531zM11.883 1.383q-0.078 0.078-0.172 0.078-0.102 0-0.18-0.078l-0.711-0.703q-0.070-0.078-0.070-0.18t0.070-0.18q0.078-0.070 0.18-0.070t0.18 0.070l0.703 0.711q0.078 0.070 0.078 0.176t-0.078 0.176zM13.68 3.18q-0.086 0.070-0.18 0.070t-0.18-0.070l-0.703-0.711q-0.078-0.070-0.078-0.176t0.078-0.176q0.070-0.078 0.176-0.078t0.176 0.078l0.711 0.703q0.070 0.078 0.070 0.18t-0.070 0.18zM14 1.75q0 0.109-0.070 0.18t-0.18 0.070h-0.75q-0.109 0-0.18-0.070t-0.070-0.18 0.070-0.18 0.18-0.070h0.75q0.109 0 0.18 0.070t0.070 0.18zM12.5 0.25v0.75q0 0.109-0.070 0.18t-0.18 0.070-0.18-0.070-0.070-0.18v-0.75q0-0.109 0.070-0.18t0.18-0.070 0.18 0.070 0.070 0.18zM13.68 0.68l-0.711 0.703q-0.078 0.078-0.172 0.078-0.102 0-0.18-0.078-0.078-0.070-0.078-0.176t0.078-0.176l0.703-0.711q0.078-0.070 0.18-0.070t0.18 0.070q0.070 0.078 0.070 0.18t-0.070 0.18z"></path>
</svg>
