<?xml version="1.0" encoding="utf-8"?>
<!-- Generated by IcoMoon.io -->
<!DOCTYPE svg PUBLIC "-//W3C//DTD SVG 1.1//EN" "http://www.w3.org/Graphics/SVG/1.1/DTD/svg11.dtd">
<svg version="1.1" xmlns="http://www.w3.org/2000/svg" xmlns:xlink="http://www.w3.org/1999/xlink" width="14" height="14" viewBox="0 0 14 14">
<path fill="#444444" d="M5 2h4v-1h-4v1zM14 7v3.75q0 0.516-0.367 0.883t-0.883 0.367h-11.5q-0.516 0-0.883-0.367t-0.367-0.883v-3.75h5.25v1.25q0 0.203 0.148 0.352t0.352 0.148h2.5q0.203 0 0.352-0.148t0.148-0.352v-1.25h5.25zM8 7v1h-2v-1h2zM14 3.25v3h-14v-3q0-0.516 0.367-0.883t0.883-0.367h2.75v-1.25q0-0.312 0.219-0.531t0.531-0.219h4.5q0.312 0 0.531 0.219t0.219 0.531v1.25h2.75q0.516 0 0.883 0.367t0.367 0.883z"></path>
</svg>
