<?xml version="1.0" encoding="utf-8"?>
<!-- Generated by IcoMoon.io -->
<!DOCTYPE svg PUBLIC "-//W3C//DTD SVG 1.1//EN" "http://www.w3.org/Graphics/SVG/1.1/DTD/svg11.dtd">
<svg version="1.1" xmlns="http://www.w3.org/2000/svg" xmlns:xlink="http://www.w3.org/1999/xlink" width="13" height="14" viewBox="0 0 13 14">
<path fill="#444444" d="M12.75 7.5q0 0.203-0.148 0.352t-0.352 0.148h-1.75q0 1.336-0.523 2.266l1.625 1.633q0.148 0.148 0.148 0.352t-0.148 0.352q-0.141 0.148-0.352 0.148t-0.352-0.148l-1.547-1.539q-0.039 0.039-0.117 0.102t-0.328 0.223-0.508 0.285-0.641 0.227-0.758 0.102v-7h-1v7q-0.398 0-0.793-0.105t-0.68-0.258-0.516-0.305-0.34-0.254l-0.117-0.109-1.43 1.617q-0.156 0.164-0.375 0.164-0.187 0-0.336-0.125-0.148-0.141-0.16-0.348t0.121-0.363l1.578-1.773q-0.453-0.891-0.453-2.141h-1.75q-0.203 0-0.352-0.148t-0.148-0.352 0.148-0.352 0.352-0.148h1.75v-2.297l-1.352-1.352q-0.148-0.148-0.148-0.352t0.148-0.352 0.352-0.148 0.352 0.148l1.352 1.352h6.594l1.352-1.352q0.148-0.148 0.352-0.148t0.352 0.148 0.148 0.352-0.148 0.352l-1.352 1.352v2.297h1.75q0.203 0 0.352 0.148t0.148 0.352zM9 3h-5q0-1.039 0.73-1.77t1.77-0.73 1.77 0.73 0.73 1.77z"></path>
</svg>
