<?xml version="1.0" encoding="utf-8"?>
<!-- Generated by IcoMoon.io -->
<!DOCTYPE svg PUBLIC "-//W3C//DTD SVG 1.1//EN" "http://www.w3.org/Graphics/SVG/1.1/DTD/svg11.dtd">
<svg version="1.1" xmlns="http://www.w3.org/2000/svg" xmlns:xlink="http://www.w3.org/1999/xlink" width="12" height="14" viewBox="0 0 12 14">
<path fill="#444444" d="M3 9.5q0-0.414-0.293-0.707t-0.707-0.293-0.707 0.293-0.293 0.707 0.293 0.707 0.707 0.293 0.707-0.293 0.293-0.707zM11 9.5q0-0.414-0.293-0.707t-0.707-0.293-0.707 0.293-0.293 0.707 0.293 0.707 0.707 0.293 0.707-0.293 0.293-0.707zM10.641 6.406l-0.563-3q-0.039-0.18-0.176-0.293t-0.316-0.113h-7.172q-0.18 0-0.316 0.113t-0.176 0.293l-0.563 3q-0.039 0.234 0.109 0.414t0.383 0.18h8.297q0.234 0 0.383-0.18t0.109-0.414zM8.875 1.625q0-0.156-0.109-0.266t-0.266-0.109h-5q-0.156 0-0.266 0.109t-0.109 0.266 0.109 0.266 0.266 0.109h5q0.156 0 0.266-0.109t0.109-0.266zM12 7.289v4.711h-1v1q0 0.414-0.293 0.707t-0.707 0.293-0.707-0.293-0.293-0.707v-1h-6v1q0 0.414-0.293 0.707t-0.707 0.293-0.707-0.293-0.293-0.707v-1h-1v-4.711q0-0.875 0.195-1.742l0.805-3.547q0.070-0.609 0.762-1.070t1.797-0.695 2.441-0.234 2.441 0.234 1.797 0.695 0.762 1.070l0.82 3.547q0.18 0.797 0.18 1.742z"></path>
</svg>
