<?xml version="1.0" encoding="utf-8"?>
<!-- Generated by IcoMoon.io -->
<!DOCTYPE svg PUBLIC "-//W3C//DTD SVG 1.1//EN" "http://www.w3.org/Graphics/SVG/1.1/DTD/svg11.dtd">
<svg version="1.1" xmlns="http://www.w3.org/2000/svg" xmlns:xlink="http://www.w3.org/1999/xlink" width="12" height="14" viewBox="0 0 12 14">
<path fill="#444444" d="M8 4.5v5q0 0.203-0.148 0.352t-0.352 0.148q-0.156 0-0.289-0.094l-3.5-2.5q-0.211-0.148-0.211-0.406t0.211-0.406l3.5-2.5q0.133-0.094 0.289-0.094 0.203 0 0.352 0.148t0.148 0.352zM10 10.75v-7.5q0-0.102-0.074-0.176t-0.176-0.074h-7.5q-0.102 0-0.176 0.074t-0.074 0.176v7.5q0 0.102 0.074 0.176t0.176 0.074h7.5q0.102 0 0.176-0.074t0.074-0.176zM12 3.25v7.5q0 0.93-0.66 1.59t-1.59 0.66h-7.5q-0.93 0-1.59-0.66t-0.66-1.59v-7.5q0-0.93 0.66-1.59t1.59-0.66h7.5q0.93 0 1.59 0.66t0.66 1.59z"></path>
</svg>
