<?xml version="1.0" encoding="utf-8"?>
<!-- Generated by IcoMoon.io -->
<!DOCTYPE svg PUBLIC "-//W3C//DTD SVG 1.1//EN" "http://www.w3.org/Graphics/SVG/1.1/DTD/svg11.dtd">
<svg version="1.1" xmlns="http://www.w3.org/2000/svg" xmlns:xlink="http://www.w3.org/1999/xlink" width="13" height="14" viewBox="0 0 13 14">
<path fill="#444444" d="M9.5 5.5q0-0.203-0.148-0.352t-0.352-0.148h-1v-1q0-0.203-0.148-0.352t-0.352-0.148-0.352 0.148-0.148 0.352v1h-1q-0.203 0-0.352 0.148t-0.148 0.352 0.148 0.352 0.352 0.148h1v1q0 0.203 0.148 0.352t0.352 0.148 0.352-0.148 0.148-0.352v-1h1q0.203 0 0.352-0.148t0.148-0.352zM5 12q0 0.414-0.293 0.707t-0.707 0.293-0.707-0.293-0.293-0.707 0.293-0.707 0.707-0.293 0.707 0.293 0.293 0.707zM12 12q0 0.414-0.293 0.707t-0.707 0.293-0.707-0.293-0.293-0.707 0.293-0.707 0.707-0.293 0.707 0.293 0.293 0.707zM13 3.5v4q0 0.187-0.125 0.332t-0.32 0.168l-8.156 0.953q0.008 0.055 0.035 0.168t0.047 0.207 0.020 0.172q0 0.125-0.187 0.5h7.187q0.203 0 0.352 0.148t0.148 0.352-0.148 0.352-0.352 0.148h-8q-0.203 0-0.352-0.148t-0.148-0.352q0-0.109 0.086-0.309t0.23-0.465 0.16-0.297l-1.383-6.43h-1.594q-0.203 0-0.352-0.148t-0.148-0.352 0.148-0.352 0.352-0.148h2q0.125 0 0.223 0.051t0.156 0.121 0.102 0.191 0.059 0.207 0.043 0.23 0.035 0.199h9.383q0.203 0 0.352 0.148t0.148 0.352z"></path>
</svg>
