<?xml version="1.0" encoding="utf-8"?>
<!-- Generated by IcoMoon.io -->
<!DOCTYPE svg PUBLIC "-//W3C//DTD SVG 1.1//EN" "http://www.w3.org/Graphics/SVG/1.1/DTD/svg11.dtd">
<svg version="1.1" xmlns="http://www.w3.org/2000/svg" xmlns:xlink="http://www.w3.org/1999/xlink" width="18" height="14" viewBox="0 0 18 14">
<path fill="#444444" d="M0.93 5.328h0.695l-0.352-0.844zM5.781 9.438l0.578-0.617-0.547-0.617h-1.273v0.383h1.109v0.43h-1.109v0.422h1.242zM7.016 8.828l0.773 0.859v-1.695zM9.266 8.461q0-0.258-0.312-0.258h-0.656v0.539h0.648q0.32 0 0.32-0.281zM11.523 8.43q0-0.227-0.328-0.227h-0.641v0.477h0.633q0.336 0 0.336-0.25zM9.352 4.789q0-0.227-0.328-0.227h-0.641v0.469h0.633q0.336 0 0.336-0.242zM12.938 5.328h0.695l-0.344-0.844zM5.461 4.117v2.117h-0.516v-1.656l-0.734 1.656h-0.445l-0.734-1.656v1.656h-1.031l-0.195-0.469h-1.055l-0.195 0.469h-0.547l0.906-2.117h0.75l0.859 2.008v-2.008h0.828l0.664 1.438 0.602-1.438h0.844zM9.805 8.461q0 0.156-0.043 0.273t-0.109 0.195-0.176 0.129-0.203 0.078-0.246 0.035-0.246 0.008-0.254-0.004-0.23-0.004v0.711h-0.984l-0.625-0.703-0.648 0.703h-2v-2.117h2.031l0.625 0.695 0.641-0.695h1.617q0.852 0 0.852 0.695zM7.531 5.797v0.438h-1.695v-2.117h1.695v0.445h-1.187v0.383h1.156v0.43h-1.156v0.422h1.187zM18 10.164v1.789q0 0.43-0.301 0.738t-0.73 0.309h-15.937q-0.43 0-0.73-0.309t-0.301-0.738v-5.297h0.867l0.195-0.477h0.43l0.195 0.477h1.703v-0.359l0.148 0.359h0.883l0.156-0.367v0.367h4.227v-0.773l0.078-0.008q0.078 0 0.078 0.109v0.672h2.18v-0.18q0.18 0.094 0.43 0.141t0.41 0.051 0.492-0.004 0.402-0.008l0.195-0.477h0.438l0.195 0.477h1.773v-0.453l0.266 0.453h1.422v-2.953h-1.406v0.344l-0.195-0.344h-1.445v0.344l-0.18-0.344h-1.945q-0.539 0-0.852 0.172v-0.172h-1.344v0.172q-0.187-0.172-0.57-0.172h-4.906l-0.336 0.758-0.336-0.758h-1.547v0.344l-0.172-0.344h-1.32l-0.609 1.398v-3.055q0-0.43 0.301-0.738t0.73-0.309h15.937q0.43 0 0.73 0.309t0.301 0.738v5.297h-0.937q-0.398 0-0.633 0.172v-0.172h-1.383q-0.43 0-0.609 0.172v-0.172h-2.469v0.172q-0.242-0.172-0.68-0.172h-1.633v0.172q-0.18-0.172-0.711-0.172h-1.828l-0.422 0.453-0.391-0.453h-2.727v2.953h2.68l0.43-0.461 0.406 0.461h1.648v-0.695h0.164q0.461 0 0.703-0.102v0.797h1.359v-0.773h0.062q0.062 0 0.078 0.016t0.016 0.078v0.68h4.133q0.445 0 0.688-0.187v0.187h1.313q0.469 0 0.742-0.133zM12.078 8.336q0 0.18-0.094 0.336t-0.266 0.227q0.195 0.070 0.266 0.203t0.070 0.359v0.422h-0.508v-0.352q0-0.258-0.094-0.34t-0.359-0.082h-0.539v0.773h-0.508v-2.117h1.203q0.375 0 0.602 0.117t0.227 0.453zM9.914 4.687q0 0.187-0.098 0.344t-0.262 0.227q0.203 0.070 0.27 0.199t0.066 0.363v0.414h-0.508q0-0.070 0.004-0.207t0-0.195-0.023-0.145-0.066-0.125-0.137-0.066-0.23-0.027h-0.547v0.766h-0.5v-2.117l1.195 0.008q0.383 0 0.609 0.113t0.227 0.449zM14.047 9.445v0.438h-1.688v-2.117h1.688v0.438h-1.18v0.383h1.156v0.43h-1.156v0.422zM10.719 4.117v2.117h-0.516v-2.117h0.516zM16.133 9.211q0 0.672-0.797 0.672h-0.984v-0.453h0.984q0.266 0 0.266-0.195 0-0.125-0.133-0.164t-0.324-0.039-0.387-0.027-0.328-0.176-0.133-0.43q0-0.305 0.203-0.469t0.516-0.164h1.016v0.445h-0.93q-0.281 0-0.281 0.195 0 0.125 0.137 0.16t0.328 0.031 0.383 0.020 0.328 0.168 0.137 0.426zM18 8.82v0.789q-0.187 0.273-0.688 0.273h-0.977v-0.453h0.977q0.258 0 0.258-0.195 0-0.102-0.098-0.148t-0.242-0.043-0.312-0.016-0.312-0.062-0.242-0.187-0.098-0.379q0-0.305 0.207-0.469t0.52-0.164h1.008v0.445h-0.922q-0.281 0-0.281 0.195 0 0.156 0.227 0.172t0.535 0.039 0.441 0.203zM16.711 4.125v2.109h-0.719l-0.953-1.586v1.586h-1.031l-0.203-0.469h-1.047l-0.195 0.469h-0.586q-1.008 0-1.008-1.039 0-1.078 1.039-1.078h0.492v0.461q-0.055 0-0.219-0.008t-0.223-0.004-0.18 0.016-0.168 0.051-0.113 0.105-0.090 0.18-0.023 0.262q0 0.297 0.105 0.453t0.387 0.156h0.227l0.719-1.664h0.758l0.852 2v-2h0.773l0.891 1.469v-1.469h0.516z"></path>
</svg>
