<?xml version="1.0" encoding="utf-8"?>
<!-- Generated by IcoMoon.io -->
<!DOCTYPE svg PUBLIC "-//W3C//DTD SVG 1.1//EN" "http://www.w3.org/Graphics/SVG/1.1/DTD/svg11.dtd">
<svg version="1.1" xmlns="http://www.w3.org/2000/svg" xmlns:xlink="http://www.w3.org/1999/xlink" width="18" height="14" viewBox="0 0 18 14">
<path fill="#444444" d="M6.703 9.695v-5.414q-0.828 0.32-1.344 1.059t-0.516 1.652 0.516 1.652 1.344 1.051zM10.641 6.992q0-0.914-0.516-1.652t-1.344-1.059v5.422q0.828-0.32 1.344-1.059t0.516-1.652zM12.32 6.992q0 1.242-0.613 2.297t-1.668 1.668-2.297 0.613q-0.93 0-1.777-0.363t-1.461-0.977-0.977-1.461-0.363-1.777q0-1.242 0.613-2.297t1.668-1.668 2.297-0.613 2.297 0.613 1.668 1.668 0.613 2.297zM15.313 7.047q0-1.086-0.434-2.043t-1.152-1.605-1.668-1.023-1.973-0.375h-2.352q-1.375 0-2.527 0.633t-1.836 1.797-0.684 2.617q0 1.336 0.68 2.48t1.844 1.809 2.523 0.664h2.352q1.008 0 1.965-0.395t1.676-1.055 1.152-1.582 0.434-1.922zM18 2v10q0 0.406-0.297 0.703t-0.703 0.297h-16q-0.406 0-0.703-0.297t-0.297-0.703v-10q0-0.406 0.297-0.703t0.703-0.297h16q0.406 0 0.703 0.297t0.297 0.703z"></path>
</svg>
