<?xml version="1.0" encoding="utf-8"?>
<!-- Generated by IcoMoon.io -->
<!DOCTYPE svg PUBLIC "-//W3C//DTD SVG 1.1//EN" "http://www.w3.org/Graphics/SVG/1.1/DTD/svg11.dtd">
<svg version="1.1" xmlns="http://www.w3.org/2000/svg" xmlns:xlink="http://www.w3.org/1999/xlink" width="18" height="14" viewBox="0 0 18 14">
<path fill="#444444" d="M2.445 6.070q0 0.398-0.281 0.656-0.227 0.203-0.695 0.203h-0.133v-1.719h0.133q0.477 0 0.695 0.211 0.281 0.242 0.281 0.648zM16.32 5.562q0 0.406-0.5 0.406h-0.148v-0.789h0.156q0.492 0 0.492 0.383zM2.969 6.070q0-0.578-0.391-0.941t-1.008-0.363h-0.742v2.602h0.742q0.578 0 0.93-0.297 0.469-0.398 0.469-1zM3.203 7.367h0.508v-2.602h-0.508v2.602zM5.703 6.578q0-0.312-0.16-0.484t-0.59-0.328q-0.227-0.078-0.309-0.148t-0.082-0.18q0-0.125 0.105-0.207t0.27-0.082q0.227 0 0.414 0.211l0.266-0.344q-0.32-0.289-0.766-0.289-0.344 0-0.578 0.215t-0.234 0.527q0 0.273 0.141 0.434t0.5 0.285q0.289 0.102 0.352 0.148 0.148 0.094 0.148 0.266 0 0.156-0.109 0.262t-0.281 0.105q-0.375 0-0.555-0.344l-0.328 0.312q0.344 0.5 0.898 0.5 0.398 0 0.648-0.238t0.25-0.621zM7.875 7.281v-0.602q-0.289 0.289-0.609 0.289-0.383 0-0.629-0.254t-0.246-0.645q0-0.375 0.246-0.637t0.605-0.262q0.336 0 0.633 0.297v-0.602q-0.312-0.156-0.625-0.156-0.578 0-0.98 0.395t-0.402 0.965 0.398 0.965 0.977 0.395q0.328 0 0.633-0.148zM17.5 12v-4.117q-0.508 0.312-1.129 0.656t-1.855 0.914-2.574 1.074-3.262 1.051-3.938 0.922h12.258q0.203 0 0.352-0.148t0.148-0.352zM10.852 6.086q0-0.586-0.414-1t-1-0.414-1 0.414-0.414 1 0.414 1 1 0.414 1-0.414 0.414-1zM12.039 7.438l1.125-2.672h-0.555l-0.703 1.75-0.695-1.75h-0.555l1.109 2.672h0.273zM13.391 7.367h1.438v-0.438h-0.93v-0.703h0.898v-0.438h-0.898v-0.578h0.93v-0.445h-1.438v2.602zM16.445 7.367h0.625l-0.82-1.094q0.594-0.125 0.594-0.734 0-0.367-0.242-0.57t-0.68-0.203h-0.758v2.602h0.508v-1.039h0.070zM18 2.047v9.906q0 0.438-0.301 0.742t-0.73 0.305h-15.937q-0.43 0-0.73-0.305t-0.301-0.742v-9.906q0-0.438 0.301-0.742t0.73-0.305h15.937q0.43 0 0.73 0.305t0.301 0.742z"></path>
</svg>
