<?xml version="1.0" encoding="utf-8"?>
<!-- Generated by IcoMoon.io -->
<!DOCTYPE svg PUBLIC "-//W3C//DTD SVG 1.1//EN" "http://www.w3.org/Graphics/SVG/1.1/DTD/svg11.dtd">
<svg version="1.1" xmlns="http://www.w3.org/2000/svg" xmlns:xlink="http://www.w3.org/1999/xlink" width="18" height="14" viewBox="0 0 18 14">
<path fill="#444444" d="M15.242 7.797q0 0.203-0.121 0.348t-0.301 0.184q-0.062 0.016-0.141 0.016h-1.195v-1.094h1.195q0.078 0 0.141 0.016 0.18 0.039 0.301 0.184t0.121 0.348zM15.102 6.133q0 0.195-0.117 0.328t-0.297 0.164q-0.023 0.008-0.117 0.008h-1.086v-1.008h1.086q0.023 0 0.066 0.004t0.051 0.004q0.18 0.031 0.297 0.168t0.117 0.332zM5.688 7.414v-2.406h-1.781v2.406q0 0.453-0.297 0.738t-0.82 0.285q-0.844 0-1.789-0.461v0.875q0.414 0.117 0.945 0.18t0.852 0.070l0.328 0.008q2.563 0 2.563-1.695zM11.266 8.852v-0.883q-0.773 0.406-1.563 0.461-0.844 0.062-1.32-0.32t-0.477-1.109 0.477-1.109 1.32-0.32q0.789 0.055 1.563 0.453v-0.875q-0.375-0.094-0.781-0.152t-0.625-0.074l-0.219-0.016q-0.992-0.047-1.707 0.109t-1.098 0.469-0.555 0.688-0.172 0.828 0.172 0.828 0.555 0.688 1.098 0.469 1.707 0.109q0.789-0.031 1.625-0.242zM17 7.953q0-0.422-0.336-0.691t-0.852-0.309v-0.023q0.445-0.062 0.695-0.324t0.25-0.621q0-0.43-0.32-0.688t-0.836-0.281q-0.023 0-0.094-0.004t-0.109-0.004h-3.555v3.984h3.836q0.578 0 0.949-0.285t0.371-0.754zM18 2v10q0 0.406-0.297 0.703t-0.703 0.297h-16q-0.406 0-0.703-0.297t-0.297-0.703v-10q0-0.406 0.297-0.703t0.703-0.297h16q0.406 0 0.703 0.297t0.297 0.703z"></path>
</svg>
