<?xml version="1.0" encoding="utf-8"?>
<!-- Generated by IcoMoon.io -->
<!DOCTYPE svg PUBLIC "-//W3C//DTD SVG 1.1//EN" "http://www.w3.org/Graphics/SVG/1.1/DTD/svg11.dtd">
<svg version="1.1" xmlns="http://www.w3.org/2000/svg" xmlns:xlink="http://www.w3.org/1999/xlink" width="18" height="14" viewBox="0 0 18 14">
<path fill="#444444" d="M5.242 7.289h-0.102q-0.367 0-0.367 0.25 0 0.172 0.156 0.172 0.133 0 0.219-0.117t0.094-0.305zM8.328 7.008h0.484v-0.023q0.008-0.031 0.004-0.051t-0.008-0.055-0.016-0.062-0.035-0.051-0.059-0.039-0.090-0.016q-0.219 0-0.281 0.297zM12.547 7.289h-0.094q-0.375 0-0.375 0.25 0 0.172 0.156 0.172 0.133 0 0.219-0.117t0.094-0.305zM15.039 7.086q0-0.32-0.234-0.32-0.148 0-0.242 0.156t-0.094 0.398q0 0.328 0.219 0.328 0.156 0 0.254-0.156t0.098-0.406zM3.75 5.984h0.68l-0.344 2.047h-0.438l0.25-1.57-0.555 1.57h-0.305l-0.031-1.563-0.266 1.563h-0.414l0.344-2.047h0.633l0.016 1.273zM5.727 6.82q0 0.047-0.031 0.328-0.125 0.789-0.133 0.883h-0.367l0.008-0.172q-0.156 0.203-0.453 0.203-0.18 0-0.293-0.125t-0.113-0.328q0-0.305 0.203-0.473t0.57-0.168q0.109 0 0.18 0.008 0-0.023 0.004-0.043t0.008-0.035 0.004-0.023q0-0.156-0.281-0.156-0.227 0-0.461 0.078 0-0.031 0.055-0.375 0.297-0.086 0.523-0.086 0.578 0 0.578 0.484zM6.945 6.367l-0.062 0.383q-0.172-0.023-0.32-0.023-0.211 0-0.211 0.133 0 0.062 0.035 0.094t0.168 0.086q0.312 0.148 0.312 0.469 0 0.563-0.68 0.555-0.266 0-0.453-0.047 0-0.016 0.055-0.383 0.227 0.062 0.398 0.062 0.25 0 0.25-0.148 0-0.055-0.035-0.090t-0.168-0.098q-0.336-0.156-0.336-0.461 0-0.563 0.656-0.563 0.234 0 0.391 0.031zM7.633 6.367h0.219l-0.055 0.406h-0.227q-0.016 0.133-0.051 0.316t-0.055 0.301-0.020 0.141q0 0.125 0.148 0.125 0.062 0 0.125-0.016l-0.062 0.367q-0.164 0.055-0.312 0.055-0.336 0-0.352-0.367 0-0.094 0.062-0.438 0.023-0.156 0.195-1.141h0.43zM9.219 6.938q0 0.18-0.055 0.406h-0.867q-0.023 0.172 0.078 0.258t0.297 0.086q0.234 0 0.453-0.109l-0.070 0.422q-0.234 0.062-0.445 0.062-0.742 0-0.742-0.742 0-0.43 0.215-0.707t0.543-0.277q0.273 0 0.434 0.164t0.16 0.438zM10.305 6.359q-0.102 0.18-0.172 0.484-0.172-0.016-0.242 0.187t-0.195 1h-0.438l0.023-0.109q0.172-1.016 0.227-1.555h0.398l-0.023 0.258q0.109-0.164 0.199-0.23t0.223-0.035zM11.766 6.039l-0.070 0.445q-0.219-0.109-0.391-0.109-0.242 0-0.398 0.215t-0.156 0.551q0 0.234 0.105 0.367t0.301 0.133q0.164 0 0.375-0.102l-0.078 0.461q-0.219 0.062-0.391 0.062-0.352 0-0.559-0.238t-0.207-0.645q0-0.547 0.277-0.895t0.715-0.348q0.203 0 0.477 0.102zM13.031 6.82q0 0.141-0.031 0.328-0.102 0.617-0.133 0.883h-0.359l0.008-0.172q-0.156 0.203-0.461 0.203-0.18 0-0.289-0.125t-0.109-0.328q0-0.305 0.199-0.473t0.566-0.168q0.117 0 0.18 0.008 0.016-0.055 0.016-0.102 0-0.156-0.281-0.156-0.227 0-0.461 0.078 0-0.031 0.062-0.375 0.297-0.086 0.523-0.086 0.57 0 0.57 0.484zM14.133 6.359q-0.109 0.187-0.164 0.484-0.18-0.016-0.246 0.18t-0.199 1.008h-0.438l0.023-0.109q0.148-0.813 0.227-1.555h0.406q0 0.086-0.031 0.258 0.117-0.164 0.207-0.23t0.215-0.035zM15.234 5.984h0.438l-0.336 2.047h-0.414l0.023-0.148q-0.18 0.18-0.406 0.18-0.242 0-0.387-0.187t-0.145-0.5q0-0.414 0.215-0.719t0.504-0.305q0.242 0 0.414 0.227zM16.102 7q0-1.156-0.566-2.133t-1.547-1.547-2.137-0.57q-1.414 0-2.563 0.859 0.992 0.906 1.336 2.219h-0.391q-0.344-1.172-1.234-1.977-0.891 0.805-1.234 1.977h-0.391q0.344-1.313 1.336-2.219-1.148-0.859-2.563-0.859-1.156 0-2.137 0.57t-1.547 1.547-0.566 2.133 0.566 2.133 1.547 1.547 2.137 0.57q1.414 0 2.563-0.859-0.937-0.867-1.289-2.062h0.391q0.359 1.078 1.187 1.82 0.828-0.742 1.187-1.82h0.391q-0.352 1.195-1.289 2.062 1.148 0.859 2.563 0.859 1.156 0 2.137-0.57t1.547-1.547 0.566-2.133zM18 2v10q0 0.406-0.297 0.703t-0.703 0.297h-16q-0.406 0-0.703-0.297t-0.297-0.703v-10q0-0.406 0.297-0.703t0.703-0.297h16q0.406 0 0.703 0.297t0.297 0.703z"></path>
</svg>
