<?xml version="1.0" encoding="utf-8"?>
<!-- Generated by IcoMoon.io -->
<!DOCTYPE svg PUBLIC "-//W3C//DTD SVG 1.1//EN" "http://www.w3.org/Graphics/SVG/1.1/DTD/svg11.dtd">
<svg version="1.1" xmlns="http://www.w3.org/2000/svg" xmlns:xlink="http://www.w3.org/1999/xlink" width="18" height="14" viewBox="0 0 18 14">
<path fill="#444444" d="M5.82 7.078q0 0.289-0.199 0.48t-0.488 0.191q-0.227 0-0.363-0.125t-0.137-0.344q0-0.289 0.195-0.488t0.484-0.199q0.219 0 0.363 0.129t0.145 0.355zM11.953 5.914q0 0.328-0.172 0.445t-0.516 0.117l-0.25 0.008 0.133-0.836q0.016-0.086 0.102-0.086h0.141q0.172 0 0.273 0.016t0.195 0.098 0.094 0.238zM14.695 7.078q0 0.281-0.199 0.477t-0.48 0.195q-0.227 0-0.367-0.125t-0.141-0.344q0-0.289 0.195-0.488t0.484-0.199q0.219 0 0.363 0.129t0.145 0.355zM4.008 5.742q0-0.461-0.301-0.668t-0.785-0.207h-1.25q-0.148 0-0.164 0.148l-0.508 3.188q-0.008 0.047 0.023 0.086t0.078 0.039h0.594q0.156 0 0.172-0.148l0.141-0.859q0.008-0.062 0.055-0.102t0.117-0.051 0.133-0.012 0.148 0.008 0.109 0.008q0.672 0 1.055-0.379t0.383-1.051zM6.422 8.18l0.32-2.039q0.008-0.047-0.023-0.086t-0.078-0.039h-0.594q-0.109 0-0.133 0.258-0.211-0.312-0.742-0.312-0.563 0-0.957 0.422t-0.395 0.992q0 0.461 0.27 0.734t0.723 0.273q0.219 0 0.453-0.094t0.375-0.25q-0.031 0.094-0.031 0.164 0 0.125 0.102 0.125h0.539q0.148 0 0.172-0.148zM9.914 6.125q0-0.039-0.031-0.074t-0.070-0.035h-0.602q-0.086 0-0.141 0.078l-0.828 1.219-0.344-1.172q-0.039-0.125-0.172-0.125h-0.586q-0.039 0-0.070 0.035t-0.031 0.074q0 0.016 0.152 0.461t0.328 0.961 0.184 0.547q-0.641 0.875-0.641 0.937 0 0.102 0.102 0.102h0.602q0.086 0 0.141-0.078l1.992-2.875q0.016-0.016 0.016-0.055zM12.883 5.742q0-0.461-0.301-0.668t-0.785-0.207h-1.242q-0.156 0-0.172 0.148l-0.508 3.188q-0.008 0.047 0.023 0.086t0.078 0.039h0.641q0.094 0 0.125-0.102l0.141-0.906q0.008-0.062 0.055-0.102t0.117-0.051 0.133-0.012 0.148 0.008 0.109 0.008q0.672 0 1.055-0.379t0.383-1.051zM15.297 8.18l0.32-2.039q0.008-0.047-0.023-0.086t-0.078-0.039h-0.594q-0.109 0-0.133 0.258-0.203-0.312-0.742-0.312-0.563 0-0.957 0.422t-0.395 0.992q0 0.461 0.27 0.734t0.723 0.273q0.227 0 0.461-0.094t0.367-0.25q0 0.008-0.016 0.070t-0.016 0.094q0 0.125 0.102 0.125h0.539q0.148 0 0.172-0.148zM17 4.984v-0.008q0-0.109-0.102-0.109h-0.578q-0.086 0-0.102 0.086l-0.508 3.25-0.008 0.016q0 0.039 0.031 0.074t0.078 0.035h0.516q0.148 0 0.164-0.148zM3.063 6.031q-0.039 0.273-0.203 0.359t-0.469 0.086l-0.258 0.008 0.133-0.836q0.016-0.086 0.102-0.086h0.148q0.312 0 0.453 0.090t0.094 0.379zM18 2v10q0 0.406-0.297 0.703t-0.703 0.297h-16q-0.406 0-0.703-0.297t-0.297-0.703v-10q0-0.406 0.297-0.703t0.703-0.297h16q0.406 0 0.703 0.297t0.297 0.703z"></path>
</svg>
