<?xml version="1.0" encoding="utf-8"?>
<!-- Generated by IcoMoon.io -->
<!DOCTYPE svg PUBLIC "-//W3C//DTD SVG 1.1//EN" "http://www.w3.org/Graphics/SVG/1.1/DTD/svg11.dtd">
<svg version="1.1" xmlns="http://www.w3.org/2000/svg" xmlns:xlink="http://www.w3.org/1999/xlink" width="18" height="14" viewBox="0 0 18 14">
<path fill="#444444" d="M12.477 7.055q0 0.539-0.164 0.828-0.148 0.273-0.406 0.273-0.18 0-0.32-0.070v-1.75q0.227-0.234 0.445-0.234 0.445 0 0.445 0.953zM15.898 6.773h-0.859q0.047-0.766 0.438-0.766 0.398 0 0.422 0.766zM3.719 7.828q0-0.461-0.258-0.715t-0.789-0.449q-0.281-0.102-0.406-0.187t-0.125-0.195q0-0.203 0.297-0.203 0.453 0 0.969 0.258l0.141-0.875q-0.523-0.25-1.164-0.25-0.602 0-0.961 0.297-0.375 0.305-0.375 0.852 0 0.453 0.254 0.707t0.777 0.441q0.305 0.109 0.426 0.199t0.121 0.215q0 0.242-0.375 0.242-0.227 0-0.547-0.098t-0.563-0.238l-0.141 0.883q0.563 0.32 1.312 0.32 0.633 0 1.008-0.289 0.398-0.32 0.398-0.914zM6.023 6.148l0.148-0.867h-0.75v-1.055l-1.008 0.164-0.141 0.891-0.359 0.062-0.133 0.805h0.484v1.711q0 0.656 0.344 0.937 0.297 0.234 0.867 0.234 0.25 0 0.617-0.086v-0.922q-0.25 0.055-0.344 0.055-0.328 0-0.328-0.391v-1.539h0.602zM8.492 6.344v-1.086q-0.117-0.023-0.219-0.023-0.25 0-0.434 0.125t-0.262 0.359l-0.078-0.438h-1.023v3.68h1.172v-2.391q0.203-0.242 0.641-0.242 0.125 0 0.203 0.016zM8.781 8.961h1.172v-3.68h-1.172v3.68zM13.641 7.016q0-0.953-0.352-1.398-0.312-0.406-0.867-0.406-0.5 0-0.914 0.438l-0.062-0.367h-1.031v5.039l1.172-0.195v-1.18q0.281 0.086 0.531 0.086 0.648 0 1.047-0.438 0.477-0.508 0.477-1.578zM9.984 4.297q0-0.258-0.18-0.438t-0.438-0.18-0.438 0.18-0.18 0.438 0.18 0.441 0.438 0.184 0.438-0.184 0.18-0.441zM17 7.086q0-0.883-0.375-1.375-0.391-0.5-1.125-0.5-0.75 0-1.184 0.516t-0.434 1.406q0 1 0.492 1.469 0.43 0.43 1.258 0.43 0.789 0 1.25-0.312l-0.125-0.805q-0.445 0.242-1 0.242-0.336 0-0.492-0.148-0.18-0.148-0.219-0.516h1.937q0.016-0.109 0.016-0.406zM18 2v10q0 0.406-0.297 0.703t-0.703 0.297h-16q-0.406 0-0.703-0.297t-0.297-0.703v-10q0-0.406 0.297-0.703t0.703-0.297h16q0.406 0 0.703 0.297t0.297 0.703z"></path>
</svg>
