<?xml version="1.0" encoding="utf-8"?>
<!-- Generated by IcoMoon.io -->
<!DOCTYPE svg PUBLIC "-//W3C//DTD SVG 1.1//EN" "http://www.w3.org/Graphics/SVG/1.1/DTD/svg11.dtd">
<svg version="1.1" xmlns="http://www.w3.org/2000/svg" xmlns:xlink="http://www.w3.org/1999/xlink" width="18" height="14" viewBox="0 0 18 14">
<path fill="#444444" d="M15.43 7.734h-1.078q0.109-0.289 0.516-1.398l0.023-0.070q0.031-0.078 0.078-0.203t0.070-0.203l0.094 0.43zM4.148 7.227l-0.453-2.305q-0.086-0.422-0.586-0.422h-2.094l-0.016 0.102q2.43 0.617 3.148 2.625zM5.547 4.5l-1.266 3.422-0.133-0.695q-0.203-0.547-0.664-1.012t-1.023-0.691l1.055 3.984h1.367l2.039-5.008h-1.375zM6.633 9.516h1.297l0.813-5.016h-1.297zM12.633 4.625q-0.539-0.211-1.164-0.211-0.961 0-1.57 0.461t-0.617 1.195q-0.008 0.797 1.133 1.359 0.375 0.18 0.523 0.32t0.148 0.305q0 0.234-0.234 0.359t-0.539 0.125q-0.672 0-1.219-0.258l-0.172-0.086-0.18 1.125q0.578 0.266 1.445 0.266 1.016 0.008 1.629-0.461t0.629-1.25q0-0.828-1.094-1.359-0.383-0.195-0.555-0.328t-0.172-0.297q0-0.172 0.191-0.301t0.551-0.129q0.547-0.008 0.969 0.187l0.117 0.062zM15.953 4.5h-1q-0.508 0-0.68 0.422l-1.922 4.594h1.359l0.273-0.75h1.656q0.039 0.172 0.156 0.75h1.203zM18 2v10q0 0.406-0.297 0.703t-0.703 0.297h-16q-0.406 0-0.703-0.297t-0.297-0.703v-10q0-0.406 0.297-0.703t0.703-0.297h16q0.406 0 0.703 0.297t0.297 0.703z"></path>
</svg>
