<?xml version="1.0" encoding="utf-8"?>
<!-- Generated by IcoMoon.io -->
<!DOCTYPE svg PUBLIC "-//W3C//DTD SVG 1.1//EN" "http://www.w3.org/Graphics/SVG/1.1/DTD/svg11.dtd">
<svg version="1.1" xmlns="http://www.w3.org/2000/svg" xmlns:xlink="http://www.w3.org/1999/xlink" width="12" height="14" viewBox="0 0 12 14">
<path fill="#444444" d="M10.75 7l1.078 1.055q0.234 0.219 0.156 0.547-0.094 0.32-0.406 0.398l-1.469 0.375 0.414 1.453q0.094 0.32-0.148 0.547-0.227 0.242-0.547 0.148l-1.453-0.414-0.375 1.469q-0.078 0.312-0.398 0.406-0.094 0.016-0.148 0.016-0.242 0-0.398-0.172l-1.055-1.078-1.055 1.078q-0.219 0.234-0.547 0.156-0.32-0.086-0.398-0.406l-0.375-1.469-1.453 0.414q-0.32 0.094-0.547-0.148-0.242-0.227-0.148-0.547l0.414-1.453-1.469-0.375q-0.312-0.078-0.406-0.398-0.078-0.328 0.156-0.547l1.078-1.055-1.078-1.055q-0.234-0.219-0.156-0.547 0.094-0.32 0.406-0.398l1.469-0.375-0.414-1.453q-0.094-0.32 0.148-0.547 0.227-0.242 0.547-0.148l1.453 0.414 0.375-1.469q0.078-0.32 0.398-0.398 0.32-0.094 0.547 0.148l1.055 1.086 1.055-1.086q0.227-0.234 0.547-0.148 0.32 0.078 0.398 0.398l0.375 1.469 1.453-0.414q0.32-0.094 0.547 0.148 0.242 0.227 0.148 0.547l-0.414 1.453 1.469 0.375q0.312 0.078 0.406 0.398 0.078 0.328-0.156 0.547z"></path>
</svg>
