<?xml version="1.0" encoding="utf-8"?>
<!-- Generated by IcoMoon.io -->
<!DOCTYPE svg PUBLIC "-//W3C//DTD SVG 1.1//EN" "http://www.w3.org/Graphics/SVG/1.1/DTD/svg11.dtd">
<svg version="1.1" xmlns="http://www.w3.org/2000/svg" xmlns:xlink="http://www.w3.org/1999/xlink" width="12" height="14" viewBox="0 0 12 14">
<path fill="#444444" d="M10.031 5.734q0-0.219-0.141-0.359l-0.711-0.703q-0.148-0.148-0.352-0.148t-0.352 0.148l-3.188 3.18-1.766-1.766q-0.148-0.148-0.352-0.148t-0.352 0.148l-0.711 0.703q-0.141 0.141-0.141 0.359 0 0.211 0.141 0.352l2.828 2.828q0.148 0.148 0.352 0.148 0.211 0 0.359-0.148l4.242-4.242q0.141-0.141 0.141-0.352zM12 7q0 1.633-0.805 3.012t-2.184 2.184-3.012 0.805-3.012-0.805-2.184-2.184-0.805-3.012 0.805-3.012 2.184-2.184 3.012-0.805 3.012 0.805 2.184 2.184 0.805 3.012z"></path>
</svg>
