<?xml version="1.0" encoding="utf-8"?>
<!-- Generated by IcoMoon.io -->
<!DOCTYPE svg PUBLIC "-//W3C//DTD SVG 1.1//EN" "http://www.w3.org/Graphics/SVG/1.1/DTD/svg11.dtd">
<svg version="1.1" xmlns="http://www.w3.org/2000/svg" xmlns:xlink="http://www.w3.org/1999/xlink" width="12" height="14" viewBox="0 0 12 14">
<path fill="#444444" d="M5.602 10.898l3.547-3.547q0.148-0.148 0.148-0.352t-0.148-0.352l-3.547-3.547q-0.148-0.148-0.352-0.148t-0.352 0.148l-0.797 0.797q-0.148 0.148-0.148 0.352t0.148 0.352l2.398 2.398-2.398 2.398q-0.148 0.148-0.148 0.352t0.148 0.352l0.797 0.797q0.148 0.148 0.352 0.148t0.352-0.148zM12 7q0 1.633-0.805 3.012t-2.184 2.184-3.012 0.805-3.012-0.805-2.184-2.184-0.805-3.012 0.805-3.012 2.184-2.184 3.012-0.805 3.012 0.805 2.184 2.184 0.805 3.012z"></path>
</svg>
