<?xml version="1.0" encoding="utf-8"?>
<!-- Generated by IcoMoon.io -->
<!DOCTYPE svg PUBLIC "-//W3C//DTD SVG 1.1//EN" "http://www.w3.org/Graphics/SVG/1.1/DTD/svg11.dtd">
<svg version="1.1" xmlns="http://www.w3.org/2000/svg" xmlns:xlink="http://www.w3.org/1999/xlink" width="10" height="14" viewBox="0 0 10 14">
<path fill="#444444" d="M9.281 4.281l-2.281 2.281v6.437q0 0.359-0.258 0.617t-0.617 0.258-0.617-0.258-0.258-0.617v-3h-0.5v3q0 0.359-0.258 0.617t-0.617 0.258-0.617-0.258-0.258-0.617v-6.437l-2.281-2.281q-0.219-0.219-0.219-0.531t0.219-0.531 0.531-0.219 0.531 0.219l1.781 1.781h2.875l1.781-1.781q0.219-0.219 0.531-0.219t0.531 0.219 0.219 0.531-0.219 0.531zM6.75 3q0 0.727-0.512 1.238t-1.238 0.512-1.238-0.512-0.512-1.238 0.512-1.238 1.238-0.512 1.238 0.512 0.512 1.238z"></path>
</svg>
