<?xml version="1.0" encoding="utf-8"?>
<!-- Generated by IcoMoon.io -->
<!DOCTYPE svg PUBLIC "-//W3C//DTD SVG 1.1//EN" "http://www.w3.org/Graphics/SVG/1.1/DTD/svg11.dtd">
<svg version="1.1" xmlns="http://www.w3.org/2000/svg" xmlns:xlink="http://www.w3.org/1999/xlink" width="8" height="14" viewBox="0 0 8 14">
<path fill="#444444" d="M4.711 12h-1.344q-0.102 0-0.176-0.070t-0.074-0.18v-2.578h-2.25q-0.102 0-0.176-0.070t-0.074-0.18v-0.805q0-0.102 0.074-0.176t0.176-0.074h2.25v-0.664h-2.25q-0.102 0-0.176-0.070t-0.074-0.18v-0.813q0-0.102 0.074-0.176t0.176-0.074h1.672l-2.508-4.516q-0.062-0.125 0-0.25 0.078-0.125 0.219-0.125h1.516q0.148 0 0.227 0.141l1.68 3.32q0.148 0.297 0.438 0.977 0.078-0.187 0.238-0.531t0.215-0.477l1.492-3.281q0.062-0.148 0.227-0.148h1.492q0.133 0 0.211 0.125 0.070 0.109 0.008 0.242l-2.445 4.523h1.68q0.102 0 0.176 0.074t0.074 0.176v0.813q0 0.109-0.074 0.18t-0.176 0.070h-2.266v0.664h2.266q0.102 0 0.176 0.074t0.074 0.176v0.805q0 0.109-0.074 0.18t-0.176 0.070h-2.266v2.578q0 0.102-0.074 0.176t-0.176 0.074z"></path>
</svg>
