<?xml version="1.0" encoding="utf-8"?>
<!-- Generated by IcoMoon.io -->
<!DOCTYPE svg PUBLIC "-//W3C//DTD SVG 1.1//EN" "http://www.w3.org/Graphics/SVG/1.1/DTD/svg11.dtd">
<svg version="1.1" xmlns="http://www.w3.org/2000/svg" xmlns:xlink="http://www.w3.org/1999/xlink" width="15" height="14" viewBox="0 0 15 14">
<path fill="#444444" d="M13 5q0-0.625-0.438-1.062t-1.062-0.438h-0.5v3h0.5q0.625 0 1.062-0.438t0.438-1.062zM0 11h14q0 0.828-0.586 1.414t-1.414 0.586h-10q-0.828 0-1.414-0.586t-0.586-1.414zM14.5 5q0 1.242-0.879 2.121t-2.121 0.879h-0.5v0.25q0 0.719-0.516 1.234t-1.234 0.516h-5.5q-0.719 0-1.234-0.516t-0.516-1.234v-5.75q0-0.203 0.148-0.352t0.352-0.148h9q1.242 0 2.121 0.879t0.879 2.121z"></path>
</svg>
