<?xml version="1.0" encoding="utf-8"?>
<!-- Generated by IcoMoon.io -->
<!DOCTYPE svg PUBLIC "-//W3C//DTD SVG 1.1//EN" "http://www.w3.org/Graphics/SVG/1.1/DTD/svg11.dtd">
<svg version="1.1" xmlns="http://www.w3.org/2000/svg" xmlns:xlink="http://www.w3.org/1999/xlink" width="15" height="14" viewBox="0 0 15 14">
<path fill="#444444" d="M7 7q0-0.828-0.586-1.414t-1.414-0.586-1.414 0.586-0.586 1.414 0.586 1.414 1.414 0.586 1.414-0.586 0.586-1.414zM13 11q0-0.406-0.297-0.703t-0.703-0.297-0.703 0.297-0.297 0.703q0 0.414 0.293 0.707t0.707 0.293 0.707-0.293 0.293-0.707zM13 3q0-0.406-0.297-0.703t-0.703-0.297-0.703 0.297-0.297 0.703q0 0.414 0.293 0.707t0.707 0.293 0.707-0.293 0.293-0.707zM10 6.289v1.445q0 0.078-0.055 0.152t-0.125 0.082l-1.211 0.187q-0.086 0.273-0.25 0.594 0.266 0.375 0.703 0.898 0.055 0.078 0.055 0.156 0 0.094-0.055 0.148-0.18 0.234-0.645 0.699t-0.613 0.465q-0.086 0-0.164-0.055l-0.898-0.703q-0.289 0.148-0.602 0.242-0.086 0.844-0.18 1.211-0.055 0.187-0.234 0.187h-1.453q-0.086 0-0.156-0.059t-0.078-0.137l-0.18-1.195q-0.266-0.078-0.586-0.242l-0.922 0.695q-0.055 0.055-0.156 0.055-0.086 0-0.164-0.062-1.125-1.039-1.125-1.25 0-0.070 0.055-0.148 0.078-0.109 0.32-0.414t0.367-0.477q-0.18-0.344-0.273-0.641l-1.187-0.187q-0.078-0.008-0.133-0.074t-0.055-0.152v-1.445q0-0.078 0.055-0.152t0.125-0.082l1.211-0.187q0.086-0.273 0.25-0.594-0.266-0.375-0.703-0.898-0.055-0.086-0.055-0.156 0-0.094 0.055-0.156 0.172-0.234 0.641-0.695t0.617-0.461q0.086 0 0.164 0.055l0.898 0.703q0.266-0.141 0.602-0.25 0.086-0.844 0.18-1.203 0.055-0.187 0.234-0.187h1.453q0.086 0 0.156 0.059t0.078 0.137l0.18 1.195q0.266 0.078 0.586 0.242l0.922-0.695q0.062-0.055 0.156-0.055 0.086 0 0.164 0.062 1.125 1.039 1.125 1.25 0 0.070-0.055 0.148-0.094 0.125-0.328 0.422t-0.352 0.469q0.18 0.375 0.266 0.641l1.187 0.18q0.078 0.016 0.133 0.082t0.055 0.152zM15 10.453v1.094q0 0.125-1.164 0.242-0.094 0.211-0.234 0.406 0.398 0.883 0.398 1.078 0 0.031-0.031 0.055-0.953 0.555-0.969 0.555-0.062 0-0.359-0.367t-0.406-0.531q-0.156 0.016-0.234 0.016t-0.234-0.016q-0.109 0.164-0.406 0.531t-0.359 0.367q-0.016 0-0.969-0.555-0.031-0.023-0.031-0.055 0-0.195 0.398-1.078-0.141-0.195-0.234-0.406-1.164-0.117-1.164-0.242v-1.094q0-0.125 1.164-0.242 0.102-0.227 0.234-0.406-0.398-0.883-0.398-1.078 0-0.031 0.031-0.055 0.031-0.016 0.273-0.156t0.461-0.266 0.234-0.125q0.062 0 0.359 0.363t0.406 0.527q0.156-0.016 0.234-0.016t0.234 0.016q0.398-0.555 0.719-0.875l0.047-0.016q0.031 0 0.969 0.547 0.031 0.023 0.031 0.055 0 0.195-0.398 1.078 0.133 0.18 0.234 0.406 1.164 0.117 1.164 0.242zM15 2.453v1.094q0 0.125-1.164 0.242-0.094 0.211-0.234 0.406 0.398 0.883 0.398 1.078 0 0.031-0.031 0.055-0.953 0.555-0.969 0.555-0.062 0-0.359-0.367t-0.406-0.531q-0.156 0.016-0.234 0.016t-0.234-0.016q-0.109 0.164-0.406 0.531t-0.359 0.367q-0.016 0-0.969-0.555-0.031-0.023-0.031-0.055 0-0.195 0.398-1.078-0.141-0.195-0.234-0.406-1.164-0.117-1.164-0.242v-1.094q0-0.125 1.164-0.242 0.102-0.227 0.234-0.406-0.398-0.883-0.398-1.078 0-0.031 0.031-0.055 0.031-0.016 0.273-0.156t0.461-0.266 0.234-0.125q0.062 0 0.359 0.363t0.406 0.527q0.156-0.016 0.234-0.016t0.234 0.016q0.398-0.555 0.719-0.875l0.047-0.016q0.031 0 0.969 0.547 0.031 0.023 0.031 0.055 0 0.195-0.398 1.078 0.133 0.18 0.234 0.406 1.164 0.117 1.164 0.242z"></path>
</svg>
