<?xml version="1.0" encoding="utf-8"?>
<!-- Generated by IcoMoon.io -->
<!DOCTYPE svg PUBLIC "-//W3C//DTD SVG 1.1//EN" "http://www.w3.org/Graphics/SVG/1.1/DTD/svg11.dtd">
<svg version="1.1" xmlns="http://www.w3.org/2000/svg" xmlns:xlink="http://www.w3.org/1999/xlink" width="14" height="14" viewBox="0 0 14 14">
<path fill="#444444" d="M5 7q0-0.414-0.293-0.707t-0.707-0.293-0.707 0.293-0.293 0.707 0.293 0.707 0.707 0.293 0.707-0.293 0.293-0.707zM8 7q0-0.414-0.293-0.707t-0.707-0.293-0.707 0.293-0.293 0.707 0.293 0.707 0.707 0.293 0.707-0.293 0.293-0.707zM11 7q0-0.414-0.293-0.707t-0.707-0.293-0.707 0.293-0.293 0.707 0.293 0.707 0.707 0.293 0.707-0.293 0.293-0.707zM14 7q0 1.359-0.937 2.512t-2.547 1.82-3.516 0.668q-0.859 0-1.648-0.141-1.352 1.352-3.398 1.789-0.406 0.078-0.672 0.102-0.094 0.008-0.172-0.047t-0.102-0.141q-0.031-0.117 0.156-0.289 0.039-0.039 0.184-0.168t0.199-0.184 0.184-0.199 0.187-0.246 0.16-0.289 0.156-0.375 0.113-0.449 0.098-0.566q-1.141-0.703-1.793-1.691t-0.652-2.105q0-1.359 0.937-2.512t2.547-1.82 3.516-0.668 3.516 0.668 2.547 1.82 0.937 2.512z"></path>
</svg>
