<?xml version="1.0" encoding="utf-8"?>
<!-- Generated by IcoMoon.io -->
<!DOCTYPE svg PUBLIC "-//W3C//DTD SVG 1.1//EN" "http://www.w3.org/Graphics/SVG/1.1/DTD/svg11.dtd">
<svg version="1.1" xmlns="http://www.w3.org/2000/svg" xmlns:xlink="http://www.w3.org/1999/xlink" width="14" height="14" viewBox="0 0 14 14">
<path fill="#444444" d="M1.078 1h1.539q-0.547 0.5-0.984 1.164-0.281 0.438-0.461 0.898t-0.234 0.98-0.066 0.937 0.082 1.031 0.164 0.984 0.219 1.066q0.031 0.148 0.047 0.219 0.398 1.859 0.633 2.57 0.445 1.336 1.187 2.148h-2.125q-0.375 0-0.641-0.266t-0.266-0.641v-10.188q0-0.375 0.266-0.641t0.641-0.266zM10.516 1h2.406q0.375 0 0.641 0.266t0.266 0.641v10.188q0 0.375-0.266 0.641t-0.641 0.266h-1.391q1.656-1.641 1.531-4.414l-3.664 0.789q-0.016 0.352-0.094 0.641t-0.242 0.563-0.465 0.465-0.73 0.285q-0.961 0.203-1.555-0.312-0.25-0.211-0.414-0.477t-0.402-1.008-0.504-2.016q-0.273-1.273-0.355-2.055t-0.043-1.086 0.18-0.602q0.156-0.32 0.488-0.57t0.801-0.352q0.352-0.094 0.652-0.051t0.523 0.133 0.422 0.273 0.336 0.375 0.27 0.441l3.656-0.781q-0.531-1.367-1.406-2.242z"></path>
</svg>
