<?xml version="1.0" encoding="utf-8"?>
<!-- Generated by IcoMoon.io -->
<!DOCTYPE svg PUBLIC "-//W3C//DTD SVG 1.1//EN" "http://www.w3.org/Graphics/SVG/1.1/DTD/svg11.dtd">
<svg version="1.1" xmlns="http://www.w3.org/2000/svg" xmlns:xlink="http://www.w3.org/1999/xlink" width="14" height="14" viewBox="0 0 14 14">
<path fill="#444444" d="M10.878 7.7c-0.014-0.028-0.014-0.056-0.014-0.056s0 0 0 0l-0.742-1.862c-0.042-2.086-1.75-3.822-3.85-3.822l-0.014 8.68h1.974c0.196 0 0.378-0.028 0.546-0.070s0.322-0.112 0.448-0.182c0.042-0.028 0.084-0.056 0.126-0.084 0.126-0.098 0.224-0.21 0.308-0.336 0.056-0.084 0.098-0.182 0.14-0.294 0.042-0.126 0.070-0.252 0.098-0.392h-1.26v-0.28h1.288c0-0.014 0-0.028 0-0.042v-0.77h0.574c0.056 0 0.098-0.014 0.154-0.028 0.042-0.014 0.084-0.042 0.126-0.084 0.070-0.070 0.112-0.168 0.112-0.266 0-0.042-0.014-0.084-0.014-0.112zM8.988 5.838c-0.196 0-0.35-0.154-0.35-0.35s0.154-0.35 0.35-0.35c0.196 0 0.35 0.154 0.35 0.35s-0.154 0.35-0.35 0.35z"></path>
<path fill="#444444" d="M5.992 2.24c-1.834 0.266-3.248 1.834-3.248 3.738 0.336 0.168 1.33 0.56 3.248 0.588v-4.326z"></path>
<path fill="#444444" d="M8.232 10.906h-2.254v-4.060c-1.75-0.014-2.758-0.336-3.22-0.546 0.084 0.924 0.49 1.764 1.12 2.38v3.36h4.536v-1.134c-0.056 0-0.126 0-0.182 0z"></path>
</svg>
