<?xml version="1.0" encoding="utf-8"?>
<!-- Generated by IcoMoon.io -->
<!DOCTYPE svg PUBLIC "-//W3C//DTD SVG 1.1//EN" "http://www.w3.org/Graphics/SVG/1.1/DTD/svg11.dtd">
<svg version="1.1" xmlns="http://www.w3.org/2000/svg" xmlns:xlink="http://www.w3.org/1999/xlink" width="14" height="14" viewBox="0 0 14 14">
<path fill="#444444" d="M4.727 9.633q1.195 0 2.008-0.813 0.109-0.141 0.023-0.281l-0.352-0.641q-0.047-0.102-0.187-0.133-0.125-0.016-0.211 0.086l-0.031 0.023q-0.031 0.031-0.090 0.078t-0.137 0.102-0.184 0.113-0.223 0.105-0.262 0.074-0.293 0.027q-0.594 0-0.977-0.391t-0.383-0.992q0-0.594 0.375-0.98t0.953-0.387q0.289 0 0.559 0.109t0.395 0.219l0.125 0.109q0.086 0.086 0.203 0.078 0.125-0.016 0.187-0.109l0.414-0.609q0.102-0.156-0.016-0.305-0.023-0.031-0.086-0.094t-0.234-0.184-0.379-0.219-0.527-0.176-0.672-0.078q-1.156 0-1.922 0.754t-0.766 1.879q0 1.141 0.758 1.887t1.93 0.746zM9.648 9.633q1.195 0 2.008-0.813 0.109-0.141 0.031-0.281l-0.352-0.641q-0.062-0.109-0.195-0.133-0.125-0.016-0.211 0.086l-0.031 0.023q-0.031 0.031-0.090 0.078t-0.137 0.102-0.184 0.113-0.223 0.105-0.262 0.074-0.293 0.027q-0.594 0-0.977-0.391t-0.383-0.992q0-0.594 0.375-0.98t0.953-0.387q0.289 0 0.559 0.109t0.395 0.219l0.125 0.109q0.086 0.086 0.203 0.078 0.125-0.016 0.187-0.109l0.414-0.609q0.102-0.156-0.016-0.305-0.023-0.031-0.086-0.094t-0.234-0.184-0.379-0.219-0.527-0.176-0.672-0.078q-1.148 0-1.918 0.754t-0.77 1.879q0 1.141 0.758 1.887t1.93 0.746zM7 1.25q-1.172 0-2.234 0.457t-1.832 1.227-1.227 1.832-0.457 2.234 0.457 2.234 1.227 1.832 1.832 1.227 2.234 0.457 2.234-0.457 1.832-1.227 1.227-1.832 0.457-2.234-0.457-2.234-1.227-1.832-1.832-1.227-2.234-0.457zM7 0q1.422 0 2.719 0.555t2.234 1.492 1.492 2.234 0.555 2.719-0.555 2.719-1.492 2.234-2.234 1.492-2.719 0.555-2.719-0.555-2.234-1.492-1.492-2.234-0.555-2.719 0.555-2.719 1.492-2.234 2.234-1.492 2.719-0.555z"></path>
</svg>
