<?xml version="1.0" encoding="utf-8"?>
<!-- Generated by IcoMoon.io -->
<!DOCTYPE svg PUBLIC "-//W3C//DTD SVG 1.1//EN" "http://www.w3.org/Graphics/SVG/1.1/DTD/svg11.dtd">
<svg version="1.1" xmlns="http://www.w3.org/2000/svg" xmlns:xlink="http://www.w3.org/1999/xlink" width="13" height="14" viewBox="0 0 13 14">
<path fill="#444444" d="M4.352 10h4.648v-4.648zM4 9.648l4.648-4.648h-4.648v4.648zM13 10.25v1.5q0 0.109-0.070 0.18t-0.18 0.070h-1.75v1.75q0 0.109-0.070 0.18t-0.18 0.070h-1.5q-0.109 0-0.18-0.070t-0.070-0.18v-1.75h-6.75q-0.109 0-0.18-0.070t-0.070-0.18v-6.75h-1.75q-0.109 0-0.18-0.070t-0.070-0.18v-1.5q0-0.109 0.070-0.18t0.18-0.070h1.75v-1.75q0-0.109 0.070-0.18t0.18-0.070h1.5q0.109 0 0.18 0.070t0.070 0.18v1.75h6.648l1.922-1.93q0.078-0.070 0.18-0.070t0.18 0.070q0.070 0.078 0.070 0.18t-0.070 0.18l-1.93 1.922v6.648h1.75q0.109 0 0.18 0.070t0.070 0.18z"></path>
</svg>
