<?xml version="1.0" encoding="utf-8"?>
<!-- Generated by IcoMoon.io -->
<!DOCTYPE svg PUBLIC "-//W3C//DTD SVG 1.1//EN" "http://www.w3.org/Graphics/SVG/1.1/DTD/svg11.dtd">
<svg version="1.1" xmlns="http://www.w3.org/2000/svg" xmlns:xlink="http://www.w3.org/1999/xlink" width="12" height="14" viewBox="0 0 12 14">
<path fill="#444444" d="M9.352 8h-0.852q-0.203 0-0.352-0.148t-0.148-0.352v-1q0-0.203 0.148-0.352t0.352-0.148h0.852q-0.25-0.844-0.879-1.473t-1.473-0.879v0.852q0 0.203-0.148 0.352t-0.352 0.148h-1q-0.203 0-0.352-0.148t-0.148-0.352v-0.852q-0.844 0.25-1.473 0.879t-0.879 1.473h0.852q0.203 0 0.352 0.148t0.148 0.352v1q0 0.203-0.148 0.352t-0.352 0.148h-0.852q0.25 0.844 0.879 1.473t1.473 0.879v-0.852q0-0.203 0.148-0.352t0.352-0.148h1q0.203 0 0.352 0.148t0.148 0.352v0.852q0.844-0.25 1.473-0.879t0.879-1.473zM12 6.5v1q0 0.203-0.148 0.352t-0.352 0.148h-1.117q-0.289 1.258-1.207 2.176t-2.176 1.207v1.117q0 0.203-0.148 0.352t-0.352 0.148h-1q-0.203 0-0.352-0.148t-0.148-0.352v-1.117q-1.258-0.289-2.176-1.207t-1.207-2.176h-1.117q-0.203 0-0.352-0.148t-0.148-0.352v-1q0-0.203 0.148-0.352t0.352-0.148h1.117q0.289-1.258 1.207-2.176t2.176-1.207v-1.117q0-0.203 0.148-0.352t0.352-0.148h1q0.203 0 0.352 0.148t0.148 0.352v1.117q1.258 0.289 2.176 1.207t1.207 2.176h1.117q0.203 0 0.352 0.148t0.148 0.352z"></path>
</svg>
