<?xml version="1.0" encoding="utf-8"?>
<!-- Generated by IcoMoon.io -->
<!DOCTYPE svg PUBLIC "-//W3C//DTD SVG 1.1//EN" "http://www.w3.org/Graphics/SVG/1.1/DTD/svg11.dtd">
<svg version="1.1" xmlns="http://www.w3.org/2000/svg" xmlns:xlink="http://www.w3.org/1999/xlink" width="13" height="14" viewBox="0 0 13 14">
<path fill="#444444" d="M7 12.727l5-2.727v-4.969l-5 1.82v5.875zM6.5 5.969l5.453-1.984-5.453-1.984-5.453 1.984zM13 4v6q0 0.273-0.141 0.508t-0.383 0.367l-5.5 3q-0.219 0.125-0.477 0.125t-0.477-0.125l-5.5-3q-0.242-0.133-0.383-0.367t-0.141-0.508v-6q0-0.312 0.18-0.57t0.477-0.367l5.5-2q0.172-0.062 0.344-0.062t0.344 0.062l5.5 2q0.297 0.109 0.477 0.367t0.18 0.57z"></path>
</svg>
