<?xml version="1.0" encoding="utf-8"?>
<!-- Generated by IcoMoon.io -->
<!DOCTYPE svg PUBLIC "-//W3C//DTD SVG 1.1//EN" "http://www.w3.org/Graphics/SVG/1.1/DTD/svg11.dtd">
<svg version="1.1" xmlns="http://www.w3.org/2000/svg" xmlns:xlink="http://www.w3.org/1999/xlink" width="11" height="14" viewBox="0 0 11 14">
<path fill="#444444" d="M5 0.5v5q0 0.477-0.277 0.867t-0.723 0.547v6.086q0 0.406-0.297 0.703t-0.703 0.297h-1q-0.406 0-0.703-0.297t-0.297-0.703v-6.086q-0.445-0.156-0.723-0.547t-0.277-0.867v-5q0-0.203 0.148-0.352t0.352-0.148 0.352 0.148 0.148 0.352v3.25q0 0.203 0.148 0.352t0.352 0.148 0.352-0.148 0.148-0.352v-3.25q0-0.203 0.148-0.352t0.352-0.148 0.352 0.148 0.148 0.352v3.25q0 0.203 0.148 0.352t0.352 0.148 0.352-0.148 0.148-0.352v-3.25q0-0.203 0.148-0.352t0.352-0.148 0.352 0.148 0.148 0.352zM11 0.5v12.5q0 0.406-0.297 0.703t-0.703 0.297h-1q-0.406 0-0.703-0.297t-0.297-0.703v-4h-1.75q-0.102 0-0.176-0.074t-0.074-0.176v-6.25q0-1.031 0.734-1.766t1.766-0.734h2q0.203 0 0.352 0.148t0.148 0.352z"></path>
</svg>
