<?xml version="1.0" encoding="utf-8"?>
<!-- Generated by IcoMoon.io -->
<!DOCTYPE svg PUBLIC "-//W3C//DTD SVG 1.1//EN" "http://www.w3.org/Graphics/SVG/1.1/DTD/svg11.dtd">
<svg version="1.1" xmlns="http://www.w3.org/2000/svg" xmlns:xlink="http://www.w3.org/1999/xlink" width="14" height="14" viewBox="0 0 14 14">
<path fill="#444444" d="M3 9q0-0.414-0.293-0.707t-0.707-0.293-0.707 0.293-0.293 0.707 0.293 0.707 0.707 0.293 0.707-0.293 0.293-0.707zM4.5 5.5q0-0.414-0.293-0.707t-0.707-0.293-0.707 0.293-0.293 0.707 0.293 0.707 0.707 0.293 0.707-0.293 0.293-0.707zM7.844 9.258l0.789-2.984q0.047-0.203-0.059-0.379t-0.301-0.23-0.375 0.051-0.234 0.309l-0.789 2.984q-0.469 0.039-0.836 0.34t-0.492 0.77q-0.156 0.602 0.156 1.141t0.914 0.695 1.141-0.156 0.695-0.914q0.125-0.469-0.047-0.914t-0.563-0.711zM13 9q0-0.414-0.293-0.707t-0.707-0.293-0.707 0.293-0.293 0.707 0.293 0.707 0.707 0.293 0.707-0.293 0.293-0.707zM8 4q0-0.414-0.293-0.707t-0.707-0.293-0.707 0.293-0.293 0.707 0.293 0.707 0.707 0.293 0.707-0.293 0.293-0.707zM11.5 5.5q0-0.414-0.293-0.707t-0.707-0.293-0.707 0.293-0.293 0.707 0.293 0.707 0.707 0.293 0.707-0.293 0.293-0.707zM14 9q0 2.039-1.102 3.773-0.148 0.227-0.422 0.227h-10.953q-0.273 0-0.422-0.227-1.102-1.727-1.102-3.773 0-1.422 0.555-2.719t1.492-2.234 2.234-1.492 2.719-0.555 2.719 0.555 2.234 1.492 1.492 2.234 0.555 2.719z"></path>
</svg>
