<?xml version="1.0" encoding="utf-8"?>
<!-- Generated by IcoMoon.io -->
<!DOCTYPE svg PUBLIC "-//W3C//DTD SVG 1.1//EN" "http://www.w3.org/Graphics/SVG/1.1/DTD/svg11.dtd">
<svg version="1.1" xmlns="http://www.w3.org/2000/svg" xmlns:xlink="http://www.w3.org/1999/xlink" width="12" height="14" viewBox="0 0 12 14">
<path fill="#444444" d="M6 6q1.852 0 3.461-0.336t2.539-0.992v1.328q0 0.539-0.805 1t-2.188 0.73-3.008 0.27-3.008-0.27-2.188-0.73-0.805-1v-1.328q0.93 0.656 2.539 0.992t3.461 0.336zM6 12q1.852 0 3.461-0.336t2.539-0.992v1.328q0 0.539-0.805 1t-2.188 0.73-3.008 0.27-3.008-0.27-2.188-0.73-0.805-1v-1.328q0.93 0.656 2.539 0.992t3.461 0.336zM6 9q1.852 0 3.461-0.336t2.539-0.992v1.328q0 0.539-0.805 1t-2.188 0.73-3.008 0.27-3.008-0.27-2.188-0.73-0.805-1v-1.328q0.93 0.656 2.539 0.992t3.461 0.336zM6 0q1.625 0 3.008 0.27t2.188 0.73 0.805 1v1q0 0.539-0.805 1t-2.188 0.73-3.008 0.27-3.008-0.27-2.188-0.73-0.805-1v-1q0-0.539 0.805-1t2.188-0.73 3.008-0.27z"></path>
</svg>
