<?xml version="1.0" encoding="utf-8"?>
<!-- Generated by IcoMoon.io -->
<!DOCTYPE svg PUBLIC "-//W3C//DTD SVG 1.1//EN" "http://www.w3.org/Graphics/SVG/1.1/DTD/svg11.dtd">
<svg version="1.1" xmlns="http://www.w3.org/2000/svg" xmlns:xlink="http://www.w3.org/1999/xlink" width="14" height="14" viewBox="0 0 14 14">
<path fill="#444444" d="M10.906 5.88c0-2.156-1.764-3.92-3.92-3.92s-3.92 1.764-3.92 3.92c0 1.246 0.574 2.352 1.484 3.066l-1.050 1.834h1.4l0.84 1.26 1.26-2.24 1.26 2.24 0.84-1.26h1.4l-1.050-1.848c0.882-0.728 1.456-1.82 1.456-3.052zM7.308 9.226c-0.098 0.014-0.21 0.014-0.322 0.014-0.098 0-0.196 0-0.294-0.014-0.714-0.056-1.358-0.336-1.862-0.77-0.728-0.616-1.204-1.54-1.204-2.576 0-1.848 1.512-3.36 3.36-3.36s3.36 1.512 3.36 3.36c0 1.022-0.462 1.932-1.176 2.548-0.518 0.448-1.162 0.728-1.862 0.798z"></path>
<path fill="#444444" d="M5.362 6.692l-0.294 1.288 1.288-0.294 2.282-2.282-0.994-0.994-2.282 2.282zM6.16 7.49l-0.49 0.098-0.21-0.196 0.098-0.49 0.602 0.588z"></path>
<path fill="#444444" d="M9.226 4.41l-0.588-0.588c-0.112-0.112-0.28-0.112-0.392 0l-0.406 0.392 0.994 0.994 0.392-0.392c0.112-0.112 0.112-0.294 0-0.406z"></path>
</svg>
