<?xml version="1.0" encoding="utf-8"?>
<!-- Generated by IcoMoon.io -->
<!DOCTYPE svg PUBLIC "-//W3C//DTD SVG 1.1//EN" "http://www.w3.org/Graphics/SVG/1.1/DTD/svg11.dtd">
<svg version="1.1" xmlns="http://www.w3.org/2000/svg" xmlns:xlink="http://www.w3.org/1999/xlink" width="16" height="14" viewBox="0 0 16 14">
<path fill="#444444" d="M1.656 6l4.867 5.195-2.344-5.195h-2.523zM8 12.031l2.727-6.031h-5.453zM4.203 5l1.594-3h-2.047l-2.25 3h2.703zM9.477 11.195l4.867-5.195h-2.523zM5.336 5h5.328l-1.594-3h-2.141zM11.797 5h2.703l-2.25-3h-2.047zM12.898 1.203l3 4q0.109 0.141 0.102 0.324t-0.133 0.316l-7.5 8q-0.141 0.156-0.367 0.156t-0.367-0.156l-7.5-8q-0.125-0.133-0.133-0.316t0.102-0.324l3-4q0.141-0.203 0.398-0.203h9q0.258 0 0.398 0.203z"></path>
</svg>
