<?xml version="1.0" encoding="utf-8"?>
<!-- Generated by IcoMoon.io -->
<!DOCTYPE svg PUBLIC "-//W3C//DTD SVG 1.1//EN" "http://www.w3.org/Graphics/SVG/1.1/DTD/svg11.dtd">
<svg version="1.1" xmlns="http://www.w3.org/2000/svg" xmlns:xlink="http://www.w3.org/1999/xlink" width="16" height="14" viewBox="0 0 16 14">
<path fill="#444444" d="M2.563 2.203h1.594v7.68h-4.156v-5.445h2.563v-2.234zM2.563 8.602v-2.883h-0.961v2.883h0.961zM4.797 4.437v5.445h1.602v-5.445h-1.602zM4.797 2.203v1.594h1.602v-1.594h-1.602zM7.039 4.437h4.164v7.359h-4.164v-1.273h2.563v-0.641h-2.563v-5.445zM9.602 8.602v-2.883h-0.961v2.883h0.961zM11.844 4.437h4.156v7.359h-4.156v-1.273h2.555v-0.641h-2.555v-5.445zM14.398 8.602v-2.883h-0.961v2.883h0.961z"></path>
</svg>
