<?xml version="1.0" encoding="utf-8"?>
<!-- Generated by IcoMoon.io -->
<!DOCTYPE svg PUBLIC "-//W3C//DTD SVG 1.1//EN" "http://www.w3.org/Graphics/SVG/1.1/DTD/svg11.dtd">
<svg version="1.1" xmlns="http://www.w3.org/2000/svg" xmlns:xlink="http://www.w3.org/1999/xlink" width="8" height="14" viewBox="0 0 8 14">
<path fill="#444444" d="M7.641 9.258q0 1.195-0.777 2.059t-2.020 1.066v1.367q0 0.109-0.070 0.18t-0.18 0.070h-1.055q-0.102 0-0.176-0.074t-0.074-0.176v-1.367q-0.516-0.070-0.996-0.242t-0.793-0.348-0.578-0.375-0.363-0.293-0.137-0.141q-0.133-0.164-0.016-0.32l0.805-1.055q0.055-0.078 0.18-0.094 0.117-0.016 0.187 0.070l0.016 0.016q0.883 0.773 1.898 0.977 0.289 0.062 0.578 0.062 0.633 0 1.113-0.336t0.48-0.953q0-0.219-0.117-0.414t-0.262-0.328-0.457-0.293-0.516-0.25-0.625-0.254q-0.305-0.125-0.48-0.195t-0.48-0.207-0.488-0.242-0.441-0.277-0.418-0.332-0.34-0.383-0.277-0.453-0.164-0.52-0.066-0.609q0-1.078 0.766-1.891t1.992-1.047v-1.406q0-0.102 0.074-0.176t0.176-0.074h1.055q0.109 0 0.18 0.070t0.070 0.18v1.375q0.445 0.047 0.863 0.18t0.68 0.262 0.496 0.293 0.305 0.227 0.117 0.109q0.133 0.141 0.039 0.297l-0.633 1.141q-0.062 0.117-0.18 0.125-0.109 0.023-0.211-0.055-0.023-0.023-0.113-0.094t-0.305-0.207-0.457-0.25-0.582-0.203-0.668-0.090q-0.742 0-1.211 0.336t-0.469 0.867q0 0.203 0.066 0.375t0.23 0.324 0.309 0.258 0.438 0.242 0.473 0.211 0.547 0.215q0.414 0.156 0.633 0.246t0.594 0.273 0.59 0.332 0.484 0.391 0.414 0.496 0.246 0.598 0.102 0.734z"></path>
</svg>
