<?xml version="1.0" encoding="utf-8"?>
<!-- Generated by IcoMoon.io -->
<!DOCTYPE svg PUBLIC "-//W3C//DTD SVG 1.1//EN" "http://www.w3.org/Graphics/SVG/1.1/DTD/svg11.dtd">
<svg version="1.1" xmlns="http://www.w3.org/2000/svg" xmlns:xlink="http://www.w3.org/1999/xlink" width="12" height="14" viewBox="0 0 12 14">
<path fill="#444444" d="M8 11.719q-0.328-1.883-1.094-3.891h-0.016l-0.016 0.008q-0.125 0.047-0.336 0.129t-0.789 0.383-1.070 0.641-1.023 0.895-0.805 1.156l-0.117-0.086q1.438 1.172 3.266 1.172 1.031 0 2-0.406zM6.555 6.977q-0.164-0.383-0.414-0.867-2.43 0.727-5.258 0.727-0.008 0.055-0.008 0.164 0 0.969 0.344 1.848t0.969 1.574q0.391-0.695 0.965-1.301t1.113-0.973 1.020-0.633 0.777-0.375l0.289-0.102q0.031-0.008 0.102-0.027t0.102-0.035zM5.719 5.32q-0.937-1.664-1.906-2.953-1.078 0.508-1.828 1.453t-1 2.125q2.359 0 4.734-0.625zM11.063 7.813q-1.641-0.469-3.195-0.227 0.68 1.867 1 3.664 0.867-0.586 1.445-1.48t0.75-1.957zM4.773 2.023q-0.008 0-0.016 0.008 0.008-0.008 0.016-0.008zM9.383 3.156q-1.445-1.281-3.383-1.281-0.594 0-1.211 0.148 1.023 1.328 1.922 2.984 0.539-0.203 1.016-0.473t0.754-0.48 0.512-0.445 0.293-0.316zM11.125 6.945q-0.023-1.812-1.164-3.203l-0.008 0.008q-0.070 0.094-0.148 0.191t-0.34 0.348-0.555 0.473-0.781 0.508-1.027 0.504q0.195 0.414 0.344 0.742 0.016 0.047 0.051 0.137t0.059 0.129q0.281-0.039 0.582-0.055t0.574-0.016 0.539 0.012 0.5 0.031 0.441 0.043 0.375 0.051 0.285 0.047 0.195 0.035zM12 7q0 1.633-0.805 3.012t-2.184 2.184-3.012 0.805-3.012-0.805-2.184-2.184-0.805-3.012 0.805-3.012 2.184-2.184 3.012-0.805 3.012 0.805 2.184 2.184 0.805 3.012z"></path>
</svg>
