<?xml version="1.0" encoding="utf-8"?>
<!-- Generated by IcoMoon.io -->
<!DOCTYPE svg PUBLIC "-//W3C//DTD SVG 1.1//EN" "http://www.w3.org/Graphics/SVG/1.1/DTD/svg11.dtd">
<svg version="1.1" xmlns="http://www.w3.org/2000/svg" xmlns:xlink="http://www.w3.org/1999/xlink" width="12" height="14" viewBox="0 0 12 14">
<path fill="#444444" d="M9.117 12.391q-0.039-0.148-0.187-0.039-0.234 0.172-0.68 0.305t-1.023 0.133q-1.008 0-1.508-0.383-0.039-0.031-0.102-0.031-0.086 0-0.203 0.094-0.055 0.047-0.059 0.125t0.059 0.156q0.266 0.25 0.684 0.359t0.801 0.098 0.773-0.035q0.32-0.031 0.66-0.16t0.508-0.234 0.223-0.16q0.094-0.094 0.055-0.227zM8.812 11.492q-0.148-0.367-0.305-0.477-0.18-0.117-0.594-0.117-0.367 0-0.555 0.078-0.227 0.094-0.609 0.438-0.203 0.187-0.094 0.344 0.070 0.062 0.137 0.035t0.246-0.184q0.023-0.016 0.082-0.066t0.082-0.066 0.078-0.055 0.090-0.055 0.098-0.039 0.117-0.035 0.129-0.020 0.16-0.008q0.211 0 0.348 0.059t0.18 0.113 0.105 0.172q0.078 0.133 0.098 0.156t0.098-0.008q0.18-0.094 0.109-0.266zM11.586 9.297q0-0.172-0.039-0.348t-0.129-0.352-0.266-0.285-0.41-0.109q-0.258 0-0.758 0.324t-1.008 0.652-0.789 0.328q-0.211 0.008-0.496-0.148t-0.594-0.383-0.652-0.453-0.781-0.383-0.867-0.148q-0.898 0.008-1.539 0.613t-0.656 1.395q-0.016 0.875 0.578 1.281 0.227 0.156 0.488 0.223t0.809 0.066q0.445 0 1.031-0.254t1.047-0.555 0.937-0.551 0.727-0.242q0.203 0.008 0.508 0.246t0.559 0.523 0.531 0.527 0.434 0.25q0.273 0.023 0.457-0.109t0.434-0.492q0.219-0.32 0.332-0.789t0.113-0.828zM12 8.047q0 1.281-0.484 2.379t-1.297 1.844-1.895 1.168-2.27 0.422-2.289-0.449-1.934-1.227-1.332-1.887-0.5-2.359q0-0.695 0.152-1.348t0.383-1.137 0.551-0.926 0.613-0.734 0.613-0.543 0.504-0.363 0.332-0.191q0.109-0.062 0.398-0.207t0.426-0.223 0.375-0.234 0.473-0.344q0.281-0.219 0.453-0.566t0.234-0.98q1.008 1.211 1.453 1.508 0.344 0.227 1.016 0.531t1.008 0.516q0.164 0.102 0.305 0.195t0.473 0.363 0.594 0.551 0.586 0.742 0.539 0.953 0.367 1.16 0.152 1.387z"></path>
</svg>
