<?xml version="1.0" encoding="utf-8"?>
<!-- Generated by IcoMoon.io -->
<!DOCTYPE svg PUBLIC "-//W3C//DTD SVG 1.1//EN" "http://www.w3.org/Graphics/SVG/1.1/DTD/svg11.dtd">
<svg version="1.1" xmlns="http://www.w3.org/2000/svg" xmlns:xlink="http://www.w3.org/1999/xlink" width="14" height="14" viewBox="0 0 14 14">
<path fill="#444444" d="M6.828 12.797v0.516q-1.625-0.047-3.008-0.855t-2.211-2.152l0.453-0.266q0.227 0.383 0.57 0.773l0.508-0.445q1.156 1.313 2.875 1.656l-0.133 0.672q0.508 0.094 0.945 0.102zM2.156 8.656l-0.648 0.219q0.172 0.469 0.383 0.875l-0.445 0.258q-0.766-1.406-0.766-3.008t0.766-3.008l0.445 0.258q-0.234 0.438-0.383 0.875l0.641 0.219q-0.273 0.781-0.273 1.656 0 0.852 0.281 1.656zM11.938 10.039l0.453 0.266q-0.828 1.344-2.211 2.152t-3.008 0.855v-0.516q0.438-0.008 0.945-0.102l-0.133-0.672q1.719-0.344 2.875-1.656l0.508 0.445q0.344-0.391 0.57-0.773zM10.758 5.711l-1.82 0.625q0.109 0.328 0.109 0.664t-0.109 0.664l1.812 0.625q-0.242 0.719-0.766 1.32l-1.445-1.266q-0.445 0.523-1.148 0.664l0.375 1.883q-0.406 0.078-0.766 0.078t-0.766-0.078l0.375-1.883q-0.703-0.141-1.148-0.664l-1.445 1.266q-0.523-0.602-0.766-1.32l1.812-0.625q-0.109-0.328-0.109-0.664t0.109-0.664l-1.82-0.625q0.258-0.727 0.773-1.32l1.445 1.266q0.461-0.531 1.148-0.672l-0.375-1.875q0.344-0.078 0.766-0.078t0.766 0.078l-0.375 1.875q0.688 0.141 1.148 0.672l1.445-1.266q0.516 0.594 0.773 1.32zM6.828 0.688v0.516q-0.508 0.016-0.945 0.102l0.133 0.672q-1.719 0.328-2.875 1.648l-0.508-0.438q-0.297 0.328-0.57 0.766l-0.445-0.258q0.828-1.344 2.203-2.152t3.008-0.855zM13.32 7q0 1.602-0.766 3.008l-0.445-0.258q0.211-0.406 0.383-0.875l-0.648-0.219q0.281-0.805 0.281-1.656 0-0.875-0.273-1.656l0.641-0.219q-0.148-0.438-0.383-0.875l0.445-0.258q0.766 1.406 0.766 3.008zM12.383 3.695l-0.445 0.258q-0.273-0.438-0.57-0.766l-0.508 0.438q-1.156-1.32-2.875-1.648l0.133-0.672q-0.438-0.086-0.945-0.102v-0.516q1.633 0.047 3.008 0.855t2.203 2.152zM13.656 7q0-1.352-0.527-2.586t-1.418-2.125-2.125-1.418-2.586-0.527-2.586 0.527-2.125 1.418-1.418 2.125-0.527 2.586 0.527 2.586 1.418 2.125 2.125 1.418 2.586 0.527 2.586-0.527 2.125-1.418 1.418-2.125 0.527-2.586zM14 7q0 1.422-0.555 2.719t-1.492 2.234-2.234 1.492-2.719 0.555-2.719-0.555-2.234-1.492-1.492-2.234-0.555-2.719 0.555-2.719 1.492-2.234 2.234-1.492 2.719-0.555 2.719 0.555 2.234 1.492 1.492 2.234 0.555 2.719z"></path>
</svg>
