<?xml version="1.0" encoding="utf-8"?>
<!-- Generated by IcoMoon.io -->
<!DOCTYPE svg PUBLIC "-//W3C//DTD SVG 1.1//EN" "http://www.w3.org/Graphics/SVG/1.1/DTD/svg11.dtd">
<svg version="1.1" xmlns="http://www.w3.org/2000/svg" xmlns:xlink="http://www.w3.org/1999/xlink" width="12" height="14" viewBox="0 0 12 14">
<path fill="#444444" d="M9.75 1q0.93 0 1.59 0.66t0.66 1.59v7.5q0 0.93-0.66 1.59t-1.59 0.66h-7.5q-0.93 0-1.59-0.66t-0.66-1.59v-7.5q0-0.93 0.66-1.59t1.59-0.66h7.5zM10 9.25v-3.406q-0.242 0.273-0.5 0.43-0.266 0.172-1.035 0.664t-1.184 0.773q-0.766 0.539-1.281 0.539v0 0q-0.516 0-1.281-0.539-0.359-0.25-1.105-0.723t-1.113-0.723q-0.094-0.062-0.258-0.211t-0.242-0.211v3.406q0 0.312 0.219 0.531t0.531 0.219h6.5q0.312 0 0.531-0.219t0.219-0.531zM10 4.773q0-0.32-0.215-0.547t-0.535-0.227h-6.5q-0.312 0-0.531 0.219t-0.219 0.531q0 0.289 0.238 0.598t0.527 0.504q0.367 0.25 1.074 0.695t1.012 0.648q0.023 0.016 0.133 0.090t0.164 0.109 0.164 0.102 0.184 0.102 0.168 0.074 0.176 0.059 0.16 0.020 0.16-0.020 0.176-0.059 0.168-0.074 0.184-0.102 0.164-0.102 0.164-0.109 0.133-0.090l2.086-1.359q0.273-0.18 0.52-0.488t0.246-0.574z"></path>
</svg>
