<?xml version="1.0" encoding="utf-8"?>
<!-- Generated by IcoMoon.io -->
<!DOCTYPE svg PUBLIC "-//W3C//DTD SVG 1.1//EN" "http://www.w3.org/Graphics/SVG/1.1/DTD/svg11.dtd">
<svg version="1.1" xmlns="http://www.w3.org/2000/svg" xmlns:xlink="http://www.w3.org/1999/xlink" width="8" height="14" viewBox="0 0 8 14">
<path fill="#444444" d="M7.625 10.211l0.273 1.242q0.023 0.094-0.023 0.176t-0.133 0.113l-0.039 0.008q-0.031 0.016-0.082 0.027t-0.125 0.035-0.168 0.043-0.199 0.039-0.234 0.039-0.262 0.035-0.285 0.023-0.301 0.008q-1.828 0-3.195-1.020t-1.859-2.746h-0.742q-0.102 0-0.176-0.074t-0.074-0.176v-0.883q0-0.102 0.074-0.176t0.176-0.074h0.516q-0.016-0.445 0.008-0.82h-0.523q-0.109 0-0.18-0.070t-0.070-0.18v-0.891q0-0.109 0.070-0.18t0.18-0.070h0.766q0.523-1.641 1.902-2.641t3.129-1q0.797 0 1.516 0.18 0.086 0.023 0.156 0.117 0.047 0.086 0.023 0.187l-0.336 1.242q-0.023 0.102-0.109 0.152t-0.187 0.020l-0.031-0.008q-0.031-0.008-0.090-0.020l-0.137-0.027t-0.176-0.027-0.203-0.023-0.227-0.020-0.23-0.008q-0.984 0-1.766 0.5t-1.172 1.375h3.656q0.125 0 0.195 0.094 0.078 0.094 0.055 0.203l-0.187 0.891q-0.039 0.203-0.25 0.203h-3.812q-0.023 0.289 0 0.82h3.586q0.117 0 0.195 0.094 0.070 0.094 0.047 0.211l-0.187 0.875q-0.016 0.086-0.086 0.145t-0.156 0.059h-3.023q0.375 0.914 1.168 1.449t1.785 0.535q0.141 0 0.281-0.012t0.262-0.027 0.23-0.035 0.191-0.039 0.145-0.035l0.094-0.023 0.039-0.016q0.102-0.039 0.203 0.016 0.094 0.055 0.117 0.164z"></path>
</svg>
