<?xml version="1.0" encoding="utf-8"?>
<!-- Generated by IcoMoon.io -->
<!DOCTYPE svg PUBLIC "-//W3C//DTD SVG 1.1//EN" "http://www.w3.org/Graphics/SVG/1.1/DTD/svg11.dtd">
<svg version="1.1" xmlns="http://www.w3.org/2000/svg" xmlns:xlink="http://www.w3.org/1999/xlink" width="5" height="14" viewBox="0 0 5 14">
<path fill="#444444" d="M4 9.75v1.75q0 0.203-0.148 0.352t-0.352 0.148h-2q-0.203 0-0.352-0.148t-0.148-0.352v-1.75q0-0.203 0.148-0.352t0.352-0.148h2q0.203 0 0.352 0.148t0.148 0.352zM4.234 1.5l-0.219 6q-0.008 0.203-0.16 0.352t-0.355 0.148h-2q-0.203 0-0.355-0.148t-0.16-0.352l-0.219-6q-0.008-0.203 0.137-0.352t0.348-0.148h2.5q0.203 0 0.348 0.148t0.137 0.352z"></path>
</svg>
