<?xml version="1.0" encoding="utf-8"?>
<!-- Generated by IcoMoon.io -->
<!DOCTYPE svg PUBLIC "-//W3C//DTD SVG 1.1//EN" "http://www.w3.org/Graphics/SVG/1.1/DTD/svg11.dtd">
<svg version="1.1" xmlns="http://www.w3.org/2000/svg" xmlns:xlink="http://www.w3.org/1999/xlink" width="14" height="14" viewBox="0 0 14 14">
<path fill="#444444" d="M7 0.5q-1.32 0-2.523 0.516t-2.074 1.387-1.387 2.074-0.516 2.523 0.516 2.523 1.387 2.074 2.074 1.387 2.523 0.516 2.523-0.516 2.074-1.387 1.387-2.074 0.516-2.523-0.516-2.523-1.387-2.074-2.074-1.387-2.523-0.516zM7 0q1.422 0 2.719 0.555t2.234 1.492 1.492 2.234 0.555 2.719-0.555 2.719-1.492 2.234-2.234 1.492-2.719 0.555-2.719-0.555-2.234-1.492-1.492-2.234-0.555-2.719 0.555-2.719 1.492-2.234 2.234-1.492 2.719-0.555zM3.875 6.5q0.125 0 0.125 0.125v3.75q0 0.125-0.125 0.125h-0.25q-0.125 0-0.125-0.125v-3.75q0-0.125 0.125-0.125h0.25zM7 7q0.414 0 0.707 0.293t0.293 0.707q0 0.273-0.137 0.5t-0.363 0.359v0.891q0 0.109-0.070 0.18t-0.18 0.070h-0.5q-0.109 0-0.18-0.070t-0.070-0.18v-0.891q-0.227-0.133-0.363-0.359t-0.137-0.5q0-0.414 0.293-0.707t0.707-0.293zM7 1q1.633 0 3.012 0.805t2.184 2.184 0.805 3.012-0.805 3.012-2.184 2.184-3.012 0.805-3.012-0.805-2.184-2.184-0.805-3.012 0.805-3.012 2.184-2.184 3.012-0.805zM4.25 4.75v0.75q0 0.109 0.070 0.18t0.18 0.070h0.5q0.109 0 0.18-0.070t0.070-0.18v-0.75q0-0.727 0.512-1.238t1.238-0.512 1.238 0.512 0.512 1.238v0.75q0 0.109 0.070 0.18t0.18 0.070h0.5q0.109 0 0.18-0.070t0.070-0.18v-0.75q0-1.141-0.805-1.945t-1.945-0.805-1.945 0.805-0.805 1.945zM11 10.5v-4q0-0.203-0.148-0.352t-0.352-0.148h-7q-0.203 0-0.352 0.148t-0.148 0.352v4q0 0.203 0.148 0.352t0.352 0.148h7q0.203 0 0.352-0.148t0.148-0.352z"></path>
</svg>
