<?xml version="1.0" encoding="utf-8"?>
<!-- Generated by IcoMoon.io -->
<!DOCTYPE svg PUBLIC "-//W3C//DTD SVG 1.1//EN" "http://www.w3.org/Graphics/SVG/1.1/DTD/svg11.dtd">
<svg version="1.1" xmlns="http://www.w3.org/2000/svg" xmlns:xlink="http://www.w3.org/1999/xlink" width="14" height="14" viewBox="0 0 14 14">
<path fill="#444444" d="M13.266 0.734q0.734 0.734 0.734 1.77t-0.734 1.762l-1.758 1.742 0.813 0.813q0.078 0.078 0.078 0.18t-0.078 0.18l-1.641 1.641q-0.078 0.078-0.18 0.078t-0.18-0.078l-0.82-0.82-4.711 4.711q-0.289 0.289-0.703 0.289h-1.586l-2 1-0.5-0.5 1-2v-1.586q0-0.414 0.289-0.703l4.711-4.711-0.82-0.82q-0.078-0.078-0.078-0.18t0.078-0.18l1.641-1.641q0.078-0.078 0.18-0.078t0.18 0.078l0.813 0.813 1.742-1.758q0.727-0.734 1.762-0.734t1.77 0.734zM4 11.5l4.5-4.5-1.5-1.5-4.5 4.5v1.5h1.5z"></path>
</svg>
