<?xml version="1.0" encoding="utf-8"?>
<!-- Generated by IcoMoon.io -->
<!DOCTYPE svg PUBLIC "-//W3C//DTD SVG 1.1//EN" "http://www.w3.org/Graphics/SVG/1.1/DTD/svg11.dtd">
<svg version="1.1" xmlns="http://www.w3.org/2000/svg" xmlns:xlink="http://www.w3.org/1999/xlink" width="11" height="14" viewBox="0 0 11 14">
<path fill="#444444" d="M3 10.5q0 0.625-0.438 1.062t-1.062 0.438-1.062-0.438-0.438-1.062 0.438-1.062 1.062-0.438 1.062 0.438 0.438 1.062zM7 11.461q0.016 0.219-0.133 0.375-0.141 0.164-0.367 0.164h-1.055q-0.195 0-0.336-0.129t-0.156-0.324q-0.172-1.789-1.441-3.059t-3.059-1.441q-0.195-0.016-0.324-0.156t-0.129-0.336v-1.055q0-0.227 0.164-0.367 0.133-0.133 0.336-0.133h0.039q1.25 0.102 2.391 0.629t2.023 1.418q0.891 0.883 1.418 2.023t0.629 2.391zM11 11.477q0.016 0.211-0.141 0.367-0.141 0.156-0.359 0.156h-1.117q-0.203 0-0.348-0.137t-0.152-0.332q-0.094-1.68-0.789-3.191t-1.809-2.625-2.625-1.809-3.191-0.797q-0.195-0.008-0.332-0.152t-0.137-0.34v-1.117q0-0.219 0.156-0.359 0.141-0.141 0.344-0.141h0.023q2.047 0.102 3.918 0.937t3.324 2.297q1.461 1.453 2.297 3.324t0.937 3.918z"></path>
</svg>
