<?xml version="1.0" encoding="utf-8"?>
<!-- Generated by IcoMoon.io -->
<!DOCTYPE svg PUBLIC "-//W3C//DTD SVG 1.1//EN" "http://www.w3.org/Graphics/SVG/1.1/DTD/svg11.dtd">
<svg version="1.1" xmlns="http://www.w3.org/2000/svg" xmlns:xlink="http://www.w3.org/1999/xlink" width="10" height="14" viewBox="0 0 10 14">
<path fill="#444444" d="M10 8.25q0 0.312-0.219 0.531t-0.531 0.219q-0.398 0-0.625-0.336l-1.773-2.664h-0.352v1.031l1.93 3.211q0.070 0.117 0.070 0.258 0 0.203-0.148 0.352t-0.352 0.148h-1.5v2.125q0 0.359-0.258 0.617t-0.617 0.258h-1.25q-0.359 0-0.617-0.258t-0.258-0.617v-2.125h-1.5q-0.203 0-0.352-0.148t-0.148-0.352q0-0.141 0.070-0.258l1.93-3.211v-1.031h-0.352l-1.773 2.664q-0.227 0.336-0.625 0.336-0.312 0-0.531-0.219t-0.219-0.531q0-0.227 0.125-0.414l2-3q0.57-0.836 1.375-0.836h3q0.805 0 1.375 0.836l2 3q0.125 0.187 0.125 0.414zM6.75 2q0 0.727-0.512 1.238t-1.238 0.512-1.238-0.512-0.512-1.238 0.512-1.238 1.238-0.512 1.238 0.512 0.512 1.238z"></path>
</svg>
