<?xml version="1.0" encoding="utf-8"?>
<!-- Generated by IcoMoon.io -->
<!DOCTYPE svg PUBLIC "-//W3C//DTD SVG 1.1//EN" "http://www.w3.org/Graphics/SVG/1.1/DTD/svg11.dtd">
<svg version="1.1" xmlns="http://www.w3.org/2000/svg" xmlns:xlink="http://www.w3.org/1999/xlink" width="12" height="14" viewBox="0 0 12 14">
<path fill="#444444" d="M11.469 2.969q0.219 0.219 0.375 0.594t0.156 0.688v9q0 0.312-0.219 0.531t-0.531 0.219h-10.5q-0.312 0-0.531-0.219t-0.219-0.531v-12.5q0-0.312 0.219-0.531t0.531-0.219h7q0.312 0 0.688 0.156t0.594 0.375zM8 1.062v2.937h2.937q-0.078-0.227-0.172-0.32l-2.445-2.445q-0.094-0.094-0.32-0.172zM11 13v-8h-3.25q-0.312 0-0.531-0.219t-0.219-0.531v-3.25h-6v12h10zM6.984 8.367q0.258 0.203 0.656 0.438 0.461-0.055 0.914-0.055 1.148 0 1.383 0.383 0.125 0.172 0.016 0.406 0 0.008-0.008 0.016l-0.016 0.016v0.008q-0.047 0.297-0.555 0.297-0.375 0-0.898-0.156t-1.016-0.414q-1.727 0.187-3.063 0.648-1.195 2.047-1.891 2.047-0.117 0-0.219-0.055l-0.187-0.094q-0.008-0.008-0.047-0.039-0.078-0.078-0.047-0.281 0.070-0.312 0.438-0.715t1.031-0.754q0.109-0.070 0.18 0.047 0.016 0.016 0.016 0.031 0.406-0.664 0.836-1.539 0.531-1.062 0.813-2.047-0.187-0.641-0.238-1.246t0.051-0.996q0.086-0.312 0.328-0.312h0.172q0.18 0 0.273 0.117 0.141 0.164 0.070 0.531-0.016 0.047-0.031 0.062 0.008 0.023 0.008 0.062v0.234q-0.016 0.961-0.109 1.5 0.43 1.281 1.141 1.859zM2.484 11.578q0.406-0.187 1.070-1.234-0.398 0.312-0.684 0.656t-0.387 0.578zM5.594 4.391q-0.117 0.328-0.016 1.031 0.008-0.055 0.055-0.344 0-0.023 0.055-0.336 0.008-0.031 0.031-0.062-0.008-0.008-0.008-0.016t-0.004-0.012-0.004-0.012q-0.008-0.172-0.102-0.281 0 0.008-0.008 0.016v0.016zM4.625 9.555q1.055-0.422 2.219-0.633-0.016-0.008-0.102-0.074t-0.125-0.105q-0.594-0.523-0.992-1.375-0.211 0.672-0.648 1.539-0.234 0.438-0.352 0.648zM9.672 9.43q-0.187-0.187-1.094-0.187 0.594 0.219 0.969 0.219 0.109 0 0.141-0.008 0-0.008-0.016-0.023z"></path>
</svg>
