<?xml version="1.0" encoding="utf-8"?>
<!-- Generated by IcoMoon.io -->
<!DOCTYPE svg PUBLIC "-//W3C//DTD SVG 1.1//EN" "http://www.w3.org/Graphics/SVG/1.1/DTD/svg11.dtd">
<svg version="1.1" xmlns="http://www.w3.org/2000/svg" xmlns:xlink="http://www.w3.org/1999/xlink" width="12" height="14" viewBox="0 0 12 14">
<path fill="#444444" d="M11.469 2.969q0.219 0.219 0.375 0.594t0.156 0.688v9q0 0.312-0.219 0.531t-0.531 0.219h-10.5q-0.312 0-0.531-0.219t-0.219-0.531v-12.5q0-0.312 0.219-0.531t0.531-0.219h7q0.312 0 0.688 0.156t0.594 0.375zM8 1.062v2.937h2.937q-0.078-0.227-0.172-0.32l-2.445-2.445q-0.094-0.094-0.32-0.172zM11 13v-8h-3.25q-0.312 0-0.531-0.219t-0.219-0.531v-3.25h-6v12h10zM4.844 6.641q0.156 0.062 0.156 0.234v4.25q0 0.172-0.156 0.234-0.062 0.016-0.094 0.016-0.094 0-0.18-0.070l-1.297-1.305h-1.023q-0.109 0-0.18-0.070t-0.070-0.18v-1.5q0-0.109 0.070-0.18t0.18-0.070h1.023l1.297-1.305q0.125-0.117 0.273-0.055zM8.102 12.023q0.242 0 0.391-0.187 1.008-1.242 1.008-2.836t-1.008-2.836q-0.125-0.164-0.336-0.187t-0.367 0.109q-0.164 0.133-0.184 0.34t0.113 0.371q0.781 0.961 0.781 2.203t-0.781 2.203q-0.133 0.164-0.113 0.371t0.184 0.332q0.141 0.117 0.312 0.117zM6.453 10.867q0.211 0 0.367-0.156 0.68-0.727 0.68-1.711t-0.68-1.711q-0.141-0.148-0.352-0.156t-0.359 0.133-0.156 0.348 0.141 0.363q0.406 0.445 0.406 1.023t-0.406 1.023q-0.148 0.156-0.141 0.363t0.156 0.348q0.156 0.133 0.344 0.133z"></path>
</svg>
