<?xml version="1.0" encoding="utf-8"?>
<!-- Generated by IcoMoon.io -->
<!DOCTYPE svg PUBLIC "-//W3C//DTD SVG 1.1//EN" "http://www.w3.org/Graphics/SVG/1.1/DTD/svg11.dtd">
<svg version="1.1" xmlns="http://www.w3.org/2000/svg" xmlns:xlink="http://www.w3.org/1999/xlink" width="12" height="14" viewBox="0 0 12 14">
<path fill="#444444" d="M11.469 2.969q0.219 0.219 0.375 0.594t0.156 0.688v9q0 0.312-0.219 0.531t-0.531 0.219h-10.5q-0.312 0-0.531-0.219t-0.219-0.531v-12.5q0-0.312 0.219-0.531t0.531-0.219h7q0.312 0 0.688 0.156t0.594 0.375zM8 1.062v2.937h2.937q-0.078-0.227-0.172-0.32l-2.445-2.445q-0.094-0.094-0.32-0.172zM11 13v-8h-3.25q-0.312 0-0.531-0.219t-0.219-0.531v-3.25h-6v12h10zM3.352 11.172v0.828h2.195v-0.828h-0.586l0.805-1.258q0.039-0.055 0.078-0.129t0.059-0.105 0.027-0.031h0.016q0.008 0.031 0.039 0.078 0.016 0.031 0.035 0.059t0.047 0.062 0.051 0.066l0.836 1.258h-0.594v0.828h2.273v-0.828h-0.531l-1.5-2.133 1.523-2.203h0.523v-0.836h-2.18v0.836h0.578l-0.805 1.242q-0.031 0.055-0.078 0.129t-0.070 0.105l-0.016 0.023h-0.016q-0.008-0.031-0.039-0.078-0.047-0.086-0.133-0.18l-0.828-1.242h0.594v-0.836h-2.266v0.836h0.531l1.477 2.125-1.516 2.211h-0.531z"></path>
</svg>
