<?xml version="1.0" encoding="utf-8"?>
<!-- Generated by IcoMoon.io -->
<!DOCTYPE svg PUBLIC "-//W3C//DTD SVG 1.1//EN" "http://www.w3.org/Graphics/SVG/1.1/DTD/svg11.dtd">
<svg version="1.1" xmlns="http://www.w3.org/2000/svg" xmlns:xlink="http://www.w3.org/1999/xlink" width="12" height="14" viewBox="0 0 12 14">
<path fill="#444444" d="M11.469 3.719q0.109 0.109 0.219 0.281h-3.687v-3.687q0.172 0.109 0.281 0.219zM7.75 5h4.25v8.25q0 0.312-0.219 0.531t-0.531 0.219h-10.5q-0.312 0-0.531-0.219t-0.219-0.531v-12.5q0-0.312 0.219-0.531t0.531-0.219h6.25v4.25q0 0.312 0.219 0.531t0.531 0.219zM9 10.75v-0.5q0-0.109-0.070-0.18t-0.18-0.070h-5.5q-0.109 0-0.18 0.070t-0.070 0.18v0.5q0 0.109 0.070 0.18t0.18 0.070h5.5q0.109 0 0.18-0.070t0.070-0.18zM9 8.75v-0.5q0-0.109-0.070-0.18t-0.18-0.070h-5.5q-0.109 0-0.18 0.070t-0.070 0.18v0.5q0 0.109 0.070 0.18t0.18 0.070h5.5q0.109 0 0.18-0.070t0.070-0.18zM9 6.75v-0.5q0-0.109-0.070-0.18t-0.18-0.070h-5.5q-0.109 0-0.18 0.070t-0.070 0.18v0.5q0 0.109 0.070 0.18t0.18 0.070h5.5q0.109 0 0.18-0.070t0.070-0.18z"></path>
</svg>
