<?xml version="1.0" encoding="utf-8"?>
<!-- Generated by IcoMoon.io -->
<!DOCTYPE svg PUBLIC "-//W3C//DTD SVG 1.1//EN" "http://www.w3.org/Graphics/SVG/1.1/DTD/svg11.dtd">
<svg version="1.1" xmlns="http://www.w3.org/2000/svg" xmlns:xlink="http://www.w3.org/1999/xlink" width="11" height="14" viewBox="0 0 11 14">
<path fill="#444444" d="M4 1.5q0-0.203-0.148-0.352t-0.352-0.148-0.352 0.148-0.148 0.352 0.148 0.352 0.352 0.148 0.352-0.148 0.148-0.352zM11 1.25v2.5q0 0.125-0.094 0.195-0.062 0.055-0.156 0.055-0.031 0-0.055-0.008l-3.5-0.75q-0.086-0.016-0.141-0.086t-0.055-0.156h-2v0.797q0.867 0.18 1.434 0.867t0.566 1.586v6.25q0 0.203-0.148 0.352t-0.352 0.148h-4q-0.203 0-0.352-0.148t-0.148-0.352v-6.25q0-0.828 0.488-1.488t1.262-0.895v-0.867h-0.25q-0.461 0-0.898 0.184t-0.715 0.414-0.516 0.52-0.316 0.418-0.109 0.191q-0.133 0.273-0.445 0.273-0.125 0-0.227-0.055-0.18-0.094-0.246-0.289t0.027-0.383q0.039-0.078 0.113-0.203t0.293-0.418 0.473-0.547 0.664-0.523 0.848-0.41q-0.195-0.328-0.195-0.672 0-0.516 0.367-0.883t0.883-0.367 0.883 0.367 0.367 0.883q0 0.258-0.109 0.5h2.359q0-0.086 0.055-0.156t0.141-0.086l3.5-0.75q0.023-0.008 0.055-0.008 0.094 0 0.156 0.055 0.094 0.070 0.094 0.195z"></path>
</svg>
