<?xml version="1.0" encoding="utf-8"?>
<!-- Generated by IcoMoon.io -->
<!DOCTYPE svg PUBLIC "-//W3C//DTD SVG 1.1//EN" "http://www.w3.org/Graphics/SVG/1.1/DTD/svg11.dtd">
<svg version="1.1" xmlns="http://www.w3.org/2000/svg" xmlns:xlink="http://www.w3.org/1999/xlink" width="11" height="14" viewBox="0 0 11 14">
<path fill="#444444" d="M11 13.25v0.5q0 0.102-0.074 0.176t-0.176 0.074h-10.5q-0.102 0-0.176-0.074t-0.074-0.176v-0.5q0-0.102 0.074-0.176t0.176-0.074h10.5q0.102 0 0.176 0.074t0.074 0.176zM9 5q0 0.609-0.191 1.125t-0.5 0.879-0.684 0.688-0.75 0.605-0.684 0.563-0.5 0.637-0.191 0.754q0 0.75 0.523 1.75l-0.031-0.008 0.008 0.008q-0.703-0.32-1.25-0.648t-1.082-0.781-0.887-0.957-0.566-1.176-0.215-1.438q0-0.609 0.191-1.125t0.5-0.879 0.684-0.688 0.75-0.605 0.684-0.563 0.5-0.637 0.191-0.754q0-0.734-0.516-1.75l0.023 0.008-0.008-0.008q0.703 0.32 1.25 0.648t1.082 0.781 0.887 0.957 0.566 1.176 0.215 1.438z"></path>
</svg>
