<?xml version="1.0" encoding="utf-8"?>
<!-- Generated by IcoMoon.io -->
<!DOCTYPE svg PUBLIC "-//W3C//DTD SVG 1.1//EN" "http://www.w3.org/Graphics/SVG/1.1/DTD/svg11.dtd">
<svg version="1.1" xmlns="http://www.w3.org/2000/svg" xmlns:xlink="http://www.w3.org/1999/xlink" width="14" height="14" viewBox="0 0 14 14">
<path fill="#444444" d="M7.055 14q-2.211 0-3.941-1.176t-2.574-3.113q-0.453-1.023-0.523-2.352t0.203-2.598 0.867-2.438 1.398-1.895l-0.086 2.195q0.086-0.109 0.531-0.121t0.547 0.121q0.328-0.633 1.254-1.078t1.832-0.461q-0.422 0.352-0.934 1.16t-0.457 1.277q0.195 0.062 0.488 0.105t0.492 0.059 0.531 0.031 0.395 0.023q0.117 0.039 0.074 0.355t-0.238 0.59q-0.039 0.055-0.129 0.145t-0.441 0.277-0.789 0.266l0.117 1.477-1.086-0.523q-0.141 0.336-0.059 0.637t0.281 0.52 0.512 0.324 0.633 0.051q0.398-0.070 0.766-0.27t0.652-0.352 0.574-0.137q0.477 0.031 0.699 0.258t0.152 0.508q-0.008 0.016-0.020 0.043t-0.066 0.098-0.141 0.121-0.246 0.082-0.363 0.008q-0.469 0.742-1.129 1.059t-1.637 0.23q0.578 0.477 1.27 0.645t1.316 0.047 1.207-0.406 1-0.684 0.629-0.813q0.336-0.711 0.305-1.504t-0.293-1.473-0.613-0.977q0.68 0.297 1.070 0.621t0.602 0.879q0.117-1.328-0.449-2.68t-1.637-2.219q2.070 0.602 3.219 2.184t1.18 4.043q0.016 0.992-0.316 1.992t-0.965 1.859-1.477 1.531-1.934 1.059-2.254 0.387z"></path>
</svg>
