<?xml version="1.0" encoding="utf-8"?>
<!-- Generated by IcoMoon.io -->
<!DOCTYPE svg PUBLIC "-//W3C//DTD SVG 1.1//EN" "http://www.w3.org/Graphics/SVG/1.1/DTD/svg11.dtd">
<svg version="1.1" xmlns="http://www.w3.org/2000/svg" xmlns:xlink="http://www.w3.org/1999/xlink" width="14" height="14" viewBox="0 0 14 14">
<path fill="#444444" d="M13 8.164v-4.813q-1.32 0.711-2.391 0.711-0.641 0-1.133-0.25-0.781-0.383-1.438-0.598t-1.391-0.215q-1.352 0-3.148 0.992v4.68q1.914-0.883 3.383-0.883 0.43 0 0.809 0.059t0.766 0.203 0.602 0.242 0.645 0.309l0.219 0.109q0.344 0.172 0.789 0.172 0.937 0 2.289-0.719zM2.5 2q0 0.273-0.137 0.5t-0.363 0.359v9.891q0 0.109-0.070 0.18t-0.18 0.070h-0.5q-0.109 0-0.18-0.070t-0.070-0.18v-9.891q-0.227-0.133-0.363-0.359t-0.137-0.5q0-0.414 0.293-0.707t0.707-0.293 0.707 0.293 0.293 0.707zM14 2.5v5.961q0 0.305-0.273 0.445-0.078 0.039-0.133 0.070-1.703 0.906-2.883 0.906-0.688 0-1.234-0.273l-0.219-0.109q-0.5-0.258-0.773-0.375t-0.711-0.227-0.891-0.109q-0.797 0-1.84 0.344t-1.785 0.797q-0.117 0.070-0.258 0.070-0.125 0-0.25-0.062-0.25-0.148-0.25-0.438v-5.797q0-0.273 0.242-0.43 0.273-0.164 0.613-0.332t0.891-0.406 1.191-0.387 1.211-0.148q0.875 0 1.633 0.242t1.633 0.672q0.297 0.148 0.695 0.148 0.953 0 2.422-0.875 0.172-0.094 0.242-0.133 0.242-0.125 0.484 0.016 0.242 0.156 0.242 0.43z"></path>
</svg>
