<?xml version="1.0" encoding="utf-8"?>
<!-- Generated by IcoMoon.io -->
<!DOCTYPE svg PUBLIC "-//W3C//DTD SVG 1.1//EN" "http://www.w3.org/Graphics/SVG/1.1/DTD/svg11.dtd">
<svg version="1.1" xmlns="http://www.w3.org/2000/svg" xmlns:xlink="http://www.w3.org/1999/xlink" width="12" height="14" viewBox="0 0 12 14">
<path fill="#444444" d="M9.75 1q0.93 0 1.59 0.66t0.66 1.59v7.5q0 0.93-0.66 1.59t-1.59 0.66h-7.5q-0.93 0-1.59-0.66t-0.66-1.59v-7.5q0-0.93 0.66-1.59t1.59-0.66h7.5zM5.453 7q0-0.688-0.484-1.172t-1.172-0.484-1.172 0.484-0.484 1.172 0.484 1.172 1.172 0.484 1.172-0.484 0.484-1.172zM9.859 7q0-0.688-0.484-1.172t-1.172-0.484-1.172 0.484-0.484 1.172 0.484 1.172 1.172 0.484 1.172-0.484 0.484-1.172z"></path>
</svg>
