<?xml version="1.0" encoding="utf-8"?>
<!-- Generated by IcoMoon.io -->
<!DOCTYPE svg PUBLIC "-//W3C//DTD SVG 1.1//EN" "http://www.w3.org/Graphics/SVG/1.1/DTD/svg11.dtd">
<svg version="1.1" xmlns="http://www.w3.org/2000/svg" xmlns:xlink="http://www.w3.org/1999/xlink" width="15" height="14" viewBox="0 0 15 14">
<path fill="#444444" d="M13.914 7.273q0-0.273-0.414-0.273h-8.5q-0.312 0-0.668 0.168t-0.559 0.41l-2.297 2.836q-0.141 0.187-0.141 0.312 0 0.273 0.414 0.273h8.5q0.312 0 0.672-0.172t0.555-0.414l2.297-2.836q0.141-0.172 0.141-0.305zM5 6h6v-1.25q0-0.312-0.219-0.531t-0.531-0.219h-4.5q-0.312 0-0.531-0.219t-0.219-0.531v-0.5q0-0.312-0.219-0.531t-0.531-0.219h-2.5q-0.312 0-0.531 0.219t-0.219 0.531v6.664l2-2.461q0.344-0.414 0.906-0.684t1.094-0.27zM14.914 7.273q0 0.484-0.359 0.937l-2.305 2.836q-0.336 0.414-0.906 0.684t-1.094 0.27h-8.5q-0.719 0-1.234-0.516t-0.516-1.234v-7.5q0-0.719 0.516-1.234t1.234-0.516h2.5q0.719 0 1.234 0.516t0.516 1.234v0.25h4.25q0.719 0 1.234 0.516t0.516 1.234v1.25h1.5q0.422 0 0.773 0.191t0.523 0.551q0.117 0.25 0.117 0.531z"></path>
</svg>
