<?xml version="1.0" encoding="utf-8"?>
<!-- Generated by IcoMoon.io -->
<!DOCTYPE svg PUBLIC "-//W3C//DTD SVG 1.1//EN" "http://www.w3.org/Graphics/SVG/1.1/DTD/svg11.dtd">
<svg version="1.1" xmlns="http://www.w3.org/2000/svg" xmlns:xlink="http://www.w3.org/1999/xlink" width="13" height="14" viewBox="0 0 13 14">
<path fill="#444444" d="M5.664 4.367l-1.328 3.516q0.258 0 1.066 0.016t1.254 0.016q0.148 0 0.445-0.016-0.68-1.977-1.438-3.531zM0 13l0.016-0.617q0.18-0.055 0.438-0.098t0.445-0.082 0.387-0.113 0.348-0.227 0.242-0.395l1.852-4.813 2.188-5.656h1q0.062 0.109 0.086 0.164l1.602 3.75q0.258 0.609 0.828 2.012t0.891 2.145q0.117 0.266 0.453 1.129t0.563 1.316q0.156 0.352 0.273 0.445 0.148 0.117 0.688 0.23t0.656 0.16q0.047 0.297 0.047 0.445 0 0.031-0.004 0.102t-0.004 0.102q-0.492 0-1.484-0.062t-1.492-0.062q-0.594 0-1.68 0.055t-1.391 0.062q0-0.336 0.031-0.609l1.023-0.219q0.008 0 0.098-0.020t0.121-0.027 0.113-0.035 0.117-0.051 0.086-0.062 0.070-0.086 0.020-0.109q0-0.125-0.242-0.754t-0.563-1.387-0.328-0.781l-3.516-0.016q-0.203 0.453-0.598 1.527t-0.395 1.27q0 0.172 0.109 0.293t0.34 0.191 0.379 0.105 0.445 0.066 0.32 0.031q0.008 0.148 0.008 0.453 0 0.070-0.016 0.211-0.453 0-1.363-0.078t-1.363-0.078q-0.062 0-0.207 0.031t-0.168 0.031q-0.625 0.109-1.469 0.109z"></path>
</svg>
