<?xml version="1.0" encoding="utf-8"?>
<!-- Generated by IcoMoon.io -->
<!DOCTYPE svg PUBLIC "-//W3C//DTD SVG 1.1//EN" "http://www.w3.org/Graphics/SVG/1.1/DTD/svg11.dtd">
<svg version="1.1" xmlns="http://www.w3.org/2000/svg" xmlns:xlink="http://www.w3.org/1999/xlink" width="12" height="14" viewBox="0 0 12 14">
<path fill="#444444" d="M0 1h12v12h-12v-12zM7.094 3.5l-0.094 0.258 0.586 0.648-0.242 0.891 0.195 0.195 0.836-0.445 0.836 0.445 0.195-0.195-0.242-0.891 0.586-0.648-0.094-0.258h-0.742l-0.414-0.75h-0.25l-0.414 0.75h-0.742zM5.008 4.773q0.25 0 0.348 0.125t0.090 0.492l1.359-0.164q0-0.43-0.137-0.723t-0.395-0.438-0.539-0.199-0.664-0.055q-1.039 0-1.555 0.449t-0.516 1.426v0.563h-0.75v1h0.594q0.156 0 0.156 0.062v2.984q0 0.109-0.039 0.156t-0.141 0.055l-0.57 0.055v0.688h3.5v-0.672l-1.164-0.109q-0.047-0.008-0.066-0.012t-0.027-0.020-0.004-0.031 0.008-0.055 0.004-0.078v-3.023h1.492l0.297-1h-1.805q-0.047 0-0.016-0.047t0.031-0.070v-0.625q0-0.211 0.012-0.316t0.059-0.219 0.152-0.156 0.285-0.043zM9.75 11.25v-0.672l-0.422-0.070q-0.055-0.008-0.074-0.020t-0.020-0.023 0.008-0.059 0.008-0.094v-4.063h-2.148l-0.18 0.789 0.648 0.172q0.18 0.055 0.18 0.211v2.891q0 0.109-0.047 0.145t-0.156 0.051l-0.547 0.070v0.672h2.75z"></path>
</svg>
