<?xml version="1.0" encoding="utf-8"?>
<!-- Generated by IcoMoon.io -->
<!DOCTYPE svg PUBLIC "-//W3C//DTD SVG 1.1//EN" "http://www.w3.org/Graphics/SVG/1.1/DTD/svg11.dtd">
<svg version="1.1" xmlns="http://www.w3.org/2000/svg" xmlns:xlink="http://www.w3.org/1999/xlink" width="12" height="14" viewBox="0 0 12 14">
<path fill="#444444" d="M7.297 1.172q-2.477 0.945-4.344 2.832t-2.797 4.379q-0.156-0.695-0.156-1.375 0-1.625 0.801-3.004t2.176-2.18 3-0.801q0.641 0 1.32 0.148zM9.398 2.102q0.727 0.508 1.281 1.211-3.039 0.883-5.27 3.129t-3.098 5.285q-0.727-0.563-1.211-1.266 0.875-3.016 3.086-5.242t5.211-3.117zM3.672 12.523q0.898-2.781 2.965-4.859t4.84-3q0.312 0.719 0.422 1.523-2.281 0.937-4.031 2.695t-2.68 4.047q-0.805-0.109-1.516-0.406zM12 12.977q-1.508-0.391-2.867-0.898-1.055 0.656-2.266 0.836 0.852-1.602 2.141-2.895t2.883-2.152q-0.164 1.187-0.789 2.219 0.508 1.367 0.898 2.891z"></path>
</svg>
