<?xml version="1.0" encoding="utf-8"?>
<!-- Generated by IcoMoon.io -->
<!DOCTYPE svg PUBLIC "-//W3C//DTD SVG 1.1//EN" "http://www.w3.org/Graphics/SVG/1.1/DTD/svg11.dtd">
<svg version="1.1" xmlns="http://www.w3.org/2000/svg" xmlns:xlink="http://www.w3.org/1999/xlink" width="10" height="14" viewBox="0 0 10 14">
<path fill="#444444" d="M7.813 3.391l0.289-1.516q0.039-0.18-0.070-0.312t-0.273-0.133h-5.562q-0.18 0-0.301 0.133t-0.121 0.289v8.602q0 0.055 0.047 0.008l2.273-2.75q0.18-0.203 0.297-0.262t0.375-0.059h1.867q0.172 0 0.289-0.113t0.141-0.23q0.187-1.016 0.289-1.492 0.031-0.164-0.090-0.312t-0.285-0.148h-2.297q-0.227 0-0.375-0.148t-0.148-0.375v-0.328q0-0.227 0.148-0.371t0.375-0.145h2.703q0.141 0 0.273-0.105t0.156-0.23zM9.586 1.656q-0.117 0.57-0.418 2.082t-0.543 2.734-0.273 1.355q-0.047 0.172-0.070 0.254t-0.109 0.254-0.191 0.258-0.301 0.164-0.453 0.078h-2.117q-0.102 0-0.172 0.078-0.062 0.070-3.328 3.859-0.172 0.195-0.457 0.223t-0.379-0.043q-0.43-0.172-0.43-0.766v-11.016q0-0.43 0.297-0.801t0.937-0.371h6.938q0.742 0 0.992 0.414t0.078 1.242zM9.586 1.656l-1.234 6.172q0.031-0.133 0.273-1.355t0.543-2.734 0.418-2.082z"></path>
</svg>
