<?xml version="1.0" encoding="utf-8"?>
<!-- Generated by IcoMoon.io -->
<!DOCTYPE svg PUBLIC "-//W3C//DTD SVG 1.1//EN" "http://www.w3.org/Graphics/SVG/1.1/DTD/svg11.dtd">
<svg version="1.1" xmlns="http://www.w3.org/2000/svg" xmlns:xlink="http://www.w3.org/1999/xlink" width="12" height="14" viewBox="0 0 12 14">
<path fill="#444444" d="M8.859 9.602q0.062 0.195-0.031 0.379t-0.289 0.246-0.383-0.031-0.25-0.297q-0.195-0.625-0.723-1.012t-1.184-0.387-1.184 0.387-0.723 1.012q-0.062 0.203-0.246 0.297t-0.379 0.031q-0.203-0.062-0.297-0.246t-0.031-0.379q0.289-0.945 1.078-1.523t1.781-0.578 1.781 0.578 1.078 1.523zM5 5q0 0.414-0.293 0.707t-0.707 0.293-0.707-0.293-0.293-0.707 0.293-0.707 0.707-0.293 0.707 0.293 0.293 0.707zM9 5q0 0.414-0.293 0.707t-0.707 0.293-0.707-0.293-0.293-0.707 0.293-0.707 0.707-0.293 0.707 0.293 0.293 0.707zM11 7q0-1.016-0.398-1.941t-1.066-1.594-1.594-1.066-1.941-0.398-1.941 0.398-1.594 1.066-1.066 1.594-0.398 1.941 0.398 1.941 1.066 1.594 1.594 1.066 1.941 0.398 1.941-0.398 1.594-1.066 1.066-1.594 0.398-1.941zM12 7q0 1.633-0.805 3.012t-2.184 2.184-3.012 0.805-3.012-0.805-2.184-2.184-0.805-3.012 0.805-3.012 2.184-2.184 3.012-0.805 3.012 0.805 2.184 2.184 0.805 3.012z"></path>
</svg>
