<?xml version="1.0" encoding="utf-8"?>
<!-- Generated by IcoMoon.io -->
<!DOCTYPE svg PUBLIC "-//W3C//DTD SVG 1.1//EN" "http://www.w3.org/Graphics/SVG/1.1/DTD/svg11.dtd">
<svg version="1.1" xmlns="http://www.w3.org/2000/svg" xmlns:xlink="http://www.w3.org/1999/xlink" width="15" height="14" viewBox="0 0 15 14">
<path fill="#444444" d="M6.5 8.5v-1q0-0.109-0.070-0.18t-0.18-0.070h-1.5v-1.5q0-0.109-0.070-0.18t-0.18-0.070h-1q-0.109 0-0.18 0.070t-0.070 0.18v1.5h-1.5q-0.109 0-0.18 0.070t-0.070 0.18v1q0 0.109 0.070 0.18t0.18 0.070h1.5v1.5q0 0.109 0.070 0.18t0.18 0.070h1q0.109 0 0.18-0.070t0.070-0.18v-1.5h1.5q0.109 0 0.18-0.070t0.070-0.18zM11 9q0-0.414-0.293-0.707t-0.707-0.293-0.707 0.293-0.293 0.707 0.293 0.707 0.707 0.293 0.707-0.293 0.293-0.707zM13 7q0-0.414-0.293-0.707t-0.707-0.293-0.707 0.293-0.293 0.707 0.293 0.707 0.707 0.293 0.707-0.293 0.293-0.707zM15 8q0 1.656-1.172 2.828t-2.828 1.172q-1.5 0-2.641-1h-1.719q-1.141 1-2.641 1-1.656 0-2.828-1.172t-1.172-2.828 1.172-2.828 2.828-1.172h7q1.656 0 2.828 1.172t1.172 2.828z"></path>
</svg>
