<?xml version="1.0" encoding="utf-8"?>
<!-- Generated by IcoMoon.io -->
<!DOCTYPE svg PUBLIC "-//W3C//DTD SVG 1.1//EN" "http://www.w3.org/Graphics/SVG/1.1/DTD/svg11.dtd">
<svg version="1.1" xmlns="http://www.w3.org/2000/svg" xmlns:xlink="http://www.w3.org/1999/xlink" width="14" height="14" viewBox="0 0 14 14">
<path fill="#444444" d="M13.836 12q0 0.414-0.289 0.703l-0.836 0.844q-0.305 0.289-0.711 0.289-0.414 0-0.703-0.289l-2.836-2.844q-0.297-0.281-0.297-0.703 0-0.414 0.336-0.75l-2-2-0.984 0.984q-0.109 0.109-0.266 0.109t-0.266-0.109q0.016 0.016 0.098 0.094t0.098 0.102 0.078 0.090 0.078 0.105 0.047 0.105 0.043 0.129 0.012 0.141q0 0.297-0.219 0.531-0.023 0.023-0.129 0.141t-0.148 0.16-0.145 0.129-0.172 0.121-0.172 0.070-0.203 0.035q-0.312 0-0.531-0.219l-3.188-3.188q-0.219-0.219-0.219-0.531 0-0.102 0.035-0.203t0.070-0.172 0.121-0.172 0.129-0.145 0.16-0.148 0.141-0.129q0.234-0.219 0.531-0.219 0.078 0 0.141 0.012t0.129 0.043 0.105 0.047 0.105 0.078 0.090 0.078 0.102 0.098 0.094 0.098q-0.109-0.109-0.109-0.266t0.109-0.266l2.719-2.719q0.109-0.109 0.266-0.109t0.266 0.109q-0.016-0.016-0.098-0.094t-0.098-0.102-0.078-0.090-0.078-0.105-0.047-0.105-0.043-0.129-0.012-0.141q0-0.297 0.219-0.531 0.023-0.023 0.129-0.141t0.148-0.16 0.145-0.129 0.172-0.121 0.172-0.070 0.203-0.035q0.312 0 0.531 0.219l3.188 3.188q0.219 0.219 0.219 0.531 0 0.102-0.035 0.203t-0.070 0.172-0.121 0.172-0.129 0.145-0.16 0.148-0.141 0.129q-0.234 0.219-0.531 0.219-0.078 0-0.141-0.012t-0.129-0.043-0.105-0.047-0.105-0.078-0.090-0.078-0.102-0.098-0.094-0.098q0.109 0.109 0.109 0.266t-0.109 0.266l-0.984 0.984 2 2q0.336-0.336 0.75-0.336 0.406 0 0.711 0.289l2.836 2.836q0.289 0.305 0.289 0.711z"></path>
</svg>
