<?xml version="1.0" encoding="utf-8"?>
<!-- Generated by IcoMoon.io -->
<!DOCTYPE svg PUBLIC "-//W3C//DTD SVG 1.1//EN" "http://www.w3.org/Graphics/SVG/1.1/DTD/svg11.dtd">
<svg version="1.1" xmlns="http://www.w3.org/2000/svg" xmlns:xlink="http://www.w3.org/1999/xlink" width="8" height="14" viewBox="0 0 8 14">
<path fill="#444444" d="M7.969 8.883v2.867q0 0.109-0.070 0.18t-0.18 0.070h-7.469q-0.109 0-0.18-0.070t-0.070-0.18v-1.172q0-0.102 0.074-0.176t0.176-0.074h0.758v-2.992h-0.742q-0.109 0-0.18-0.074t-0.070-0.176v-1.023q0-0.109 0.070-0.18t0.18-0.070h0.742v-1.742q0-1.336 0.965-2.203t2.457-0.867q1.445 0 2.617 0.977 0.070 0.062 0.078 0.16t-0.055 0.176l-0.805 0.992q-0.070 0.086-0.172 0.094-0.102 0.016-0.18-0.055-0.039-0.039-0.203-0.148t-0.539-0.25-0.727-0.141q-0.664 0-1.070 0.367t-0.406 0.961v1.68h2.383q0.102 0 0.176 0.070t0.074 0.18v1.023q0 0.102-0.074 0.176t-0.176 0.074h-2.383v2.961h3.234v-1.414q0-0.102 0.070-0.176t0.18-0.074h1.266q0.109 0 0.18 0.074t0.070 0.176z"></path>
</svg>
