<?xml version="1.0" encoding="utf-8"?>
<!-- Generated by IcoMoon.io -->
<!DOCTYPE svg PUBLIC "-//W3C//DTD SVG 1.1//EN" "http://www.w3.org/Graphics/SVG/1.1/DTD/svg11.dtd">
<svg version="1.1" xmlns="http://www.w3.org/2000/svg" xmlns:xlink="http://www.w3.org/1999/xlink" width="14" height="14" viewBox="0 0 14 14">
<path fill="#444444" d="M5.602 10.578l2.117-2.117-2.18-2.18-0.688 0.688 1.5 1.492-0.75 0.75-2.18-2.18 2.18-2.18 0.312 0.312 0.68-0.68-0.992-1-3.547 3.547zM8.398 10.516l3.547-3.547-3.547-3.547-2.117 2.117 2.18 2.18 0.688-0.688-1.5-1.492 0.75-0.75 2.18 2.18-2.18 2.18-0.312-0.312-0.68 0.688zM14 7q0 1.422-0.555 2.719t-1.492 2.234-2.234 1.492-2.719 0.555-2.719-0.555-2.234-1.492-1.492-2.234-0.555-2.719 0.555-2.719 1.492-2.234 2.234-1.492 2.719-0.555 2.719 0.555 2.234 1.492 1.492 2.234 0.555 2.719z"></path>
</svg>
