<?xml version="1.0" encoding="utf-8"?>
<!-- Generated by IcoMoon.io -->
<!DOCTYPE svg PUBLIC "-//W3C//DTD SVG 1.1//EN" "http://www.w3.org/Graphics/SVG/1.1/DTD/svg11.dtd">
<svg version="1.1" xmlns="http://www.w3.org/2000/svg" xmlns:xlink="http://www.w3.org/1999/xlink" width="12" height="14" viewBox="0 0 12 14">
<path fill="#444444" d="M7.25 10.594v-5.594h-2.5v5.594q0 0.195 0.141 0.301t0.359 0.105h1.5q0.219 0 0.359-0.105t0.141-0.301zM3.687 4h1.523l-0.984-1.258q-0.203-0.242-0.539-0.242-0.312 0-0.531 0.219t-0.219 0.531 0.219 0.531 0.531 0.219zM9.062 3.25q0-0.312-0.219-0.531t-0.531-0.219q-0.336 0-0.539 0.242l-0.977 1.258h1.516q0.312 0 0.531-0.219t0.219-0.531zM12 5.25v2.5q0 0.109-0.070 0.18t-0.18 0.070h-0.75v3.25q0 0.312-0.219 0.531t-0.531 0.219h-8.5q-0.312 0-0.531-0.219t-0.219-0.531v-3.25h-0.75q-0.109 0-0.18-0.070t-0.070-0.18v-2.5q0-0.109 0.070-0.18t0.18-0.070h3.438q-0.727 0-1.238-0.512t-0.512-1.238 0.512-1.238 1.238-0.512q0.836 0 1.313 0.602l1 1.289 1-1.289q0.477-0.602 1.313-0.602 0.727 0 1.238 0.512t0.512 1.238-0.512 1.238-1.238 0.512h3.438q0.109 0 0.18 0.070t0.070 0.18z"></path>
</svg>
