<?xml version="1.0" encoding="utf-8"?>
<!-- Generated by IcoMoon.io -->
<!DOCTYPE svg PUBLIC "-//W3C//DTD SVG 1.1//EN" "http://www.w3.org/Graphics/SVG/1.1/DTD/svg11.dtd">
<svg version="1.1" xmlns="http://www.w3.org/2000/svg" xmlns:xlink="http://www.w3.org/1999/xlink" width="12" height="14" viewBox="0 0 12 14">
<path fill="#444444" d="M4.547 10.219q0 0.516-0.727 0.516-0.836 0-0.836-0.492 0-0.5 0.766-0.5 0.797 0 0.797 0.477zM4.266 6.578q0 0.664-0.578 0.664-0.602 0-0.602-0.656 0-0.703 0.602-0.703 0.281 0 0.43 0.199t0.148 0.496zM5.562 5.992v-0.977q-0.609 0.227-1.055 0.227-0.391-0.227-0.859-0.227-0.672 0-1.133 0.445t-0.461 1.117q0 0.391 0.23 0.797t0.574 0.523v0.023q-0.297 0.133-0.297 0.664 0 0.414 0.32 0.602v0.023q-0.883 0.289-0.883 1.086 0 0.352 0.156 0.613t0.422 0.398 0.563 0.199 0.633 0.062q1.75 0 1.75-1.469 0-0.523-0.375-0.773t-0.984-0.359q-0.211-0.039-0.402-0.16t-0.191-0.309q0-0.344 0.383-0.406 0.602-0.117 0.953-0.547t0.352-1.047q0-0.187-0.078-0.406 0.289-0.070 0.383-0.102zM6.023 9.266h1.070q-0.016-0.211-0.016-0.641v-3.023q0-0.359 0.016-0.539h-1.070q0.023 0.18 0.023 0.555v3.063q0 0.391-0.023 0.586zM10 9.141v-0.945q-0.234 0.164-0.531 0.164-0.414 0-0.414-0.641v-1.758h0.406q0.070 0 0.207 0.008t0.207 0.008v-0.914h-0.82q0-0.641 0.023-0.797h-1.094q0.031 0.187 0.031 0.43v0.367h-0.469v0.914q0.281-0.023 0.289-0.023 0.023 0 0.086 0.004t0.094 0.004v0.016h-0.016v1.695q0 0.289 0.020 0.5t0.090 0.441 0.191 0.379 0.34 0.242 0.516 0.094q0.5 0 0.844-0.187zM7.219 3.625q0-0.281-0.187-0.496t-0.469-0.215-0.473 0.211-0.191 0.5q0 0.281 0.195 0.488t0.469 0.207 0.465-0.211 0.191-0.484zM12 3.25v7.5q0 0.93-0.66 1.59t-1.59 0.66h-7.5q-0.93 0-1.59-0.66t-0.66-1.59v-7.5q0-0.93 0.66-1.59t1.59-0.66h7.5q0.93 0 1.59 0.66t0.66 1.59z"></path>
</svg>
