<?xml version="1.0" encoding="utf-8"?>
<!-- Generated by IcoMoon.io -->
<!DOCTYPE svg PUBLIC "-//W3C//DTD SVG 1.1//EN" "http://www.w3.org/Graphics/SVG/1.1/DTD/svg11.dtd">
<svg version="1.1" xmlns="http://www.w3.org/2000/svg" xmlns:xlink="http://www.w3.org/1999/xlink" width="14" height="14" viewBox="0 0 14 14">
<path fill="#444444" d="M4.648 11.828q0-0.781-1.289-0.781-1.234 0-1.234 0.813 0 0.789 1.344 0.789 1.18 0 1.18-0.82zM4.188 5.93q0-0.477-0.234-0.797t-0.695-0.32q-0.969 0-0.969 1.133 0 1.055 0.969 1.055 0.93 0 0.93-1.070zM6.289 3.398v1.578q-0.281 0.094-0.617 0.172 0.125 0.336 0.125 0.656 0 0.992-0.57 1.691t-1.539 0.879q-0.312 0.062-0.465 0.211t-0.152 0.453q0 0.242 0.176 0.402t0.453 0.25 0.613 0.172 0.672 0.199 0.613 0.293 0.453 0.5 0.176 0.77q0 2.375-2.836 2.375-0.539 0-1.016-0.098t-0.906-0.32-0.684-0.641-0.254-0.996q0-1.289 1.422-1.758v-0.031q-0.523-0.32-0.523-0.984 0-0.852 0.492-1.070v-0.031q-0.563-0.187-0.934-0.848t-0.371-1.293q0-1.086 0.742-1.809t1.836-0.723q0.75 0 1.391 0.367 0.766 0 1.703-0.367zM8.773 10.281h-1.734q0.031-0.352 0.031-1.047v-4.758q0-0.734-0.031-1h1.734q-0.031 0.258-0.031 0.969v4.789q0 0.695 0.031 1.047zM13.469 8.547v1.531q-0.555 0.305-1.359 0.305-0.484 0-0.836-0.156t-0.547-0.391-0.309-0.609-0.145-0.719-0.031-0.805v-2.742h0.016v-0.031q-0.055 0-0.148-0.008t-0.141-0.008q-0.164 0-0.461 0.047v-1.484h0.75v-0.594q0-0.422-0.047-0.695h1.773q-0.047 0.32-0.047 1.289h1.336v1.484q-0.117 0-0.34-0.016t-0.332-0.016h-0.664v2.852q0 1.023 0.68 1.023 0.477 0 0.852-0.258zM8.969 1.148q0 0.453-0.305 0.793t-0.75 0.34q-0.453 0-0.766-0.34t-0.312-0.793q0-0.461 0.309-0.805t0.77-0.344q0.453 0 0.754 0.348t0.301 0.801z"></path>
</svg>
