<?xml version="1.0" encoding="utf-8"?>
<!-- Generated by IcoMoon.io -->
<!DOCTYPE svg PUBLIC "-//W3C//DTD SVG 1.1//EN" "http://www.w3.org/Graphics/SVG/1.1/DTD/svg11.dtd">
<svg version="1.1" xmlns="http://www.w3.org/2000/svg" xmlns:xlink="http://www.w3.org/1999/xlink" width="12" height="14" viewBox="0 0 12 14">
<path fill="#444444" d="M3.078 10.562q-0.062 0.070-0.156-0.023-0.102-0.086-0.031-0.148 0.062-0.070 0.156 0.023 0.094 0.086 0.031 0.148zM2.75 10.086q0.070 0.094 0 0.148-0.062 0.047-0.133-0.055t0-0.141q0.070-0.055 0.133 0.047zM2.273 9.617q-0.039 0.055-0.102 0.016-0.078-0.039-0.055-0.094 0.023-0.039 0.102-0.016 0.078 0.039 0.055 0.094zM2.516 9.883q-0.047 0.055-0.125-0.023-0.070-0.086-0.016-0.125 0.047-0.047 0.125 0.023 0.070 0.086 0.016 0.125zM3.523 10.758q-0.031 0.094-0.148 0.047-0.133-0.031-0.102-0.117t0.148-0.055q0.125 0.039 0.102 0.125zM4.016 10.797q0 0.086-0.125 0.086-0.133 0.016-0.133-0.086 0-0.086 0.125-0.086 0.133-0.016 0.133 0.086zM4.469 10.719q0.016 0.078-0.109 0.109t-0.141-0.062 0.109-0.117q0.125-0.016 0.141 0.070zM12 3.25v7.5q0 0.93-0.66 1.59t-1.59 0.66h-1.75q-0.125 0-0.191-0.008t-0.152-0.039-0.125-0.113-0.039-0.215v-1.867q0-0.758-0.406-1.109 0.445-0.047 0.801-0.141t0.734-0.305 0.633-0.52 0.414-0.82 0.16-1.176q0-0.945-0.617-1.609 0.289-0.711-0.062-1.594-0.219-0.070-0.633 0.086t-0.719 0.344l-0.297 0.187q-0.727-0.203-1.5-0.203t-1.5 0.203q-0.125-0.086-0.332-0.211t-0.652-0.301-0.672-0.105q-0.344 0.883-0.055 1.594-0.617 0.664-0.617 1.609 0 0.664 0.16 1.172t0.41 0.82 0.629 0.523 0.734 0.305 0.801 0.141q-0.312 0.281-0.383 0.805-0.164 0.078-0.352 0.117t-0.445 0.039-0.512-0.168-0.434-0.488q-0.148-0.25-0.379-0.406t-0.387-0.187l-0.156-0.023q-0.164 0-0.227 0.035t-0.039 0.090 0.070 0.109 0.102 0.094l0.055 0.039q0.172 0.078 0.34 0.297t0.246 0.398l0.078 0.18q0.102 0.297 0.344 0.48t0.523 0.234 0.543 0.055 0.434-0.027l0.18-0.031q0 0.297 0.004 0.805t0.004 0.531q0 0.172-0.086 0.262t-0.172 0.102-0.258 0.012h-1.75q-0.93 0-1.59-0.66t-0.66-1.59v-7.5q0-0.93 0.66-1.59t1.59-0.66h7.5q0.93 0 1.59 0.66t0.66 1.59z"></path>
</svg>
