<?xml version="1.0" encoding="utf-8"?>
<!-- Generated by IcoMoon.io -->
<!DOCTYPE svg PUBLIC "-//W3C//DTD SVG 1.1//EN" "http://www.w3.org/Graphics/SVG/1.1/DTD/svg11.dtd">
<svg version="1.1" xmlns="http://www.w3.org/2000/svg" xmlns:xlink="http://www.w3.org/1999/xlink" width="12" height="14" viewBox="0 0 12 14">
<path fill="#444444" d="M6.039 10.172l2.734-3.695q0.125-0.172 0.191-0.461t-0.047-0.664-0.48-0.617q-0.312-0.203-0.648-0.199t-0.574 0.137-0.426 0.352q-0.281 0.312-0.75 0.312-0.461 0-0.742-0.312-0.187-0.219-0.426-0.352t-0.574-0.137-0.656 0.199q-0.359 0.242-0.473 0.617t-0.047 0.664 0.191 0.461zM12 7q0 1.633-0.805 3.012t-2.184 2.184-3.012 0.805-3.012-0.805-2.184-2.184-0.805-3.012 0.805-3.012 2.184-2.184 3.012-0.805 3.012 0.805 2.184 2.184 0.805 3.012z"></path>
</svg>
