<?xml version="1.0" encoding="utf-8"?>
<!-- Generated by IcoMoon.io -->
<!DOCTYPE svg PUBLIC "-//W3C//DTD SVG 1.1//EN" "http://www.w3.org/Graphics/SVG/1.1/DTD/svg11.dtd">
<svg version="1.1" xmlns="http://www.w3.org/2000/svg" xmlns:xlink="http://www.w3.org/1999/xlink" width="10" height="14" viewBox="0 0 10 14">
<path fill="#444444" d="M7.664 10.461q0-0.195-0.055-0.383t-0.113-0.328-0.211-0.324-0.23-0.273-0.301-0.27-0.285-0.227-0.324-0.234-0.285-0.203q-0.125-0.016-0.383-0.016-0.414 0-0.816 0.055t-0.836 0.195-0.758 0.359-0.535 0.582-0.211 0.824q0 0.438 0.184 0.797t0.477 0.59 0.68 0.391 0.781 0.227 0.793 0.066q0.453 0 0.871-0.102t0.773-0.305 0.57-0.57 0.215-0.852zM6.75 3.758q0-0.461-0.133-0.98t-0.375-1.008-0.656-0.809-0.914-0.32q-0.328 0-0.645 0.152t-0.52 0.41q-0.359 0.461-0.359 1.25 0 0.359 0.078 0.762t0.246 0.805 0.406 0.723 0.586 0.523 0.754 0.203q0.289 0 0.605-0.129t0.512-0.34q0.414-0.438 0.414-1.242zM5.875 0h3.258l-1.070 0.688h-1.031q0.586 0.492 0.883 1.039t0.297 1.25q0 0.563-0.191 1.012t-0.465 0.727-0.543 0.508-0.461 0.48-0.191 0.516q0 0.281 0.25 0.551t0.602 0.531 0.707 0.574 0.605 0.813 0.25 1.109q0 0.711-0.383 1.352-0.555 0.953-1.637 1.402t-2.332 0.449q-1.031 0-1.926-0.324t-1.348-1.074q-0.281-0.461-0.281-1.023 0-0.633 0.348-1.172t0.926-0.898q1.023-0.641 3.156-0.781-0.25-0.32-0.371-0.574t-0.121-0.574q0-0.312 0.164-0.664-0.359 0.031-0.531 0.031-1.156 0-1.949-0.754t-0.793-1.91q0-0.641 0.281-1.242t0.773-1.023q0.594-0.516 1.422-0.766t1.703-0.25z"></path>
</svg>
