<?xml version="1.0" encoding="utf-8"?>
<!-- Generated by IcoMoon.io -->
<!DOCTYPE svg PUBLIC "-//W3C//DTD SVG 1.1//EN" "http://www.w3.org/Graphics/SVG/1.1/DTD/svg11.dtd">
<svg version="1.1" xmlns="http://www.w3.org/2000/svg" xmlns:xlink="http://www.w3.org/1999/xlink" width="12" height="14" viewBox="0 0 12 14">
<path fill="#444444" d="M6.477 9.516q0 0.594-0.457 0.879t-1.090 0.285q-0.32 0-0.629-0.074t-0.59-0.223-0.453-0.414-0.172-0.609q0-0.359 0.195-0.625t0.512-0.402 0.641-0.195 0.66-0.059q0.156 0 0.242 0.016 0.016 0.008 0.18 0.129t0.203 0.148 0.18 0.141 0.191 0.172 0.148 0.176 0.133 0.203 0.070 0.207 0.035 0.246zM5.898 5.258q0 0.469-0.258 0.777t-0.719 0.309q-0.414 0-0.727-0.332t-0.449-0.754-0.137-0.828q0-0.477 0.25-0.813t0.719-0.336q0.414 0 0.73 0.352t0.453 0.789 0.137 0.836zM6.727 3.25l0.688-0.5h-2.070q-0.664 0-1.258 0.25t-0.996 0.766-0.402 1.195q0 0.727 0.504 1.207t1.238 0.48q0.172 0 0.336-0.023-0.102 0.227-0.102 0.422 0 0.344 0.312 0.734-1.367 0.094-2.008 0.492-0.367 0.227-0.59 0.57t-0.223 0.742q0 0.336 0.145 0.605t0.379 0.441 0.539 0.289 0.605 0.164 0.598 0.047q0.469 0 0.941-0.121t0.887-0.359 0.672-0.645 0.258-0.914q0-0.383-0.156-0.699t-0.383-0.52-0.453-0.371-0.383-0.344-0.156-0.348 0.121-0.332 0.293-0.309 0.344-0.328 0.293-0.465 0.121-0.645q0-0.469-0.176-0.777t-0.566-0.707h0.648zM9 6.75h1v-0.5h-1v-1h-0.5v1h-1v0.5h1v1.25h0.5v-1.25zM12 3.25v7.5q0 0.93-0.66 1.59t-1.59 0.66h-7.5q-0.93 0-1.59-0.66t-0.66-1.59v-7.5q0-0.93 0.66-1.59t1.59-0.66h7.5q0.93 0 1.59 0.66t0.66 1.59z"></path>
</svg>
