<?xml version="1.0" encoding="utf-8"?>
<!-- Generated by IcoMoon.io -->
<!DOCTYPE svg PUBLIC "-//W3C//DTD SVG 1.1//EN" "http://www.w3.org/Graphics/SVG/1.1/DTD/svg11.dtd">
<svg version="1.1" xmlns="http://www.w3.org/2000/svg" xmlns:xlink="http://www.w3.org/1999/xlink" width="14" height="14" viewBox="0 0 14 14">
<path fill="#444444" d="M4.703 4.586q0.148 0.477 0.242 0.965t0.133 1.105-0.109 1.242-0.484 1.133q-0.164-0.633-0.523-1.227t-0.746-0.992-0.773-0.707-0.613-0.449-0.258-0.148q-0.484-0.266-0.637-0.781t0.113-1 0.789-0.637 1.008 0.113q1.078 0.648 1.859 1.383zM7.242 2.344q0.086 0.195 0.16 0.359t0.285 0.785 0.332 1.176 0.199 1.402 0 1.605-0.371 1.637-0.824 1.629q-0.398 0.563-1.078 0.563-0.422 0-0.766-0.242-0.445-0.312-0.539-0.852t0.219-0.992q0.469-0.664 0.633-1.523t0.102-1.559-0.25-1.41-0.305-1-0.172-0.406q-0.242-0.492-0.066-1.012t0.668-0.762q0.266-0.133 0.586-0.133 0.367 0 0.691 0.195t0.496 0.539zM9.75 7.57q-0.133 1.25-0.563 2.43-0.133-1.023-0.492-1.922 0.195-1.359-0.039-2.82-0.211-1.391-0.734-2.672 0.891 0.703 1.656 1.648 0.070 0.289 0.117 0.625 0.203 1.398 0.055 2.711zM11.875 0.75q0.070 0.133 0.184 0.387t0.34 0.918 0.395 1.391 0.266 1.777 0.039 2.102-0.367 2.344-0.879 2.527q-0.172 0.375-0.516 0.59t-0.742 0.215q-0.305 0-0.578-0.125-0.523-0.242-0.723-0.781t0.035-1.062q0.453-0.984 0.703-2.012t0.293-1.871-0.027-1.668-0.207-1.41-0.301-1.082-0.254-0.703-0.121-0.254q-0.266-0.508-0.090-1.059t0.684-0.816q0.289-0.156 0.633-0.156 0.383 0 0.715 0.199t0.52 0.551z"></path>
</svg>
