<?xml version="1.0" encoding="utf-8"?>
<!-- Generated by IcoMoon.io -->
<!DOCTYPE svg PUBLIC "-//W3C//DTD SVG 1.1//EN" "http://www.w3.org/Graphics/SVG/1.1/DTD/svg11.dtd">
<svg version="1.1" xmlns="http://www.w3.org/2000/svg" xmlns:xlink="http://www.w3.org/1999/xlink" width="13" height="14" viewBox="0 0 13 14">
<path fill="#444444" d="M5.742 6.219q0 0.281 0.25 0.551t0.605 0.531 0.707 0.574 0.602 0.813 0.25 1.109q0 0.703-0.375 1.352-0.563 0.953-1.648 1.402t-2.328 0.449q-1.031 0-1.926-0.324t-1.34-1.074q-0.289-0.469-0.289-1.023 0-0.633 0.348-1.172t0.926-0.898q1.023-0.641 3.156-0.781-0.25-0.328-0.371-0.578t-0.121-0.57q0-0.281 0.164-0.664-0.359 0.031-0.531 0.031-1.156 0-1.949-0.754t-0.793-1.91q0-0.641 0.281-1.242t0.773-1.023q0.602-0.516 1.426-0.766t1.699-0.25h3.266l-1.078 0.688h-1.023q0.578 0.492 0.875 1.039t0.297 1.25q0 0.563-0.191 1.012t-0.461 0.727-0.543 0.508-0.465 0.48-0.191 0.516zM4.602 5.469q0.297 0 0.609-0.129t0.516-0.34q0.414-0.445 0.414-1.242 0-0.453-0.133-0.977t-0.379-1.012-0.66-0.809-0.914-0.32q-0.328 0-0.645 0.152t-0.512 0.41q-0.367 0.461-0.367 1.25 0 0.359 0.078 0.762t0.246 0.805 0.406 0.723 0.586 0.523 0.754 0.203zM4.617 12.289q0.453 0 0.871-0.102t0.773-0.305 0.57-0.57 0.215-0.852q0-0.195-0.055-0.383t-0.113-0.328-0.211-0.324-0.23-0.273-0.301-0.27-0.285-0.227-0.324-0.234-0.285-0.203q-0.125-0.016-0.375-0.016-0.414 0-0.82 0.055t-0.84 0.195-0.758 0.359-0.535 0.582-0.211 0.824q0 0.547 0.273 0.965t0.715 0.648 0.93 0.344 0.996 0.113zM10.945 5.445h1.664v0.844h-1.664v1.711h-0.82v-1.711h-1.656v-0.844h1.656v-1.695h0.82v1.695z"></path>
</svg>
