<?xml version="1.0" encoding="utf-8"?>
<!-- Generated by IcoMoon.io -->
<!DOCTYPE svg PUBLIC "-//W3C//DTD SVG 1.1//EN" "http://www.w3.org/Graphics/SVG/1.1/DTD/svg11.dtd">
<svg version="1.1" xmlns="http://www.w3.org/2000/svg" xmlns:xlink="http://www.w3.org/1999/xlink" width="12" height="14" viewBox="0 0 12 14">
<path fill="#444444" d="M10 12.5q0-0.203-0.148-0.352t-0.352-0.148-0.352 0.148-0.148 0.352 0.148 0.352 0.352 0.148 0.352-0.148 0.148-0.352zM11 6.531q0-1.477-1.305-1.477-0.203 0-0.438 0.039-0.125-0.234-0.41-0.371t-0.574-0.137-0.539 0.141q-0.391-0.414-0.93-0.414-0.195 0-0.434 0.078t-0.371 0.195v-2.586q0-0.406-0.297-0.703t-0.703-0.297q-0.398 0-0.699 0.305t-0.301 0.695v4.5q-0.156 0-0.379-0.117t-0.43-0.258-0.531-0.258-0.66-0.117q-0.523 0-0.762 0.348t-0.238 0.902q0 0.187 1.086 0.703 0.344 0.187 0.508 0.289 0.5 0.312 1.133 0.875 0.633 0.555 0.828 0.789 0.445 0.539 0.445 1.094v0.25h5v-0.25q0-0.563 0.25-1.305t0.5-1.512 0.25-1.402zM12 6.492q0 1.039-0.539 2.516-0.461 1.281-0.461 1.742v2.25q0 0.414-0.293 0.707t-0.707 0.293h-5q-0.414 0-0.707-0.293t-0.293-0.707v-2.25q0-0.078-0.035-0.168t-0.109-0.184-0.141-0.176-0.176-0.187-0.168-0.16-0.168-0.148-0.133-0.109q-0.578-0.508-1.008-0.781-0.164-0.102-0.484-0.258t-0.563-0.289-0.492-0.316-0.387-0.43-0.137-0.543q0-0.977 0.523-1.613t1.477-0.637q0.531 0 1 0.172v-2.922q0-0.813 0.594-1.406t1.398-0.594q0.82 0 1.414 0.59t0.594 1.41v1.32q0.484 0.031 0.93 0.289 0.164-0.023 0.336-0.023 0.789 0 1.391 0.469 1.086-0.008 1.715 0.664t0.629 1.773z"></path>
</svg>
