<?xml version="1.0" encoding="utf-8"?>
<!-- Generated by IcoMoon.io -->
<!DOCTYPE svg PUBLIC "-//W3C//DTD SVG 1.1//EN" "http://www.w3.org/Graphics/SVG/1.1/DTD/svg11.dtd">
<svg version="1.1" xmlns="http://www.w3.org/2000/svg" xmlns:xlink="http://www.w3.org/1999/xlink" width="14" height="14" viewBox="0 0 14 14">
<path fill="#444444" d="M8.383 13h-1.383q-1.273 0-1.766-1.102-0.18-0.383-0.18-0.797v-0.039q-0.484-0.234-0.77-0.691t-0.285-0.996q0-0.297 0.039-0.375h-2.039q-0.828 0-1.414-0.586t-0.586-1.414 0.586-1.414 1.414-0.586h0.883l-0.344-0.133q-0.578-0.219-0.934-0.73t-0.355-1.137q0-0.828 0.586-1.414t1.414-0.586q0.359 0 0.711 0.133l4.906 1.867h3.133q0.828 0 1.414 0.586t0.586 1.414v5.219q0 0.688-0.422 1.23t-1.094 0.707l-2.648 0.664q-0.719 0.18-1.453 0.18zM8 7.445l-1.211 0.555-1.273 0.578q-0.234 0.109-0.375 0.324t-0.141 0.473q0 0.359 0.258 0.617t0.617 0.258q0.203 0 0.359-0.078l2.641-1.203q-0.383-0.078-0.629-0.391t-0.246-0.703v-0.43zM10.5 9.875q0-0.359-0.258-0.617t-0.617-0.258q-0.203 0-0.359 0.078l-2.266 1.031q-0.219 0.102-0.289 0.133t-0.238 0.133-0.23 0.184-0.125 0.227-0.062 0.316q0 0.391 0.246 0.641t0.637 0.25q0.156 0 0.297-0.070l2.75-1.25q0.234-0.109 0.375-0.324t0.141-0.473zM8.688 4l-5.078-1.937q-0.187-0.062-0.359-0.062-0.414 0-0.707 0.293t-0.293 0.707q0 0.312 0.176 0.57t0.465 0.367l4.109 1.563v0.5h-5q-0.414 0-0.707 0.293t-0.293 0.707 0.293 0.707 0.707 0.293h4.18l1.82-0.828v-1.547q0-0.492 0.359-0.828l0.867-0.797h-0.539zM8.383 12q0.641 0 1.211-0.148l2.648-0.664q0.336-0.086 0.547-0.355t0.211-0.613v-5.219q0-0.414-0.293-0.707t-0.707-0.293h-2.406l-1.062 0.984q-0.281 0.258-0.281 0.641v2.313q0 0.359 0.258 0.602t0.617 0.242 0.617-0.273 0.258-0.633v-1.625h0.25v1.625q0 0.547-0.445 0.891 0.406 0.062 0.676 0.379t0.27 0.73q0 0.328-0.18 0.609t-0.477 0.414l-2.422 1.102h0.711z"></path>
</svg>
