<?xml version="1.0" encoding="utf-8"?>
<!-- Generated by IcoMoon.io -->
<!DOCTYPE svg PUBLIC "-//W3C//DTD SVG 1.1//EN" "http://www.w3.org/Graphics/SVG/1.1/DTD/svg11.dtd">
<svg version="1.1" xmlns="http://www.w3.org/2000/svg" xmlns:xlink="http://www.w3.org/1999/xlink" width="13" height="14" viewBox="0 0 13 14">
<path fill="#444444" d="M5 1q-0.414 0-0.707 0.293t-0.293 0.707v7l-1.18-1.578q-0.32-0.422-0.836-0.422-0.406 0-0.695 0.297t-0.289 0.703q0 0.336 0.203 0.602l3 4q0.297 0.398 0.797 0.398h5.609q0.172 0 0.309-0.105t0.176-0.27l0.719-2.875q0.187-0.75 0.187-1.516v-1.695q0-0.32-0.219-0.555t-0.531-0.234-0.531 0.219-0.219 0.531h-0.25v-0.477q0-0.375-0.25-0.637t-0.625-0.262q-0.359 0-0.617 0.258t-0.258 0.617v0.5h-0.25v-0.703q0-0.43-0.289-0.738t-0.711-0.309q-0.414 0-0.707 0.293t-0.293 0.707v0.75h-0.25v-4.453q0-0.43-0.289-0.738t-0.711-0.309zM5 0q0.836 0 1.418 0.605t0.582 1.441v1.719q0.172-0.016 0.25-0.016 0.773 0 1.352 0.539 0.367-0.164 0.773-0.164 0.883 0 1.438 0.68 0.211-0.055 0.438-0.055 0.734 0 1.242 0.527t0.508 1.262v1.695q0 0.906-0.219 1.758l-0.719 2.875q-0.125 0.5-0.531 0.816t-0.922 0.316h-5.609q-0.469 0-0.895-0.215t-0.707-0.582l-3-4q-0.398-0.531-0.398-1.203 0-0.82 0.582-1.41t1.402-0.59q0.555 0 1.016 0.273v-4.273q0-0.828 0.586-1.414t1.414-0.586zM6 11v-3h-0.25v3h0.25zM8 11v-3h-0.25v3h0.25zM10 11v-3h-0.25v3h0.25z"></path>
</svg>
