<?xml version="1.0" encoding="utf-8"?>
<!-- Generated by IcoMoon.io -->
<!DOCTYPE svg PUBLIC "-//W3C//DTD SVG 1.1//EN" "http://www.w3.org/Graphics/SVG/1.1/DTD/svg11.dtd">
<svg version="1.1" xmlns="http://www.w3.org/2000/svg" xmlns:xlink="http://www.w3.org/1999/xlink" width="13" height="14" viewBox="0 0 13 14">
<path fill="#444444" d="M6.875 1q-0.359 0-0.617 0.258t-0.258 0.617v5.125h-0.25v-4.125q0-0.359-0.258-0.617t-0.617-0.258-0.617 0.258-0.258 0.617v6.125l-1.203-1.602q-0.297-0.398-0.797-0.398-0.414 0-0.707 0.293t-0.293 0.707q0 0.336 0.203 0.602l3 4q0.297 0.398 0.797 0.398h5.375q0.266 0 0.477-0.172t0.266-0.438l0.594-3.164q0.039-0.25 0.039-0.461v-3.891q0-0.359-0.258-0.617t-0.617-0.258-0.617 0.258-0.258 0.617v2.125h-0.25v-4.125q0-0.359-0.258-0.617t-0.617-0.258-0.617 0.258-0.258 0.617v4.125h-0.25v-5.125q0-0.359-0.258-0.617t-0.617-0.258zM6.875 0q0.531 0 0.98 0.277t0.691 0.754q0.148-0.031 0.328-0.031 0.773 0 1.324 0.551t0.551 1.324v0.133q0.82-0.047 1.41 0.5t0.59 1.367v3.891q0 0.312-0.062 0.648l-0.594 3.156q-0.109 0.617-0.598 1.023t-1.121 0.406h-5.375q-0.469 0-0.895-0.215t-0.707-0.582l-3-4q-0.398-0.531-0.398-1.203 0-0.828 0.586-1.414t1.414-0.586q0.609 0 1 0.266v-3.391q0-0.773 0.551-1.324t1.324-0.551q0.18 0 0.328 0.031 0.242-0.477 0.691-0.754t0.98-0.277z"></path>
</svg>
