<?xml version="1.0" encoding="utf-8"?>
<!-- Generated by IcoMoon.io -->
<!DOCTYPE svg PUBLIC "-//W3C//DTD SVG 1.1//EN" "http://www.w3.org/Graphics/SVG/1.1/DTD/svg11.dtd">
<svg version="1.1" xmlns="http://www.w3.org/2000/svg" xmlns:xlink="http://www.w3.org/1999/xlink" width="12" height="14" viewBox="0 0 12 14">
<path fill="#444444" d="M11 7.5q0-0.656-0.25-1.43t-0.5-1.516-0.25-1.305v-0.25h-5v0.25q0 0.273-0.094 0.527t-0.289 0.488-0.359 0.391-0.422 0.383q-0.070 0.062-0.109 0.094-0.633 0.563-1.133 0.875-0.172 0.109-0.531 0.297-0.023 0.008-0.176 0.082t-0.281 0.145-0.277 0.156-0.238 0.168-0.090 0.145q0 0.555 0.238 0.902t0.762 0.348q0.336 0 0.66-0.117t0.531-0.258 0.43-0.258 0.379-0.117v4.5q0 0.391 0.301 0.695t0.699 0.305q0.406 0 0.703-0.297t0.297-0.703v-2.586q0.359 0.273 0.805 0.273 0.539 0 0.93-0.414 0.25 0.141 0.539 0.141t0.574-0.137 0.41-0.371q0.187 0.031 0.438 0.031 0.664 0 0.984-0.379t0.32-1.059zM10 1.5q0-0.203-0.148-0.352t-0.352-0.148-0.352 0.148-0.148 0.352 0.148 0.352 0.352 0.148 0.352-0.148 0.148-0.352zM12 7.469q0 1.109-0.605 1.797t-1.699 0.68l-0.039-0.008q-0.594 0.477-1.391 0.477-0.172 0-0.336-0.023-0.422 0.234-0.93 0.289v1.32q0 0.82-0.594 1.41t-1.414 0.59q-0.805 0-1.398-0.594t-0.594-1.406v-2.922q-0.422 0.172-1 0.172-0.945 0-1.473-0.637t-0.527-1.613q0-0.297 0.137-0.543t0.387-0.43 0.492-0.316 0.563-0.289 0.484-0.258q0.43-0.273 1.008-0.781 0.023-0.016 0.133-0.109t0.168-0.148 0.168-0.16 0.176-0.187 0.141-0.176 0.109-0.184 0.035-0.168v-2.25q0-0.414 0.293-0.707t0.707-0.293h5q0.414 0 0.707 0.293t0.293 0.707v2.25q0 0.461 0.461 1.742 0.539 1.484 0.539 2.477z"></path>
</svg>
