<?xml version="1.0" encoding="utf-8"?>
<!-- Generated by IcoMoon.io -->
<!DOCTYPE svg PUBLIC "-//W3C//DTD SVG 1.1//EN" "http://www.w3.org/Graphics/SVG/1.1/DTD/svg11.dtd">
<svg version="1.1" xmlns="http://www.w3.org/2000/svg" xmlns:xlink="http://www.w3.org/1999/xlink" width="15" height="14" viewBox="0 0 15 14">
<path fill="#444444" d="M6.375 1q-0.375 0-0.621 0.266t-0.246 0.641q0 0.109 0.023 0.219l1.172 4.875h-0.203l-0.906-3.766q-0.070-0.297-0.309-0.484t-0.543-0.187q-0.367 0-0.617 0.266t-0.25 0.633q0 0.086 0.031 0.227 0.023 0.102 0.305 1.258t0.531 2.203 0.25 1.078v1.773l-2.398-1.797q-0.266-0.203-0.602-0.203-0.406 0-0.699 0.285t-0.293 0.691q0 0.523 0.438 0.859l3.961 2.961q0.266 0.203 0.594 0.203h5.422q0.258 0 0.461-0.16t0.266-0.41l0.781-3.133q0.062-0.234 0.078-0.688t0.070-0.672l0.906-3.734q0.023-0.094 0.023-0.203 0-0.359-0.258-0.617t-0.625-0.258q-0.297 0-0.539 0.199t-0.312 0.488l-0.773 3.188h-0.203l1.031-4.273q0.023-0.109 0.023-0.219 0-0.367-0.25-0.625t-0.625-0.258q-0.297 0-0.535 0.187t-0.309 0.484l-1.133 4.703h-0.992l-1.281-5.328q-0.070-0.297-0.309-0.484t-0.535-0.187zM11.414 14h-5.422q-0.664 0-1.195-0.398l-3.961-2.969q-0.391-0.297-0.613-0.734t-0.223-0.922q0-0.82 0.586-1.398t1.406-0.578q0.195 0 0.387 0.043t0.324 0.086 0.32 0.16 0.273 0.18 0.301 0.23 0.293 0.223l-0.961-4q-0.055-0.273-0.055-0.461 0-0.727 0.469-1.266t1.187-0.617q0.109-0.68 0.629-1.129t1.215-0.449q0.648 0 1.156 0.402t0.664 1.035l0.805 3.344 0.648-2.719q0.156-0.633 0.664-1.035t1.156-0.402q0.68 0 1.191 0.422t0.645 1.086q0.727 0.078 1.211 0.609t0.484 1.258q0 0.234-0.055 0.445l-0.906 3.727q-0.039 0.172-0.039 0.523 0 0.398-0.102 0.844l-0.789 3.133q-0.148 0.586-0.621 0.957t-1.074 0.371z"></path>
</svg>
