<?xml version="1.0" encoding="utf-8"?>
<!-- Generated by IcoMoon.io -->
<!DOCTYPE svg PUBLIC "-//W3C//DTD SVG 1.1//EN" "http://www.w3.org/Graphics/SVG/1.1/DTD/svg11.dtd">
<svg version="1.1" xmlns="http://www.w3.org/2000/svg" xmlns:xlink="http://www.w3.org/1999/xlink" width="16" height="14" viewBox="0 0 16 14">
<path fill="#444444" d="M8.992 0q0.477 0 0.906 0.219t0.711 0.602l4.469 6.102q0.922 1.242 0.922 2.805v2.773q0 0.625-0.438 1.062t-1.062 0.438h-3q-0.625 0-1.062-0.438t-0.438-1.062v-1.383l-2.234-1.117h-4.266q-0.625 0-1.062-0.438t-0.438-1.062v-0.25q0-0.93 0.66-1.59t1.59-0.66h3.281l0.328-1h-5.359q-0.781 0-1.355-0.527t-0.637-1.301q-0.508-0.617-0.508-1.422v-0.25q0-0.625 0.438-1.062t1.062-0.438h7.492zM15 12.5v-2.773q0-1.227-0.727-2.219l-4.477-6.102q-0.305-0.406-0.805-0.406h-7.492q-0.203 0-0.352 0.148t-0.148 0.352q0 0.25 0.012 0.387t0.074 0.316 0.195 0.336q0.078-0.242 0.277-0.391t0.441-0.148h6.5v0.25h-6.5q-0.203 0-0.352 0.148t-0.148 0.352q0 0.344 0.023 0.453 0.062 0.344 0.344 0.57t0.633 0.227h5.711q0.312 0 0.531 0.219t0.219 0.531q0 0.117-0.039 0.234l-0.5 1.5q-0.078 0.227-0.273 0.371t-0.437 0.145h-3.461q-0.516 0-0.883 0.367t-0.367 0.883v0.25q0 0.203 0.148 0.352t0.352 0.148h4.383q0.125 0 0.227 0.055l2.477 1.234q0.187 0.102 0.301 0.281t0.113 0.391v1.539q0 0.203 0.148 0.352t0.352 0.148h3q0.203 0 0.352-0.148t0.148-0.352z"></path>
</svg>
