<?xml version="1.0" encoding="utf-8"?>
<!-- Generated by IcoMoon.io -->
<!DOCTYPE svg PUBLIC "-//W3C//DTD SVG 1.1//EN" "http://www.w3.org/Graphics/SVG/1.1/DTD/svg11.dtd">
<svg version="1.1" xmlns="http://www.w3.org/2000/svg" xmlns:xlink="http://www.w3.org/1999/xlink" width="14" height="14" viewBox="0 0 14 14">
<path fill="#444444" d="M10.75 11h0.25v-5h-0.25q-0.273 0-0.527-0.094t-0.488-0.289-0.391-0.359-0.383-0.422q-0.016-0.023-0.027-0.035t-0.031-0.035-0.035-0.039q-0.563-0.633-0.875-1.133-0.109-0.172-0.297-0.531-0.008-0.023-0.082-0.176t-0.145-0.281-0.156-0.277-0.168-0.238-0.145-0.090q-0.555 0-0.902 0.238t-0.348 0.762q0 0.336 0.117 0.66t0.258 0.531 0.258 0.43 0.117 0.379h-4.5q-0.391 0-0.695 0.301t-0.305 0.699q0 0.406 0.297 0.703t0.703 0.297h2.586q-0.117 0.133-0.195 0.371t-0.078 0.434q0 0.539 0.414 0.93-0.141 0.25-0.141 0.539t0.137 0.574 0.371 0.41q-0.031 0.187-0.031 0.438 0 0.664 0.379 0.984t1.059 0.32q0.656 0 1.43-0.25t1.516-0.5 1.305-0.25zM13 10.5q0-0.203-0.148-0.352t-0.352-0.148-0.352 0.148-0.148 0.352 0.148 0.352 0.352 0.148 0.352-0.148 0.148-0.352zM14 6v5q0 0.414-0.293 0.707t-0.707 0.293h-2.25q-0.461 0-1.742 0.461-1.484 0.539-2.477 0.539-1.109 0-1.797-0.605t-0.68-1.699l0.008-0.039q-0.477-0.594-0.477-1.391 0-0.172 0.023-0.336-0.258-0.445-0.289-0.93h-1.32q-0.82 0-1.41-0.594t-0.59-1.414q0-0.805 0.594-1.398t1.406-0.594h2.922q-0.172-0.469-0.172-1 0-0.953 0.637-1.477t1.613-0.523q0.297 0 0.543 0.137t0.43 0.387 0.316 0.492 0.289 0.563 0.258 0.484q0.273 0.43 0.781 1.008 0.016 0.023 0.109 0.133t0.148 0.168 0.16 0.168 0.187 0.176 0.176 0.141 0.184 0.109 0.168 0.035h2.25q0.414 0 0.707 0.293t0.293 0.707z"></path>
</svg>
