<?xml version="1.0" encoding="utf-8"?>
<!-- Generated by IcoMoon.io -->
<!DOCTYPE svg PUBLIC "-//W3C//DTD SVG 1.1//EN" "http://www.w3.org/Graphics/SVG/1.1/DTD/svg11.dtd">
<svg version="1.1" xmlns="http://www.w3.org/2000/svg" xmlns:xlink="http://www.w3.org/1999/xlink" width="12" height="14" viewBox="0 0 12 14">
<path fill="#444444" d="M8.125 9.5q0 0.258-0.184 0.441t-0.441 0.184-0.441-0.184-0.184-0.441 0.184-0.441 0.441-0.184 0.441 0.184 0.184 0.441zM10.125 9.5q0 0.258-0.184 0.441t-0.441 0.184-0.441-0.184-0.184-0.441 0.184-0.441 0.441-0.184 0.441 0.184 0.184 0.441zM11 10.75v-2.5q0-0.102-0.074-0.176t-0.176-0.074h-9.5q-0.102 0-0.176 0.074t-0.074 0.176v2.5q0 0.102 0.074 0.176t0.176 0.074h9.5q0.102 0 0.176-0.074t0.074-0.176zM1.391 7h9.219l-1.227-3.766q-0.031-0.102-0.125-0.168t-0.203-0.066h-6.109q-0.109 0-0.203 0.066t-0.125 0.168zM12 8.25v2.5q0 0.516-0.367 0.883t-0.883 0.367h-9.5q-0.516 0-0.883-0.367t-0.367-0.883v-2.5q0-0.195 0.125-0.586l1.539-4.734q0.133-0.414 0.492-0.672t0.789-0.258h6.109q0.43 0 0.789 0.258t0.492 0.672l1.539 4.734q0.125 0.391 0.125 0.586z"></path>
</svg>
