<?xml version="1.0" encoding="utf-8"?>
<!-- Generated by IcoMoon.io -->
<!DOCTYPE svg PUBLIC "-//W3C//DTD SVG 1.1//EN" "http://www.w3.org/Graphics/SVG/1.1/DTD/svg11.dtd">
<svg version="1.1" xmlns="http://www.w3.org/2000/svg" xmlns:xlink="http://www.w3.org/1999/xlink" width="13" height="14" viewBox="0 0 13 14">
<path fill="#444444" d="M13 6.922q0 1.297-0.469 2.453l-0.156 0.383-1.445 0.258q-0.172 0.648-0.707 1.066t-1.223 0.418v0.25q0 0.109-0.070 0.18t-0.18 0.070h-0.5q-0.109 0-0.18-0.070t-0.070-0.18v-4.5q0-0.109 0.070-0.18t0.18-0.070h0.5q0.109 0 0.18 0.070t0.070 0.18v0.25q0.555 0 1.016 0.277t0.727 0.746l0.531-0.094q0.227-0.742 0.227-1.508 0-1.156-0.688-2.18t-1.848-1.633-2.465-0.609-2.465 0.609-1.848 1.633-0.688 2.18q0 0.766 0.227 1.508l0.531 0.094q0.266-0.469 0.727-0.746t1.016-0.277v-0.25q0-0.109 0.070-0.18t0.18-0.070h0.5q0.109 0 0.18 0.070t0.070 0.18v4.5q0 0.109-0.070 0.18t-0.18 0.070h-0.5q-0.109 0-0.18-0.070t-0.070-0.18v-0.25q-0.688 0-1.223-0.418t-0.707-1.066l-1.445-0.258-0.156-0.383q-0.469-1.156-0.469-2.453 0-1.18 0.523-2.273t1.398-1.895 2.078-1.277 2.5-0.477 2.5 0.477 2.078 1.277 1.398 1.895 0.523 2.273z"></path>
</svg>
