<?xml version="1.0" encoding="utf-8"?>
<!-- Generated by IcoMoon.io -->
<!DOCTYPE svg PUBLIC "-//W3C//DTD SVG 1.1//EN" "http://www.w3.org/Graphics/SVG/1.1/DTD/svg11.dtd">
<svg version="1.1" xmlns="http://www.w3.org/2000/svg" xmlns:xlink="http://www.w3.org/1999/xlink" width="14" height="14" viewBox="0 0 14 14">
<path fill="#444444" d="M13.141 13q-0.344 0-1.035-0.027t-1.043-0.027q-0.344 0-1.031 0.027t-1.031 0.027q-0.187 0-0.289-0.16t-0.102-0.355q0-0.242 0.133-0.359t0.305-0.133 0.398-0.055 0.352-0.117q0.258-0.164 0.258-1.094l-0.008-3.055q0-0.164-0.008-0.242-0.102-0.031-0.391-0.031h-5.273q-0.297 0-0.398 0.031-0.008 0.078-0.008 0.242l-0.008 2.898q0 1.109 0.289 1.281 0.125 0.078 0.375 0.102t0.445 0.027 0.352 0.117 0.156 0.355q0 0.203-0.098 0.375t-0.285 0.172q-0.367 0-1.090-0.027t-1.082-0.027q-0.336 0-1 0.027t-0.992 0.027q-0.18 0-0.277-0.164t-0.098-0.352q0-0.234 0.121-0.352t0.281-0.137 0.371-0.059 0.328-0.117q0.258-0.18 0.258-1.117l-0.008-0.445v-6.352q0-0.023 0.004-0.203t0-0.285-0.012-0.301-0.027-0.328-0.051-0.285-0.086-0.246-0.125-0.141q-0.117-0.078-0.352-0.094t-0.414-0.016-0.32-0.109-0.141-0.352q0-0.203 0.094-0.375t0.281-0.172q0.359 0 1.082 0.027t1.082 0.027q0.328 0 0.988-0.027t0.988-0.027q0.195 0 0.293 0.172t0.098 0.375q0 0.234-0.133 0.34t-0.301 0.113-0.387 0.031-0.336 0.102q-0.273 0.164-0.273 1.25l0.008 2.5q0 0.164 0.008 0.25 0.102 0.023 0.305 0.023h5.461q0.195 0 0.297-0.023 0.008-0.086 0.008-0.25l0.008-2.5q0-1.086-0.273-1.25-0.141-0.086-0.457-0.098t-0.516-0.102-0.199-0.387q0-0.203 0.098-0.375t0.293-0.172q0.344 0 1.031 0.027t1.031 0.027q0.336 0 1.008-0.027t1.008-0.027q0.195 0 0.293 0.172t0.098 0.375q0 0.234-0.137 0.344t-0.312 0.113-0.402 0.023-0.344 0.098q-0.273 0.18-0.273 1.258l0.008 7.367q0 0.93 0.266 1.094 0.125 0.078 0.359 0.105t0.418 0.035 0.324 0.121 0.141 0.348q0 0.203-0.094 0.375t-0.281 0.172z"></path>
</svg>
