<?xml version="1.0" encoding="utf-8"?>
<!-- Generated by IcoMoon.io -->
<!DOCTYPE svg PUBLIC "-//W3C//DTD SVG 1.1//EN" "http://www.w3.org/Graphics/SVG/1.1/DTD/svg11.dtd">
<svg version="1.1" xmlns="http://www.w3.org/2000/svg" xmlns:xlink="http://www.w3.org/1999/xlink" width="14" height="14" viewBox="0 0 14 14">
<path fill="#444444" d="M10 8h2.383q-0.039 0.047-0.078 0.082t-0.070 0.059l-0.023 0.031-4.867 4.687q-0.141 0.141-0.344 0.141t-0.344-0.141l-4.875-4.703q-0.039-0.016-0.164-0.156h2.883q0.172 0 0.309-0.105t0.176-0.27l0.547-2.195 1.484 5.211q0.047 0.156 0.18 0.258t0.305 0.102q0.164 0 0.297-0.102t0.18-0.258l1.141-3.789 0.438 0.875q0.141 0.273 0.445 0.273zM14 4.656q0 1.133-0.805 2.344h-2.883l-0.867-1.727q-0.062-0.133-0.199-0.211t-0.285-0.062q-0.352 0.039-0.438 0.359l-1.008 3.359-1.531-5.359q-0.047-0.156-0.184-0.258t-0.309-0.102-0.305 0.105-0.172 0.27l-0.906 3.625h-3.305q-0.805-1.211-0.805-2.344 0-1.719 0.992-2.687t2.742-0.969q0.484 0 0.988 0.168t0.937 0.453 0.746 0.535 0.594 0.531q0.281-0.281 0.594-0.531t0.746-0.535 0.937-0.453 0.988-0.168q1.75 0 2.742 0.969t0.992 2.687z"></path>
</svg>
