<?xml version="1.0" encoding="utf-8"?>
<!-- Generated by IcoMoon.io -->
<!DOCTYPE svg PUBLIC "-//W3C//DTD SVG 1.1//EN" "http://www.w3.org/Graphics/SVG/1.1/DTD/svg11.dtd">
<svg version="1.1" xmlns="http://www.w3.org/2000/svg" xmlns:xlink="http://www.w3.org/1999/xlink" width="14" height="14" viewBox="0 0 14 14">
<path fill="#444444" d="M7 13q-0.203 0-0.344-0.141l-4.875-4.703q-0.078-0.062-0.215-0.203t-0.434-0.512-0.531-0.762-0.418-0.945-0.184-1.078q0-1.719 0.992-2.687t2.742-0.969q0.484 0 0.988 0.168t0.937 0.453 0.746 0.535 0.594 0.531q0.281-0.281 0.594-0.531t0.746-0.535 0.937-0.453 0.988-0.168q1.75 0 2.742 0.969t0.992 2.687q0 1.727-1.789 3.516l-4.867 4.687q-0.141 0.141-0.344 0.141z"></path>
</svg>
