<?xml version="1.0" encoding="utf-8"?>
<!-- Generated by IcoMoon.io -->
<!DOCTYPE svg PUBLIC "-//W3C//DTD SVG 1.1//EN" "http://www.w3.org/Graphics/SVG/1.1/DTD/svg11.dtd">
<svg version="1.1" xmlns="http://www.w3.org/2000/svg" xmlns:xlink="http://www.w3.org/1999/xlink" width="11" height="14" viewBox="0 0 11 14">
<path fill="#444444" d="M3 10.25v0.5q0 0.102-0.074 0.176t-0.176 0.074h-0.5q-0.102 0-0.176-0.074t-0.074-0.176v-0.5q0-0.102 0.074-0.176t0.176-0.074h0.5q0.102 0 0.176 0.074t0.074 0.176zM3 8.25v0.5q0 0.102-0.074 0.176t-0.176 0.074h-0.5q-0.102 0-0.176-0.074t-0.074-0.176v-0.5q0-0.102 0.074-0.176t0.176-0.074h0.5q0.102 0 0.176 0.074t0.074 0.176zM5 8.25v0.5q0 0.102-0.074 0.176t-0.176 0.074h-0.5q-0.102 0-0.176-0.074t-0.074-0.176v-0.5q0-0.102 0.074-0.176t0.176-0.074h0.5q0.102 0 0.176 0.074t0.074 0.176zM3 6.25v0.5q0 0.102-0.074 0.176t-0.176 0.074h-0.5q-0.102 0-0.176-0.074t-0.074-0.176v-0.5q0-0.102 0.074-0.176t0.176-0.074h0.5q0.102 0 0.176 0.074t0.074 0.176zM9 10.25v0.5q0 0.102-0.074 0.176t-0.176 0.074h-0.5q-0.102 0-0.176-0.074t-0.074-0.176v-0.5q0-0.102 0.074-0.176t0.176-0.074h0.5q0.102 0 0.176 0.074t0.074 0.176zM7 8.25v0.5q0 0.102-0.074 0.176t-0.176 0.074h-0.5q-0.102 0-0.176-0.074t-0.074-0.176v-0.5q0-0.102 0.074-0.176t0.176-0.074h0.5q0.102 0 0.176 0.074t0.074 0.176zM5 6.25v0.5q0 0.102-0.074 0.176t-0.176 0.074h-0.5q-0.102 0-0.176-0.074t-0.074-0.176v-0.5q0-0.102 0.074-0.176t0.176-0.074h0.5q0.102 0 0.176 0.074t0.074 0.176zM9 8.25v0.5q0 0.102-0.074 0.176t-0.176 0.074h-0.5q-0.102 0-0.176-0.074t-0.074-0.176v-0.5q0-0.102 0.074-0.176t0.176-0.074h0.5q0.102 0 0.176 0.074t0.074 0.176zM7 6.25v0.5q0 0.102-0.074 0.176t-0.176 0.074h-0.5q-0.102 0-0.176-0.074t-0.074-0.176v-0.5q0-0.102 0.074-0.176t0.176-0.074h0.5q0.102 0 0.176 0.074t0.074 0.176zM9 6.25v0.5q0 0.102-0.074 0.176t-0.176 0.074h-0.5q-0.102 0-0.176-0.074t-0.074-0.176v-0.5q0-0.102 0.074-0.176t0.176-0.074h0.5q0.102 0 0.176 0.074t0.074 0.176zM7 13h3v-9h-2v0.25q0 0.312-0.219 0.531t-0.531 0.219h-3.5q-0.312 0-0.531-0.219t-0.219-0.531v-0.25h-2v9h3v-1.75q0-0.102 0.074-0.176t0.176-0.074h2.5q0.102 0 0.176 0.074t0.074 0.176v1.75zM7 3.75v-2.5q0-0.102-0.074-0.176t-0.176-0.074h-0.5q-0.102 0-0.176 0.074t-0.074 0.176v0.75h-1v-0.75q0-0.102-0.074-0.176t-0.176-0.074h-0.5q-0.102 0-0.176 0.074t-0.074 0.176v2.5q0 0.102 0.074 0.176t0.176 0.074h0.5q0.102 0 0.176-0.074t0.074-0.176v-0.75h1v0.75q0 0.102 0.074 0.176t0.176 0.074h0.5q0.102 0 0.176-0.074t0.074-0.176zM11 3.5v10q0 0.203-0.148 0.352t-0.352 0.148h-10q-0.203 0-0.352-0.148t-0.148-0.352v-10q0-0.203 0.148-0.352t0.352-0.148h2.5v-2.25q0-0.312 0.219-0.531t0.531-0.219h3.5q0.312 0 0.531 0.219t0.219 0.531v2.25h2.5q0.203 0 0.352 0.148t0.148 0.352z"></path>
</svg>
