<?xml version="1.0" encoding="utf-8"?>
<!-- Generated by IcoMoon.io -->
<!DOCTYPE svg PUBLIC "-//W3C//DTD SVG 1.1//EN" "http://www.w3.org/Graphics/SVG/1.1/DTD/svg11.dtd">
<svg version="1.1" xmlns="http://www.w3.org/2000/svg" xmlns:xlink="http://www.w3.org/1999/xlink" width="12" height="14" viewBox="0 0 12 14">
<path fill="#444444" d="M11.75 12.5q0.109 0 0.18 0.070t0.070 0.18v1q0 0.109-0.070 0.18t-0.18 0.070h-11.5q-0.109 0-0.18-0.070t-0.070-0.18v-1q0-0.109 0.070-0.18t0.18-0.070h11.5zM1.016 12q0.023-0.43 0.125-0.836t0.234-0.742 0.359-0.68 0.418-0.594 0.504-0.543 0.516-0.469 0.551-0.43 0.52-0.371 0.508-0.336q-0.336-0.219-0.508-0.336t-0.52-0.371-0.551-0.43-0.516-0.469-0.504-0.543-0.418-0.594-0.359-0.68-0.234-0.742-0.125-0.836h9.969q-0.023 0.43-0.125 0.836t-0.234 0.742-0.359 0.68-0.418 0.594-0.504 0.543-0.516 0.469-0.551 0.43-0.52 0.371-0.508 0.336q0.336 0.219 0.508 0.336t0.52 0.371 0.551 0.43 0.516 0.469 0.504 0.543 0.418 0.594 0.359 0.68 0.234 0.742 0.125 0.836h-9.969zM11.75 0q0.109 0 0.18 0.070t0.070 0.18v1q0 0.109-0.070 0.18t-0.18 0.070h-11.5q-0.109 0-0.18-0.070t-0.070-0.18v-1q0-0.109 0.070-0.18t0.18-0.070h11.5z"></path>
</svg>
