<?xml version="1.0" encoding="utf-8"?>
<!-- Generated by IcoMoon.io -->
<!DOCTYPE svg PUBLIC "-//W3C//DTD SVG 1.1//EN" "http://www.w3.org/Graphics/SVG/1.1/DTD/svg11.dtd">
<svg version="1.1" xmlns="http://www.w3.org/2000/svg" xmlns:xlink="http://www.w3.org/1999/xlink" width="12" height="14" viewBox="0 0 12 14">
<path fill="#444444" d="M11 1q0 2.039-0.832 3.605t-2.082 2.395q1.25 0.828 2.082 2.395t0.832 3.605h0.75q0.109 0 0.18 0.070t0.070 0.18v0.5q0 0.109-0.070 0.18t-0.18 0.070h-11.5q-0.109 0-0.18-0.070t-0.070-0.18v-0.5q0-0.109 0.070-0.18t0.18-0.070h0.75q0-2.039 0.832-3.605t2.082-2.395q-1.25-0.828-2.082-2.395t-0.832-3.605h-0.75q-0.109 0-0.18-0.070t-0.070-0.18v-0.5q0-0.109 0.070-0.18t0.18-0.070h11.5q0.109 0 0.18 0.070t0.070 0.18v0.5q0 0.109-0.070 0.18t-0.18 0.070h-0.75zM6.828 6.531q0.602-0.227 1.164-0.723t1.012-1.191 0.723-1.641 0.273-1.977h-8q0 1.031 0.273 1.977t0.723 1.641 1.012 1.191 1.164 0.723q0.148 0.055 0.238 0.184t0.090 0.285-0.090 0.285-0.238 0.184q-1.070 0.398-1.906 1.531h5.469q-0.836-1.133-1.906-1.531-0.148-0.055-0.238-0.184t-0.090-0.285 0.090-0.285 0.238-0.184z"></path>
</svg>
