<?xml version="1.0" encoding="utf-8"?>
<!-- Generated by IcoMoon.io -->
<!DOCTYPE svg PUBLIC "-//W3C//DTD SVG 1.1//EN" "http://www.w3.org/Graphics/SVG/1.1/DTD/svg11.dtd">
<svg version="1.1" xmlns="http://www.w3.org/2000/svg" xmlns:xlink="http://www.w3.org/1999/xlink" width="11" height="14" viewBox="0 0 11 14">
<path fill="#444444" d="M7.75 4.875v3.875q0 0.109-0.070 0.18t-0.18 0.070h-1.25q-0.109 0-0.18-0.070t-0.070-0.18v-3.875q0-0.875-0.625-1.5t-1.5-0.625h-2.125v9q0 0.109-0.070 0.18t-0.18 0.070h-1.25q-0.109 0-0.18-0.070t-0.070-0.18v-10.5q0-0.109 0.070-0.18t0.18-0.070h3.625q1.055 0 1.945 0.52t1.41 1.41 0.52 1.945zM10.75 1.25v6.875q0 1.055-0.52 1.945t-1.41 1.41-1.945 0.52h-3.625q-0.109 0-0.18-0.070t-0.070-0.18v-7.5q0-0.109 0.070-0.18t0.18-0.070h1.25q0.109 0 0.18 0.070t0.070 0.18v6h2.125q0.875 0 1.5-0.625t0.625-1.5v-6.875q0-0.109 0.070-0.18t0.18-0.070h1.25q0.109 0 0.18 0.070t0.070 0.18z"></path>
</svg>
