<?xml version="1.0" encoding="utf-8"?>
<!-- Generated by IcoMoon.io -->
<!DOCTYPE svg PUBLIC "-//W3C//DTD SVG 1.1//EN" "http://www.w3.org/Graphics/SVG/1.1/DTD/svg11.dtd">
<svg version="1.1" xmlns="http://www.w3.org/2000/svg" xmlns:xlink="http://www.w3.org/1999/xlink" width="14" height="14" viewBox="0 0 14 14">
<path fill="#444444" d="M8.68 3.836c0.504-0.098 0.84-0.602 0.728-1.12-0.098-0.518-0.602-0.84-1.106-0.742s-0.84 0.602-0.728 1.12c0.098 0.518 0.602 0.84 1.106 0.742z"></path>
<path fill="#444444" d="M10.374 4.844l0.336-0.602h-1.428l0.336 0.602c0.112-0.056 0.238-0.098 0.378-0.098s0.266 0.042 0.378 0.098z"></path>
<path fill="#444444" d="M10.5 6.132c-0.014 0.014-0.042 0.042-0.056 0.056l-1.722 1.148c-0.014 0.014-0.028 0.014-0.042 0.028h-0.014c-0.014 0-0.028 0.014-0.028 0.014-0.042 0.014-0.070 0.028-0.112 0.042-0.224 0.434-0.378 0.882-0.392 1.26 0 0.952 0.42 1.862 1.862 1.862v0c1.442 0 1.862-0.91 1.862-1.862 0-0.826-0.728-1.974-1.358-2.548zM10.15 9.968h-0.28c-0.084 0-0.14-0.070-0.14-0.14 0-0.084 0.070-0.14 0.14-0.14h0.28c0.084 0 0.14 0.070 0.14 0.14s-0.070 0.14-0.14 0.14zM10.29 9.534h-0.574c-0.084 0-0.14-0.070-0.14-0.14 0-0.084 0.070-0.14 0.14-0.14h0.574c0.084 0 0.14 0.070 0.14 0.14 0 0.084-0.056 0.14-0.14 0.14zM10.626 8.316c0 0-0.196 0.308-0.196 0.644 0 0.084-0.070 0.14-0.14 0.14h-0.56c-0.084 0-0.14-0.070-0.14-0.14 0-0.336-0.196-0.644-0.196-0.644v0c-0.056-0.098-0.098-0.224-0.098-0.35 0-0.392 0.322-0.714 0.714-0.714s0.714 0.322 0.714 0.714c0 0.126-0.042 0.252-0.098 0.35z"></path>
<path fill="#444444" d="M10.416 5.264c-0.028-0.028-0.042-0.056-0.070-0.084-0.014-0.014-0.014-0.014-0.028-0.028s-0.042-0.028-0.070-0.042c-0.014 0-0.028-0.014-0.028-0.014-0.028-0.014-0.042-0.014-0.070-0.028-0.014 0-0.014-0.014-0.028-0.014-0.042-0.014-0.084-0.014-0.112-0.014 0 0 0 0 0 0-0.028 0-0.056 0-0.084 0.014-0.014 0-0.014 0-0.028 0-0.028 0-0.042 0.014-0.070 0.014-0.014 0-0.014 0-0.028 0.014-0.028 0.014-0.056 0.028-0.084 0.042l-1.134 0.756-0.392-1.358c-0.084-0.28-0.308-0.49-0.602-0.56-0.028-0.014-0.070-0.014-0.098-0.014-0.014 0-0.028 0-0.042 0s-0.042 0-0.056 0c0 0 0 0 0 0-0.042 0-0.098 0-0.14 0.014-0.014 0-0.028 0-0.028 0.014-0.042 0.014-0.084 0.028-0.126 0.042 0 0-0.014 0-0.014 0-0.042 0.014-0.084 0.042-0.126 0.070-0.014 0-0.014 0.014-0.028 0.014-0.042 0.028-0.084 0.056-0.112 0.098-0.014 0.014-0.014 0.014-0.028 0.028l-1.848 2.086c-0.364 0.364-0.588 0.854-0.616 1.372l-0.196 1.288-1.666 0.35c-0.266 0.056-0.448 0.322-0.378 0.588 0.056 0.238 0.252 0.392 0.49 0.392 0.028 0 0.070 0 0.112-0.014l2.002-0.434c0 0 0.014 0 0.014 0 0.014 0 0.028-0.014 0.042-0.014s0.028-0.014 0.028-0.014c0.014 0 0.028-0.014 0.042-0.014s0.028-0.014 0.028-0.014c0.014 0 0.028-0.014 0.028-0.028 0.014-0.014 0.014-0.014 0.028-0.028s0.014-0.014 0.028-0.028 0.014-0.014 0.028-0.028 0.014-0.014 0.028-0.028 0.014-0.028 0.028-0.028c0-0.014 0.014-0.014 0.014-0.028s0.014-0.028 0.014-0.042c0-0.014 0.014-0.014 0.014-0.028l0.476-1.33 1.12 1.19-0.126 2.072c-0.014 0.28 0.196 0.518 0.462 0.532 0.014 0 0.028 0 0.028 0 0.266 0 0.476-0.21 0.504-0.476l0.14-2.282c0 0 0 0 0-0.014s0-0.014 0-0.028 0-0.042 0-0.056c0-0.014 0-0.028 0-0.028 0-0.014-0.014-0.042-0.014-0.056s-0.014-0.028-0.014-0.028-0.014-0.028-0.028-0.056c0-0.014-0.014-0.014-0.014-0.028 0 0 0-0.014-0.014-0.014l-1.232-1.778 1.218-1.316 0.266 0.952c0 0.014 0 0.014 0.014 0.028 0 0.014 0.014 0.028 0.014 0.042 0.014 0.014 0.014 0.028 0.028 0.042 0 0.014 0 0.014 0.014 0.028 0 0 0.014 0.014 0.014 0.014 0.014 0.028 0.042 0.042 0.056 0.070 0 0 0.014 0.014 0.014 0.014 0.028 0.028 0.056 0.042 0.084 0.056 0.014 0 0.014 0.014 0.028 0.014 0.028 0.014 0.056 0.028 0.084 0.028 0.014 0 0.028 0 0.042 0.014 0.028 0 0.056 0.014 0.070 0.014s0.014 0 0.028 0 0.014 0 0.028 0 0.014 0 0.028 0c0.028 0 0.056-0.014 0.084-0.014 0 0 0 0 0 0s0 0 0 0c0.028-0.014 0.056-0.014 0.084-0.028 0.014 0 0.014-0.014 0.028-0.014s0.014-0.014 0.028-0.014l0.28-0.182 1.414-0.938 0.014-0.014c0.21-0.154 0.266-0.462 0.112-0.686z"></path>
<path fill="#444444" d="M7.084 4.004c0.042-0.014 0.084-0.028 0.126-0.042-0.042 0.014-0.084 0.028-0.126 0.042z"></path>
<path fill="#444444" d="M6.804 4.186c0.042-0.042 0.070-0.070 0.112-0.098-0.042 0.028-0.070 0.056-0.112 0.098z"></path>
<path fill="#444444" d="M7.252 3.948c0.042-0.014 0.098-0.014 0.14-0.014-0.056 0-0.098 0.014-0.14 0.014z"></path>
<path fill="#444444" d="M6.944 4.074c0.042-0.028 0.084-0.056 0.126-0.070-0.042 0.014-0.084 0.042-0.126 0.070z"></path>
<path fill="#444444" d="M7.462 3.948c0.014 0 0.028 0 0.042 0-0.028 0-0.042 0-0.042 0z"></path>
</svg>
