<?xml version="1.0" encoding="utf-8"?>
<!-- Generated by IcoMoon.io -->
<!DOCTYPE svg PUBLIC "-//W3C//DTD SVG 1.1//EN" "http://www.w3.org/Graphics/SVG/1.1/DTD/svg11.dtd">
<svg version="1.1" xmlns="http://www.w3.org/2000/svg" xmlns:xlink="http://www.w3.org/1999/xlink" width="7" height="14" viewBox="0 0 7 14">
<path fill="#444444" d="M7.016 3.672v0.797q0 0.109-0.070 0.18t-0.18 0.070h-1.313q-0.18 1.125-1.008 1.828t-2.156 0.859q1.305 1.391 3.586 4.188 0.109 0.125 0.031 0.266-0.062 0.141-0.227 0.141h-1.523q-0.125 0-0.195-0.094-2.391-2.867-3.891-4.461-0.070-0.070-0.070-0.172v-0.992q0-0.102 0.074-0.176t0.176-0.074h0.875q1.031 0 1.66-0.336t0.801-0.977h-3.336q-0.109 0-0.18-0.070t-0.070-0.18v-0.797q0-0.109 0.070-0.18t0.18-0.070h3.227q-0.445-0.883-2.094-0.883h-1.133q-0.102 0-0.176-0.074t-0.074-0.176v-1.039q0-0.109 0.070-0.18t0.18-0.070h6.5q0.109 0 0.18 0.070t0.070 0.18v0.797q0 0.109-0.070 0.18t-0.18 0.070h-1.82q0.367 0.477 0.5 1.125h1.336q0.109 0 0.18 0.070t0.070 0.18z"></path>
</svg>
