<?xml version="1.0" encoding="utf-8"?>
<!-- Generated by IcoMoon.io -->
<!DOCTYPE svg PUBLIC "-//W3C//DTD SVG 1.1//EN" "http://www.w3.org/Graphics/SVG/1.1/DTD/svg11.dtd">
<svg version="1.1" xmlns="http://www.w3.org/2000/svg" xmlns:xlink="http://www.w3.org/1999/xlink" width="12" height="14" viewBox="0 0 12 14">
<path fill="#444444" d="M10.641 11.141v-5.063h-1.055q0.156 0.492 0.156 1.023 0 0.984-0.5 1.816t-1.359 1.316-1.875 0.484q-1.539 0-2.633-1.059t-1.094-2.559q0-0.531 0.156-1.023h-1.102v5.063q0 0.203 0.137 0.34t0.34 0.137h8.352q0.195 0 0.336-0.137t0.141-0.34zM8.422 6.977q0-0.969-0.707-1.652t-1.707-0.684q-0.992 0-1.699 0.684t-0.707 1.652 0.707 1.652 1.699 0.684q1 0 1.707-0.684t0.707-1.652zM10.641 4.164v-1.289q0-0.219-0.156-0.379t-0.383-0.16h-1.359q-0.227 0-0.383 0.16t-0.156 0.379v1.289q0 0.227 0.156 0.383t0.383 0.156h1.359q0.227 0 0.383-0.156t0.156-0.383zM12 2.539v8.922q0 0.633-0.453 1.086t-1.086 0.453h-8.922q-0.633 0-1.086-0.453t-0.453-1.086v-8.922q0-0.633 0.453-1.086t1.086-0.453h8.922q0.633 0 1.086 0.453t0.453 1.086z"></path>
</svg>
