<?xml version="1.0" encoding="utf-8"?>
<!-- Generated by IcoMoon.io -->
<!DOCTYPE svg PUBLIC "-//W3C//DTD SVG 1.1//EN" "http://www.w3.org/Graphics/SVG/1.1/DTD/svg11.dtd">
<svg version="1.1" xmlns="http://www.w3.org/2000/svg" xmlns:xlink="http://www.w3.org/1999/xlink" width="14" height="14" viewBox="0 0 14 14">
<path fill="#444444" d="M8.61 3.85c0 0.896-0.728 1.61-1.61 1.61-0.896 0-1.61-0.714-1.61-1.61s0.714-1.61 1.61-1.61c0.882 0 1.61 0.714 1.61 1.61z"></path>
<path fill="#444444" d="M3.962 6.496c-0.238 0.182-0.42 0.406-0.56 0.658-0.028 0.042-0.042 0.084-0.056 0.14 0.014-0.042 0.028-0.098 0.056-0.14 0.14-0.266 0.336-0.49 0.56-0.658z"></path>
<path fill="#444444" d="M3.962 6.496c0.154-0.112 0.322-0.224 0.518-0.294-0.182 0.070-0.35 0.168-0.518 0.294z"></path>
<path fill="#444444" d="M4.48 6.202c0.098-0.042 0.182-0.070 0.28-0.098-0.084 0.028-0.182 0.056-0.28 0.098z"></path>
<path fill="#444444" d="M11.326 9.492c0-0.070-0.014-0.126-0.042-0.196l-0.728-2.058c-0.014-0.028-0.028-0.056-0.042-0.098-0.042-0.084-0.098-0.168-0.154-0.252-0.112-0.154-0.252-0.294-0.406-0.42s-0.322-0.224-0.518-0.294c-0.098-0.042-0.182-0.070-0.28-0.098-0.196-0.028-0.406-0.056-0.616-0.056h-3.234c-0.21 0-0.42 0.028-0.616 0.084-0.098 0.028-0.196 0.056-0.28 0.098-0.182 0.070-0.364 0.182-0.518 0.294-0.056 0.042-0.112 0.098-0.168 0.14-0.154 0.154-0.294 0.322-0.392 0.518-0.028 0.042-0.042 0.084-0.056 0.14l-0.588 2.058c-0.042 0.14-0.042 0.294 0.014 0.434 0.014 0.042 0.028 0.084 0.056 0.126s0.042 0.070 0.070 0.112l1.47 1.764c0.084 0.112 0.21 0.182 0.336 0.224 0.070 0.028 0.154 0.042 0.238 0.042v0 0h1.61c0.042 0 0.084-0.014 0.112-0.028 0.042-0.014 0.070-0.042 0.098-0.056 0.028-0.028 0.042-0.056 0.056-0.098s0.028-0.070 0.028-0.112c0-0.084-0.028-0.168-0.098-0.21-0.014-0.014-0.042-0.028-0.070-0.042-0.014-0.028-0.056-0.028-0.098-0.028h-0.518l-1.778-2.114 0.364-1.302h0.28v1.624l1.26 1.512h1.666l1.204-1.372v-1.764h0.308l0.462 1.302-0.77 0.882-1.078 1.232h-0.504c-0.014 0-0.042 0-0.056 0-0.056 0.014-0.126 0.028-0.168 0.070-0.014 0.014-0.028 0.028-0.042 0.042-0.028 0.028-0.042 0.056-0.056 0.098 0 0.014-0.014 0.042-0.014 0.056 0 0.098 0.056 0.196 0.126 0.238 0.028 0.028 0.070 0.042 0.112 0.042 0.014 0 0.042 0 0.056 0h1.61c0.196 0 0.392-0.084 0.546-0.238l1.61-1.764c0.098-0.098 0.154-0.224 0.182-0.35 0.014-0.042 0.028-0.112 0.014-0.182zM7.14 10.5h-0.28c-0.084 0-0.14-0.056-0.14-0.14s0.056-0.14 0.14-0.14h0.28c0.084 0 0.14 0.056 0.14 0.14s-0.056 0.14-0.14 0.14zM7.28 10.080h-0.56c-0.084 0-0.14-0.056-0.14-0.14s0.056-0.14 0.14-0.14h0.56c0.084 0 0.14 0.056 0.14 0.14s-0.056 0.14-0.14 0.14zM7.7 8.904v0c-0.294 0.364-0.28 0.616-0.28 0.616 0 0.084-0.056 0.14-0.14 0.14h-0.56c-0.084 0-0.14-0.056-0.14-0.14 0 0 0.014-0.252-0.28-0.616v0c-0.126-0.154-0.21-0.35-0.21-0.574 0-0.504 0.406-0.91 0.91-0.91s0.91 0.406 0.91 0.91c0 0.224-0.070 0.42-0.21 0.574z"></path>
</svg>
