<?xml version="1.0" encoding="utf-8"?>
<!-- Generated by IcoMoon.io -->
<!DOCTYPE svg PUBLIC "-//W3C//DTD SVG 1.1//EN" "http://www.w3.org/Graphics/SVG/1.1/DTD/svg11.dtd">
<svg version="1.1" xmlns="http://www.w3.org/2000/svg" xmlns:xlink="http://www.w3.org/1999/xlink" width="14" height="14" viewBox="0 0 14 14">
<path fill="#444444" d="M5.594 12.539q-1.117-0.273-2.043-0.891t-1.543-1.492q-1.086 2.344-0.133 3.109 0.203 0.164 0.664 0.191t0.996-0.074 1.102-0.324 0.957-0.52zM5.414 6.047h3.531q0-0.844-0.48-1.32t-1.316-0.477q-0.805 0-1.27 0.488t-0.465 1.309zM13.469 3.117h-0.266q0.203-0.797 0.176-1.328t-0.195-0.859-0.496-0.445-0.73-0.086-0.898 0.207-1.004 0.441-1.047 0.617q1.008 0.289 1.863 0.887t1.445 1.398 0.859 1.809 0.121 2.047h-7.852q0 0.469 0.078 0.828t0.266 0.664 0.543 0.469 0.879 0.164q0.68 0 1.113-0.344t0.566-0.953h4.219q-0.555 1.797-2.199 2.945t-3.73 1.148q-0.648 0-1.242-0.117-0.273 0.312-1.18 0.734t-1.937 0.609-1.711-0.273q-0.609-0.469-0.781-1.242t0.055-1.672 0.688-1.891 1.121-1.937 1.355-1.77 1.387-1.434 1.223-0.875v-0.187q-0.937 0.289-2.020 1.074t-1.879 1.617-1.242 1.527q0.031-0.828 0.266-1.57t0.625-1.32 0.922-1.059 1.152-0.785 1.313-0.512 1.41-0.23 1.445 0.062q2.422-1.453 3.93-1.477h0.055q0.445 0 0.805 0.141 0.625 0.234 0.766 1.035t-0.234 1.941z"></path>
</svg>
