<?xml version="1.0" encoding="utf-8"?>
<!-- Generated by IcoMoon.io -->
<!DOCTYPE svg PUBLIC "-//W3C//DTD SVG 1.1//EN" "http://www.w3.org/Graphics/SVG/1.1/DTD/svg11.dtd">
<svg version="1.1" xmlns="http://www.w3.org/2000/svg" xmlns:xlink="http://www.w3.org/1999/xlink" width="14" height="14" viewBox="0 0 14 14">
<path fill="#444444" d="M6.594 5.852c0 0.178-0.144 0.322-0.322 0.322s-0.322-0.144-0.322-0.322c0-0.178 0.144-0.322 0.322-0.322s0.322 0.144 0.322 0.322z"></path>
<path fill="#444444" d="M8.008 7.070c0 0.186-0.15 0.336-0.336 0.336s-0.336-0.15-0.336-0.336c0-0.186 0.15-0.336 0.336-0.336s0.336 0.15 0.336 0.336z"></path>
<path fill="#444444" d="M9.24 6.44c0-1.232-1.008-2.24-2.24-2.24s-2.24 1.008-2.24 2.24c0 0.49 0.154 0.938 0.42 1.302v0c0.686 0.896 0.84 1.358 0.84 1.778 0 0.154 0.126 0.28 0.28 0.28h1.4c0.154 0 0.28-0.126 0.28-0.28 0-0.014 0-0.028 0-0.028 0.014-0.392 0.168-0.826 0.742-1.61 0.322-0.392 0.518-0.896 0.518-1.442zM6.426 6.426c-0.042 0.014-0.098 0.014-0.154 0.014l-0.112 0.28-0.21-0.056 0.028-0.294c-0.042-0.028-0.084-0.056-0.112-0.084l-0.28 0.112-0.112-0.182 0.224-0.196c-0.014-0.042-0.014-0.098-0.014-0.154l-0.28-0.126 0.056-0.21 0.294 0.028c0.028-0.042 0.056-0.084 0.084-0.112l-0.112-0.28 0.182-0.112 0.196 0.224c0.042-0.014 0.098-0.014 0.154-0.014l0.126-0.266 0.21 0.056-0.028 0.294c0.042 0.028 0.084 0.056 0.112 0.084l0.28-0.112 0.112 0.182-0.224 0.196c0.014 0.042 0.014 0.098 0.014 0.154l0.266 0.126-0.056 0.21-0.294-0.028c-0.028 0.042-0.056 0.084-0.084 0.112l0.112 0.28-0.182 0.112-0.196-0.238zM8.596 7.182l-0.308 0.056c-0.014 0.056-0.028 0.098-0.056 0.14l0.182 0.252-0.168 0.168-0.252-0.182c-0.042 0.028-0.098 0.042-0.14 0.056l-0.056 0.308h-0.238l-0.056-0.308c-0.056-0.014-0.098-0.028-0.14-0.056l-0.252 0.182-0.168-0.168 0.182-0.252c-0.028-0.042-0.042-0.098-0.056-0.14l-0.308-0.056v-0.224l0.308-0.056c0.014-0.056 0.028-0.098 0.056-0.14l-0.182-0.252 0.168-0.168 0.252 0.182c0.042-0.028 0.098-0.042 0.14-0.056l0.056-0.308h0.224l0.056 0.308c0.056 0.014 0.098 0.028 0.14 0.056l0.252-0.182 0.168 0.168-0.182 0.252c0.028 0.042 0.042 0.098 0.056 0.14l0.308 0.056v0.224z"></path>
<path fill="#444444" d="M7 3.92c-0.154 0-0.28-0.126-0.28-0.28v-1.4c0-0.154 0.126-0.28 0.28-0.28s0.28 0.126 0.28 0.28v1.4c0 0.154-0.126 0.28-0.28 0.28z"></path>
<path fill="#444444" d="M7.63 10.080h-1.26c-0.196 0-0.35 0.154-0.35 0.35s0.154 0.35 0.35 0.35h1.26c0.196 0 0.35-0.154 0.35-0.35s-0.154-0.35-0.35-0.35z"></path>
<path fill="#444444" d="M7.63 11.060h-1.26c-0.196 0-0.35 0.154-0.35 0.35s0.154 0.35 0.35 0.35h0.070c0 0.154 0.126 0.28 0.28 0.28h0.56c0.154 0 0.28-0.126 0.28-0.28h0.070c0.196 0 0.35-0.154 0.35-0.35s-0.154-0.35-0.35-0.35z"></path>
<path fill="#444444" d="M5.040 4.76c-0.070 0-0.14-0.028-0.196-0.084l-0.98-0.98c-0.112-0.112-0.112-0.28 0-0.392s0.28-0.112 0.392 0l0.98 0.98c0.112 0.112 0.112 0.28 0 0.392-0.056 0.056-0.126 0.084-0.196 0.084z"></path>
<path fill="#444444" d="M8.96 4.76c-0.070 0-0.14-0.028-0.196-0.084-0.112-0.112-0.112-0.28 0-0.392l0.98-0.98c0.112-0.112 0.28-0.112 0.392 0s0.112 0.28 0 0.392l-0.98 0.98c-0.056 0.056-0.126 0.084-0.196 0.084z"></path>
<path fill="#444444" d="M4.2 6.72h-1.4c-0.154 0-0.28-0.126-0.28-0.28s0.126-0.28 0.28-0.28h1.4c0.154 0 0.28 0.126 0.28 0.28s-0.126 0.28-0.28 0.28z"></path>
<path fill="#444444" d="M11.2 6.72h-1.4c-0.154 0-0.28-0.126-0.28-0.28s0.126-0.28 0.28-0.28h1.4c0.154 0 0.28 0.126 0.28 0.28s-0.126 0.28-0.28 0.28z"></path>
</svg>
