<?xml version="1.0" encoding="utf-8"?>
<!-- Generated by IcoMoon.io -->
<!DOCTYPE svg PUBLIC "-//W3C//DTD SVG 1.1//EN" "http://www.w3.org/Graphics/SVG/1.1/DTD/svg11.dtd">
<svg version="1.1" xmlns="http://www.w3.org/2000/svg" xmlns:xlink="http://www.w3.org/1999/xlink" width="16" height="14" viewBox="0 0 16 14">
<path fill="#444444" d="M11.43 6.5q0 0.273-0.195 0.473t-0.477 0.199h-5.484q-0.281 0-0.477-0.199t-0.195-0.473 0.195-0.473 0.477-0.199h5.484q0.281 0 0.477 0.199t0.195 0.473zM13.102 6.5q0-0.672-0.18-1.328h-7.672q-0.281 0-0.477-0.195t-0.195-0.469q0-0.281 0.195-0.477t0.477-0.195h7.094q-0.688-1.117-1.836-1.773t-2.5-0.656q-1.383 0-2.559 0.684t-1.859 1.855-0.684 2.555q0 0.672 0.18 1.328h7.672q0.281 0 0.477 0.195t0.195 0.469q0 0.281-0.195 0.477t-0.477 0.195h-7.094q0.688 1.117 1.84 1.773t2.504 0.656q1.031 0 1.977-0.402t1.625-1.086 1.086-1.625 0.406-1.98zM16 4.508q0 0.273-0.195 0.469t-0.477 0.195h-1.023q0.133 0.664 0.133 1.328 0 1.305-0.512 2.496t-1.371 2.055-2.051 1.375-2.496 0.512q-1.922 0-3.504-1.039t-2.355-2.734h-1.477q-0.281 0-0.477-0.195t-0.195-0.477q0-0.273 0.195-0.469t0.477-0.195h1.031q-0.133-0.664-0.133-1.328 0-1.305 0.512-2.496t1.371-2.055 2.051-1.375 2.504-0.512q1.914 0 3.496 1.039t2.355 2.734h1.469q0.281 0 0.477 0.195t0.195 0.477z"></path>
</svg>
