<?xml version="1.0" encoding="utf-8"?>
<!-- Generated by IcoMoon.io -->
<!DOCTYPE svg PUBLIC "-//W3C//DTD SVG 1.1//EN" "http://www.w3.org/Graphics/SVG/1.1/DTD/svg11.dtd">
<svg version="1.1" xmlns="http://www.w3.org/2000/svg" xmlns:xlink="http://www.w3.org/1999/xlink" width="8" height="14" viewBox="0 0 8 14">
<path fill="#444444" d="M0 12.984l0.133-0.664q0.047-0.016 0.637-0.168t0.871-0.293q0.219-0.273 0.32-0.789 0.008-0.055 0.484-2.258t0.891-4.246 0.406-2.316v-0.195q-0.187-0.102-0.426-0.145t-0.543-0.062-0.453-0.043l0.148-0.805q0.258 0.016 0.937 0.051t1.168 0.055 0.941 0.020q0.375 0 0.77-0.020t0.945-0.055 0.77-0.051q-0.039 0.305-0.148 0.695-0.234 0.078-0.793 0.223t-0.848 0.262q-0.062 0.148-0.109 0.332t-0.070 0.312-0.059 0.355-0.051 0.328q-0.211 1.156-0.684 3.277t-0.605 2.777q-0.016 0.070-0.102 0.453t-0.156 0.703-0.125 0.652-0.047 0.449l0.008 0.141q0.133 0.031 1.445 0.242-0.023 0.344-0.125 0.773-0.086 0-0.254 0.012t-0.254 0.012q-0.227 0-0.68-0.078t-0.672-0.078q-1.078-0.016-1.609-0.016-0.398 0-1.117 0.070t-0.945 0.086z"></path>
</svg>
