<?xml version="1.0" encoding="utf-8"?>
<!-- Generated by IcoMoon.io -->
<!DOCTYPE svg PUBLIC "-//W3C//DTD SVG 1.1//EN" "http://www.w3.org/Graphics/SVG/1.1/DTD/svg11.dtd">
<svg version="1.1" xmlns="http://www.w3.org/2000/svg" xmlns:xlink="http://www.w3.org/1999/xlink" width="12" height="14" viewBox="0 0 12 14">
<path fill="#444444" d="M8.359 8.383l-1.25 1.25-1.18 1.187-0.234 0.234q-0.508 0.5-1.184 0.68t-1.34 0.016q-0.125 0.547-0.563 0.898t-1.008 0.352q-0.664 0-1.133-0.473t-0.469-1.137q0-0.563 0.348-1t0.887-0.563q-0.172-0.672 0.008-1.352t0.688-1.187l0.094-0.094 1.18 1.187-0.086 0.086q-0.289 0.289-0.289 0.695t0.289 0.703q0.289 0.289 0.695 0.289t0.695-0.289l0.234-0.234 1.18-1.187 1.258-1.25zM5.695 3.055l0.094 0.094-1.187 1.187-0.094-0.094q-0.289-0.289-0.695-0.289t-0.695 0.289-0.289 0.699 0.289 0.699l2.664 2.664-1.18 1.187-1.258-1.25-1.18-1.187-0.234-0.234q-0.531-0.523-0.703-1.246t0.039-1.402q-0.547-0.117-0.898-0.555t-0.352-1.008q0-0.664 0.469-1.137t1.133-0.473q0.594 0 1.043 0.383t0.543 0.961q0.656-0.156 1.324 0.027t1.168 0.684zM12 11.391q0 0.664-0.469 1.137t-1.133 0.473q-0.578 0-1.023-0.367t-0.555-0.922q-0.672 0.219-1.402 0.047t-1.262-0.703l-0.086-0.094 1.18-1.187 0.094 0.094q0.289 0.289 0.695 0.289t0.695-0.289 0.289-0.695-0.289-0.695l-2.672-2.672 1.187-1.187 2.438 2.438 0.227 0.234q0.5 0.5 0.684 1.176t0.020 1.34q0.594 0.086 0.988 0.535t0.395 1.051zM11.984 2.609q0 0.602-0.398 1.055t-0.992 0.539q0.203 0.664 0.023 1.379t-0.703 1.238l-0.094 0.094-1.18-1.187 0.094-0.094q0.289-0.289 0.289-0.695t-0.289-0.695-0.695-0.289-0.695 0.289l-2.672 2.672-1.187-1.187 1.258-1.25 1.187-1.187 0.227-0.234q0.523-0.523 1.242-0.699t1.391 0.027q0.086-0.586 0.535-0.984t1.059-0.398q0.664 0 1.133 0.473t0.469 1.137z"></path>
</svg>
