<?xml version="1.0" encoding="utf-8"?>
<!-- Generated by IcoMoon.io -->
<!DOCTYPE svg PUBLIC "-//W3C//DTD SVG 1.1//EN" "http://www.w3.org/Graphics/SVG/1.1/DTD/svg11.dtd">
<svg version="1.1" xmlns="http://www.w3.org/2000/svg" xmlns:xlink="http://www.w3.org/1999/xlink" width="16" height="14" viewBox="0 0 16 14">
<path fill="#444444" d="M14.062 6.031q0.867 0.359 1.402 1.137t0.535 1.73q0 1.281-0.922 2.191t-2.227 0.91q-0.031 0-0.090-0.004t-0.082-0.004h-9.508q-1.328-0.078-2.25-0.98t-0.922-2.191q0-0.859 0.43-1.586t1.148-1.148q-0.094-0.305-0.094-0.641 0-0.898 0.641-1.531t1.555-0.633q0.742 0 1.344 0.453 0.586-1.203 1.738-1.937t2.551-0.734q1.297 0 2.391 0.629t1.73 1.707 0.637 2.352q0 0.047-0.004 0.141t-0.004 0.141zM3.656 8.109q0 0.953 0.656 1.508t1.625 0.555q1.070 0 1.875-0.773-0.125-0.156-0.371-0.441t-0.34-0.395q-0.523 0.508-1.125 0.508-0.43 0-0.73-0.262t-0.301-0.684q0-0.414 0.301-0.68t0.715-0.266q0.344 0 0.66 0.164t0.57 0.43 0.508 0.586 0.539 0.641 0.602 0.586 0.758 0.43 0.949 0.164q0.945 0 1.598-0.559t0.652-1.488q0-0.945-0.656-1.5t-1.617-0.555q-1.117 0-1.883 0.758 0.109 0.125 0.23 0.266t0.27 0.312 0.227 0.266q0.516-0.5 1.109-0.5 0.406 0 0.719 0.258t0.312 0.656q0 0.445-0.289 0.715t-0.734 0.27q-0.336 0-0.645-0.164t-0.563-0.43-0.512-0.586-0.543-0.641-0.605-0.586-0.754-0.43-0.926-0.164q-0.953 0-1.617 0.551t-0.664 1.48z"></path>
</svg>
