<?xml version="1.0" encoding="utf-8"?>
<!-- Generated by IcoMoon.io -->
<!DOCTYPE svg PUBLIC "-//W3C//DTD SVG 1.1//EN" "http://www.w3.org/Graphics/SVG/1.1/DTD/svg11.dtd">
<svg version="1.1" xmlns="http://www.w3.org/2000/svg" xmlns:xlink="http://www.w3.org/1999/xlink" width="15" height="14" viewBox="0 0 15 14">
<path fill="#444444" d="M3 9.125v0.75q0 0.125-0.125 0.125h-0.75q-0.125 0-0.125-0.125v-0.75q0-0.125 0.125-0.125h0.75q0.125 0 0.125 0.125zM4 7.125v0.75q0 0.125-0.125 0.125h-1.75q-0.125 0-0.125-0.125v-0.75q0-0.125 0.125-0.125h1.75q0.125 0 0.125 0.125zM3 5.125v0.75q0 0.125-0.125 0.125h-0.75q-0.125 0-0.125-0.125v-0.75q0-0.125 0.125-0.125h0.75q0.125 0 0.125 0.125zM11 9.125v0.75q0 0.125-0.125 0.125h-6.75q-0.125 0-0.125-0.125v-0.75q0-0.125 0.125-0.125h6.75q0.125 0 0.125 0.125zM6 7.125v0.75q0 0.125-0.125 0.125h-0.75q-0.125 0-0.125-0.125v-0.75q0-0.125 0.125-0.125h0.75q0.125 0 0.125 0.125zM5 5.125v0.75q0 0.125-0.125 0.125h-0.75q-0.125 0-0.125-0.125v-0.75q0-0.125 0.125-0.125h0.75q0.125 0 0.125 0.125zM8 7.125v0.75q0 0.125-0.125 0.125h-0.75q-0.125 0-0.125-0.125v-0.75q0-0.125 0.125-0.125h0.75q0.125 0 0.125 0.125zM7 5.125v0.75q0 0.125-0.125 0.125h-0.75q-0.125 0-0.125-0.125v-0.75q0-0.125 0.125-0.125h0.75q0.125 0 0.125 0.125zM10 7.125v0.75q0 0.125-0.125 0.125h-0.75q-0.125 0-0.125-0.125v-0.75q0-0.125 0.125-0.125h0.75q0.125 0 0.125 0.125zM13 9.125v0.75q0 0.125-0.125 0.125h-0.75q-0.125 0-0.125-0.125v-0.75q0-0.125 0.125-0.125h0.75q0.125 0 0.125 0.125zM9 5.125v0.75q0 0.125-0.125 0.125h-0.75q-0.125 0-0.125-0.125v-0.75q0-0.125 0.125-0.125h0.75q0.125 0 0.125 0.125zM11 5.125v0.75q0 0.125-0.125 0.125h-0.75q-0.125 0-0.125-0.125v-0.75q0-0.125 0.125-0.125h0.75q0.125 0 0.125 0.125zM13 5.125v2.75q0 0.125-0.125 0.125h-1.75q-0.125 0-0.125-0.125v-0.75q0-0.125 0.125-0.125h0.875v-1.875q0-0.125 0.125-0.125h0.75q0.125 0 0.125 0.125zM14 11v-7h-13v7h13zM15 4v7q0 0.414-0.293 0.707t-0.707 0.293h-13q-0.414 0-0.707-0.293t-0.293-0.707v-7q0-0.414 0.293-0.707t0.707-0.293h13q0.414 0 0.707 0.293t0.293 0.707z"></path>
</svg>
