<?xml version="1.0" encoding="utf-8"?>
<!-- Generated by IcoMoon.io -->
<!DOCTYPE svg PUBLIC "-//W3C//DTD SVG 1.1//EN" "http://www.w3.org/Graphics/SVG/1.1/DTD/svg11.dtd">
<svg version="1.1" xmlns="http://www.w3.org/2000/svg" xmlns:xlink="http://www.w3.org/1999/xlink" width="12" height="14" viewBox="0 0 12 14">
<path fill="#444444" d="M5.109 8.422q-0.008 0.023-0.098-0.004t-0.246-0.090l-0.156-0.070q-0.344-0.156-0.68-0.383-0.055-0.039-0.32-0.246t-0.297-0.223q-0.523 0.805-1.047 1.414-0.633 0.742-0.82 0.859-0.031 0.016-0.152 0.031t-0.145 0q0.047-0.031 0.641-0.719 0.164-0.187 0.668-0.898t0.613-0.922q0.133-0.234 0.398-0.77t0.281-0.605q-0.062-0.008-0.859 0.258-0.062 0.016-0.215 0.059t-0.27 0.074-0.133 0.039q-0.016 0.016-0.016 0.082t-0.008 0.074q-0.039 0.078-0.242 0.117-0.18 0.055-0.367 0-0.141-0.031-0.219-0.164-0.031-0.047-0.039-0.18 0.047-0.016 0.191-0.039t0.23-0.047q0.453-0.125 0.82-0.25 0.781-0.273 0.797-0.273 0.078-0.016 0.336-0.152t0.344-0.168q0.070-0.023 0.168-0.062t0.113-0.043 0.047 0.004q0.016 0.094-0.008 0.258 0 0.016-0.098 0.211t-0.207 0.418-0.133 0.262q-0.195 0.391-0.602 1.023l0.5 0.219q0.094 0.047 0.582 0.25t0.527 0.219q0.031 0.008 0.082 0.199t0.035 0.238zM3.508 4.625q0.023 0.117-0.031 0.219-0.094 0.18-0.391 0.297-0.234 0.094-0.469 0.094-0.203-0.023-0.383-0.203-0.109-0.117-0.141-0.32l0.008-0.023q0.023 0.023 0.152 0.039t0.207 0 0.453-0.125q0.281-0.094 0.43-0.109 0.133 0 0.164 0.133zM8.961 5.633l0.492 1.773-1.086-0.328zM0.305 11.883l5.422-1.812v-8.062l-5.422 1.82v8.055zM10 9.406l0.797 0.242-1.414-5.133-0.781-0.242-1.688 4.188 0.797 0.242 0.352-0.859 1.648 0.508zM6.070 1.891l4.477 1.438v-2.969zM8.5 12.227l1.234 0.102-0.422 1.25-0.312-0.516q-1.016 0.648-2.156 0.844-0.453 0.094-0.711 0.094h-0.656q-0.617 0-1.559-0.305t-1.434-0.664q-0.062-0.055-0.062-0.125 0-0.062 0.039-0.105t0.102-0.043q0.031 0 0.141 0.059t0.238 0.129 0.16 0.086q0.57 0.289 1.246 0.48t1.23 0.191q0.742 0 1.305-0.113t1.227-0.395q0.117-0.055 0.238-0.121t0.266-0.148 0.223-0.129zM12 3.797v8.43l-6.047-1.922q-0.109 0.047-2.93 0.996t-2.875 0.949q-0.102 0-0.141-0.102 0-0.008-0.008-0.023v-8.422q0.023-0.070 0.031-0.078 0.039-0.047 0.156-0.086 0.828-0.273 1.164-0.391v-3l4.359 1.547q0.016 0 1.254-0.43t2.469-0.848 1.262-0.418q0.156 0 0.156 0.164v3.266z"></path>
</svg>
