<?xml version="1.0" encoding="utf-8"?>
<!-- Generated by IcoMoon.io -->
<!DOCTYPE svg PUBLIC "-//W3C//DTD SVG 1.1//EN" "http://www.w3.org/Graphics/SVG/1.1/DTD/svg11.dtd">
<svg version="1.1" xmlns="http://www.w3.org/2000/svg" xmlns:xlink="http://www.w3.org/1999/xlink" width="12" height="14" viewBox="0 0 12 14">
<path fill="#444444" d="M11.188 8.219q0-1.352-1.828-1.867-0.273-0.078-0.414-0.129t-0.297-0.195-0.227-0.363q0-0.016-0.016-0.066t-0.023-0.094-0.008-0.059q0-0.281 0.191-0.465t0.473-0.184q0.422 0 0.555 0.117h-0.008q0.156 0.117 0.305 0.398l0.727-0.555q-0.305-0.422-0.383-0.5-0.258-0.227-0.527-0.305t-0.668-0.078q-0.625 0-1.109 0.449t-0.484 1.074q0 0.055 0.016 0.18 0.125 0.75 0.504 1.094t1.16 0.57q0.227 0.062 0.383 0.121t0.352 0.168 0.301 0.27 0.105 0.363v0.039q0.008 0.453-0.316 0.727t-0.785 0.273q-0.758 0-1.305-1.125-0.18-0.367-0.402-0.949t-0.375-0.98-0.422-0.863-0.578-0.746-0.809-0.473-1.148-0.191q-0.789 0-1.5 0.438t-1.125 1.156-0.391 1.5v0.008q0.031 0.844 0.395 1.555t1.043 1.152 1.531 0.441q1.453 0 2.18-0.859 0.156-0.211 0.242-0.398l-0.469-0.852q-0.328 0.625-0.773 0.906t-1.141 0.281q-0.898 0-1.492-0.68t-0.594-1.594q0-0.82 0.641-1.477t1.453-0.656q0.875 0 1.328 0.418t0.813 1.348q0.062 0.164 0.199 0.535t0.223 0.598 0.246 0.582 0.301 0.578 0.355 0.488 0.434 0.418 0.516 0.258 0.625 0.105q0.836 0 1.43-0.543t0.594-1.363zM12 3.25v7.5q0 0.93-0.66 1.59t-1.59 0.66h-7.5q-0.93 0-1.59-0.66t-0.66-1.59v-7.5q0-0.93 0.66-1.59t1.59-0.66h7.5q0.93 0 1.59 0.66t0.66 1.59z"></path>
</svg>
