<?xml version="1.0" encoding="utf-8"?>
<!-- Generated by IcoMoon.io -->
<!DOCTYPE svg PUBLIC "-//W3C//DTD SVG 1.1//EN" "http://www.w3.org/Graphics/SVG/1.1/DTD/svg11.dtd">
<svg version="1.1" xmlns="http://www.w3.org/2000/svg" xmlns:xlink="http://www.w3.org/1999/xlink" width="14" height="14" viewBox="0 0 14 14">
<path fill="#444444" d="M10.094 5.5q0 0.047 0.078 0.32 0.078 0.227 0.195 0.387t0.32 0.266 0.344 0.156 0.43 0.129q2.539 0.711 2.539 2.594 0 1.141-0.824 1.895t-1.988 0.754q-0.461 0-0.871-0.145t-0.715-0.355-0.602-0.582-0.492-0.684-0.418-0.809-0.34-0.805-0.309-0.832-0.277-0.742q-0.25-0.633-0.48-1.043t-0.574-0.754-0.813-0.5-1.109-0.156q-0.75 0-1.43 0.434t-1.078 1.129-0.398 1.445q0 1.25 0.832 2.184t2.059 0.934q1.383 0 2.016-0.742 0.438-0.492 0.648-0.906l0.656 1.187q-0.117 0.266-0.344 0.547l0.008 0.008q-1.023 1.187-3.031 1.187-1.148 0-2.105-0.617t-1.488-1.621-0.531-2.145q0-0.82 0.34-1.609t0.906-1.379 1.344-0.949 1.598-0.359q0.68 0 1.242 0.148t0.965 0.391 0.742 0.625 0.566 0.773 0.457 0.914 0.395 0.973 0.391 1.020 0.43 0.992q0.75 1.563 1.82 1.563 0.633 0 1.082-0.379t0.449-1.004q0-0.328-0.148-0.563t-0.395-0.359-0.566-0.246-0.66-0.211-0.684-0.266-0.633-0.406-0.508-0.641-0.305-0.957q-0.023-0.125-0.023-0.258 0-0.859 0.684-1.5t1.551-0.609q0.609 0.023 0.941 0.113t0.707 0.418h-0.008q0.094 0.086 0.18 0.191t0.203 0.281 0.148 0.215l-1.008 0.773q-0.203-0.383-0.422-0.547v-0.008q-0.18-0.164-0.758-0.164-0.383 0-0.656 0.258t-0.273 0.648z"></path>
</svg>
