<?xml version="1.0" encoding="utf-8"?>
<!-- Generated by IcoMoon.io -->
<!DOCTYPE svg PUBLIC "-//W3C//DTD SVG 1.1//EN" "http://www.w3.org/Graphics/SVG/1.1/DTD/svg11.dtd">
<svg version="1.1" xmlns="http://www.w3.org/2000/svg" xmlns:xlink="http://www.w3.org/1999/xlink" width="14" height="14" viewBox="0 0 14 14">
<path fill="#444444" d="M10 5.5q0-0.203-0.148-0.352t-0.352-0.148q-1.344 0-2.484 0.387t-2.027 1.047-1.84 1.715q-0.148 0.164-0.148 0.352 0 0.203 0.148 0.352t0.352 0.148q0.187 0 0.352-0.148 0.211-0.187 0.578-0.555t0.523-0.516q1.070-0.969 2.098-1.375t2.449-0.406q0.203 0 0.352-0.148t0.148-0.352zM14 3.953q0 0.742-0.156 1.508-0.359 1.75-1.441 2.992t-2.793 2.094q-1.672 0.844-3.422 0.844-1.156 0-2.234-0.367-0.117-0.039-0.688-0.328t-0.75-0.289q-0.125 0-0.309 0.25t-0.352 0.547-0.41 0.547-0.469 0.25q-0.234 0-0.398-0.086t-0.242-0.187-0.211-0.328q-0.016-0.031-0.047-0.086t-0.043-0.078-0.023-0.074-0.012-0.105q0-0.273 0.242-0.574t0.531-0.512 0.531-0.438 0.242-0.375q0-0.031-0.109-0.297t-0.125-0.344q-0.070-0.398-0.070-0.813 0-0.898 0.34-1.719t0.93-1.441 1.332-1.086 1.594-0.746q0.43-0.141 1.133-0.199t1.402-0.070 1.395-0.047 1.277-0.187 0.887-0.441l0.23-0.23t0.23-0.219 0.211-0.156 0.285-0.125 0.34-0.035q0.305 0 0.551 0.359t0.371 0.875 0.187 0.969 0.062 0.75z"></path>
</svg>
