<?xml version="1.0" encoding="utf-8"?>
<!-- Generated by IcoMoon.io -->
<!DOCTYPE svg PUBLIC "-//W3C//DTD SVG 1.1//EN" "http://www.w3.org/Graphics/SVG/1.1/DTD/svg11.dtd">
<svg version="1.1" xmlns="http://www.w3.org/2000/svg" xmlns:xlink="http://www.w3.org/1999/xlink" width="16" height="14" viewBox="0 0 16 14">
<path fill="#444444" d="M14.789 3.063l1.211 9.937q-1.023 0-2.008-0.445-1.563-0.711-3.070-0.711-1.766 0-2.922 1.156-1.156-1.156-2.922-1.156-1.508 0-3.070 0.711-1 0.445-1.969 0.445h-0.039l1.211-9.937q1.75-0.992 3.766-0.992 1.82 0 3.023 0.828 1.203-0.828 3.023-0.828 2.016 0 3.766 0.992zM10.922 10.773q1.008 0 1.812 0.223t2.031 0.73l-0.969-7.977q-1.336-0.609-2.875-0.609-1.75 0-2.922 1.102-1.172-1.102-2.922-1.102-1.539 0-2.875 0.609l-0.969 7.977q0.82-0.336 1.293-0.508t1.16-0.309 1.391-0.137q1.578 0 2.922 0.844 1.344-0.844 2.922-0.844zM11.234 10.508l-0.43-7.086q-1.648 0.031-2.805 1.211-1.187-1.211-2.922-1.211-1.375 0-2.625 0.516l-0.891 7.352q0.969-0.398 1.785-0.594t1.73-0.195q1.633 0 2.922 0.797 1.344-0.836 2.922-0.797z"></path>
</svg>
