<?xml version="1.0" encoding="utf-8"?>
<!-- Generated by IcoMoon.io -->
<!DOCTYPE svg PUBLIC "-//W3C//DTD SVG 1.1//EN" "http://www.w3.org/Graphics/SVG/1.1/DTD/svg11.dtd">
<svg version="1.1" xmlns="http://www.w3.org/2000/svg" xmlns:xlink="http://www.w3.org/1999/xlink" width="12" height="14" viewBox="0 0 12 14">
<path fill="#444444" d="M10.992 6.453q0-0.344-0.055-0.887t-0.141-0.754q-0.094-0.234-0.133-0.344t-0.070-0.285-0.031-0.379q0-0.18 0.039-0.535t0.039-0.527q0-0.289-0.078-0.43-0.031-0.008-0.102-0.008-0.148 0-0.453 0.035t-0.461 0.035q-0.469 0-1.375-0.187t-1.367-0.187q-0.336 0-0.738 0.090t-0.664 0.184-0.699 0.266q-1.070 0.422-1.578 0.805-0.75 0.57-1.246 1.48t-0.688 1.844-0.191 1.941q0 0.312 0.098 0.937t0.098 0.945q0 0.18-0.086 0.52t-0.086 0.512 0.094 0.285 0.266 0.113q0.187 0 0.566-0.086t0.574-0.086q0.445 0 1.324 0.121t1.324 0.121q1.414 0 2.219-0.281 1.008-0.352 1.84-1.191t1.297-1.918 0.465-2.148zM11.992 6.437q0 1.289-0.547 2.559t-1.531 2.25-2.195 1.41q-0.969 0.344-2.547 0.344-0.445 0-1.328-0.113t-1.32-0.113q-0.187 0-0.566 0.113t-0.574 0.113q-0.57 0-0.965-0.434t-0.395-1.004q0-0.187 0.086-0.531t0.086-0.523q0-0.312-0.098-0.941t-0.098-0.949q0-0.867 0.141-1.699t0.426-1.637 0.785-1.516 1.172-1.219q0.609-0.461 1.812-0.937 1.516-0.609 2.469-0.609 0.469 0 1.371 0.187t1.355 0.187q0.148 0 0.445-0.039t0.453-0.039q0.633 0 0.922 0.395t0.289 1.051q0 0.18-0.039 0.531t-0.039 0.531q0 0.078 0.008 0.145t0.023 0.133 0.031 0.105 0.051 0.125 0.051 0.133q0.125 0.312 0.195 0.926t0.070 1.066z"></path>
</svg>
