<?xml version="1.0" encoding="utf-8"?>
<!-- Generated by IcoMoon.io -->
<!DOCTYPE svg PUBLIC "-//W3C//DTD SVG 1.1//EN" "http://www.w3.org/Graphics/SVG/1.1/DTD/svg11.dtd">
<svg version="1.1" xmlns="http://www.w3.org/2000/svg" xmlns:xlink="http://www.w3.org/1999/xlink" width="14" height="14" viewBox="0 0 14 14">
<path fill="#444444" d="M7 0q1.422 0 2.719 0.555t2.234 1.492 1.492 2.234 0.555 2.719-0.555 2.719-1.492 2.234-2.234 1.492-2.719 0.555-2.719-0.555-2.234-1.492-1.492-2.234-0.555-2.719 0.555-2.719 1.492-2.234 2.234-1.492 2.719-0.555zM7 1q-1.484 0-2.82 0.703l1.516 1.516q0.641-0.219 1.305-0.219t1.305 0.219l1.516-1.516q-1.336-0.703-2.82-0.703zM1.703 9.82l1.516-1.516q-0.219-0.641-0.219-1.305t0.219-1.305l-1.516-1.516q-0.703 1.336-0.703 2.82t0.703 2.82zM7 13q1.484 0 2.82-0.703l-1.516-1.516q-0.641 0.219-1.305 0.219t-1.305-0.219l-1.516 1.516q1.336 0.703 2.82 0.703zM7 10q1.242 0 2.121-0.879t0.879-2.121-0.879-2.121-2.121-0.879-2.121 0.879-0.879 2.121 0.879 2.121 2.121 0.879zM10.781 8.305l1.516 1.516q0.703-1.336 0.703-2.82t-0.703-2.82l-1.516 1.516q0.219 0.641 0.219 1.305t-0.219 1.305z"></path>
</svg>
