<?xml version="1.0" encoding="utf-8"?>
<!-- Generated by IcoMoon.io -->
<!DOCTYPE svg PUBLIC "-//W3C//DTD SVG 1.1//EN" "http://www.w3.org/Graphics/SVG/1.1/DTD/svg11.dtd">
<svg version="1.1" xmlns="http://www.w3.org/2000/svg" xmlns:xlink="http://www.w3.org/1999/xlink" width="8" height="14" viewBox="0 0 8 14">
<path fill="#444444" d="M5.75 4.5q0 0.102-0.074 0.176t-0.176 0.074-0.176-0.074-0.074-0.176q0-0.359-0.422-0.555t-0.828-0.195q-0.102 0-0.176-0.074t-0.074-0.176 0.074-0.176 0.176-0.074q0.391 0 0.777 0.125t0.68 0.422 0.293 0.703zM7 4.5q0-0.563-0.27-1.047t-0.703-0.793-0.961-0.484-1.066-0.176-1.066 0.176-0.961 0.484-0.703 0.793-0.27 1.047q0 0.789 0.531 1.406 0.078 0.086 0.238 0.258t0.238 0.258q1 1.195 1.102 2.328h1.781q0.102-1.133 1.102-2.328 0.078-0.086 0.238-0.258t0.238-0.258q0.531-0.617 0.531-1.406zM8 4.5q0 1.211-0.805 2.094-0.352 0.383-0.582 0.68t-0.465 0.746-0.266 0.84q0.367 0.219 0.367 0.641 0 0.289-0.195 0.5 0.195 0.211 0.195 0.5 0 0.406-0.352 0.633 0.102 0.18 0.102 0.367 0 0.359-0.246 0.555t-0.605 0.195q-0.156 0.344-0.469 0.547t-0.68 0.203-0.68-0.203-0.469-0.547q-0.359 0-0.605-0.195t-0.246-0.555q0-0.187 0.102-0.367-0.352-0.227-0.352-0.633 0-0.289 0.195-0.5-0.195-0.211-0.195-0.5 0-0.422 0.367-0.641-0.031-0.391-0.266-0.84t-0.465-0.746-0.582-0.68q-0.805-0.883-0.805-2.094 0-0.773 0.348-1.441t0.914-1.109 1.281-0.695 1.457-0.254 1.457 0.254 1.281 0.695 0.914 1.109 0.348 1.441z"></path>
</svg>
