<?xml version="1.0" encoding="utf-8"?>
<!-- Generated by IcoMoon.io -->
<!DOCTYPE svg PUBLIC "-//W3C//DTD SVG 1.1//EN" "http://www.w3.org/Graphics/SVG/1.1/DTD/svg11.dtd">
<svg version="1.1" xmlns="http://www.w3.org/2000/svg" xmlns:xlink="http://www.w3.org/1999/xlink" width="12" height="14" viewBox="0 0 12 14">
<path fill="#444444" d="M2.727 4.883v7.742h-2.578v-7.742h2.578zM2.891 2.492q0.008 0.57-0.395 0.953t-1.059 0.383h-0.016q-0.641 0-1.031-0.383t-0.391-0.953q0-0.578 0.402-0.957t1.051-0.379 1.039 0.379 0.398 0.957zM12 8.187v4.437h-2.57v-4.141q0-0.82-0.316-1.285t-0.988-0.465q-0.492 0-0.824 0.27t-0.496 0.668q-0.086 0.234-0.086 0.633v4.32h-2.57q0.016-3.117 0.016-5.055t-0.008-2.313l-0.008-0.375h2.57v1.125h-0.016q0.156-0.25 0.32-0.438t0.441-0.406 0.68-0.34 0.895-0.121q1.336 0 2.148 0.887t0.813 2.598z"></path>
</svg>
