<?xml version="1.0" encoding="utf-8"?>
<!-- Generated by IcoMoon.io -->
<!DOCTYPE svg PUBLIC "-//W3C//DTD SVG 1.1//EN" "http://www.w3.org/Graphics/SVG/1.1/DTD/svg11.dtd">
<svg version="1.1" xmlns="http://www.w3.org/2000/svg" xmlns:xlink="http://www.w3.org/1999/xlink" width="12" height="14" viewBox="0 0 12 14">
<path fill="#444444" d="M5.18 3.211q-0.086 0.008-0.121 0.082t-0.066 0.074q-0.039 0.008-0.039-0.039 0-0.094 0.148-0.117h0.078zM5.859 3.32q-0.031 0.008-0.090-0.051t-0.137-0.035q0.187-0.086 0.25 0.016 0.023 0.047-0.023 0.070zM3.117 6.656q-0.031-0.008-0.047 0.023t-0.035 0.098-0.043 0.105-0.078 0.102q-0.055 0.078-0.008 0.094 0.031 0.008 0.098-0.055t0.098-0.141q0.008-0.023 0.016-0.055t0.016-0.047 0.012-0.035 0.004-0.031v-0.023t-0.008-0.020-0.023-0.016zM9.797 9.461q0-0.141-0.43-0.328 0.031-0.117 0.059-0.215t0.039-0.203 0.023-0.168 0.004-0.176-0.008-0.152-0.027-0.172-0.031-0.16-0.039-0.195-0.043-0.207q-0.078-0.375-0.367-0.805t-0.563-0.586q0.187 0.156 0.445 0.648 0.68 1.266 0.422 2.172-0.086 0.312-0.391 0.328-0.242 0.031-0.301-0.145t-0.062-0.652-0.090-0.836q-0.070-0.305-0.152-0.539t-0.152-0.355-0.121-0.191-0.102-0.117-0.059-0.055q-0.109-0.484-0.242-0.805t-0.23-0.438-0.184-0.258-0.117-0.312q-0.031-0.164 0.047-0.418t0.035-0.387-0.348-0.195q-0.117-0.023-0.348-0.141t-0.277-0.125q-0.062-0.008-0.086-0.203t0.062-0.398 0.281-0.211q0.289-0.023 0.398 0.234t0.031 0.453q-0.086 0.148-0.016 0.207t0.234 0.004q0.102-0.031 0.102-0.281v-0.289q-0.039-0.234-0.105-0.391t-0.164-0.238-0.184-0.117-0.211-0.059q-0.836 0.062-0.695 1.047 0 0.117-0.008 0.117-0.070-0.070-0.23-0.082t-0.258 0.004-0.121-0.039q0.008-0.445-0.125-0.703t-0.352-0.266q-0.211-0.008-0.324 0.215t-0.129 0.465q-0.008 0.117 0.027 0.289t0.102 0.293 0.121 0.105q0.078-0.023 0.125-0.109 0.031-0.070-0.055-0.062-0.055 0-0.121-0.113t-0.074-0.262q-0.008-0.172 0.070-0.289t0.266-0.109q0.133 0 0.211 0.164t0.074 0.305-0.012 0.172q-0.172 0.117-0.242 0.227-0.062 0.094-0.215 0.184t-0.16 0.098q-0.102 0.109-0.121 0.211t0.059 0.141q0.109 0.062 0.195 0.152t0.125 0.148 0.145 0.102 0.277 0.051q0.367 0.016 0.797-0.117 0.016-0.008 0.18-0.055t0.27-0.082 0.23-0.102 0.164-0.137q0.070-0.109 0.156-0.062 0.039 0.023 0.051 0.066t-0.023 0.094-0.129 0.074q-0.156 0.047-0.441 0.168t-0.355 0.152q-0.344 0.148-0.547 0.18-0.195 0.039-0.617-0.016-0.078-0.016-0.070 0.016t0.133 0.148q0.195 0.18 0.523 0.172 0.133-0.008 0.281-0.055t0.281-0.109 0.262-0.137 0.234-0.133 0.191-0.094 0.137-0.020 0.066 0.086q0 0.016-0.008 0.035t-0.031 0.039-0.047 0.035-0.066 0.039-0.070 0.035-0.078 0.039-0.074 0.035q-0.219 0.109-0.527 0.344t-0.52 0.336-0.383 0.008q-0.164-0.086-0.492-0.57-0.172-0.242-0.195-0.172-0.008 0.023-0.008 0.078 0 0.195-0.117 0.441t-0.23 0.434-0.164 0.453 0.090 0.492q-0.18 0.047-0.488 0.703t-0.371 1.102q-0.016 0.141-0.012 0.539t-0.043 0.461q-0.062 0.187-0.227 0.023-0.25-0.242-0.281-0.734-0.016-0.219 0.031-0.438 0.031-0.148-0.008-0.141l-0.031 0.039q-0.281 0.508 0.078 1.297 0.039 0.094 0.195 0.219t0.187 0.156q0.156 0.18 0.813 0.707t0.727 0.598q0.125 0.117 0.137 0.297t-0.109 0.336-0.355 0.18q0.062 0.117 0.227 0.348t0.219 0.422 0.055 0.551q0.359-0.187 0.055-0.719-0.031-0.062-0.082-0.125t-0.074-0.094-0.016-0.047q0.023-0.039 0.102-0.074t0.156 0.020q0.359 0.406 1.297 0.281 1.039-0.117 1.383-0.68 0.18-0.297 0.266-0.234 0.094 0.047 0.078 0.406-0.008 0.195-0.18 0.719-0.070 0.18-0.047 0.293t0.187 0.121q0.023-0.148 0.113-0.602t0.105-0.703q0.016-0.164-0.051-0.574t-0.059-0.758 0.18-0.551q0.117-0.141 0.398-0.141 0.008-0.289 0.27-0.414t0.566-0.082 0.469 0.176zM4.891 3q0.023-0.133-0.020-0.234t-0.090-0.117q-0.070-0.016-0.070 0.055 0.016 0.039 0.039 0.047 0.078 0 0.055 0.117-0.023 0.156 0.062 0.156 0.023 0 0.023-0.023zM8.164 4.539q-0.016-0.062-0.051-0.090t-0.102-0.039-0.113-0.043q-0.039-0.023-0.074-0.062t-0.055-0.062-0.043-0.051-0.031-0.031-0.031 0.012q-0.109 0.125 0.055 0.34t0.305 0.246q0.070 0.008 0.113-0.062t0.027-0.156zM6.773 2.875q0-0.086-0.039-0.152t-0.086-0.098-0.070-0.023q-0.109 0.008-0.055 0.055l0.031 0.016q0.109 0.031 0.141 0.242 0 0.023 0.062-0.016zM7.195 1.055q0-0.016-0.020-0.039t-0.070-0.055-0.074-0.047q-0.117-0.117-0.187-0.117-0.070 0.008-0.090 0.059t-0.008 0.102-0.004 0.098q-0.008 0.031-0.047 0.082t-0.047 0.070 0.023 0.066q0.031 0.023 0.062 0t0.086-0.070 0.117-0.070q0.008-0.008 0.070-0.008t0.117-0.016 0.070-0.055zM11.609 11.531q0.156 0.094 0.242 0.191t0.094 0.187-0.020 0.176-0.121 0.172-0.184 0.152-0.234 0.145-0.246 0.129-0.25 0.121-0.211 0.102q-0.297 0.148-0.668 0.438t-0.59 0.5q-0.133 0.125-0.531 0.152t-0.695-0.113q-0.141-0.070-0.23-0.184t-0.129-0.199-0.172-0.152-0.367-0.074q-0.344-0.008-1.016-0.008-0.148 0-0.445 0.012t-0.453 0.020q-0.344 0.008-0.621 0.117t-0.418 0.234-0.34 0.223-0.418 0.090q-0.227-0.008-0.867-0.242t-1.141-0.336q-0.148-0.031-0.398-0.074t-0.391-0.070-0.309-0.074-0.262-0.113-0.133-0.152q-0.078-0.18 0.055-0.52t0.141-0.426q0.008-0.125-0.031-0.312t-0.078-0.332-0.035-0.285 0.082-0.211q0.109-0.094 0.445-0.109t0.469-0.094q0.234-0.141 0.328-0.273t0.094-0.398q0.164 0.57-0.25 0.828-0.25 0.156-0.648 0.117-0.266-0.023-0.336 0.078-0.102 0.117 0.039 0.445 0.016 0.047 0.062 0.141t0.066 0.141 0.035 0.133 0.008 0.172q0 0.117-0.133 0.383t-0.109 0.375q0.023 0.133 0.289 0.203 0.156 0.047 0.66 0.145t0.777 0.16q0.187 0.047 0.578 0.172t0.645 0.18 0.434 0.031q0.336-0.047 0.504-0.219t0.18-0.375-0.059-0.457-0.148-0.406-0.156-0.285q-0.945-1.484-1.32-1.891-0.531-0.578-0.883-0.312-0.086 0.070-0.117-0.117-0.023-0.125-0.016-0.297 0.008-0.227 0.078-0.406t0.187-0.367 0.172-0.328q0.062-0.164 0.207-0.563t0.23-0.609 0.234-0.477 0.305-0.422q0.859-1.117 0.969-1.523-0.094-0.875-0.125-2.422-0.016-0.703 0.187-1.184t0.828-0.816q0.305-0.164 0.813-0.164 0.414-0.008 0.828 0.105t0.695 0.324q0.445 0.328 0.715 0.949t0.23 1.152q-0.039 0.742 0.234 1.672 0.266 0.883 1.039 1.703 0.43 0.461 0.777 1.273t0.465 1.492q0.062 0.383 0.039 0.66t-0.094 0.434-0.156 0.172q-0.078 0.016-0.184 0.148t-0.211 0.277-0.316 0.262-0.477 0.109q-0.141-0.008-0.246-0.039t-0.176-0.105-0.105-0.121-0.090-0.16-0.070-0.152q-0.172-0.289-0.32-0.234t-0.219 0.383 0.055 0.758q0.156 0.547 0.008 1.523-0.078 0.508 0.141 0.785t0.57 0.258 0.664-0.277q0.461-0.383 0.699-0.52t0.809-0.332q0.414-0.141 0.602-0.285t0.145-0.27-0.195-0.223-0.402-0.184q-0.258-0.086-0.387-0.375t-0.117-0.566 0.121-0.371q0.008 0.242 0.062 0.441t0.113 0.316 0.16 0.223 0.164 0.148 0.168 0.102 0.129 0.074z"></path>
</svg>
