<?xml version="1.0" encoding="utf-8"?>
<!-- Generated by IcoMoon.io -->
<!DOCTYPE svg PUBLIC "-//W3C//DTD SVG 1.1//EN" "http://www.w3.org/Graphics/SVG/1.1/DTD/svg11.dtd">
<svg version="1.1" xmlns="http://www.w3.org/2000/svg" xmlns:xlink="http://www.w3.org/1999/xlink" width="14" height="14" viewBox="0 0 14 14">
<path fill="#444444" d="M2.977 12.656q0 0.625-0.426 0.984t-1.059 0.359q-0.828 0-1.344-0.516l0.445-0.688q0.383 0.352 0.828 0.352 0.227 0 0.395-0.113t0.168-0.332q0-0.5-0.82-0.438l-0.203-0.438q0.062-0.078 0.254-0.34t0.332-0.422 0.289-0.301v-0.008q-0.125 0-0.379 0.008t-0.379 0.008v0.414h-0.828v-1.187h2.602v0.688l-0.742 0.898q0.398 0.094 0.633 0.383t0.234 0.688zM2.992 7.758v1.242h-2.828q-0.047-0.281-0.047-0.422 0-0.398 0.184-0.727t0.441-0.531 0.516-0.371 0.441-0.34 0.184-0.352q0-0.195-0.113-0.301t-0.309-0.105q-0.359 0-0.633 0.453l-0.664-0.461q0.187-0.398 0.559-0.621t0.824-0.223q0.57 0 0.961 0.324t0.391 0.879q0 0.391-0.266 0.715t-0.586 0.504-0.59 0.395-0.277 0.41h0.992v-0.469h0.82zM14 10.25v1.5q0 0.102-0.074 0.176t-0.176 0.074h-9.5q-0.102 0-0.176-0.074t-0.074-0.176v-1.5q0-0.109 0.070-0.18t0.18-0.070h9.5q0.102 0 0.176 0.074t0.074 0.176zM3 3.227v0.773h-2.617v-0.773h0.836q0-0.32 0.004-0.953t0.004-0.945v-0.094h-0.016q-0.062 0.133-0.391 0.422l-0.555-0.594 1.062-0.992h0.828v3.156h0.844zM14 6.25v1.5q0 0.102-0.074 0.176t-0.176 0.074h-9.5q-0.102 0-0.176-0.074t-0.074-0.176v-1.5q0-0.109 0.070-0.18t0.18-0.070h9.5q0.102 0 0.176 0.074t0.074 0.176zM14 2.25v1.5q0 0.102-0.074 0.176t-0.176 0.074h-9.5q-0.102 0-0.176-0.074t-0.074-0.176v-1.5q0-0.102 0.074-0.176t0.176-0.074h9.5q0.102 0 0.176 0.074t0.074 0.176z"></path>
</svg>
