<?xml version="1.0" encoding="utf-8"?>
<!-- Generated by IcoMoon.io -->
<!DOCTYPE svg PUBLIC "-//W3C//DTD SVG 1.1//EN" "http://www.w3.org/Graphics/SVG/1.1/DTD/svg11.dtd">
<svg version="1.1" xmlns="http://www.w3.org/2000/svg" xmlns:xlink="http://www.w3.org/1999/xlink" width="13" height="14" viewBox="0 0 13 14">
<path fill="#444444" d="M9.297 4.539l2.289-2.289-0.836-0.836-2.289 2.289zM12.789 2.25q0 0.211-0.141 0.352l-10.047 10.047q-0.141 0.141-0.352 0.141t-0.352-0.141l-1.547-1.547q-0.141-0.141-0.141-0.352t0.141-0.352l10.047-10.047q0.141-0.141 0.352-0.141t0.352 0.141l1.547 1.547q0.141 0.141 0.141 0.352zM2.234 0.766l0.766 0.234-0.766 0.234-0.234 0.766-0.234-0.766-0.766-0.234 0.766-0.234 0.234-0.766zM4.969 2.031l1.531 0.469-1.531 0.469-0.469 1.531-0.469-1.531-1.531-0.469 1.531-0.469 0.469-1.531zM12.234 5.766l0.766 0.234-0.766 0.234-0.234 0.766-0.234-0.766-0.766-0.234 0.766-0.234 0.234-0.766zM7.234 0.766l0.766 0.234-0.766 0.234-0.234 0.766-0.234-0.766-0.766-0.234 0.766-0.234 0.234-0.766z"></path>
</svg>
