<?xml version="1.0" encoding="utf-8"?>
<!-- Generated by IcoMoon.io -->
<!DOCTYPE svg PUBLIC "-//W3C//DTD SVG 1.1//EN" "http://www.w3.org/Graphics/SVG/1.1/DTD/svg11.dtd">
<svg version="1.1" xmlns="http://www.w3.org/2000/svg" xmlns:xlink="http://www.w3.org/1999/xlink" width="12" height="14" viewBox="0 0 12 14">
<path fill="#444444" d="M12 6.5v1q0 1.57-0.77 2.828t-2.141 1.965-3.090 0.707-3.090-0.707-2.141-1.965-0.77-2.828v-1q0-0.203 0.148-0.352t0.352-0.148h3q0.203 0 0.352 0.148t0.148 0.352v1q0 0.406 0.184 0.703t0.418 0.445 0.555 0.234 0.5 0.102 0.344 0.016 0.344-0.016 0.5-0.102 0.555-0.234 0.418-0.445 0.184-0.703v-1q0-0.203 0.148-0.352t0.352-0.148h3q0.203 0 0.352 0.148t0.148 0.352zM4 1.5v3q0 0.203-0.148 0.352t-0.352 0.148h-3q-0.203 0-0.352-0.148t-0.148-0.352v-3q0-0.203 0.148-0.352t0.352-0.148h3q0.203 0 0.352 0.148t0.148 0.352zM12 1.5v3q0 0.203-0.148 0.352t-0.352 0.148h-3q-0.203 0-0.352-0.148t-0.148-0.352v-3q0-0.203 0.148-0.352t0.352-0.148h3q0.203 0 0.352 0.148t0.148 0.352z"></path>
</svg>
