<?xml version="1.0" encoding="utf-8"?>
<!-- Generated by IcoMoon.io -->
<!DOCTYPE svg PUBLIC "-//W3C//DTD SVG 1.1//EN" "http://www.w3.org/Graphics/SVG/1.1/DTD/svg11.dtd">
<svg version="1.1" xmlns="http://www.w3.org/2000/svg" xmlns:xlink="http://www.w3.org/1999/xlink" width="14" height="14" viewBox="0 0 14 14">
<path fill="#444444" d="M7.126 2.884c-0.252-0.546-0.812-0.924-1.456-0.924s-1.19 0.378-1.456 0.91c-0.182 0.154-0.294 0.392-0.294 0.658 0 0.238 0.098 0.448 0.238 0.602 0.224 0.616 0.812 1.050 1.512 1.050s1.288-0.448 1.512-1.064c0.14-0.154 0.238-0.364 0.238-0.588 0-0.252-0.112-0.49-0.294-0.644zM6.538 4.116c-0.252 0-0.476-0.168-0.56-0.406-0.042-0.14-0.168-0.224-0.308-0.224s-0.266 0.098-0.322 0.224c-0.084 0.238-0.308 0.406-0.56 0.406-0.322 0-0.588-0.266-0.588-0.588s0.266-0.588 0.588-0.588h1.75c0.322 0 0.588 0.266 0.588 0.588s-0.252 0.588-0.588 0.588z"></path>
<path fill="#444444" d="M11.060 9.52h-1.96v-1.96c0-1.078-0.882-1.96-1.96-1.96v0h-3.22c-1.064 0.014-1.932 0.868-1.96 1.932v0 3.948c0 0.308 0.252 0.56 0.56 0.56s0.56-0.252 0.56-0.56v-3.892h0.42v4.452h4.060v-4.466h0.42v2.506c0 0.308 0.252 0.56 0.56 0.56h2.52c0.308 0 0.56-0.252 0.56-0.56s-0.252-0.56-0.56-0.56z"></path>
<path fill="#444444" d="M11.914 6.412h-0.14c-0.084 0-0.14 0.070-0.14 0.14 0 0.098-0.224 0.098-0.322 0.028l-0.154-0.112c-0.070-0.042-0.154-0.070-0.238-0.070h-0.308c-0.98 0-1.218 0.714-1.218 0.714l0.196 0.154c0.168-0.21 0.308-0.294 0.588-0.294 0.168 0 0.294 0.126 0.294 0.294l-0.14 3.22h0.882l-0.14-3.22c0-0.084 0.014-0.294 0.294-0.294 0.294 0 0.294 0.14 0.294 0.14 0 0.084 0.070 0.14 0.14 0.14h0.14c0.084 0 0.14-0.070 0.14-0.14v-0.588c-0.028-0.056-0.098-0.112-0.168-0.112z"></path>
</svg>
