<?xml version="1.0" encoding="utf-8"?>
<!-- Generated by IcoMoon.io -->
<!DOCTYPE svg PUBLIC "-//W3C//DTD SVG 1.1//EN" "http://www.w3.org/Graphics/SVG/1.1/DTD/svg11.dtd">
<svg version="1.1" xmlns="http://www.w3.org/2000/svg" xmlns:xlink="http://www.w3.org/1999/xlink" width="8" height="14" viewBox="0 0 8 14">
<path fill="#444444" d="M8 5.5v3.25q0 0.312-0.219 0.531t-0.531 0.219-0.531-0.219-0.219-0.531v-2.75h-0.5v7.125q0 0.359-0.258 0.617t-0.617 0.258-0.617-0.258-0.258-0.617v-3.625h-0.5v3.625q0 0.359-0.258 0.617t-0.617 0.258-0.617-0.258-0.258-0.617v-7.125h-0.5v2.75q0 0.312-0.219 0.531t-0.531 0.219-0.531-0.219-0.219-0.531v-3.25q0-0.625 0.438-1.062t1.062-0.438h5q0.625 0 1.062 0.438t0.438 1.062zM5.75 2q0 0.727-0.512 1.238t-1.238 0.512-1.238-0.512-0.512-1.238 0.512-1.238 1.238-0.512 1.238 0.512 0.512 1.238z"></path>
</svg>
