<?xml version="1.0" encoding="utf-8"?>
<!-- Generated by IcoMoon.io -->
<!DOCTYPE svg PUBLIC "-//W3C//DTD SVG 1.1//EN" "http://www.w3.org/Graphics/SVG/1.1/DTD/svg11.dtd">
<svg version="1.1" xmlns="http://www.w3.org/2000/svg" xmlns:xlink="http://www.w3.org/1999/xlink" width="8" height="14" viewBox="0 0 8 14">
<path fill="#444444" d="M4 8.5q0.516 0 1-0.117v5.117q0 0.203-0.148 0.352t-0.352 0.148h-1q-0.203 0-0.352-0.148t-0.148-0.352v-5.117q0.477 0.117 1 0.117zM4 0q1.656 0 2.828 1.172t1.172 2.828-1.172 2.828-2.828 1.172-2.828-1.172-1.172-2.828 1.172-2.828 2.828-1.172zM4 1.75q0.109 0 0.18-0.070t0.070-0.18-0.070-0.18-0.18-0.070q-1.141 0-1.945 0.805t-0.805 1.945q0 0.109 0.070 0.18t0.18 0.070 0.18-0.070 0.070-0.18q0-0.93 0.66-1.59t1.59-0.66z"></path>
</svg>
