<?xml version="1.0" encoding="utf-8"?>
<!-- Generated by IcoMoon.io -->
<!DOCTYPE svg PUBLIC "-//W3C//DTD SVG 1.1//EN" "http://www.w3.org/Graphics/SVG/1.1/DTD/svg11.dtd">
<svg version="1.1" xmlns="http://www.w3.org/2000/svg" xmlns:xlink="http://www.w3.org/1999/xlink" width="14" height="14" viewBox="0 0 14 14">
<path fill="#444444" d="M13.633 2.32q0.078 0.078 0.078 0.18t-0.078 0.18l-1.102 1.102q-0.219 0.219-0.531 0.219h-10.5q-0.203 0-0.352-0.148t-0.148-0.352v-2q0-0.203 0.148-0.352t0.352-0.148h4.5v-0.5q0-0.203 0.148-0.352t0.352-0.148h1q0.203 0 0.352 0.148t0.148 0.352v0.5h4q0.312 0 0.531 0.219zM6 9.5h2v4q0 0.203-0.148 0.352t-0.352 0.148h-1q-0.203 0-0.352-0.148t-0.148-0.352v-4zM12.5 6q0.203 0 0.352 0.148t0.148 0.352v2q0 0.203-0.148 0.352t-0.352 0.148h-10.5q-0.312 0-0.531-0.219l-1.102-1.102q-0.078-0.078-0.078-0.18t0.078-0.18l1.102-1.102q0.219-0.219 0.531-0.219h4v-1.5h2v1.5h4.5z"></path>
</svg>
