<?xml version="1.0" encoding="utf-8"?>
<!-- Generated by IcoMoon.io -->
<!DOCTYPE svg PUBLIC "-//W3C//DTD SVG 1.1//EN" "http://www.w3.org/Graphics/SVG/1.1/DTD/svg11.dtd">
<svg version="1.1" xmlns="http://www.w3.org/2000/svg" xmlns:xlink="http://www.w3.org/1999/xlink" width="14" height="14" viewBox="0 0 14 14">
<path fill="#444444" d="M4 0q0.102 0 0.176 0.074t0.074 0.176v11.5q0 0.156-0.133 0.219l-3.75 2q-0.055 0.031-0.117 0.031-0.102 0-0.176-0.074t-0.074-0.176v-11.5q0-0.156 0.133-0.219l3.75-2q0.055-0.031 0.117-0.031zM13.75 0q0.102 0 0.176 0.074t0.074 0.176v11.5q0 0.156-0.133 0.219l-3.75 2q-0.055 0.031-0.117 0.031-0.102 0-0.176-0.074t-0.074-0.176v-11.5q0-0.156 0.133-0.219l3.75-2q0.055-0.031 0.117-0.031zM5 0q0.062 0 0.109 0.023l4 2q0.141 0.078 0.141 0.227v11.5q0 0.102-0.074 0.176t-0.176 0.074q-0.062 0-0.109-0.023l-4-2q-0.141-0.078-0.141-0.227v-11.5q0-0.102 0.074-0.176t0.176-0.074z"></path>
</svg>
