<?xml version="1.0" encoding="utf-8"?>
<!-- Generated by IcoMoon.io -->
<!DOCTYPE svg PUBLIC "-//W3C//DTD SVG 1.1//EN" "http://www.w3.org/Graphics/SVG/1.1/DTD/svg11.dtd">
<svg version="1.1" xmlns="http://www.w3.org/2000/svg" xmlns:xlink="http://www.w3.org/1999/xlink" width="9" height="14" viewBox="0 0 9 14">
<path fill="#444444" d="M5 5.031q1.695 0.187 2.848 1.465t1.152 3.004q0 1.305-0.68 2.391t-1.844 1.656-2.492 0.422q-1.039-0.117-1.918-0.688t-1.422-1.469-0.629-1.945q-0.094-1.211 0.41-2.281t1.453-1.75 2.121-0.805v-1.031h-1.25q-0.109 0-0.18-0.070t-0.070-0.18v-0.5q0-0.109 0.070-0.18t0.18-0.070h1.25v-1.289l-0.719 0.719q-0.078 0.070-0.18 0.070t-0.172-0.070l-0.359-0.359q-0.070-0.070-0.070-0.172t0.070-0.18l1.578-1.57q0.148-0.148 0.352-0.148t0.352 0.148l1.578 1.57q0.070 0.078 0.070 0.18t-0.070 0.172l-0.359 0.359q-0.070 0.070-0.172 0.070t-0.18-0.070l-0.719-0.719v1.289h1.25q0.109 0 0.18 0.070t0.070 0.18v0.5q0 0.109-0.070 0.18t-0.18 0.070h-1.25v1.031zM4.5 13q1.445 0 2.473-1.027t1.027-2.473-1.027-2.473-2.473-1.027-2.473 1.027-1.027 2.473 1.027 2.473 2.473 1.027z"></path>
</svg>
