<?xml version="1.0" encoding="utf-8"?>
<!-- Generated by IcoMoon.io -->
<!DOCTYPE svg PUBLIC "-//W3C//DTD SVG 1.1//EN" "http://www.w3.org/Graphics/SVG/1.1/DTD/svg11.dtd">
<svg version="1.1" xmlns="http://www.w3.org/2000/svg" xmlns:xlink="http://www.w3.org/1999/xlink" width="15" height="14" viewBox="0 0 15 14">
<path fill="#444444" d="M12 3.25q0-0.109 0.070-0.18t0.18-0.070h2.25q0.203 0 0.352 0.148t0.148 0.352v2.25q0 0.109-0.070 0.18t-0.18 0.070h-0.5q-0.109 0-0.18-0.070t-0.070-0.18v-1.047l-1.984 1.992q0.594 0.742 0.84 1.672t0.074 1.93q-0.242 1.422-1.297 2.438t-2.484 1.219q-1.641 0.227-3.004-0.625t-1.887-2.344q-0.914-0.047-1.727-0.449t-1.387-1.039-0.887-1.504-0.25-1.797q0.070-1.055 0.609-1.969t1.422-1.496 1.937-0.699q0.922-0.109 1.777 0.148t1.551 0.805l1.992-1.984h-1.047q-0.109 0-0.18-0.070t-0.070-0.18v-0.5q0-0.109 0.070-0.18t0.18-0.070h2.25q0.203 0 0.352 0.148t0.148 0.352v2.25q0 0.109-0.070 0.18t-0.18 0.070h-0.5q-0.109 0-0.18-0.070t-0.070-0.18v-1.047l-1.984 1.992q0.461 0.578 0.727 1.32 1.422 0.070 2.563 0.969l1.992-1.984h-1.047q-0.109 0-0.18-0.070t-0.070-0.18v-0.5zM8 6.5q0-0.156-0.031-0.453-1.266 0.195-2.117 1.172t-0.852 2.281q0 0.156 0.031 0.453 1.266-0.195 2.117-1.172t0.852-2.281zM1 6.5q0 1.313 0.867 2.297t2.156 1.164q-0.023-0.227-0.023-0.461 0-1.641 1.055-2.887t2.641-1.535q-0.414-0.937-1.277-1.508t-1.918-0.57q-1.445 0-2.473 1.027t-1.027 2.473zM8.5 13q1.445 0 2.473-1.027t1.027-2.473q0-1.313-0.867-2.297t-2.156-1.164q0.023 0.227 0.023 0.461 0 1.641-1.055 2.887t-2.641 1.535q0.414 0.937 1.277 1.508t1.918 0.57z"></path>
</svg>
