<?xml version="1.0" encoding="utf-8"?>
<!-- Generated by IcoMoon.io -->
<!DOCTYPE svg PUBLIC "-//W3C//DTD SVG 1.1//EN" "http://www.w3.org/Graphics/SVG/1.1/DTD/svg11.dtd">
<svg version="1.1" xmlns="http://www.w3.org/2000/svg" xmlns:xlink="http://www.w3.org/1999/xlink" width="12" height="14" viewBox="0 0 12 14">
<path fill="#444444" d="M11.5 1q0.203 0 0.352 0.148t0.148 0.352v3.25q0 0.109-0.070 0.18t-0.18 0.070h-0.5q-0.109 0-0.18-0.070t-0.070-0.18v-2.047l-1.664 1.672 1.094 1.094q0.070 0.078 0.070 0.18t-0.070 0.172l-0.359 0.359q-0.070 0.070-0.172 0.070t-0.18-0.070l-1.094-1.102-0.609 0.617q0.984 1.219 0.984 2.805 0 0.914-0.355 1.746t-0.961 1.438-1.438 0.961-1.746 0.355-1.746-0.355-1.438-0.961-0.961-1.438-0.355-1.746 0.355-1.746 0.961-1.438 1.438-0.961 1.746-0.355q1.586 0 2.805 0.984l0.609-0.609-1.344-1.344q-0.070-0.078-0.070-0.18t0.070-0.172l0.359-0.359q0.070-0.070 0.172-0.070t0.18 0.070l1.344 1.344 1.664-1.664h-2.039q-0.109 0-0.18-0.070t-0.070-0.18v-0.5q0-0.109 0.070-0.18t0.18-0.070h3.25zM4.5 12q1.445 0 2.473-1.027t1.027-2.473-1.027-2.473-2.473-1.027-2.473 1.027-1.027 2.473 1.027 2.473 2.473 1.027z"></path>
</svg>
