<?xml version="1.0" encoding="utf-8"?>
<!-- Generated by IcoMoon.io -->
<!DOCTYPE svg PUBLIC "-//W3C//DTD SVG 1.1//EN" "http://www.w3.org/Graphics/SVG/1.1/DTD/svg11.dtd">
<svg version="1.1" xmlns="http://www.w3.org/2000/svg" xmlns:xlink="http://www.w3.org/1999/xlink" width="12" height="14" viewBox="0 0 12 14">
<path fill="#444444" d="M10.242 6.578v0.891q0 0.187-0.105 0.297t-0.293 0.109h-1.578q-0.187 0-0.297-0.109t-0.109-0.297v-0.891q0-0.187 0.109-0.297t0.297-0.109h1.578q0.187 0 0.293 0.109t0.105 0.297zM6.414 8.375v-1.953q0-0.414-0.254-0.668t-0.668-0.254h-1.039q-0.531 0-0.75 0.406-0.219-0.406-0.75-0.406h-1.016q-0.414 0-0.668 0.254t-0.254 0.668v1.953q0 0.172 0.164 0.172h0.43q0.172 0 0.172-0.172v-1.797q0-0.187 0.105-0.297t0.301-0.109h0.734q0.187 0 0.297 0.109t0.109 0.297v1.797q0 0.172 0.164 0.172h0.422q0.172 0 0.172-0.172v-1.797q0-0.187 0.109-0.297t0.297-0.109h0.758q0.187 0 0.293 0.109t0.105 0.297v1.797q0 0.172 0.172 0.172h0.43q0.164 0 0.164-0.172zM11.016 7.625v-1.203q0-0.414-0.258-0.668t-0.672-0.254h-2.062q-0.414 0-0.672 0.254t-0.258 0.668v3.203q0 0.164 0.172 0.164h0.43q0.164 0 0.164-0.164v-1.406q0.242 0.328 0.734 0.328h1.492q0.414 0 0.672-0.254t0.258-0.668zM12 2.812v8.375q0 0.75-0.531 1.281t-1.281 0.531h-8.375q-0.75 0-1.281-0.531t-0.531-1.281v-8.375q0-0.75 0.531-1.281t1.281-0.531h8.375q0.75 0 1.281 0.531t0.531 1.281z"></path>
</svg>
