<?xml version="1.0" encoding="utf-8"?>
<!-- Generated by IcoMoon.io -->
<!DOCTYPE svg PUBLIC "-//W3C//DTD SVG 1.1//EN" "http://www.w3.org/Graphics/SVG/1.1/DTD/svg11.dtd">
<svg version="1.1" xmlns="http://www.w3.org/2000/svg" xmlns:xlink="http://www.w3.org/1999/xlink" width="9" height="14" viewBox="0 0 9 14">
<path fill="#444444" d="M9 5.5v1q0 1.727-1.152 3.004t-2.848 1.465v1.031h2q0.203 0 0.352 0.148t0.148 0.352-0.148 0.352-0.352 0.148h-5q-0.203 0-0.352-0.148t-0.148-0.352 0.148-0.352 0.352-0.148h2v-1.031q-1.695-0.187-2.848-1.465t-1.152-3.004v-1q0-0.203 0.148-0.352t0.352-0.148 0.352 0.148 0.148 0.352v1q0 1.445 1.027 2.473t2.473 1.027 2.473-1.027 1.027-2.473v-1q0-0.203 0.148-0.352t0.352-0.148 0.352 0.148 0.148 0.352zM7 2.5v4q0 1.031-0.734 1.766t-1.766 0.734-1.766-0.734-0.734-1.766v-4q0-1.031 0.734-1.766t1.766-0.734 1.766 0.734 0.734 1.766z"></path>
</svg>
