<?xml version="1.0" encoding="utf-8"?>
<!-- Generated by IcoMoon.io -->
<!DOCTYPE svg PUBLIC "-//W3C//DTD SVG 1.1//EN" "http://www.w3.org/Graphics/SVG/1.1/DTD/svg11.dtd">
<svg version="1.1" xmlns="http://www.w3.org/2000/svg" xmlns:xlink="http://www.w3.org/1999/xlink" width="11" height="14" viewBox="0 0 11 14">
<path fill="#444444" d="M2.117 7.383l-0.789 0.789q-0.328-0.805-0.328-1.672v-1q0-0.203 0.148-0.352t0.352-0.148 0.352 0.148 0.148 0.352v1q0 0.414 0.117 0.883zM10.82 2.68l-2.82 2.82v1q0 1.031-0.734 1.766t-1.766 0.734q-0.43 0-0.852-0.148l-0.75 0.75q0.758 0.398 1.602 0.398 1.445 0 2.473-1.027t1.027-2.473v-1q0-0.203 0.148-0.352t0.352-0.148 0.352 0.148 0.148 0.352v1q0 1.727-1.152 3.004t-2.848 1.465v1.031h2q0.203 0 0.352 0.148t0.148 0.352-0.148 0.352-0.352 0.148h-5q-0.203 0-0.352-0.148t-0.148-0.352 0.148-0.352 0.352-0.148h2v-1.031q-0.977-0.102-1.836-0.633l-1.984 1.984q-0.078 0.078-0.18 0.078t-0.18-0.078l-0.641-0.641q-0.078-0.078-0.078-0.18t0.078-0.18l9.641-9.641q0.078-0.078 0.18-0.078t0.18 0.078l0.641 0.641q0.078 0.078 0.078 0.18t-0.078 0.18zM7.852 1.648l-4.852 4.852v-4q0-1.031 0.734-1.766t1.766-0.734q0.797 0 1.441 0.461t0.91 1.187z"></path>
</svg>
