<?xml version="1.0" encoding="utf-8"?>
<!-- Generated by IcoMoon.io -->
<!DOCTYPE svg PUBLIC "-//W3C//DTD SVG 1.1//EN" "http://www.w3.org/Graphics/SVG/1.1/DTD/svg11.dtd">
<svg version="1.1" xmlns="http://www.w3.org/2000/svg" xmlns:xlink="http://www.w3.org/1999/xlink" width="12" height="14" viewBox="0 0 12 14">
<path fill="#444444" d="M12 1.75v8.75q0 0.391-0.266 0.695t-0.672 0.473-0.809 0.25-0.754 0.082-0.754-0.082-0.809-0.25-0.672-0.473-0.266-0.695 0.266-0.695 0.672-0.473 0.809-0.25 0.754-0.082q0.82 0 1.5 0.305v-4.195l-6 1.852v5.539q0 0.391-0.266 0.695t-0.672 0.473-0.809 0.25-0.754 0.082-0.754-0.082-0.809-0.25-0.672-0.473-0.266-0.695 0.266-0.695 0.672-0.473 0.809-0.25 0.754-0.082q0.82 0 1.5 0.305v-7.555q0-0.242 0.148-0.441t0.383-0.277l6.5-2q0.094-0.031 0.219-0.031 0.312 0 0.531 0.219t0.219 0.531z"></path>
</svg>
