<?xml version="1.0" encoding="utf-8"?>
<!-- Generated by IcoMoon.io -->
<!DOCTYPE svg PUBLIC "-//W3C//DTD SVG 1.1//EN" "http://www.w3.org/Graphics/SVG/1.1/DTD/svg11.dtd">
<svg version="1.1" xmlns="http://www.w3.org/2000/svg" xmlns:xlink="http://www.w3.org/1999/xlink" width="18" height="14" viewBox="0 0 18 14">
<path fill="#444444" d="M18 6h-1v5h1v3h-3v-1h-7v1h-3v-3h1v-1h-3v1h-3v-3h1v-5h-1v-3h3v1h7v-1h3v3h-1v1h3v-1h3v3zM16 4v1h1v-1h-1zM11 1v1h1v-1h-1zM1 1v1h1v-1h-1zM2 10v-1h-1v1h1zM12 9h-1v1h1v-1zM3 9h7v-1h1v-5h-1v-1h-7v1h-1v5h1v1zM7 13v-1h-1v1h1zM17 13v-1h-1v1h1zM16 11v-5h-1v-1h-3v3h1v3h-3v-1h-3v1h1v1h7v-1h1z"></path>
</svg>
