<?xml version="1.0" encoding="utf-8"?>
<!-- Generated by IcoMoon.io -->
<!DOCTYPE svg PUBLIC "-//W3C//DTD SVG 1.1//EN" "http://www.w3.org/Graphics/SVG/1.1/DTD/svg11.dtd">
<svg version="1.1" xmlns="http://www.w3.org/2000/svg" xmlns:xlink="http://www.w3.org/1999/xlink" width="12" height="14" viewBox="0 0 12 14">
<path fill="#444444" d="M7.242 4.531q0 0.516-0.363 0.879t-0.879 0.363-0.879-0.363-0.363-0.879 0.363-0.879 0.879-0.363 0.879 0.363 0.363 0.879zM8.914 7.367q-0.078-0.156-0.219-0.25t-0.371-0.074-0.473 0.215q-0.078 0.062-0.227 0.156t-0.633 0.25-0.992 0.156-0.969-0.141-0.672-0.281l-0.211-0.141q-0.242-0.195-0.473-0.215t-0.371 0.074-0.219 0.25q-0.172 0.352-0.016 0.582t0.68 0.574q0.648 0.414 1.766 0.523l-0.398 0.406q-1.109 1.109-1.492 1.484-0.172 0.172-0.172 0.41t0.172 0.41l0.070 0.070q0.172 0.172 0.41 0.172t0.41-0.172l1.492-1.492q0.891 0.898 1.492 1.492 0.172 0.172 0.41 0.172t0.41-0.172l0.070-0.070q0.172-0.172 0.172-0.41t-0.172-0.41l-1.492-1.484-0.406-0.406q1.102-0.109 1.758-0.523 0.523-0.344 0.68-0.574t-0.016-0.582zM8.531 4.531q0-1.047-0.742-1.789t-1.789-0.742-1.789 0.742-0.742 1.789 0.742 1.789 1.789 0.742 1.789-0.742 0.742-1.789zM12 3.25v7.5q0 0.93-0.66 1.59t-1.59 0.66h-7.5q-0.93 0-1.59-0.66t-0.66-1.59v-7.5q0-0.93 0.66-1.59t1.59-0.66h7.5q0.93 0 1.59 0.66t0.66 1.59z"></path>
</svg>
