<?xml version="1.0" encoding="utf-8"?>
<!-- Generated by IcoMoon.io -->
<!DOCTYPE svg PUBLIC "-//W3C//DTD SVG 1.1//EN" "http://www.w3.org/Graphics/SVG/1.1/DTD/svg11.dtd">
<svg version="1.1" xmlns="http://www.w3.org/2000/svg" xmlns:xlink="http://www.w3.org/1999/xlink" width="10" height="14" viewBox="0 0 10 14">
<path fill="#444444" d="M5 7.086q-1.469 0-2.508-1.039t-1.039-2.5q0-1.469 1.039-2.508t2.508-1.039 2.508 1.039 1.039 2.508q0 1.461-1.039 2.5t-2.508 1.039zM5 1.797q-0.719 0-1.23 0.512t-0.512 1.238q0 0.719 0.512 1.23t1.23 0.512 1.23-0.512 0.512-1.23q0-0.727-0.512-1.238t-1.23-0.512zM9.086 7.516q0.102 0.211 0.117 0.387t-0.035 0.316-0.207 0.301-0.332 0.289-0.48 0.324q-0.898 0.57-2.461 0.734l0.57 0.563 2.086 2.086q0.234 0.242 0.234 0.578t-0.234 0.57l-0.094 0.102q-0.242 0.234-0.578 0.234t-0.578-0.234q-0.523-0.531-2.086-2.094l-2.086 2.094q-0.242 0.234-0.578 0.234t-0.57-0.234l-0.094-0.102q-0.242-0.234-0.242-0.57t0.242-0.578l2.648-2.648q-1.586-0.164-2.477-0.734-0.305-0.195-0.48-0.324t-0.332-0.289-0.207-0.301-0.035-0.316 0.117-0.387q0.078-0.156 0.219-0.273t0.328-0.172 0.438 0.016 0.508 0.273q0.039 0.031 0.117 0.086t0.336 0.191 0.539 0.238 0.719 0.187 0.883 0.086q0.711 0 1.359-0.199t0.937-0.395l0.297-0.195q0.258-0.203 0.508-0.273t0.438-0.016 0.328 0.172 0.219 0.273z"></path>
</svg>
