<?xml version="1.0" encoding="utf-8"?>
<!-- Generated by IcoMoon.io -->
<!DOCTYPE svg PUBLIC "-//W3C//DTD SVG 1.1//EN" "http://www.w3.org/Graphics/SVG/1.1/DTD/svg11.dtd">
<svg version="1.1" xmlns="http://www.w3.org/2000/svg" xmlns:xlink="http://www.w3.org/1999/xlink" width="18" height="14" viewBox="0 0 18 14">
<path fill="#444444" d="M11.906 12.195q0 0.531-0.375 0.906t-0.906 0.375-0.91-0.375-0.379-0.906 0.379-0.91 0.91-0.379 0.906 0.379 0.375 0.91zM6.055 12.195q0 0.531-0.379 0.906t-0.91 0.375-0.906-0.375-0.375-0.906 0.375-0.91 0.906-0.379 0.91 0.379 0.379 0.91zM0 0.523q0.445 0.469 0.863 0.816t0.945 0.641 1.062 0.492 1.297 0.355 1.563 0.246 1.953 0.145 2.375 0.074 2.91 0.020q1.086 0 1.91 0.039t1.414 0.129 0.969 0.215 0.555 0.309 0.187 0.402-0.152 0.5-0.441 0.598-0.699 0.711-0.906 0.816-1.086 0.93q-1.445 1.227-2.234 1.93 0.227-0.398 0.598-0.852t0.734-0.824 0.738-0.77 0.648-0.715 0.422-0.629 0.102-0.547-0.355-0.434-0.91-0.32-1.594-0.184-2.375-0.039q-1.313 0.016-2.453-0.047t-2-0.18-1.598-0.32-1.246-0.402-0.957-0.488-0.715-0.52-0.531-0.559-0.395-0.543-0.312-0.531-0.285-0.465z"></path>
</svg>
