<?xml version="1.0" encoding="utf-8"?>
<!-- Generated by IcoMoon.io -->
<!DOCTYPE svg PUBLIC "-//W3C//DTD SVG 1.1//EN" "http://www.w3.org/Graphics/SVG/1.1/DTD/svg11.dtd">
<svg version="1.1" xmlns="http://www.w3.org/2000/svg" xmlns:xlink="http://www.w3.org/1999/xlink" width="12" height="14" viewBox="0 0 12 14">
<path fill="#444444" d="M6 12.719q0.602 0 1.090-0.492t0.785-1.297 0.461-1.832 0.164-2.098-0.164-2.098-0.461-1.832-0.785-1.297-1.090-0.492-1.090 0.492-0.785 1.297-0.461 1.832-0.164 2.098 0.164 2.098 0.461 1.832 0.785 1.297 1.090 0.492zM6 14q-1.438 0-2.602-0.602t-1.875-1.586-1.102-2.242-0.391-2.57 0.391-2.57 1.102-2.242 1.875-1.586 2.602-0.602q1.156 0 2.141 0.391t1.676 1.062 1.184 1.57 0.723 1.906 0.23 2.070-0.23 2.070-0.723 1.906-1.184 1.57-1.676 1.062-2.141 0.391z"></path>
</svg>
