<?xml version="1.0" encoding="utf-8"?>
<!-- Generated by IcoMoon.io -->
<!DOCTYPE svg PUBLIC "-//W3C//DTD SVG 1.1//EN" "http://www.w3.org/Graphics/SVG/1.1/DTD/svg11.dtd">
<svg version="1.1" xmlns="http://www.w3.org/2000/svg" xmlns:xlink="http://www.w3.org/1999/xlink" width="18" height="14" viewBox="0 0 18 14">
<path fill="#444444" d="M3.734 13.086q-0.062 0.125-0.211 0.27t-0.289 0.199q-0.195 0.070-0.402-0.027t-0.223-0.246q-0.008-0.172 0.312-0.43t0.531-0.297q0.18-0.031 0.266 0.168t0.016 0.363zM14.211 13.086q0.055 0.125 0.203 0.27t0.297 0.199q0.195 0.070 0.402-0.027t0.215-0.246q0.016-0.172-0.309-0.43t-0.535-0.297q-0.172-0.031-0.258 0.168t-0.016 0.363zM14.586 12.234q0.102 0.211 0.441 0.465t0.605 0.324q0.352 0.102 0.641-0.035t0.289-0.395q0-0.359-0.527-0.785t-0.902-0.465q-0.312-0.039-0.496 0.293t-0.051 0.598zM3.344 12.234q-0.102 0.211-0.438 0.465t-0.602 0.324q-0.352 0.102-0.641-0.035t-0.289-0.395q0-0.359 0.527-0.785t0.902-0.465q0.312-0.039 0.492 0.293t0.047 0.598zM9.047 3.453h0.008q-0.32 0-0.594 0.117 0.211 0.062 0.344 0.238t0.133 0.387q0 0.273-0.211 0.469t-0.508 0.195q-0.406 0-0.625-0.336-0.039 0.18-0.039 0.328 0 0.578 0.438 0.988t1.055 0.41q0.625 0 1.062-0.41t0.438-0.988-0.438-0.988-1.062-0.41zM11.422 1.75q-0.773-0.852-1.723-1.027t-1.918 0.348q0.211-0.469 0.645-0.754t0.922-0.309 0.949 0.133 0.777 0.582 0.348 1.027zM17.281 11.43q0.062 0.086-0.086 0.328 0.055 0.18 0.055 0.312 0.008 0.438-0.348 0.879t-0.855 0.715-0.922 0.289q-0.375 0.016-0.719-0.168t-0.516-0.512q-5.367 0.195-9.836 0-0.18 0.32-0.52 0.508t-0.723 0.172q-0.672-0.023-1.402-0.629t-0.723-1.254q0.016-0.172 0.055-0.312-0.148-0.242-0.086-0.328 0.047-0.078 0.242-0.008 0.109-0.172 0.32-0.398-0.055-0.227 0.016-0.297 0.086-0.078 0.305 0.031 0.227-0.156 0.461-0.266 0-0.227 0.102-0.289 0.18-0.094 0.398 0.125 0.273-0.039 0.477 0.016 0.141 0.031 0.297 0.148v-0.57q-0.086 0-0.141-0.016-0.414-0.078-0.758-0.348t-0.43-0.684q-0.070-0.297 0-0.633 0.117-0.484 0.727-0.742 0.016-0.133 0.148-0.277t0.281-0.184 0.258 0.059 0.148 0.238h0.102q0.359 0.039 0.469 0.18 0.023 0.023 0.039 0.055 0.078-0.008 0.238-0.027t0.238-0.027q-0.117-0.086-0.234-0.133-0.18-0.312-0.711-0.336 0-0.047 0.008-0.078-0.484-0.016-0.926-0.145t-0.66-0.371q-0.25-0.281-0.332-0.719t-0.020-0.875q0.125-0.984 0.703-1.398 0.18-0.125 0.406-0.035t0.25 0.316q0 0.008 0.012 0.109t0.020 0.164 0.023 0.156 0.043 0.148 0.066 0.078q0.211 0.109 0.594 0.094 0.375-0.359 0.766-0.578-0.312-0.031-1.266 0.109l0.367-0.359q0.477-0.453 1.273-0.867 1.133-0.57 2.203-0.672-0.156-0.062-0.32-0.121t-0.367-0.109-0.332-0.082-0.371-0.086-0.336-0.078q4.648-0.984 7.062 1.086 0.766 0.656 1.234 1.734 0.664 0.078 0.945-0.070h0.008q0.039-0.023 0.066-0.078t0.043-0.148 0.023-0.152 0.023-0.168l0.008-0.109q0.023-0.219 0.25-0.312t0.406 0.039q0.57 0.406 0.711 1.391 0.055 0.445-0.027 0.883t-0.332 0.711q-0.219 0.25-0.652 0.379t-0.902 0.145v0.078q-0.555 0.016-0.742 0.336-0.109 0.039-0.242 0.133 0.086 0.008 0.25 0.027t0.234 0.027q0.008-0.031 0.039-0.062 0.125-0.141 0.469-0.18h0.102q0.039-0.141 0.148-0.234t0.258-0.062 0.281 0.18 0.148 0.281q0.617 0.25 0.727 0.742 0.070 0.312 0.008 0.633-0.094 0.414-0.438 0.688t-0.758 0.344q-0.078 0.016-0.133 0.016 0 0.383-0.008 0.57 0.156-0.117 0.297-0.148 0.203-0.055 0.477-0.016 0.219-0.219 0.398-0.125 0.109 0.070 0.109 0.289 0.258 0.125 0.461 0.266 0.211-0.102 0.297-0.031 0.078 0.078 0.016 0.297 0.219 0.234 0.32 0.398 0.18-0.062 0.242 0.008zM15.133 3.992q0 0.227-0.070 0.422 0.641 0.25 0.875 1.031 0.031-0.289-0.074-0.77t-0.324-0.707q-0.156-0.148-0.281-0.133t-0.125 0.156zM14.523 4.773q0.273 0.328 0.371 0.848t-0.004 0.973q0.523-0.102 0.758-0.352 0.102-0.109 0.141-0.219-0.023-0.5-0.242-0.895t-0.617-0.52q-0.117 0.117-0.406 0.164zM14.234 4.805q-0.234 0-0.344-0.008 0.328 0.898 0.414 1.867 0.164 0 0.336-0.023 0.125-0.531 0.008-1.055t-0.414-0.781zM2.016 5.445q0.234-0.781 0.875-1.031-0.070-0.195-0.070-0.422 0-0.141-0.129-0.156t-0.277 0.133q-0.219 0.227-0.324 0.707t-0.074 0.77zM2.297 6.242q0.227 0.242 0.758 0.352-0.102-0.453-0.004-0.973t0.371-0.848v0q-0.289-0.047-0.406-0.164-0.398 0.125-0.613 0.516t-0.246 0.898q0.070 0.133 0.141 0.219zM3.68 6.664q0.109-0.969 0.57-1.836-0.148 0.031-0.43 0.141l-0.352 0.148v-0.008q-0.359 0.695-0.156 1.531 0.195 0.023 0.367 0.023zM11.203 6.969q0.062 0.297 0.129 0.848t0.090 0.699q0.023 0.141 0.074 0.168t0.184-0.035q0.312-0.156 0.484-0.668t0.18-0.98q-0.187-0.016-1.141-0.031zM9 1.961q-0.906 0-1.555 0.645t-0.648 1.551q0 0.914 0.648 1.559t1.555 0.645 1.555-0.645 0.648-1.559q0-0.906-0.648-1.551t-1.555-0.645zM10.781 6.953q-0.828-0.016-1.648 0v-0.008q-0.008 0.211 0.020 0.672t0.105 0.516q0.227 0.109 0.73 0.113t0.746-0.082q0.070-0.023 0.086-0.305t-0.004-0.543-0.035-0.363zM8.688 8.508q0.062-0.031 0.074-0.375t-0.004-0.688-0.031-0.492v-0.008q-1.656 0.023-1.672 0.023-0.031 0.156-0.055 0.484t0 0.648 0.109 0.359q0.266 0.117 0.789 0.125t0.789-0.078zM5.609 7.031q-0.125 0.461 0.035 0.926t0.605 0.66q0.117 0.062 0.187 0.039t0.094-0.164q0.023-0.125 0.062-0.703t0.078-0.805q-0.539 0.016-1.062 0.047zM4.617 8.016q0.023 0.18-0.266 0.281 1.031 1.102 2.121 1.875t2.387 1.203q1.344-0.383 2.426-1.141t2.293-1.953q-0.258-0.102-0.234-0.266l0.023-0.070q-0.133-0.016-0.391-0.043t-0.375-0.035q-0.203 0.703-0.641 1.031-0.398 0.297-0.641-0.008-0.039-0.047-0.070-0.109-0.055-0.102-0.133-0.484-0.016 0.039-0.039 0.070t-0.059 0.055-0.062 0.043-0.074 0.031l-0.078 0.020t-0.094 0.016l-0.094 0.012t-0.105 0.008-0.105 0.004q-0.828 0.070-1.273-0.086-0.031 0.133-0.078 0.207t-0.164 0.117-0.18 0.055-0.281 0.027q-0.016 0-0.023 0.004t-0.023 0.004h-0.023q-1.398 0.133-1.586-0.312-0.016 0.492-0.438 0.422-0.367-0.062-0.711-0.422-0.094-0.102-0.156-0.203-0.133-0.227-0.203-0.508-0.453 0.047-0.68 0.078 0.008 0.016 0.031 0.078zM3.961 12.922q0.023-0.109 0.023-0.234-0.133-0.555-0.398-1.016t-0.57-0.547q-0.32-0.094-0.793 0.113t-0.816 0.625-0.305 0.84q0.273 0.414 0.781 0.727t0.93 0.328q0.398 0.016 0.734-0.219t0.414-0.617zM3.984 11.586q0.18 0.492 0.211 0.93 1.523-0.883 3.063-1.359-0.766-0.406-1.41-0.937t-1.402-1.289q-0.047 0.031-0.227 0.102 0 0.016-0.008 0.039t-0.008 0.031q0.242 0.141 0.172 0.289-0.094 0.18-0.438 0.266-0.078 0.102-0.227 0.187h-0.008q-0.016 0.648 0.008 1.172 0.148 0.266 0.273 0.57zM4.523 12.883q4.156 0.164 8.945 0-1.984-1.148-3.344-1.531-0.594 0.273-1.219 0.445-0.062 0.023-0.125 0-0.508-0.164-1.008-0.383-1.625 0.469-3.25 1.469h-0.008v0.008q0.008 0 0.008-0.008zM13.773 12.523q0.031-0.422 0.219-0.937 0.109-0.297 0.258-0.555l-0.008 0.008q0.023-0.602 0.023-1.195-0.117-0.062-0.234-0.195-0.328-0.070-0.438-0.258-0.070-0.156 0.172-0.297-0.016-0.031-0.016-0.070-0.125-0.031-0.219-0.094-1.594 1.484-2.992 2.219 1.547 0.461 3.234 1.375zM16.836 12.703q0.039-0.422-0.305-0.84t-0.813-0.625-0.797-0.113q-0.297 0.086-0.566 0.551t-0.402 1.012q0 0.125 0.023 0.234 0.078 0.383 0.414 0.617t0.734 0.219q0.422-0.016 0.93-0.328t0.781-0.727z"></path>
</svg>
