<?xml version="1.0" encoding="utf-8"?>
<!-- Generated by IcoMoon.io -->
<!DOCTYPE svg PUBLIC "-//W3C//DTD SVG 1.1//EN" "http://www.w3.org/Graphics/SVG/1.1/DTD/svg11.dtd">
<svg version="1.1" xmlns="http://www.w3.org/2000/svg" xmlns:xlink="http://www.w3.org/1999/xlink" width="11" height="14" viewBox="0 0 11 14">
<path fill="#444444" d="M10.953 8.617q-0.25 0.625-0.594 1.078t-0.711 0.691-0.773 0.363-0.793 0.113-0.754-0.066-0.676-0.172-0.543-0.215-0.359-0.176l-0.133-0.078q-0.883 1.781-2.262 2.809t-3.004 1.035q-0.148 0-0.25-0.102t-0.102-0.25 0.102-0.246 0.25-0.098q1.352-0.008 2.52-0.84t1.965-2.301q-0.281 0.109-0.563 0.18t-0.648 0.102-0.711-0.020-0.727-0.223-0.719-0.461-0.66-0.781-0.582-1.141q0.891-0.367 1.672-0.445t1.309 0.059 0.973 0.441 0.691 0.602 0.441 0.641q0.414-1.023 0.617-2.273-0.055 0.008-0.141 0.020t-0.363 0.020-0.543-0.004-0.637-0.078-0.691-0.18-0.656-0.332-0.586-0.508-0.426-0.738-0.223-0.996q0.547-0.219 1.043-0.285t0.879 0.008 0.719 0.234 0.574 0.391 0.438 0.477 0.328 0.492 0.215 0.438 0.125 0.309l0.031 0.125q0.094-0.953 0.094-1.523-0.062-0.047-0.168-0.125t-0.383-0.348-0.496-0.559-0.422-0.727-0.258-0.879 0.094-0.992 0.547-1.082q0.57 0.195 0.996 0.48t0.66 0.598 0.375 0.664 0.16 0.695-0.004 0.668-0.102 0.598-0.148 0.484-0.133 0.328l-0.055 0.117q0.008 0.039 0.008 0.395t-0.008 0.559q0.023-0.055 0.078-0.145t0.238-0.336 0.395-0.453 0.555-0.434 0.715-0.348 0.875-0.113 1.035 0.187q-0.016 0.609-0.168 1.105t-0.391 0.816-0.543 0.559-0.637 0.355-0.66 0.187-0.625 0.074-0.527-0.008-0.363-0.035l-0.133-0.023q-0.18 1.148-0.57 2.211 0.047-0.055 0.141-0.145t0.387-0.32 0.605-0.41 0.777-0.328 0.918-0.156 1.008 0.184 1.070 0.605z"></path>
</svg>
