<?xml version="1.0" encoding="utf-8"?>
<!-- Generated by IcoMoon.io -->
<!DOCTYPE svg PUBLIC "-//W3C//DTD SVG 1.1//EN" "http://www.w3.org/Graphics/SVG/1.1/DTD/svg11.dtd">
<svg version="1.1" xmlns="http://www.w3.org/2000/svg" xmlns:xlink="http://www.w3.org/1999/xlink" width="14" height="14" viewBox="0 0 14 14">
<path fill="#444444" d="M12.617 0q0.547 0 0.957 0.363t0.41 0.91q0 0.492-0.352 1.18-2.594 4.914-3.633 5.875-0.758 0.711-1.703 0.711-0.984 0-1.691-0.723t-0.707-1.715q0-1 0.719-1.656l4.984-4.523q0.461-0.422 1.016-0.422zM5.516 8.078q0.305 0.594 0.832 1.016t1.176 0.594l0.008 0.555q0.031 1.664-1.012 2.711t-2.723 1.047q-0.961 0-1.703-0.363t-1.191-0.996-0.676-1.43-0.227-1.719q0.055 0.039 0.32 0.234t0.484 0.348 0.461 0.285 0.359 0.133q0.32 0 0.43-0.289 0.195-0.516 0.449-0.879t0.543-0.594 0.688-0.371 0.805-0.199 0.977-0.082z"></path>
</svg>
