<?xml version="1.0" encoding="utf-8"?>
<!-- Generated by IcoMoon.io -->
<!DOCTYPE svg PUBLIC "-//W3C//DTD SVG 1.1//EN" "http://www.w3.org/Graphics/SVG/1.1/DTD/svg11.dtd">
<svg version="1.1" xmlns="http://www.w3.org/2000/svg" xmlns:xlink="http://www.w3.org/1999/xlink" width="14" height="14" viewBox="0 0 14 14">
<path fill="#444444" d="M13.781 0.086q0.258 0.187 0.211 0.5l-2 12q-0.039 0.227-0.25 0.352-0.109 0.062-0.242 0.062-0.086 0-0.187-0.039l-3.539-1.445-1.891 2.305q-0.141 0.18-0.383 0.18-0.102 0-0.172-0.031-0.148-0.055-0.238-0.184t-0.090-0.285v-2.727l6.75-8.273-8.352 7.227-3.086-1.266q-0.289-0.109-0.312-0.43-0.016-0.312 0.25-0.461l13-7.5q0.117-0.070 0.25-0.070 0.156 0 0.281 0.086z"></path>
</svg>
