<?xml version="1.0" encoding="utf-8"?>
<!-- Generated by IcoMoon.io -->
<!DOCTYPE svg PUBLIC "-//W3C//DTD SVG 1.1//EN" "http://www.w3.org/Graphics/SVG/1.1/DTD/svg11.dtd">
<svg version="1.1" xmlns="http://www.w3.org/2000/svg" xmlns:xlink="http://www.w3.org/1999/xlink" width="11" height="14" viewBox="0 0 11 14">
<path fill="#444444" d="M10.969 10.82q0 0.914-0.617 1.531t-1.531 0.617q-1.055 0-1.836-0.781l-6.070-6.063q-0.883-0.898-0.883-2.117 0-1.242 0.859-2.109t2.102-0.867q1.234 0 2.133 0.883l4.727 4.734q0.078 0.078 0.078 0.172 0 0.125-0.238 0.363t-0.363 0.238q-0.102 0-0.18-0.078l-4.734-4.742q-0.617-0.602-1.414-0.602-0.828 0-1.398 0.586t-0.57 1.414q0 0.82 0.594 1.414l6.063 6.070q0.492 0.492 1.133 0.492 0.5 0 0.828-0.328t0.328-0.828q0-0.641-0.492-1.133l-4.539-4.539q-0.203-0.187-0.469-0.187-0.227 0-0.375 0.148t-0.148 0.375q0 0.25 0.195 0.461l3.203 3.203q0.078 0.078 0.078 0.172 0 0.125-0.242 0.367t-0.367 0.242q-0.094 0-0.172-0.078l-3.203-3.203q-0.492-0.477-0.492-1.164 0-0.641 0.445-1.086t1.086-0.445q0.688 0 1.164 0.492l4.539 4.539q0.781 0.766 0.781 1.836z"></path>
</svg>
