<?xml version="1.0" encoding="utf-8"?>
<!-- Generated by IcoMoon.io -->
<!DOCTYPE svg PUBLIC "-//W3C//DTD SVG 1.1//EN" "http://www.w3.org/Graphics/SVG/1.1/DTD/svg11.dtd">
<svg version="1.1" xmlns="http://www.w3.org/2000/svg" xmlns:xlink="http://www.w3.org/1999/xlink" width="10" height="14" viewBox="0 0 10 14">
<path fill="#444444" d="M9.984 1.477v0.57q0 0.227-0.145 0.477t-0.332 0.25q-0.391 0-0.422 0.008-0.203 0.047-0.25 0.242-0.023 0.086-0.023 0.5v9q0 0.195-0.141 0.336t-0.336 0.141h-0.844q-0.195 0-0.336-0.141t-0.141-0.336v-9.516h-1.117v9.516q0 0.195-0.137 0.336t-0.34 0.141h-0.844q-0.203 0-0.34-0.141t-0.137-0.336v-3.875q-1.148-0.094-1.914-0.461-0.984-0.453-1.5-1.398-0.5-0.914-0.5-2.023 0-1.297 0.688-2.234 0.688-0.922 1.633-1.242 0.867-0.289 3.258-0.289h3.742q0.195 0 0.336 0.141t0.141 0.336z"></path>
</svg>
