<?xml version="1.0" encoding="utf-8"?>
<!-- Generated by IcoMoon.io -->
<!DOCTYPE svg PUBLIC "-//W3C//DTD SVG 1.1//EN" "http://www.w3.org/Graphics/SVG/1.1/DTD/svg11.dtd">
<svg version="1.1" xmlns="http://www.w3.org/2000/svg" xmlns:xlink="http://www.w3.org/1999/xlink" width="14" height="14" viewBox="0 0 14 14">
<path fill="#444444" d="M6.86 9.8c-0.924 0-1.764-0.308-2.45-0.826v0l-1.050 1.834h1.4l0.84 1.26 1.26-2.268 1.26 2.268 0.84-1.26h1.4l-1.050-1.834c-0.672 0.518-1.526 0.826-2.45 0.826z"></path>
<path fill="#444444" d="M7.98 7.14c-0.056 0-0.098-0.014-0.154-0.042l-1.246-0.784v-1.834c0-0.154 0.126-0.28 0.28-0.28s0.28 0.126 0.28 0.28v1.526l0.994 0.616c0.126 0.084 0.168 0.252 0.084 0.392-0.056 0.084-0.14 0.126-0.238 0.126z"></path>
<path fill="#444444" d="M8.778 9.016v0c-0.266 0.154-0.532 0.28-0.812 0.364l-0.168-0.532c0.238-0.070 0.462-0.168 0.686-0.308l0.294 0.476zM9.268 8.68l-0.35-0.434c0.196-0.168 0.378-0.35 0.518-0.546l0.448 0.336c-0.182 0.238-0.378 0.448-0.616 0.644zM7.392 9.506c-0.294 0.042-0.588 0.042-0.896 0.014l0.056-0.56c0.252 0.028 0.504 0.014 0.756-0.014l0.084 0.56zM10.206 7.532l-0.49-0.266c0.112-0.224 0.21-0.462 0.28-0.714l0.546 0.14c-0.084 0.294-0.196 0.574-0.336 0.84zM5.908 9.422c-0.294-0.070-0.574-0.182-0.826-0.322l0.266-0.49c0.224 0.112 0.462 0.21 0.714 0.28l-0.154 0.532zM10.626 6.118l-0.56-0.056c0.028-0.252 0.014-0.504-0.014-0.756l0.56-0.084c0.042 0.294 0.056 0.602 0.014 0.896zM4.578 8.778c-0.238-0.182-0.448-0.392-0.644-0.616l0.434-0.35c0.168 0.196 0.35 0.378 0.546 0.518l-0.336 0.448zM10.486 4.648l-0.532 0.168c-0.070-0.238-0.168-0.476-0.308-0.686l-0.014-0.014 0.49-0.28c0.154 0.252 0.28 0.532 0.364 0.812zM4.074 7.392l-0.49 0.28c-0.154-0.266-0.28-0.546-0.364-0.826l0.532-0.168c0.084 0.252 0.196 0.476 0.322 0.714v0zM9.352 3.696c-0.168-0.196-0.35-0.378-0.546-0.532l0.336-0.448c0.238 0.182 0.448 0.392 0.644 0.616l-0.434 0.364zM3.654 6.188l-0.56 0.070c-0.042-0.294-0.042-0.588-0.014-0.896l0.56 0.056c-0.014 0.266-0.014 0.518 0.014 0.77zM8.386 2.898c-0.224-0.126-0.462-0.21-0.714-0.28l0.14-0.546c0.294 0.070 0.56 0.182 0.826 0.322l-0.252 0.504zM3.738 4.928l-0.546-0.14c0.070-0.294 0.182-0.56 0.322-0.826l0.49 0.266c-0.112 0.224-0.21 0.462-0.266 0.7zM7.182 2.534c-0.252-0.028-0.504-0.014-0.756 0.014l-0.070-0.56c0.294-0.042 0.588-0.042 0.896-0.014l-0.070 0.56zM4.284 3.794l-0.448-0.336c0.182-0.238 0.392-0.448 0.616-0.644l0.35 0.434c-0.182 0.168-0.364 0.35-0.518 0.546zM5.922 2.66c-0.238 0.070-0.476 0.182-0.686 0.308l-0.014 0.014-0.266-0.49c0.252-0.154 0.532-0.266 0.812-0.35l0.154 0.518z"></path>
</svg>
