<?xml version="1.0" encoding="utf-8"?>
<!-- Generated by IcoMoon.io -->
<!DOCTYPE svg PUBLIC "-//W3C//DTD SVG 1.1//EN" "http://www.w3.org/Graphics/SVG/1.1/DTD/svg11.dtd">
<svg version="1.1" xmlns="http://www.w3.org/2000/svg" xmlns:xlink="http://www.w3.org/1999/xlink" width="13" height="14" viewBox="0 0 13 14">
<path fill="#444444" d="M6.094 3.687q0 0.469-0.148 0.887t-0.492 0.723-0.82 0.305q-0.594 0-1.078-0.449t-0.719-1.059-0.234-1.18q0-0.469 0.148-0.887t0.492-0.723 0.82-0.305q0.602 0 1.082 0.449t0.715 1.055 0.234 1.184zM3.422 7.461q0 0.625-0.328 1.086t-0.93 0.461q-0.594 0-1.105-0.434t-0.785-1.043-0.273-1.187q0-0.625 0.328-1.090t0.93-0.465q0.594 0 1.105 0.434t0.785 1.047 0.273 1.191zM6.5 7.25q0.922 0 1.992 0.762t1.789 1.852 0.719 1.988q0 0.359-0.133 0.598t-0.379 0.352-0.504 0.156-0.594 0.043q-0.531 0-1.465-0.352t-1.426-0.352q-0.516 0-1.504 0.348t-1.566 0.348q-1.43 0-1.43-1.141 0-0.672 0.438-1.496t1.090-1.504 1.465-1.141 1.508-0.461zM8.367 5.602q-0.477 0-0.82-0.305t-0.492-0.723-0.148-0.887q0-0.578 0.234-1.184t0.715-1.055 1.082-0.449q0.477 0 0.82 0.305t0.492 0.723 0.148 0.887q0 0.57-0.234 1.18t-0.719 1.059-1.078 0.449zM11.742 4.789q0.602 0 0.93 0.465t0.328 1.090q0 0.578-0.273 1.187t-0.785 1.043-1.105 0.434q-0.602 0-0.93-0.461t-0.328-1.086q0-0.578 0.273-1.191t0.785-1.047 1.105-0.434z"></path>
</svg>
