<?xml version="1.0" encoding="utf-8"?>
<!-- Generated by IcoMoon.io -->
<!DOCTYPE svg PUBLIC "-//W3C//DTD SVG 1.1//EN" "http://www.w3.org/Graphics/SVG/1.1/DTD/svg11.dtd">
<svg version="1.1" xmlns="http://www.w3.org/2000/svg" xmlns:xlink="http://www.w3.org/1999/xlink" width="12" height="14" viewBox="0 0 12 14">
<path fill="#444444" d="M11.867 5.047q0.141 0.656-0.031 1.594-0.68 3.469-4.414 3.469h-0.344q-0.195 0-0.344 0.129t-0.187 0.332l-0.031 0.148-0.43 2.703-0.016 0.117q-0.039 0.203-0.191 0.332t-0.348 0.129h-1.961q-0.164 0-0.258-0.117t-0.070-0.281q0.070-0.438 0.207-1.313t0.207-1.313 0.211-1.309 0.211-1.309q0.039-0.289 0.336-0.289h1.023q1.039 0.016 1.844-0.164 1.367-0.305 2.242-1.125 0.797-0.742 1.211-1.922 0.187-0.547 0.273-1.039 0.008-0.047 0.020-0.059t0.027-0.008 0.047 0.027q0.617 0.461 0.766 1.266zM10.523 2.844q0 0.836-0.359 1.844-0.625 1.82-2.359 2.461-0.883 0.312-1.969 0.328 0 0.008-0.703 0.008l-0.703-0.008q-0.781 0-0.922 0.75-0.016 0.062-0.664 4.141-0.008 0.078-0.094 0.078h-2.305q-0.172 0-0.285-0.129t-0.090-0.301l1.812-11.492q0.039-0.227 0.215-0.375t0.402-0.148h4.672q0.266 0 0.762 0.102t0.871 0.25q0.836 0.32 1.277 0.961t0.441 1.531z"></path>
</svg>
