<?xml version="1.0" encoding="utf-8"?>
<!-- Generated by IcoMoon.io -->
<!DOCTYPE svg PUBLIC "-//W3C//DTD SVG 1.1//EN" "http://www.w3.org/Graphics/SVG/1.1/DTD/svg11.dtd">
<svg version="1.1" xmlns="http://www.w3.org/2000/svg" xmlns:xlink="http://www.w3.org/1999/xlink" width="12" height="14" viewBox="0 0 12 14">
<path fill="#444444" d="M3.156 8.656l1.187 1.187-0.406 0.406h-0.438v-0.75h-0.75v-0.438zM6.391 5.609q0.109 0.102-0.023 0.234l-2.273 2.273q-0.133 0.133-0.234 0.023-0.109-0.102 0.023-0.234l2.273-2.273q0.133-0.133 0.234-0.023zM4.25 11l4.25-4.25-2.25-2.25-4.25 4.25v2.25h2.25zM9 6.25l0.719-0.719q0.219-0.219 0.219-0.531t-0.219-0.531l-1.187-1.187q-0.219-0.219-0.531-0.219t-0.531 0.219l-0.719 0.719zM12 3.25v7.5q0 0.93-0.66 1.59t-1.59 0.66h-7.5q-0.93 0-1.59-0.66t-0.66-1.59v-7.5q0-0.93 0.66-1.59t1.59-0.66h7.5q0.93 0 1.59 0.66t0.66 1.59z"></path>
</svg>
