<?xml version="1.0" encoding="utf-8"?>
<!-- Generated by IcoMoon.io -->
<!DOCTYPE svg PUBLIC "-//W3C//DTD SVG 1.1//EN" "http://www.w3.org/Graphics/SVG/1.1/DTD/svg11.dtd">
<svg version="1.1" xmlns="http://www.w3.org/2000/svg" xmlns:xlink="http://www.w3.org/1999/xlink" width="12" height="14" viewBox="0 0 12 14">
<path fill="#444444" d="M10 9.32q0-0.086-0.016-0.125-0.023-0.062-0.301-0.23t-0.691-0.387l-0.414-0.227q-0.039-0.023-0.148-0.102t-0.195-0.117-0.164-0.039q-0.141 0-0.367 0.254t-0.445 0.512-0.344 0.258q-0.055 0-0.129-0.027t-0.121-0.051-0.133-0.074-0.109-0.066q-0.773-0.43-1.332-0.988t-0.988-1.332q-0.016-0.023-0.066-0.109t-0.074-0.133-0.051-0.121-0.027-0.129q0-0.102 0.16-0.262t0.352-0.301 0.352-0.309 0.16-0.285q0-0.078-0.039-0.164t-0.117-0.195-0.102-0.148q-0.023-0.047-0.117-0.223t-0.195-0.355-0.207-0.371-0.195-0.316-0.129-0.141-0.125-0.016q-0.375 0-0.789 0.172-0.359 0.164-0.625 0.738t-0.266 1.020q0 0.125 0.020 0.266t0.039 0.238 0.070 0.258 0.078 0.23 0.098 0.258 0.086 0.234q0.469 1.281 1.691 2.504t2.504 1.691q0.047 0.016 0.234 0.086t0.258 0.098 0.23 0.078 0.258 0.070 0.238 0.039 0.266 0.020q0.445 0 1.020-0.266t0.738-0.625q0.172-0.414 0.172-0.789zM12 3.25v7.5q0 0.93-0.66 1.59t-1.59 0.66h-7.5q-0.93 0-1.59-0.66t-0.66-1.59v-7.5q0-0.93 0.66-1.59t1.59-0.66h7.5q0.93 0 1.59 0.66t0.66 1.59z"></path>
</svg>
