<?xml version="1.0" encoding="utf-8"?>
<!-- Generated by IcoMoon.io -->
<!DOCTYPE svg PUBLIC "-//W3C//DTD SVG 1.1//EN" "http://www.w3.org/Graphics/SVG/1.1/DTD/svg11.dtd">
<svg version="1.1" xmlns="http://www.w3.org/2000/svg" xmlns:xlink="http://www.w3.org/1999/xlink" width="16" height="14" viewBox="0 0 16 14">
<path fill="#444444" d="M9.547 7.258q0.586-0.023 1.121 0.16t0.922 0.457 0.789 0.738 0.656 0.844 0.59 0.941q0.258 0.438 0.613 0.852t0.59 0.629 0.773 0.691q-0.375 0.234-0.848 0.449t-1.082 0.461-0.891 0.371q-0.344-0.289-0.578-0.898t-0.34-1.285-0.258-1.41-0.332-1.316-0.566-0.961-0.957-0.379l-0.078 0.016-0.047 0.031q0.031 0.039 0.102 0.109 0.047 0.039 0.219 0.184t0.199 0.172 0.148 0.141 0.141 0.16 0.090 0.164 0.082 0.215 0.035 0.242 0.031 0.316l0.008 0.258q0.008 0.203-0.020 0.449t-0.059 0.406-0.098 0.457-0.090 0.414q-0.273-0.008-0.789 0.074t-0.766 0.082q-0.305 0-0.563-0.078-0.016-0.125-0.016-0.367 0-0.578 0.023-0.75 0.016-0.102 0.246-0.324t0.445-0.461 0.207-0.402q-0.187-0.016-0.336 0.187-0.281 0.414-0.871 0.777t-1.066 0.363q-0.195 0-0.59-0.492t-0.832-1.090-0.656-0.754q-0.047-0.031-0.211-0.234-3.766 0.875-4.008 0.875-0.125 0-0.219-0.086t-0.094-0.211q0-0.117 0.066-0.207t0.176-0.113l3.797-0.828q-0.062-0.109-0.062-0.195t0.043-0.137 0.125-0.090 0.156-0.055 0.18-0.035 0.145-0.035q0.031-0.008 0.121-0.059t0.137-0.051q0.117 0 0.219 0.125t0.156 0.258q1.273-0.289 1.344-0.289 0.133 0 0.23 0.086t0.098 0.219q0 0.117-0.066 0.203t-0.184 0.109l-1.422 0.312-0.008 0.125q-0.008 0.203 0.637 0.918t0.816 0.715q0.367 0 0.93-0.625t0.563-1.008q0-0.281-0.184-0.414t-0.398-0.145-0.398-0.090-0.184-0.266q0-0.125 0.078-0.266l-0.531-0.148q0.336-0.344 0.336-0.914 0-0.203-0.039-0.453 0.641-0.125 1.125-0.125 0.344 0 0.559 0.012t0.379 0.066 0.242 0.105 0.16 0.191 0.121 0.262 0.133 0.371 0.187 0.469l0.391-0.195q-0.023 0.312-0.18 0.469t-0.332 0.164-0.312 0.051-0.129 0.16zM10.016 5.422q-0.039-0.039-0.105-0.121t-0.094-0.113-0.082-0.090-0.078-0.082l-0.062-0.062t-0.066-0.059-0.062-0.039-0.066-0.035q-0.055-0.023-0.113-0.039t-0.16-0.020-0.172-0.004h-0.547q-0.984 0-1.695 0.336 0.125-0.234 0.281-0.363t0.422-0.23 0.512-0.281 0.359-0.285 0.391-0.43 0.34-0.395q0.094 0.070 0.219 0.246t0.25 0.285 0.297 0.102l0.094-0.008v0.594l0.172 0.008q1.93-0.742 2.898-1.484 0.219-0.164 0.391-0.305t0.332-0.293 0.258-0.242 0.23-0.266 0.187-0.242 0.191-0.289 0.18-0.297 0.211-0.371 0.23-0.414l0.055-0.070q-0.016 0.414-0.336 1.086-0.617 1.289-1.602 2.062t-2.391 1.109q-0.109 0.023-0.328 0.059t-0.391 0.074-0.305 0.109q0.023 0.148 0.191 0.359t0.168 0.266q0 0.086-0.203 0.234zM8.289 12.617q0.305-0.203 1.027-0.371t1.145-0.168q0.070 0 0.176 0.121t0.219 0.332 0.203 0.391 0.187 0.398 0.113 0.258q-0.945 0.352-1.906 0.352-0.477 0-0.977-0.086zM6.422 7.563l0.375-0.094 0.852 1.383-0.57 0.375zM10.336 11.602q0.023 0.117 0.023 0.125 0 0.055-0.137 0.113t-0.359 0.102-0.422 0.074-0.418 0.059-0.25 0.035l-0.055-0.336q0.164-0.016 0.473-0.066t0.563-0.078 0.473-0.027h0.109zM6.766 6.695l-0.75 0.156-0.047-0.133q0.078-0.008 0.254-0.055t0.27-0.047q0.148 0 0.273 0.078zM8.289 11.648h0.242l0.078 0.648-0.32 0.094v-0.742zM15.234 0.008v0zM15.234 0.008l-0.008 0.039-0.016 0.016 0.008-0.023zM15.234 0.008l0.008-0.008z"></path>
</svg>
