<?xml version="1.0" encoding="utf-8"?>
<!-- Generated by IcoMoon.io -->
<!DOCTYPE svg PUBLIC "-//W3C//DTD SVG 1.1//EN" "http://www.w3.org/Graphics/SVG/1.1/DTD/svg11.dtd">
<svg version="1.1" xmlns="http://www.w3.org/2000/svg" xmlns:xlink="http://www.w3.org/1999/xlink" width="12" height="14" viewBox="0 0 12 14">
<path fill="#444444" d="M8.172 7.969q0 0.5-0.297 0.852t-0.711 0.352q-0.336 0-0.547-0.117v-2.164q0.219-0.133 0.547-0.133 0.414 0 0.711 0.355t0.297 0.855zM5.492 4.625q0 0.5-0.297 0.855t-0.711 0.355q-0.336 0-0.547-0.117v-2.164q0.219-0.133 0.547-0.133 0.414 0 0.711 0.352t0.297 0.852zM9.883 7.992q0-1.047-0.688-1.789t-1.664-0.742q-0.156 0-0.305 0.023-0.18 0.609-0.609 1.062-0.68 0.742-1.648 0.789v4.969l1.648-0.32v-1.609q0.398 0.148 0.914 0.148 0.977 0 1.664-0.742t0.688-1.789zM7.203 4.656q0-1.047-0.691-1.789t-1.668-0.742q-0.578 0-1.102 0.281h-1.453v6.563l1.648-0.32v-1.609q0.43 0.148 0.906 0.148 0.977 0 1.668-0.742t0.691-1.789zM12 3.25v7.5q0 0.93-0.66 1.59t-1.59 0.66h-7.5q-0.93 0-1.59-0.66t-0.66-1.59v-7.5q0-0.93 0.66-1.59t1.59-0.66h7.5q0.93 0 1.59 0.66t0.66 1.59z"></path>
</svg>
