<?xml version="1.0" encoding="utf-8"?>
<!-- Generated by IcoMoon.io -->
<!DOCTYPE svg PUBLIC "-//W3C//DTD SVG 1.1//EN" "http://www.w3.org/Graphics/SVG/1.1/DTD/svg11.dtd">
<svg version="1.1" xmlns="http://www.w3.org/2000/svg" xmlns:xlink="http://www.w3.org/1999/xlink" width="12" height="14" viewBox="0 0 12 14">
<path fill="#444444" d="M9.75 1q0.93 0 1.59 0.66t0.66 1.59v7.5q0 0.93-0.66 1.59t-1.59 0.66h-5.664q0.664-0.953 0.844-1.641 0.070-0.266 0.414-1.633 0.164 0.305 0.574 0.523t0.879 0.219q1.414 0 2.309-1.152t0.895-2.918q0-0.656-0.273-1.27t-0.754-1.086-1.191-0.758-1.539-0.285q-0.813 0-1.52 0.223t-1.195 0.598-0.84 0.855-0.52 1-0.168 1.035q0 0.797 0.309 1.406t0.91 0.859q0.102 0.039 0.184 0t0.113-0.148q0.078-0.344 0.117-0.477 0.047-0.18-0.086-0.328-0.391-0.484-0.391-1.172 0-1.172 0.809-2.004t2.113-0.832q1.164 0 1.816 0.633t0.652 1.641q0 1.313-0.527 2.234t-1.355 0.922q-0.469 0-0.758-0.34t-0.18-0.809q0.062-0.266 0.207-0.723t0.23-0.797 0.086-0.582q0-0.383-0.207-0.637t-0.59-0.254q-0.477 0-0.809 0.441t-0.332 1.090q0 0.563 0.187 0.945l-0.766 3.234q-0.187 0.781-0.055 1.984h-1.43q-0.93 0-1.59-0.66t-0.66-1.59v-7.5q0-0.93 0.66-1.59t1.59-0.66h7.5z"></path>
</svg>
