<?xml version="1.0" encoding="utf-8"?>
<!-- Generated by IcoMoon.io -->
<!DOCTYPE svg PUBLIC "-//W3C//DTD SVG 1.1//EN" "http://www.w3.org/Graphics/SVG/1.1/DTD/svg11.dtd">
<svg version="1.1" xmlns="http://www.w3.org/2000/svg" xmlns:xlink="http://www.w3.org/1999/xlink" width="12" height="14" viewBox="0 0 12 14">
<path fill="#444444" d="M12 7q0 1.633-0.805 3.012t-2.184 2.184-3.012 0.805q-0.867 0-1.703-0.25 0.461-0.727 0.609-1.281 0.070-0.266 0.422-1.648 0.156 0.305 0.57 0.527t0.891 0.223q0.945 0 1.688-0.535t1.148-1.473 0.406-2.109q0-0.891-0.465-1.672t-1.348-1.273-1.992-0.492q-0.82 0-1.531 0.227t-1.207 0.602-0.852 0.863-0.523 1.012-0.168 1.047q0 0.813 0.312 1.43t0.914 0.867q0.234 0.094 0.297-0.156 0.016-0.055 0.062-0.242t0.062-0.234q0.047-0.18-0.086-0.336-0.398-0.477-0.398-1.18 0-1.18 0.816-2.027t2.137-0.848q1.18 0 1.84 0.641t0.66 1.664q0 1.328-0.535 2.258t-1.371 0.93q-0.477 0-0.766-0.34t-0.18-0.816q0.062-0.273 0.207-0.73t0.234-0.805 0.090-0.59q0-0.391-0.211-0.648t-0.602-0.258q-0.484 0-0.82 0.445t-0.336 1.109q0 0.57 0.195 0.953l-0.773 3.266q-0.133 0.547-0.102 1.383-1.609-0.711-2.602-2.195t-0.992-3.305q0-1.633 0.805-3.012t2.184-2.184 3.012-0.805 3.012 0.805 2.184 2.184 0.805 3.012z"></path>
</svg>
