<?xml version="1.0" encoding="utf-8"?>
<!-- Generated by IcoMoon.io -->
<!DOCTYPE svg PUBLIC "-//W3C//DTD SVG 1.1//EN" "http://www.w3.org/Graphics/SVG/1.1/DTD/svg11.dtd">
<svg version="1.1" xmlns="http://www.w3.org/2000/svg" xmlns:xlink="http://www.w3.org/1999/xlink" width="10" height="14" viewBox="0 0 10 14">
<path fill="#444444" d="M0 4.664q0-0.844 0.293-1.59t0.809-1.301 1.187-0.961 1.445-0.609 1.578-0.203q1.234 0 2.297 0.52t1.727 1.512 0.664 2.242q0 0.75-0.148 1.469t-0.469 1.383-0.781 1.168-1.133 0.805-1.477 0.301q-0.531 0-1.055-0.25t-0.75-0.688q-0.078 0.305-0.219 0.879t-0.184 0.742-0.16 0.555-0.203 0.555-0.25 0.488-0.359 0.605-0.484 0.676l-0.109 0.039-0.070-0.078q-0.117-1.227-0.117-1.469 0-0.719 0.168-1.613t0.52-2.246 0.406-1.586q-0.25-0.508-0.25-1.32 0-0.648 0.406-1.219t1.031-0.57q0.477 0 0.742 0.316t0.266 0.801q0 0.516-0.344 1.492t-0.344 1.461q0 0.492 0.352 0.816t0.852 0.324q0.43 0 0.797-0.195t0.613-0.531 0.438-0.742 0.297-0.863 0.156-0.867 0.051-0.777q0-1.352-0.855-2.105t-2.23-0.754q-1.563 0-2.609 1.012t-1.047 2.566q0 0.344 0.098 0.664t0.211 0.508 0.211 0.355 0.098 0.238q0 0.219-0.117 0.57t-0.289 0.352q-0.016 0-0.133-0.023-0.398-0.117-0.707-0.438t-0.477-0.738-0.254-0.844-0.086-0.832z"></path>
</svg>
