<?xml version="1.0" encoding="utf-8"?>
<!-- Generated by IcoMoon.io -->
<!DOCTYPE svg PUBLIC "-//W3C//DTD SVG 1.1//EN" "http://www.w3.org/Graphics/SVG/1.1/DTD/svg11.dtd">
<svg version="1.1" xmlns="http://www.w3.org/2000/svg" xmlns:xlink="http://www.w3.org/1999/xlink" width="12" height="14" viewBox="0 0 12 14">
<path fill="#444444" d="M6 1q1.633 0 3.012 0.805t2.184 2.184 0.805 3.012-0.805 3.012-2.184 2.184-3.012 0.805-3.012-0.805-2.184-2.184-0.805-3.012 0.805-3.012 2.184-2.184 3.012-0.805zM9 7.43q0.25-0.141 0.25-0.43t-0.25-0.43l-4.25-2.5q-0.242-0.148-0.5-0.008-0.25 0.148-0.25 0.438v5q0 0.289 0.25 0.438 0.125 0.062 0.25 0.062 0.133 0 0.25-0.070z"></path>
</svg>
