<?xml version="1.0" encoding="utf-8"?>
<!-- Generated by IcoMoon.io -->
<!DOCTYPE svg PUBLIC "-//W3C//DTD SVG 1.1//EN" "http://www.w3.org/Graphics/SVG/1.1/DTD/svg11.dtd">
<svg version="1.1" xmlns="http://www.w3.org/2000/svg" xmlns:xlink="http://www.w3.org/1999/xlink" width="14" height="14" viewBox="0 0 14 14">
<path fill="#444444" d="M8.68 6.020c0 0.7-0.56 1.26-1.26 1.26s-1.26-0.56-1.26-1.26 0.56-1.26 1.26-1.26c0.7 0 1.26 0.56 1.26 1.26z"></path>
<path fill="#444444" d="M6.86 9.24h1.12v0.28h-1.12v-0.28z"></path>
<path fill="#444444" d="M7.98 9.856v-0.056h-1.12v0.28h0.77c0.098-0.098 0.21-0.182 0.35-0.224z"></path>
<path fill="#444444" d="M6.86 10.36v0.28h0.56c0-0.098 0.014-0.196 0.056-0.28h-0.616z"></path>
<path fill="#444444" d="M6.86 10.92v0.28h0.77c-0.070-0.084-0.126-0.182-0.168-0.28h-0.602z"></path>
<path fill="#444444" d="M11.116 10.346l-1.106-1.806c-0.28-0.518-0.812-0.826-1.386-0.826h-2.352l-1.344-0.574-0.476-1.442c-0.098-0.294-0.42-0.448-0.714-0.35s-0.448 0.42-0.35 0.714l0.56 1.68c0.056 0.154 0.168 0.28 0.308 0.336l1.344 0.56v3.402h3.5v-0.56h-2.52v-2.52h1.68v0.84h0.84v-0.602l0.546 0.882h-1.386c-0.308 0-0.56 0.252-0.56 0.56s0.252 0.56 0.56 0.56v0h2.38c0.196 0 0.392-0.112 0.49-0.28 0.098-0.182 0.098-0.406-0.014-0.574z"></path>
<path fill="#444444" d="M4.2 4.62h-0.56c-0.084 0-0.14-0.056-0.14-0.14s0.056-0.14 0.14-0.14h0.56c0.084 0 0.14 0.056 0.14 0.14s-0.056 0.14-0.14 0.14z"></path>
<path fill="#444444" d="M4.060 5.040h-0.28c-0.084 0-0.14-0.056-0.14-0.14s0.056-0.14 0.14-0.14h0.28c0.084 0 0.14 0.056 0.14 0.14s-0.056 0.14-0.14 0.14z"></path>
<path fill="#444444" d="M4.83 2.87c0-0.504-0.406-0.91-0.91-0.91s-0.91 0.406-0.91 0.91c0 0.224 0.070 0.42 0.21 0.574v0c0.294 0.364 0.28 0.616 0.28 0.616 0 0.084 0.056 0.14 0.14 0.14h0.56c0.084 0 0.14-0.056 0.14-0.14 0 0-0.014-0.252 0.28-0.616v0c0.14-0.154 0.21-0.35 0.21-0.574z"></path>
</svg>
