<?xml version="1.0" encoding="utf-8"?>
<!-- Generated by IcoMoon.io -->
<!DOCTYPE svg PUBLIC "-//W3C//DTD SVG 1.1//EN" "http://www.w3.org/Graphics/SVG/1.1/DTD/svg11.dtd">
<svg version="1.1" xmlns="http://www.w3.org/2000/svg" xmlns:xlink="http://www.w3.org/1999/xlink" width="14" height="14" viewBox="0 0 14 14">
<path fill="#444444" d="M9.24 10.080h-2.632l-0.042 0.084c-0.14 0.266-0.392 0.42-0.658 0.42-0.196 0-0.378-0.070-0.518-0.21l-1.204-1.106c-0.070-0.056-0.168-0.126-0.266-0.154-0.056-0.014-0.126-0.028-0.196-0.028v-0.35c0.112 0 0.21 0.014 0.308 0.042 0.196 0.056 0.35 0.182 0.434 0.252l1.162 1.092c0.084 0.070 0.182 0.098 0.28 0.098 0.168 0 0.322-0.126 0.392-0.266 0.014-0.042 0.028-0.098 0.028-0.14 0-0.126-0.056-0.224-0.126-0.308l-2.198-2.31c-0.238-0.238-0.546-0.364-0.882-0.364h-1.162v1.988h0.378c0.21 0 0.406 0.084 0.546 0.224l1.666 1.666c0.308 0.308 0.742 0.49 1.19 0.49h3.5c0.308 0 0.56-0.252 0.56-0.56s-0.252-0.56-0.56-0.56z"></path>
<path fill="#444444" d="M12.040 7.28c0 0 0-0.014 0 0v0c0-0.028 0-0.042-0.014-0.056l-1.12-3.22c0 0 0 0 0 0 0-0.014-0.014-0.028-0.014-0.028s0 0 0 0 0 0-0.014-0.014-0.014-0.014-0.028-0.028c0 0 0 0-0.014 0s-0.028-0.014-0.042-0.014c0 0 0 0-0.014 0 0 0-0.014 0-0.014 0h-1.918l-0.028-0.84c0-0.070-0.070-0.14-0.14-0.14s-0.14 0.056-0.14 0.14l-0.028 0.84h-1.932c0 0-0.014 0-0.014 0s0 0-0.014 0-0.028 0.014-0.042 0.014c0 0 0 0-0.014 0s-0.014 0.014-0.028 0.028c0 0 0 0-0.014 0.014 0 0 0 0 0 0-0.014 0.014-0.014 0.028-0.014 0.028s0 0 0 0l-1.12 3.22c0 0.014 0 0.028 0 0.042v0c0 0 0 0 0 0.014 0 0 0 0 0 0 0.014 0.532 0.574 0.966 1.26 0.966s1.246-0.434 1.26-0.966c0 0 0 0 0 0s0 0 0-0.014v0c0-0.014 0-0.028 0-0.042l-1.050-3.038h1.736l-0.126 4.214c-1.036 0.056-1.82 0.336-1.82 0.686h4.34c0-0.364-0.868-0.658-1.96-0.7l-0.112-4.2h1.736l-1.050 3.038c0 0.014 0 0.028 0 0.042v0c0 0 0 0 0 0.014 0 0 0 0 0 0 0.014 0.532 0.574 0.966 1.26 0.966s1.232-0.434 1.246-0.966c0 0 0 0 0 0zM5.614 7.266l0.826-2.394v2.394h-0.826zM7.546 7.266h-0.826v-2.394l0.826 2.394zM9.814 7.266l0.826-2.394v2.394h-0.826zM10.92 4.872l0.826 2.394h-0.826v-2.394z"></path>
</svg>
