<?xml version="1.0" encoding="utf-8"?>
<!-- Generated by IcoMoon.io -->
<!DOCTYPE svg PUBLIC "-//W3C//DTD SVG 1.1//EN" "http://www.w3.org/Graphics/SVG/1.1/DTD/svg11.dtd">
<svg version="1.1" xmlns="http://www.w3.org/2000/svg" xmlns:xlink="http://www.w3.org/1999/xlink" width="14" height="14" viewBox="0 0 14 14">
<path fill="#444444" d="M12.040 1.96h-10.080v10.080h0.98v-4.060h9.1l-2.8-3.080 2.8-2.94zM6.804 7.084h-0.098c0 0.112-0.084 0.196-0.196 0.196h-0.196c-0.112 0-0.196-0.084-0.196-0.196h-0.098c-0.112 0-0.196-0.084-0.196-0.196s0.084-0.196 0.196-0.196h0.784c0.112 0 0.196 0.084 0.196 0.196s-0.098 0.196-0.196 0.196zM6.804 6.496h-0.784c-0.112 0-0.196-0.084-0.196-0.196s0.084-0.196 0.196-0.196h0.784c0.112 0 0.196 0.084 0.196 0.196s-0.098 0.196-0.196 0.196zM7.42 4.886c-0.112 0.126-0.42 0.504-0.42 0.826v0.014c0 0.112-0.084 0.196-0.196 0.196h-0.784c-0.112 0-0.196-0.084-0.196-0.196 0-0.336-0.35-0.756-0.448-0.854-0.21-0.238-0.336-0.56-0.336-0.896 0-0.756 0.616-1.372 1.372-1.372s1.372 0.616 1.372 1.372c-0.014 0.336-0.14 0.658-0.364 0.91z"></path>
</svg>
