<?xml version="1.0" encoding="utf-8"?>
<!-- Generated by IcoMoon.io -->
<!DOCTYPE svg PUBLIC "-//W3C//DTD SVG 1.1//EN" "http://www.w3.org/Graphics/SVG/1.1/DTD/svg11.dtd">
<svg version="1.1" xmlns="http://www.w3.org/2000/svg" xmlns:xlink="http://www.w3.org/1999/xlink" width="13" height="14" viewBox="0 0 13 14">
<path fill="#444444" d="M13 8.578q0 0.633-0.348 1.055t-0.965 0.422q-0.32 0-0.605-0.137t-0.461-0.297-0.441-0.297-0.555-0.137q-0.859 0-0.859 0.969 0 0.305 0.125 0.898t0.117 0.898v0.039q-0.172 0-0.258 0.008-0.266 0.023-0.762 0.090t-0.902 0.105-0.766 0.039q-0.477 0-0.805-0.207t-0.328-0.652q0-0.289 0.137-0.555t0.297-0.441 0.297-0.461 0.137-0.605q0-0.617-0.422-0.965t-1.055-0.348q-0.656 0-1.117 0.355t-0.461 0.996q0 0.336 0.117 0.648t0.262 0.504 0.262 0.414 0.117 0.395q0 0.352-0.359 0.695-0.289 0.273-0.914 0.273-0.742 0-1.914-0.187-0.070-0.016-0.215-0.031t-0.215-0.031l-0.102-0.016q-0.008 0-0.023-0.008-0.016 0-0.016-0.008v-8q0.016 0.008 0.137 0.027t0.266 0.039 0.168 0.027q1.172 0.187 1.914 0.187 0.625 0 0.914-0.273 0.359-0.344 0.359-0.695 0-0.172-0.117-0.395t-0.262-0.414-0.262-0.504-0.117-0.648q0-0.641 0.461-0.996t1.125-0.355q0.625 0 1.047 0.348t0.422 0.965q0 0.32-0.137 0.605t-0.297 0.461-0.297 0.441-0.137 0.555q0 0.445 0.328 0.652t0.805 0.207q0.5 0 1.406-0.117t1.273-0.133v0.016q-0.008 0.016-0.027 0.137t-0.039 0.266-0.027 0.168q-0.187 1.172-0.187 1.914 0 0.625 0.273 0.914 0.344 0.359 0.695 0.359 0.172 0 0.395-0.117t0.414-0.262 0.504-0.262 0.648-0.117q0.641 0 0.996 0.461t0.355 1.117z"></path>
</svg>
