<?xml version="1.0" encoding="utf-8"?>
<!-- Generated by IcoMoon.io -->
<!DOCTYPE svg PUBLIC "-//W3C//DTD SVG 1.1//EN" "http://www.w3.org/Graphics/SVG/1.1/DTD/svg11.dtd">
<svg version="1.1" xmlns="http://www.w3.org/2000/svg" xmlns:xlink="http://www.w3.org/1999/xlink" width="18" height="14" viewBox="0 0 18 14">
<path fill="#444444" d="M10.867 8.953v0l-0.008-0.008q-0.117-0.141-0.27-0.293t-0.488-0.449-0.73-0.484-0.746-0.187q-0.375 0-0.648 0.168t-0.398 0.422-0.18 0.461-0.055 0.371v0 0q0 0.164 0.055 0.375t0.18 0.461 0.398 0.418 0.648 0.168q0.352 0 0.746-0.187t0.734-0.488 0.484-0.445 0.27-0.293zM16.43 8.953q0-0.164-0.055-0.371t-0.18-0.461-0.398-0.422-0.648-0.168q-0.352 0-0.746 0.187t-0.734 0.488-0.484 0.445-0.27 0.293l-0.008 0.008 0.008 0.008q0.117 0.141 0.27 0.293t0.488 0.449 0.73 0.484 0.746 0.187q0.375 0 0.648-0.168t0.398-0.418 0.18-0.461 0.055-0.375zM18 8.93q0 0.539-0.187 1.074t-0.531 0.984-0.906 0.73-1.242 0.281q-0.531 0-1.047-0.187t-0.887-0.457-0.66-0.543-0.465-0.461-0.199-0.187-0.176 0.187-0.426 0.457-0.637 0.543-0.898 0.461-1.121 0.187q-0.508 0-0.965-0.176t-0.754-0.422-0.52-0.52-0.32-0.465-0.098-0.254q0 0.062-0.066 0.207t-0.195 0.355-0.367 0.43-0.539 0.41-0.754 0.312-0.977 0.121q-0.555 0-1.016-0.121t-0.77-0.309-0.551-0.441-0.375-0.496-0.215-0.496-0.109-0.422-0.027-0.285h1.695q0 0.43 0.383 0.84t0.984 0.41q0.617 0 1.051-0.523t0.434-1.156q0-0.625-0.406-1.066t-1.078-0.441q-0.039 0-0.102 0.004t-0.242 0.039-0.336 0.094-0.328 0.191-0.266 0.312h-1.523l0.797-4.555h4.703v1.359h-3.477q-0.211 1.242-0.32 1.937 0.031 0 0.129-0.102t0.246-0.223 0.508-0.223 0.844-0.102 0.891 0.16 0.645 0.387 0.402 0.457 0.242 0.391 0.086 0.16 0.102-0.195 0.285-0.473 0.473-0.559 0.758-0.477 1.039-0.195 1.098 0.195 0.902 0.473 0.652 0.559 0.441 0.477 0.164 0.195q0.016 0 0.172-0.195t0.438-0.473 0.652-0.559 0.902-0.477 1.094-0.195q0.719 0 1.285 0.273t0.902 0.727 0.508 0.977 0.172 1.070z"></path>
</svg>
