<?xml version="1.0" encoding="utf-8"?>
<!-- Generated by IcoMoon.io -->
<!DOCTYPE svg PUBLIC "-//W3C//DTD SVG 1.1//EN" "http://www.w3.org/Graphics/SVG/1.1/DTD/svg11.dtd">
<svg version="1.1" xmlns="http://www.w3.org/2000/svg" xmlns:xlink="http://www.w3.org/1999/xlink" width="14" height="14" viewBox="0 0 14 14">
<path fill="#444444" d="M2.109 6.297q-0.062-0.148-0.062-0.406 0-0.156 0.086-0.383t0.187-0.352q-0.008-0.172 0.059-0.414t0.176-0.336q0-1.086 0.723-2.254t1.699-1.637q1.086-0.516 2.531-0.516 1.039 0 2.078 0.43 0.383 0.164 0.703 0.375t0.555 0.438 0.43 0.531 0.328 0.578 0.254 0.66 0.199 0.699 0.172 0.766l0.008 0.039q0.43 0.648 0.43 1.172 0 0.109-0.070 0.312t-0.070 0.297q0 0.008 0.012 0.027t0.027 0.039 0.016 0.027q0.602 0.891 0.941 1.676t0.34 1.629q0 0.336-0.152 0.781t-0.434 0.445q-0.070 0-0.152-0.059t-0.148-0.137-0.148-0.203-0.125-0.207-0.105-0.203-0.070-0.137q-0.008-0.008-0.023-0.008l-0.039 0.031q-0.461 1.203-1.031 1.742 0.156 0.156 0.48 0.301t0.539 0.324 0.277 0.508q-0.016 0.031-0.031 0.125t-0.055 0.141q-0.5 0.758-2.359 0.758-0.414 0-0.863-0.070t-0.766-0.156-0.816-0.234q-0.117-0.039-0.18-0.055-0.109-0.031-0.359-0.035t-0.312-0.012q-0.32 0.352-0.996 0.508t-1.316 0.156q-0.273 0-0.539-0.012t-0.727-0.070-0.789-0.16-0.582-0.312-0.254-0.5q0-0.312 0.078-0.465t0.32-0.379q0.086-0.016 0.316-0.102t0.387-0.094q0.031 0 0.109-0.016 0.016-0.016 0.016-0.031l-0.016-0.023q-0.375-0.086-0.844-0.824t-0.57-1.223l-0.039-0.023q-0.031 0-0.094 0.156-0.141 0.32-0.426 0.582t-0.605 0.293h-0.008q-0.031 0-0.047-0.035t-0.039-0.043q-0.18-0.422-0.18-0.781 0-2.148 1.969-3.641z"></path>
</svg>
