<?xml version="1.0" encoding="utf-8"?>
<!-- Generated by IcoMoon.io -->
<!DOCTYPE svg PUBLIC "-//W3C//DTD SVG 1.1//EN" "http://www.w3.org/Graphics/SVG/1.1/DTD/svg11.dtd">
<svg version="1.1" xmlns="http://www.w3.org/2000/svg" xmlns:xlink="http://www.w3.org/1999/xlink" width="8" height="14" viewBox="0 0 8 14">
<path fill="#444444" d="M5.5 9.812v1.875q0 0.125-0.094 0.219t-0.219 0.094h-1.875q-0.125 0-0.219-0.094t-0.094-0.219v-1.875q0-0.125 0.094-0.219t0.219-0.094h1.875q0.125 0 0.219 0.094t0.094 0.219zM7.969 5.125q0 0.422-0.121 0.789t-0.273 0.598-0.43 0.465-0.449 0.34-0.477 0.277q-0.32 0.18-0.535 0.508t-0.215 0.523q0 0.133-0.094 0.254t-0.219 0.121h-1.875q-0.117 0-0.199-0.145t-0.082-0.293v-0.352q0-0.648 0.508-1.223t1.117-0.848q0.461-0.211 0.656-0.438t0.195-0.594q0-0.328-0.363-0.578t-0.84-0.25q-0.508 0-0.844 0.227-0.273 0.195-0.836 0.898-0.102 0.125-0.242 0.125-0.094 0-0.195-0.062l-1.281-0.977q-0.102-0.078-0.121-0.195t0.043-0.219q1.25-2.078 3.625-2.078 0.625 0 1.258 0.242t1.141 0.648 0.828 0.996 0.32 1.238z"></path>
</svg>
