<?xml version="1.0" encoding="utf-8"?>
<!-- Generated by IcoMoon.io -->
<!DOCTYPE svg PUBLIC "-//W3C//DTD SVG 1.1//EN" "http://www.w3.org/Graphics/SVG/1.1/DTD/svg11.dtd">
<svg version="1.1" xmlns="http://www.w3.org/2000/svg" xmlns:xlink="http://www.w3.org/1999/xlink" width="13" height="14" viewBox="0 0 13 14">
<path fill="#444444" d="M6 2.5v5.5q0 0.813-0.316 1.551t-0.855 1.277-1.277 0.855-1.551 0.316h-0.5q-0.203 0-0.352-0.148t-0.148-0.352v-1q0-0.203 0.148-0.352t0.352-0.148h0.5q0.828 0 1.414-0.586t0.586-1.414v-0.25q0-0.312-0.219-0.531t-0.531-0.219h-1.75q-0.625 0-1.062-0.438t-0.438-1.062v-3q0-0.625 0.438-1.062t1.062-0.438h3q0.625 0 1.062 0.438t0.438 1.062zM13 2.5v5.5q0 0.813-0.316 1.551t-0.855 1.277-1.277 0.855-1.551 0.316h-0.5q-0.203 0-0.352-0.148t-0.148-0.352v-1q0-0.203 0.148-0.352t0.352-0.148h0.5q0.828 0 1.414-0.586t0.586-1.414v-0.25q0-0.312-0.219-0.531t-0.531-0.219h-1.75q-0.625 0-1.062-0.438t-0.438-1.062v-3q0-0.625 0.438-1.062t1.062-0.438h3q0.625 0 1.062 0.438t0.438 1.062z"></path>
</svg>
