<?xml version="1.0" encoding="utf-8"?>
<!-- Generated by IcoMoon.io -->
<!DOCTYPE svg PUBLIC "-//W3C//DTD SVG 1.1//EN" "http://www.w3.org/Graphics/SVG/1.1/DTD/svg11.dtd">
<svg version="1.1" xmlns="http://www.w3.org/2000/svg" xmlns:xlink="http://www.w3.org/1999/xlink" width="14" height="14" viewBox="0 0 14 14">
<path fill="#444444" d="M0.148 6.828q0.062-1.695 0.906-3.172t2.383-2.484h0.039q0 0.008-0.008 0.023-0.062 0.062-0.219 0.262t-0.406 0.598-0.469 0.863-0.348 1.059-0.109 1.176 0.305 1.23 0.848 1.203q0.391 0.391 0.797 0.543t0.707 0.090 0.543-0.184 0.367-0.254l0.125-0.125q0.305-0.398 0.414-0.91t0.051-0.957-0.164-0.836-0.207-0.625l-0.109-0.227q-0.078-0.195-0.238-0.387t-0.336-0.32-0.34-0.23-0.273-0.148l-0.102-0.047 0.813-0.898q0.305 0.133 0.609 0.406t0.461 0.477l0.148 0.211q0.008-0.375-0.145-0.809t-0.316-0.684l-0.156-0.242 1.258-1.43 1.25 1.414q-0.258 0.359-0.41 0.801t-0.176 0.707l-0.031 0.258q0.172-0.289 0.48-0.566t0.527-0.41l0.219-0.133 0.805 0.898q-0.344 0.109-0.664 0.391t-0.469 0.508l-0.148 0.227q-0.242 0.438-0.375 1.043t-0.055 1.328 0.445 1.223q0.258 0.352 0.605 0.473t0.664 0.043 0.594-0.207 0.449-0.262l0.164-0.125q0.469-0.414 0.754-0.898t0.379-0.949 0.078-0.949-0.141-0.922-0.289-0.84-0.355-0.727-0.352-0.563-0.27-0.371l-0.102-0.133q-0.109-0.102-0.055-0.102l0.078 0.023q0.312 0.227 0.488 0.359t0.484 0.391 0.5 0.453 0.457 0.508 0.434 0.602 0.355 0.688 0.297 0.805 0.184 0.914 0.082 1.062q0.023 2.023-0.844 3.633t-2.438 2.508-3.562 0.898q-1.445 0-2.742-0.578t-2.215-1.547-1.438-2.289-0.473-2.758z"></path>
</svg>
