<?xml version="1.0" encoding="utf-8"?>
<!-- Generated by IcoMoon.io -->
<!DOCTYPE svg PUBLIC "-//W3C//DTD SVG 1.1//EN" "http://www.w3.org/Graphics/SVG/1.1/DTD/svg11.dtd">
<svg version="1.1" xmlns="http://www.w3.org/2000/svg" xmlns:xlink="http://www.w3.org/1999/xlink" width="14" height="14" viewBox="0 0 14 14">
<path fill="#444444" d="M6.531 9.133l-0.117 2.875-0.016 0.172-3.281-0.227q-0.281-0.023-0.523-0.246t-0.367-0.512q-0.086-0.211-0.113-0.43t0.031-0.508 0.094-0.43 0.168-0.5 0.148-0.414q0.609 0.094 3.977 0.219zM3.508 4.555l1.406 2.961-1.148-0.719q-0.492 0.563-0.871 1.129t-0.566 0.977-0.309 0.738-0.145 0.492l-0.031 0.164-1.484-2.789q-0.133-0.203-0.141-0.438t0.047-0.367l0.062-0.141q0.273-0.492 0.891-1.469l-1.094-0.672zM13.125 8.594l-1.469 2.805q-0.094 0.227-0.285 0.363t-0.34 0.16l-0.141 0.031q-0.555 0.055-1.711 0.094l0.062 1.281-1.797-2.867 1.648-2.828 0.055 1.352q1.328 0.125 2.211 0.039t1.328-0.258zM6.992 1.375q-0.367 0.492-2.070 3.398l-2.477-1.461-0.148-0.094 1.758-2.781q0.156-0.242 0.469-0.352t0.625-0.078q0.187 0.016 0.379 0.094t0.328 0.164 0.324 0.258 0.281 0.27 0.281 0.309 0.25 0.273zM12.109 3.773l1.656 2.836q0.141 0.289 0.098 0.594t-0.215 0.578q-0.102 0.156-0.258 0.289t-0.297 0.219-0.379 0.172-0.367 0.125-0.402 0.109-0.359 0.094q-0.266-0.563-2.070-3.406l2.445-1.523zM10.992 2.008l1.109-0.648-1.719 2.914-3.273-0.156 1.18-0.672q-0.266-0.695-0.586-1.297t-0.59-0.965-0.504-0.625-0.367-0.363l-0.133-0.102 3.164 0.008q0.242-0.023 0.453 0.082t0.305 0.223l0.086 0.117q0.305 0.477 0.875 1.484z"></path>
</svg>
