<?xml version="1.0" encoding="utf-8"?>
<!-- Generated by IcoMoon.io -->
<!DOCTYPE svg PUBLIC "-//W3C//DTD SVG 1.1//EN" "http://www.w3.org/Graphics/SVG/1.1/DTD/svg11.dtd">
<svg version="1.1" xmlns="http://www.w3.org/2000/svg" xmlns:xlink="http://www.w3.org/1999/xlink" width="14" height="14" viewBox="0 0 14 14">
<path fill="#444444" d="M8.555 9.117q0.125 0.125 0 0.242-0.484 0.484-1.555 0.484t-1.555-0.484q-0.125-0.117 0-0.242 0.047-0.047 0.117-0.047t0.117 0.047q0.375 0.383 1.32 0.383 0.937 0 1.32-0.383 0.047-0.047 0.117-0.047t0.117 0.047zM6.156 7.703q0 0.289-0.203 0.492t-0.492 0.203-0.496-0.203-0.207-0.492q0-0.297 0.207-0.5t0.496-0.203 0.492 0.207 0.203 0.496zM9.242 7.703q0 0.289-0.207 0.492t-0.496 0.203-0.492-0.203-0.203-0.492 0.203-0.496 0.492-0.207 0.496 0.203 0.207 0.5zM11.203 6.766q0-0.383-0.273-0.656t-0.664-0.273-0.672 0.281q-1.016-0.703-2.43-0.75l0.492-2.211 1.563 0.352q0 0.289 0.203 0.492t0.492 0.203 0.496-0.207 0.207-0.496-0.207-0.496-0.496-0.207q-0.422 0-0.625 0.391l-1.727-0.383q-0.148-0.039-0.195 0.125l-0.539 2.438q-1.406 0.055-2.414 0.758-0.273-0.289-0.68-0.289-0.391 0-0.664 0.273t-0.273 0.656q0 0.273 0.145 0.5t0.387 0.344q-0.047 0.211-0.047 0.438 0 1.109 1.094 1.898t2.633 0.789q1.547 0 2.641-0.789t1.094-1.898q0-0.25-0.055-0.445 0.234-0.117 0.375-0.34t0.141-0.496zM14 7q0 1.422-0.555 2.719t-1.492 2.234-2.234 1.492-2.719 0.555-2.719-0.555-2.234-1.492-1.492-2.234-0.555-2.719 0.555-2.719 1.492-2.234 2.234-1.492 2.719-0.555 2.719 0.555 2.234 1.492 1.492 2.234 0.555 2.719z"></path>
</svg>
