<?xml version="1.0" encoding="utf-8"?>
<!-- Generated by IcoMoon.io -->
<!DOCTYPE svg PUBLIC "-//W3C//DTD SVG 1.1//EN" "http://www.w3.org/Graphics/SVG/1.1/DTD/svg11.dtd">
<svg version="1.1" xmlns="http://www.w3.org/2000/svg" xmlns:xlink="http://www.w3.org/1999/xlink" width="14" height="14" viewBox="0 0 14 14">
<path fill="#444444" d="M8.141 5.492q0-0.688-0.469-0.945-0.258-0.141-0.914-0.141h-0.961v2.195h1.266q0.516 0 0.797-0.289t0.281-0.82zM8.547 7.719l1.602 2.914q0.062 0.133-0.008 0.242-0.062 0.125-0.211 0.125h-1.187q-0.156 0-0.219-0.133l-1.516-2.852h-1.211v2.734q0 0.109-0.070 0.18t-0.18 0.070h-1.047q-0.109 0-0.18-0.070t-0.070-0.18v-7.5q0-0.109 0.070-0.18t0.18-0.070h2.297q1 0 1.484 0.187 0.664 0.242 1.047 0.852t0.383 1.406q0 0.719-0.332 1.293t-0.902 0.855q0.047 0.078 0.070 0.125zM7 1.25q-1.172 0-2.234 0.457t-1.832 1.227-1.227 1.832-0.457 2.234 0.457 2.234 1.227 1.832 1.832 1.227 2.234 0.457 2.234-0.457 1.832-1.227 1.227-1.832 0.457-2.234-0.457-2.234-1.227-1.832-1.832-1.227-2.234-0.457zM14 7q0 1.422-0.555 2.719t-1.492 2.234-2.234 1.492-2.719 0.555-2.719-0.555-2.234-1.492-1.492-2.234-0.555-2.719 0.555-2.719 1.492-2.234 2.234-1.492 2.719-0.555 2.719 0.555 2.234 1.492 1.492 2.234 0.555 2.719z"></path>
</svg>
