<?xml version="1.0" encoding="utf-8"?>
<!-- Generated by IcoMoon.io -->
<!DOCTYPE svg PUBLIC "-//W3C//DTD SVG 1.1//EN" "http://www.w3.org/Graphics/SVG/1.1/DTD/svg11.dtd">
<svg version="1.1" xmlns="http://www.w3.org/2000/svg" xmlns:xlink="http://www.w3.org/1999/xlink" width="12" height="14" viewBox="0 0 12 14">
<path fill="#444444" d="M8.852 12.266q-1.336 0.734-2.875 0.734-1.531 0-2.867-0.734 1.078-0.68 1.84-1.648t1.027-2.094q0.273 1.125 1.035 2.094t1.84 1.648zM4.984 1.109v3.789q0 1.969-0.988 3.59t-2.582 2.395q-1.414-1.68-1.414-3.867 0-1.461 0.652-2.73t1.793-2.105 2.539-1.070zM12 7.016q0 2.188-1.414 3.867-1.594-0.773-2.582-2.395t-0.988-3.59v-3.789q1.398 0.234 2.539 1.070t1.793 2.105 0.652 2.73z"></path>
</svg>
