<?xml version="1.0" encoding="utf-8"?>
<!-- Generated by IcoMoon.io -->
<!DOCTYPE svg PUBLIC "-//W3C//DTD SVG 1.1//EN" "http://www.w3.org/Graphics/SVG/1.1/DTD/svg11.dtd">
<svg version="1.1" xmlns="http://www.w3.org/2000/svg" xmlns:xlink="http://www.w3.org/1999/xlink" width="12" height="14" viewBox="0 0 12 14">
<path fill="#444444" d="M12 2v3.5q0 0.203-0.148 0.352t-0.352 0.148h-3.5q-0.328 0-0.461-0.312-0.133-0.305 0.109-0.539l1.078-1.078q-1.156-1.070-2.727-1.070-0.813 0-1.551 0.316t-1.277 0.855-0.855 1.277-0.316 1.551 0.316 1.551 0.855 1.277 1.277 0.855 1.551 0.316q0.93 0 1.758-0.406t1.398-1.148q0.055-0.078 0.18-0.094 0.109 0 0.195 0.070l1.070 1.078q0.070 0.062 0.074 0.16t-0.059 0.176q-0.852 1.031-2.062 1.598t-2.555 0.566q-1.219 0-2.328-0.477t-1.914-1.281-1.281-1.914-0.477-2.328 0.477-2.328 1.281-1.914 1.914-1.281 2.328-0.477q1.148 0 2.223 0.434t1.91 1.223l1.016-1.008q0.227-0.242 0.547-0.109 0.305 0.133 0.305 0.461z"></path>
</svg>
