<?xml version="1.0" encoding="utf-8"?>
<!-- Generated by IcoMoon.io -->
<!DOCTYPE svg PUBLIC "-//W3C//DTD SVG 1.1//EN" "http://www.w3.org/Graphics/SVG/1.1/DTD/svg11.dtd">
<svg version="1.1" xmlns="http://www.w3.org/2000/svg" xmlns:xlink="http://www.w3.org/1999/xlink" width="15" height="14" viewBox="0 0 15 14">
<path fill="#444444" d="M10 11.75q0 0.102-0.074 0.176t-0.176 0.074h-7.5q-0.062 0-0.105-0.016t-0.070-0.055-0.043-0.062-0.023-0.090-0.008-0.090v-4.687h-1.5q-0.203 0-0.352-0.148t-0.148-0.352q0-0.187 0.117-0.32l2.5-3q0.148-0.172 0.383-0.172t0.383 0.172l2.5 3q0.117 0.133 0.117 0.32 0 0.203-0.148 0.352t-0.352 0.148h-1.5v3h4.5q0.125 0 0.195 0.086l1.25 1.5q0.055 0.086 0.055 0.164zM15 8.5q0 0.187-0.117 0.32l-2.5 3q-0.156 0.18-0.383 0.18t-0.383-0.18l-2.5-3q-0.117-0.133-0.117-0.32 0-0.203 0.148-0.352t0.352-0.148h1.5v-3h-4.5q-0.125 0-0.195-0.094l-1.25-1.5q-0.055-0.070-0.055-0.156 0-0.102 0.074-0.176t0.176-0.074h7.5q0.062 0 0.105 0.016t0.070 0.055 0.043 0.062 0.023 0.090 0.008 0.090v4.687h1.5q0.203 0 0.352 0.148t0.148 0.352z"></path>
</svg>
