<?xml version="1.0" encoding="utf-8"?>
<!-- Generated by IcoMoon.io -->
<!DOCTYPE svg PUBLIC "-//W3C//DTD SVG 1.1//EN" "http://www.w3.org/Graphics/SVG/1.1/DTD/svg11.dtd">
<svg version="1.1" xmlns="http://www.w3.org/2000/svg" xmlns:xlink="http://www.w3.org/1999/xlink" width="15" height="14" viewBox="0 0 15 14">
<path fill="#444444" d="M8.68 7.781v-0.031l-0.187-2.5q-0.008-0.102-0.086-0.176t-0.18-0.074h-1.453q-0.102 0-0.18 0.074t-0.086 0.176l-0.187 2.5v0.031q-0.008 0.094 0.062 0.156t0.164 0.062h1.906q0.094 0 0.164-0.062t0.062-0.156zM14.609 11.43q0 0.57-0.359 0.57h-5.5q0.102 0 0.172-0.074t0.062-0.176l-0.156-2q-0.008-0.102-0.086-0.176t-0.18-0.074h-2.125q-0.102 0-0.18 0.074t-0.086 0.176l-0.156 2q-0.008 0.102 0.062 0.176t0.172 0.074h-5.5q-0.359 0-0.359-0.57 0-0.422 0.203-0.906l3.258-8.156q0.062-0.148 0.203-0.258t0.297-0.109h2.648q-0.102 0-0.18 0.074t-0.086 0.176l-0.117 1.5q-0.008 0.109 0.062 0.18t0.172 0.070h1.297q0.102 0 0.172-0.070t0.062-0.18l-0.117-1.5q-0.008-0.102-0.086-0.176t-0.18-0.074h2.648q0.156 0 0.297 0.109t0.203 0.258l3.258 8.156q0.203 0.484 0.203 0.906z"></path>
</svg>
