<?xml version="1.0" encoding="utf-8"?>
<!-- Generated by IcoMoon.io -->
<!DOCTYPE svg PUBLIC "-//W3C//DTD SVG 1.1//EN" "http://www.w3.org/Graphics/SVG/1.1/DTD/svg11.dtd">
<svg version="1.1" xmlns="http://www.w3.org/2000/svg" xmlns:xlink="http://www.w3.org/1999/xlink" width="12" height="14" viewBox="0 0 12 14">
<path fill="#444444" d="M4 10q0-0.414-0.293-0.707t-0.707-0.293-0.707 0.293-0.293 0.707 0.293 0.707 0.707 0.293 0.707-0.293 0.293-0.707zM6.742 10.734q-0.102-1.812-1.383-3.094t-3.094-1.383q-0.109-0.008-0.187 0.070t-0.078 0.18v1q0 0.102 0.066 0.172t0.168 0.078q1.203 0.086 2.062 0.945t0.945 2.062q0.008 0.102 0.078 0.168t0.172 0.066h1q0.102 0 0.18-0.078t0.070-0.187zM9.742 10.742q-0.039-1.203-0.438-2.324t-1.090-2.031-1.602-1.602-2.031-1.090-2.324-0.438q-0.109-0.008-0.18 0.070-0.078 0.078-0.078 0.18v1q0 0.102 0.070 0.172t0.172 0.078q1.594 0.055 2.953 0.871t2.176 2.176 0.871 2.953q0.008 0.102 0.078 0.172t0.172 0.070h1q0.102 0 0.18-0.078 0.086-0.070 0.070-0.18zM12 3.25v7.5q0 0.93-0.66 1.59t-1.59 0.66h-7.5q-0.93 0-1.59-0.66t-0.66-1.59v-7.5q0-0.93 0.66-1.59t1.59-0.66h7.5q0.93 0 1.59 0.66t0.66 1.59z"></path>
</svg>
