<?xml version="1.0" encoding="utf-8"?>
<!-- Generated by IcoMoon.io -->
<!DOCTYPE svg PUBLIC "-//W3C//DTD SVG 1.1//EN" "http://www.w3.org/Graphics/SVG/1.1/DTD/svg11.dtd">
<svg version="1.1" xmlns="http://www.w3.org/2000/svg" xmlns:xlink="http://www.w3.org/1999/xlink" width="14" height="14" viewBox="0 0 14 14">
<path fill="#444444" d="M7.414 6.977q0 0.203-0.129 0.352t-0.324 0.148q-0.203 0-0.352-0.129t-0.148-0.324q0-0.203 0.133-0.352t0.328-0.148 0.344 0.129 0.148 0.324zM7.531 7.43l2.734-4.539q-0.070 0.062-0.527 0.488t-0.98 0.91-1.066 0.992-0.914 0.863-0.395 0.402l-2.727 4.531q0.055-0.055 0.523-0.484t0.984-0.91 1.062-0.992 0.914-0.867 0.391-0.395zM12.586 7q0 1.57-0.813 2.898-0.023-0.016-0.133-0.086t-0.207-0.129-0.129-0.059q-0.102 0-0.102 0.102 0 0.078 0.461 0.344-0.578 0.875-1.441 1.488t-1.887 0.863l-0.125-0.523q-0.008-0.078-0.117-0.078-0.039 0-0.062 0.043t-0.016 0.074l0.125 0.531q-0.563 0.117-1.141 0.117-1.555 0-2.906-0.82 0.008-0.016 0.102-0.16t0.168-0.262 0.074-0.148q0-0.102-0.102-0.102-0.047 0-0.133 0.113t-0.176 0.27-0.105 0.18q-0.883-0.586-1.5-1.465t-0.859-1.91l0.539-0.117q0.078-0.023 0.078-0.117 0-0.039-0.043-0.062t-0.082-0.016l-0.531 0.117q-0.109-0.563-0.109-1.086 0-1.609 0.852-2.961 0.016 0.008 0.145 0.094t0.234 0.148 0.137 0.062q0.102 0 0.102-0.094 0-0.047-0.098-0.121t-0.254-0.168l-0.156-0.094q0.602-0.875 1.477-1.477t1.906-0.836l0.117 0.523q0.016 0.078 0.117 0.078 0.039 0 0.062-0.043t0.016-0.082l-0.117-0.516q0.555-0.102 1.047-0.102 1.594 0 2.961 0.852-0.305 0.438-0.305 0.508 0 0.102 0.094 0.102 0.086 0 0.375-0.5 0.867 0.586 1.465 1.453t0.84 1.883l-0.438 0.094q-0.078 0.016-0.078 0.125 0 0.039 0.043 0.062t0.074 0.016l0.445-0.102q0.109 0.563 0.109 1.094zM13.25 7q0-1.273-0.496-2.43t-1.332-1.992-1.992-1.332-2.43-0.496-2.43 0.496-1.992 1.332-1.332 1.992-0.496 2.43 0.496 2.43 1.332 1.992 1.992 1.332 2.43 0.496 2.43-0.496 1.992-1.332 1.332-1.992 0.496-2.43zM14 7q0 1.422-0.555 2.719t-1.492 2.234-2.234 1.492-2.719 0.555-2.719-0.555-2.234-1.492-1.492-2.234-0.555-2.719 0.555-2.719 1.492-2.234 2.234-1.492 2.719-0.555 2.719 0.555 2.234 1.492 1.492 2.234 0.555 2.719z"></path>
</svg>
