<?xml version="1.0" encoding="utf-8"?>
<!-- Generated by IcoMoon.io -->
<!DOCTYPE svg PUBLIC "-//W3C//DTD SVG 1.1//EN" "http://www.w3.org/Graphics/SVG/1.1/DTD/svg11.dtd">
<svg version="1.1" xmlns="http://www.w3.org/2000/svg" xmlns:xlink="http://www.w3.org/1999/xlink" width="16" height="14" viewBox="0 0 16 14">
<path fill="#444444" d="M11.719 10.711v-5.727q0-0.164-0.117-0.281t-0.273-0.117h-0.727q-0.156 0-0.273 0.117t-0.117 0.281v5.727q0 0.156 0.117 0.273t0.273 0.117h0.727q0.156 0 0.273-0.117t0.117-0.273zM9.5 10.711v-4.148q0-0.156-0.117-0.273t-0.273-0.117h-0.789q-0.156 0-0.273 0.117t-0.117 0.273v4.148q0 0.156 0.117 0.273t0.273 0.117h0.789q0.156 0 0.273-0.117t0.117-0.273zM7.219 10.711v-3.352q0-0.156-0.117-0.273t-0.273-0.117h-0.789q-0.156 0-0.273 0.117t-0.117 0.273v3.352q0 0.156 0.117 0.273t0.273 0.117h0.789q0.156 0 0.273-0.117t0.117-0.273zM4.938 10.711v-2.828q0-0.156-0.117-0.273t-0.273-0.117h-0.789q-0.156 0-0.273 0.117t-0.117 0.273v2.828q0 0.156 0.117 0.273t0.273 0.117h0.789q0.156 0 0.273-0.117t0.117-0.273zM16 9.57q0 1.297-0.922 2.219t-2.219 0.922h-9.719q-1.297 0-2.219-0.922t-0.922-2.219q0-0.906 0.492-1.676t1.313-1.16q-0.078-0.266-0.078-0.57 0-0.883 0.629-1.512t1.512-0.629q0.797 0 1.406 0.523 0.352-1.43 1.516-2.344t2.641-0.914q1.164 0 2.148 0.574t1.559 1.559 0.574 2.148q0 0.516-0.109 0.953 1.055 0.258 1.727 1.113t0.672 1.934z"></path>
</svg>
