<?xml version="1.0" encoding="utf-8"?>
<!-- Generated by IcoMoon.io -->
<!DOCTYPE svg PUBLIC "-//W3C//DTD SVG 1.1//EN" "http://www.w3.org/Graphics/SVG/1.1/DTD/svg11.dtd">
<svg version="1.1" xmlns="http://www.w3.org/2000/svg" xmlns:xlink="http://www.w3.org/1999/xlink" width="14" height="14" viewBox="0 0 14 14">
<path fill="#444444" d="M1 11h8v-1h-8v1zM1 7h8v-1h-8v1zM13.25 10.5q0-0.312-0.219-0.531t-0.531-0.219-0.531 0.219-0.219 0.531 0.219 0.531 0.531 0.219 0.531-0.219 0.219-0.531zM1 3h8v-1h-8v1zM13.25 6.5q0-0.312-0.219-0.531t-0.531-0.219-0.531 0.219-0.219 0.531 0.219 0.531 0.531 0.219 0.531-0.219 0.219-0.531zM13.25 2.5q0-0.312-0.219-0.531t-0.531-0.219-0.531 0.219-0.219 0.531 0.219 0.531 0.531 0.219 0.531-0.219 0.219-0.531zM14 9v3h-14v-3h14zM14 5v3h-14v-3h14zM14 1v3h-14v-3h14z"></path>
</svg>
