<?xml version="1.0" encoding="utf-8"?>
<!-- Generated by IcoMoon.io -->
<!DOCTYPE svg PUBLIC "-//W3C//DTD SVG 1.1//EN" "http://www.w3.org/Graphics/SVG/1.1/DTD/svg11.dtd">
<svg version="1.1" xmlns="http://www.w3.org/2000/svg" xmlns:xlink="http://www.w3.org/1999/xlink" width="14" height="14" viewBox="0 0 14 14">
<path fill="#444444" d="M11.76 8.12h-9.52c-0.154 0-0.28-0.126-0.28-0.28s0.126-0.28 0.28-0.28h9.52c0.154 0 0.28 0.126 0.28 0.28s-0.126 0.28-0.28 0.28z"></path>
<path fill="#444444" d="M8.512 8.428c-0.028-0.014-0.070-0.028-0.112-0.028h-2.38c-0.154 0-0.28 0.126-0.28 0.28s0.112 0.252 0.28 0.28l1.428 0.238c0.098 0.028 0.084 0.182-0.028 0.182h-1.204c-0.126 0-0.266-0.028-0.392-0.056l-2.212-0.896c-0.028-0.014-0.070-0.028-0.112-0.028-0.154 0-0.28 0.126-0.28 0.28 0 0.098 0.042 0.182 0.112 0.224v0 0c0 0 0 0 0 0l2.408 1.582c0.182 0.112 0.378 0.154 0.588 0.154h2.912l0.658 0.266 0.266-1.75-1.652-0.728z"></path>
<path fill="#444444" d="M10.5 8.82l-0.070 0.462-0.252 1.736-0.098 0.602 1.96 0.42v-2.94z"></path>
<path fill="#444444" d="M7.364 6.496h-0.784c-0.112 0-0.196-0.084-0.196-0.196s0.084-0.196 0.196-0.196h0.784c0.112 0 0.196 0.084 0.196 0.196s-0.098 0.196-0.196 0.196z"></path>
<path fill="#444444" d="M7.364 6.692h-0.784c-0.112 0-0.196 0.084-0.196 0.196s0.084 0.196 0.196 0.196h0.098c0 0.112 0.084 0.196 0.196 0.196h0.196c0.112 0 0.196-0.084 0.196-0.196h0.098c0.112 0 0.196-0.084 0.196-0.196s-0.098-0.196-0.196-0.196z"></path>
<path fill="#444444" d="M8.008 4.844c0.224-0.252 0.364-0.574 0.364-0.938 0-0.77-0.616-1.386-1.386-1.386s-1.386 0.616-1.386 1.386c0 0.35 0.126 0.672 0.336 0.91 0.098 0.098 0.448 0.532 0.448 0.868 0 0.112 0.084 0.196 0.196 0.196h0.784c0.112 0 0.196-0.084 0.196-0.196v-0.014c0.028-0.322 0.322-0.7 0.448-0.826z"></path>
</svg>
