<?xml version="1.0" encoding="utf-8"?>
<!-- Generated by IcoMoon.io -->
<!DOCTYPE svg PUBLIC "-//W3C//DTD SVG 1.1//EN" "http://www.w3.org/Graphics/SVG/1.1/DTD/svg11.dtd">
<svg version="1.1" xmlns="http://www.w3.org/2000/svg" xmlns:xlink="http://www.w3.org/1999/xlink" width="12" height="14" viewBox="0 0 12 14">
<path fill="#444444" d="M10 9.336q0-0.688-0.488-1.18t-1.176-0.492q-0.656 0-1.133 0.453l-1.883-0.937q0.016-0.125 0.016-0.18t-0.016-0.18l1.883-0.937q0.477 0.453 1.133 0.453 0.688 0 1.176-0.492t0.488-1.18-0.488-1.176-1.176-0.488-1.18 0.488-0.492 1.176q0 0.055 0.016 0.18l-1.883 0.937q-0.484-0.445-1.133-0.445-0.688 0-1.176 0.488t-0.488 1.176 0.488 1.176 1.176 0.488q0.648 0 1.133-0.445l1.883 0.937q-0.016 0.125-0.016 0.18 0 0.688 0.492 1.176t1.18 0.488 1.176-0.488 0.488-1.176zM12 3.25v7.5q0 0.93-0.66 1.59t-1.59 0.66h-7.5q-0.93 0-1.59-0.66t-0.66-1.59v-7.5q0-0.93 0.66-1.59t1.59-0.66h7.5q0.93 0 1.59 0.66t0.66 1.59z"></path>
</svg>
