<?xml version="1.0" encoding="utf-8"?>
<!-- Generated by IcoMoon.io -->
<!DOCTYPE svg PUBLIC "-//W3C//DTD SVG 1.1//EN" "http://www.w3.org/Graphics/SVG/1.1/DTD/svg11.dtd">
<svg version="1.1" xmlns="http://www.w3.org/2000/svg" xmlns:xlink="http://www.w3.org/1999/xlink" width="12" height="14" viewBox="0 0 12 14">
<path fill="#444444" d="M7.852 8.602l2.75-2.75q0.148-0.148 0.148-0.352t-0.148-0.352l-2.75-2.75q-0.234-0.242-0.539-0.109-0.312 0.133-0.312 0.461v1.25q-0.93 0-1.688 0.152t-1.27 0.398-0.891 0.617-0.598 0.746-0.348 0.852-0.168 0.871-0.039 0.863q0 1.414 1.305 3.156 0.078 0.094 0.195 0.094 0.055 0 0.102-0.023 0.172-0.070 0.148-0.258-0.344-2.766 0.484-3.695 0.359-0.406 1.016-0.59t1.75-0.184v1.25q0 0.328 0.312 0.461 0.094 0.039 0.187 0.039 0.203 0 0.352-0.148zM12 3.25v7.5q0 0.93-0.66 1.59t-1.59 0.66h-7.5q-0.93 0-1.59-0.66t-0.66-1.59v-7.5q0-0.93 0.66-1.59t1.59-0.66h7.5q0.93 0 1.59 0.66t0.66 1.59z"></path>
</svg>
