<?xml version="1.0" encoding="utf-8"?>
<!-- Generated by IcoMoon.io -->
<!DOCTYPE svg PUBLIC "-//W3C//DTD SVG 1.1//EN" "http://www.w3.org/Graphics/SVG/1.1/DTD/svg11.dtd">
<svg version="1.1" xmlns="http://www.w3.org/2000/svg" xmlns:xlink="http://www.w3.org/1999/xlink" width="10" height="14" viewBox="0 0 10 14">
<path fill="#444444" d="M8.5 7.5v-5h-3.5v8.883q0.93-0.492 1.664-1.070 1.836-1.438 1.836-2.812zM10 1.5v6q0 0.672-0.262 1.332t-0.648 1.172-0.922 0.996-0.988 0.805-0.945 0.605-0.699 0.387-0.332 0.156q-0.094 0.047-0.203 0.047t-0.203-0.047q-0.125-0.055-0.332-0.156t-0.699-0.387-0.945-0.605-0.988-0.805-0.922-0.996-0.648-1.172-0.262-1.332v-6q0-0.203 0.148-0.352t0.352-0.148h9q0.203 0 0.352 0.148t0.148 0.352z"></path>
</svg>
