<?xml version="1.0" encoding="utf-8"?>
<!-- Generated by IcoMoon.io -->
<!DOCTYPE svg PUBLIC "-//W3C//DTD SVG 1.1//EN" "http://www.w3.org/Graphics/SVG/1.1/DTD/svg11.dtd">
<svg version="1.1" xmlns="http://www.w3.org/2000/svg" xmlns:xlink="http://www.w3.org/1999/xlink" width="16" height="14" viewBox="0 0 16 14">
<path fill="#444444" d="M14.148 12.148q0.148-0.148 0.352-0.148t0.352 0.148l1 1-0.703 0.703-0.648-0.648-0.648 0.648q-0.141 0.148-0.352 0.148t-0.352-0.148l-0.648-0.648-0.648 0.648q-0.148 0.148-0.352 0.148t-0.352-0.148l-0.648-0.648-0.648 0.648q-0.148 0.148-0.352 0.148t-0.352-0.148l-0.648-0.648-0.648 0.648q-0.148 0.148-0.352 0.148t-0.352-0.148l-0.648-0.648-0.648 0.648q-0.148 0.148-0.352 0.148t-0.352-0.148l-0.648-0.648-0.648 0.648q-0.148 0.148-0.352 0.148t-0.352-0.148l-0.648-0.648-0.648 0.648q-0.148 0.148-0.352 0.148t-0.352-0.148l-1-1 0.703-0.703 0.648 0.648 0.648-0.648q0.148-0.148 0.352-0.148t0.352 0.148l0.648 0.648 0.648-0.648q0.148-0.148 0.352-0.148t0.352 0.148l0.648 0.648 0.648-0.648q0.148-0.148 0.352-0.148t0.352 0.148l0.648 0.648 0.648-0.648q0.148-0.148 0.352-0.148t0.352 0.148l0.648 0.648 0.648-0.648q0.148-0.148 0.352-0.148t0.352 0.148l0.648 0.648 0.648-0.648q0.148-0.148 0.352-0.148t0.352 0.148l0.648 0.648zM1.852 11.852q-0.148 0.148-0.352 0.148t-0.352-0.148l-1-1 0.703-0.703 0.648 0.641 0.648-0.641q0.148-0.148 0.352-0.148t0.352 0.148l0.648 0.641 0.5-0.5v-2.289l-1.641-2.453q-0.133-0.203-0.055-0.441t0.312-0.316l1.383-0.453v-2.336h1v-1h2v-1h2v1h2v1h1v2.336l1.383 0.453q0.234 0.078 0.312 0.316t-0.055 0.441l-1.641 2.453v2.289l0.148-0.141q0.148-0.148 0.352-0.148t0.352 0.148l0.648 0.641 0.648-0.641q0.148-0.148 0.352-0.148t0.352 0.148l1 1-0.703 0.703-0.648-0.648-0.648 0.648q-0.141 0.148-0.352 0.148t-0.352-0.148l-0.648-0.648-0.648 0.648q-0.148 0.148-0.352 0.148t-0.352-0.148l-0.648-0.648-0.648 0.648q-0.148 0.148-0.352 0.148t-0.352-0.148l-0.648-0.648-0.648 0.648q-0.148 0.148-0.352 0.148t-0.352-0.148l-0.648-0.648-0.648 0.648q-0.148 0.148-0.352 0.148t-0.352-0.148l-0.648-0.648-0.648 0.648q-0.148 0.148-0.352 0.148t-0.352-0.148l-0.648-0.648zM5 3v1l3-1 3 1v-1h-1v-1h-4v1h-1z"></path>
</svg>
