<?xml version="1.0" encoding="utf-8"?>
<!-- Generated by IcoMoon.io -->
<!DOCTYPE svg PUBLIC "-//W3C//DTD SVG 1.1//EN" "http://www.w3.org/Graphics/SVG/1.1/DTD/svg11.dtd">
<svg version="1.1" xmlns="http://www.w3.org/2000/svg" xmlns:xlink="http://www.w3.org/1999/xlink" width="12" height="14" viewBox="0 0 12 14">
<path fill="#444444" d="M0 0h12v10.875l-6.063 2.641-5.938-2.641v-10.875zM11.219 10.367v-7.234h-10.438v7.234l5.164 2.297zM11.219 2.352v-1.57h-10.438v1.57h10.438zM1.414 4.68v0.898h-0.289v-0.898h0.289zM1.414 5.836v0.898h-0.289v-0.898h0.289zM1.414 6.992v0.898h-0.289v-0.898h0.289zM1.414 8.148v0.898h-0.289v-0.898h0.289zM1.414 9.305v0.898h-0.289v-0.898h0.289zM1.617 10.422l0.117-0.266 0.82 0.367-0.117 0.258zM2.68 10.891l0.117-0.266 0.82 0.359-0.117 0.266zM3.734 11.359l0.117-0.266 0.82 0.359-0.117 0.266zM4.797 11.82l0.117-0.258 0.813 0.359-0.117 0.266zM6.227 11.922l0.82-0.359 0.117 0.258-0.82 0.367zM7.281 11.453l0.82-0.359 0.117 0.266-0.82 0.359zM8.344 10.984l0.82-0.359 0.117 0.266-0.82 0.359zM9.398 10.523l0.82-0.367 0.117 0.266-0.82 0.359zM2.023 1.148v0.281h-0.891v-0.281h0.891zM3.289 1.148v0.281h-0.898v-0.281h0.898zM4.555 1.148v0.281h-0.898v-0.281h0.898zM5.813 1.148v0.281h-0.891v-0.281h0.891zM7.078 1.148v0.281h-0.891v-0.281h0.891zM8.344 1.148v0.281h-0.898v-0.281h0.898zM9.609 1.148v0.281h-0.898v-0.281h0.898zM10.867 1.148v0.281h-0.891v-0.281h0.891zM1.414 3.805v0.617h-0.289v-0.898h0.898v0.281h-0.609zM3.289 3.523v0.281h-0.898v-0.281h0.898zM4.555 3.523v0.281h-0.898v-0.281h0.898zM5.813 3.523v0.281h-0.891v-0.281h0.891zM7.078 3.523v0.281h-0.891v-0.281h0.891zM8.344 3.523v0.281h-0.898v-0.281h0.898zM9.609 3.523v0.281h-0.898v-0.281h0.898zM10.586 4.422v-0.617h-0.609v-0.281h0.898v0.898h-0.289zM10.586 5.578v-0.898h0.289v0.898h-0.289zM10.586 6.734v-0.898h0.289v0.898h-0.289zM10.586 7.891v-0.898h0.289v0.898h-0.289zM10.586 9.047v-0.898h0.289v0.898h-0.289zM10.586 10.203v-0.898h0.289v0.898h-0.289zM5.938 9.93q-1.008 0-1.727-0.715t-0.719-1.73q0-1.008 0.719-1.727t1.727-0.719q1.016 0 1.73 0.719t0.715 1.727q0 1.016-0.715 1.73t-1.73 0.715zM4.648 6.953q0 0.281 0.152 0.441t0.387 0.195 0.5 0.055 0.5 0.016 0.387 0.070 0.152 0.238q0 0.383-0.875 0.383-0.758 0-0.961-0.398h-0.023l-0.242 0.492q0.523 0.328 1.266 0.328 0.227 0 0.441-0.039t0.434-0.125 0.355-0.258 0.137-0.414q0-0.359-0.215-0.543t-0.527-0.211-0.621-0.023-0.523-0.039-0.215-0.199q0-0.164 0.16-0.258t0.316-0.117 0.32-0.023q0.266 0 0.551 0.086t0.402 0.266h0.023l0.234-0.453q-0.023-0.008-0.164-0.066t-0.176-0.070-0.152-0.055-0.172-0.055-0.156-0.035-0.187-0.031-0.18-0.008q-0.227 0-0.441 0.039t-0.422 0.129-0.336 0.266-0.129 0.418z"></path>
</svg>
