<?xml version="1.0" encoding="utf-8"?>
<!-- Generated by IcoMoon.io -->
<!DOCTYPE svg PUBLIC "-//W3C//DTD SVG 1.1//EN" "http://www.w3.org/Graphics/SVG/1.1/DTD/svg11.dtd">
<svg version="1.1" xmlns="http://www.w3.org/2000/svg" xmlns:xlink="http://www.w3.org/1999/xlink" width="16" height="14" viewBox="0 0 16 14">
<path fill="#444444" d="M6.742 8.062q0-0.875-0.621-1.496t-1.496-0.621-1.492 0.621-0.617 1.496 0.617 1.492 1.492 0.617 1.496-0.617 0.621-1.492zM13.484 8.055q0-0.875-0.617-1.492t-1.492-0.617-1.496 0.617-0.621 1.492q0 0.883 0.621 1.5t1.496 0.617 1.492-0.621 0.617-1.496zM16 1.734v10.531q0 0.344-0.246 0.59t-0.598 0.246h-14.312q-0.352 0-0.598-0.246t-0.246-0.59v-10.531q0-0.344 0.246-0.59t0.598-0.246h3.367q0.344 0 0.594 0.246t0.25 0.59v1.258h5.891v-1.258q0-0.344 0.25-0.59t0.594-0.246h3.367q0.352 0 0.598 0.246t0.246 0.59z"></path>
</svg>
