<?xml version="1.0" encoding="utf-8"?>
<!-- Generated by IcoMoon.io -->
<!DOCTYPE svg PUBLIC "-//W3C//DTD SVG 1.1//EN" "http://www.w3.org/Graphics/SVG/1.1/DTD/svg11.dtd">
<svg version="1.1" xmlns="http://www.w3.org/2000/svg" xmlns:xlink="http://www.w3.org/1999/xlink" width="16" height="14" viewBox="0 0 16 14">
<path fill="#444444" d="M13.203 6.148q1.156 0 1.977 0.77t0.82 1.91q0 1.227-0.852 2.043t-2.086 0.816q-0.664 0-1.266-0.215t-1.078-0.574-0.922-0.828-0.852-0.988-0.809-1.035-0.848-0.984-0.914-0.828-1.062-0.574-1.242-0.215q-1.203 0-1.965 0.715t-0.762 1.91q0 1.227 0.813 1.953t2.055 0.727q0.781 0 1.625-0.293t1.508-0.77q0.039-0.031 0.164-0.145t0.234-0.187 0.172-0.074q0.109 0 0.191 0.082t0.082 0.191q0 0.187-0.469 0.602-0.789 0.688-1.832 1.109t-2.035 0.422q-1.039 0-1.918-0.453t-1.406-1.289-0.527-1.883q0-1.602 1.105-2.664t2.715-1.062q0.937 0 1.77 0.34t1.449 0.883 1.184 1.195 1.086 1.309 1.043 1.199 1.168 0.883 1.348 0.34q0.797 0 1.316-0.48t0.52-1.27q0-0.742-0.504-1.242t-1.246-0.5q-0.234 0-0.637 0.145t-0.535 0.145q-0.156 0-0.277-0.117t-0.121-0.273q0-0.141 0.066-0.445t0.066-0.461q0-1.242-0.84-2.055t-2.082-0.813q-0.453 0-0.871 0.145t-0.656 0.316-0.434 0.316-0.258 0.145q-0.117 0-0.199-0.082t-0.082-0.199q0-0.148 0.195-0.359 0.461-0.523 1.148-0.809t1.422-0.285q1.492 0 2.484 0.98t0.992 2.465q0 0.289-0.031 0.516 0.445-0.117 0.898-0.117z"></path>
</svg>
