<?xml version="1.0" encoding="utf-8"?>
<!-- Generated by IcoMoon.io -->
<!DOCTYPE svg PUBLIC "-//W3C//DTD SVG 1.1//EN" "http://www.w3.org/Graphics/SVG/1.1/DTD/svg11.dtd">
<svg version="1.1" xmlns="http://www.w3.org/2000/svg" xmlns:xlink="http://www.w3.org/1999/xlink" width="12" height="14" viewBox="0 0 12 14">
<path fill="#444444" d="M9.164 8.305q0-0.391-0.152-0.715t-0.379-0.535-0.57-0.383-0.645-0.266-0.684-0.18l-0.813-0.187q-0.234-0.055-0.344-0.082t-0.273-0.090-0.234-0.125-0.129-0.164-0.059-0.234q0-0.602 1.125-0.602 0.336 0 0.602 0.094t0.422 0.223 0.297 0.262 0.312 0.227 0.375 0.094q0.367 0 0.59-0.25t0.223-0.602q0-0.43-0.438-0.777t-1.109-0.527-1.422-0.18q-0.531 0-1.031 0.121t-0.934 0.367-0.695 0.68-0.262 1.004q0 0.477 0.148 0.832t0.438 0.59 0.625 0.379 0.805 0.254l1.141 0.281q0.703 0.172 0.875 0.281 0.25 0.156 0.25 0.469 0 0.305-0.312 0.504t-0.82 0.199q-0.398 0-0.715-0.125t-0.508-0.301-0.355-0.352-0.359-0.301-0.422-0.125q-0.391 0-0.59 0.234t-0.199 0.586q0 0.719 0.953 1.23t2.273 0.512q0.57 0 1.094-0.145t0.957-0.418 0.691-0.73 0.258-1.027zM12 10q0 1.242-0.879 2.121t-2.121 0.879q-1.016 0-1.828-0.625-0.602 0.125-1.172 0.125-1.117 0-2.137-0.434t-1.758-1.172-1.172-1.758-0.434-2.137q0-0.57 0.125-1.172-0.625-0.813-0.625-1.828 0-1.242 0.879-2.121t2.121-0.879q1.016 0 1.828 0.625 0.602-0.125 1.172-0.125 1.117 0 2.137 0.434t1.758 1.172 1.172 1.758 0.434 2.137q0 0.57-0.125 1.172 0.625 0.813 0.625 1.828z"></path>
</svg>
