<?xml version="1.0" encoding="utf-8"?>
<!-- Generated by IcoMoon.io -->
<!DOCTYPE svg PUBLIC "-//W3C//DTD SVG 1.1//EN" "http://www.w3.org/Graphics/SVG/1.1/DTD/svg11.dtd">
<svg version="1.1" xmlns="http://www.w3.org/2000/svg" xmlns:xlink="http://www.w3.org/1999/xlink" width="12" height="14" viewBox="0 0 12 14">
<path fill="#444444" d="M2.75 11v1h-2.75v-1h2.75zM5.5 10q0.203 0 0.352 0.148t0.148 0.352v2q0 0.203-0.148 0.352t-0.352 0.148h-2q-0.203 0-0.352-0.148t-0.148-0.352v-2q0-0.203 0.148-0.352t0.352-0.148h2zM6.75 7v1h-6.75v-1h6.75zM1.75 3v1h-1.75v-1h1.75zM12 11v1h-5.75v-1h5.75zM4.5 2q0.203 0 0.352 0.148t0.148 0.352v2q0 0.203-0.148 0.352t-0.352 0.148h-2q-0.203 0-0.352-0.148t-0.148-0.352v-2q0-0.203 0.148-0.352t0.352-0.148h2zM9.5 6q0.203 0 0.352 0.148t0.148 0.352v2q0 0.203-0.148 0.352t-0.352 0.148h-2q-0.203 0-0.352-0.148t-0.148-0.352v-2q0-0.203 0.148-0.352t0.352-0.148h2zM12 7v1h-1.75v-1h1.75zM12 3v1h-6.75v-1h6.75z"></path>
</svg>
