<?xml version="1.0" encoding="utf-8"?>
<!-- Generated by IcoMoon.io -->
<!DOCTYPE svg PUBLIC "-//W3C//DTD SVG 1.1//EN" "http://www.w3.org/Graphics/SVG/1.1/DTD/svg11.dtd">
<svg version="1.1" xmlns="http://www.w3.org/2000/svg" xmlns:xlink="http://www.w3.org/1999/xlink" width="14" height="14" viewBox="0 0 14 14">
<path fill="#444444" d="M6.82 5.781q0 0.648-0.496 1.113t-1.191 0.465-1.191-0.465-0.496-1.113q0-0.656 0.496-1.117t1.191-0.461 1.191 0.461 0.496 1.117zM10.742 5.781q0 0.648-0.492 1.113t-1.195 0.465q-0.695 0-1.191-0.465t-0.496-1.113q0-0.656 0.496-1.117t1.191-0.461q0.703 0 1.195 0.461t0.492 1.117zM12.5 7.187v-5.211q0-0.68-0.25-0.965t-0.867-0.285h-8.688q-0.648 0-0.879 0.266t-0.23 0.984v5.258q0.336 0.18 0.691 0.312t0.633 0.219 0.633 0.145 0.555 0.086 0.547 0.031 0.457 0.004 0.441-0.016 0.348-0.016q0.531-0.008 0.742 0.211 0.047 0.047 0.078 0.070 0.203 0.195 0.477 0.398 0.055-0.711 0.922-0.68 0.039 0 0.285 0.012t0.336 0.016 0.355 0.008 0.414-0.008 0.426-0.035 0.477-0.066 0.484-0.105 0.523-0.152 0.527-0.211 0.563-0.27zM13.773 7.148q-0.945 1.164-2.906 1.969 0.656 2.227-0.18 3.633-0.516 0.883-1.43 1.156-0.813 0.25-1.422-0.117-0.672-0.398-0.641-1.281l-0.008-2.547v-0.008q-0.062-0.016-0.191-0.047t-0.184-0.039l-0.008 2.641q0.031 0.891-0.648 1.281-0.617 0.367-1.43 0.117-0.914-0.281-1.422-1.172-0.82-1.406-0.172-3.617-1.961-0.805-2.906-1.969-0.195-0.289-0.031-0.492t0.469 0.008q0.023 0.016 0.086 0.055t0.086 0.062v-5.422q0-0.563 0.367-0.961t0.891-0.398h9.82q0.523 0 0.891 0.398t0.367 0.961v5.422l0.164-0.117q0.305-0.211 0.469-0.008t-0.031 0.492z"></path>
</svg>
