<?xml version="1.0" encoding="utf-8"?>
<!-- Generated by IcoMoon.io -->
<!DOCTYPE svg PUBLIC "-//W3C//DTD SVG 1.1//EN" "http://www.w3.org/Graphics/SVG/1.1/DTD/svg11.dtd">
<svg version="1.1" xmlns="http://www.w3.org/2000/svg" xmlns:xlink="http://www.w3.org/1999/xlink" width="14" height="14" viewBox="0 0 14 14">
<path fill="#444444" d="M11.508 7.28l-4.48-3.78-4.34 3.78h1.12v4.76h1.82l-0.126-1.554c-0.168-0.056-0.294-0.21-0.294-0.406v-0.84c0-0.238 0.182-0.42 0.42-0.42h0.7c0.238 0 0.42 0.182 0.42 0.42v0.84c0 0.196-0.126 0.35-0.294 0.406l-0.126 1.554h1.54l-0.126-1.554c-0.168-0.056-0.294-0.21-0.294-0.406v-0.84c0-0.238 0.182-0.42 0.42-0.42h0.7c0.238 0 0.42 0.182 0.42 0.42v0.84c0 0.196-0.126 0.35-0.294 0.406l-0.126 1.554h1.82v-4.76h1.12zM5.978 8.54c-0.196 0-0.35-0.154-0.35-0.35s0.154-0.35 0.35-0.35c0.196 0 0.35 0.154 0.35 0.35 0 0.182-0.168 0.35-0.35 0.35zM8.218 8.54c-0.196 0-0.35-0.154-0.35-0.35s0.154-0.35 0.35-0.35c0.196 0 0.35 0.154 0.35 0.35 0 0.182-0.168 0.35-0.35 0.35z"></path>
<path fill="#444444" d="M10.57 4.62h-0.56c-0.084 0-0.14-0.056-0.14-0.14s0.056-0.14 0.14-0.14h0.56c0.084 0 0.14 0.056 0.14 0.14s-0.056 0.14-0.14 0.14z"></path>
<path fill="#444444" d="M10.43 5.040h-0.28c-0.084 0-0.14-0.056-0.14-0.14s0.056-0.14 0.14-0.14h0.28c0.084 0 0.14 0.056 0.14 0.14s-0.056 0.14-0.14 0.14z"></path>
<path fill="#444444" d="M11.2 2.87c0-0.504-0.406-0.91-0.91-0.91s-0.91 0.406-0.91 0.91c0 0.224 0.070 0.42 0.21 0.574v0c0.294 0.364 0.28 0.616 0.28 0.616 0 0.084 0.056 0.14 0.14 0.14h0.56c0.084 0 0.14-0.056 0.14-0.14 0 0-0.014-0.252 0.28-0.616v0c0.14-0.154 0.21-0.35 0.21-0.574z"></path>
</svg>
