<?xml version="1.0" encoding="utf-8"?>
<!-- Generated by IcoMoon.io -->
<!DOCTYPE svg PUBLIC "-//W3C//DTD SVG 1.1//EN" "http://www.w3.org/Graphics/SVG/1.1/DTD/svg11.dtd">
<svg version="1.1" xmlns="http://www.w3.org/2000/svg" xmlns:xlink="http://www.w3.org/1999/xlink" width="12" height="14" viewBox="0 0 12 14">
<path fill="#444444" d="M10.516 2.258q0-0.492-0.344-0.906t-0.805-0.414q-0.406 0-0.648 0.289t-0.242 0.734 0.285 0.742 0.816 0.297q0.391 0 0.664-0.211t0.273-0.531zM5.75 11.25q0 0.094-0.078 0.187l-2.492 2.492q-0.078 0.070-0.18 0.070-0.094 0-0.18-0.070l-2.5-2.5q-0.117-0.125-0.055-0.273 0.062-0.156 0.234-0.156h1.5v-10.75q0-0.109 0.070-0.18t0.18-0.070h1.5q0.109 0 0.18 0.070t0.070 0.18v10.75h1.5q0.109 0 0.18 0.070t0.070 0.18zM11.375 13.109v0.891h-3.664v-0.891h1.305v-3.375q0-0.055 0.004-0.148t0.004-0.133v-0.125h-0.016l-0.055 0.094q-0.062 0.102-0.203 0.242l-0.484 0.453-0.641-0.672 1.5-1.445h0.961v5.109h1.289zM11.609 2.711q0 0.484-0.102 0.949t-0.32 0.891-0.531 0.746-0.77 0.512-0.996 0.191q-0.484 0-0.844-0.125-0.187-0.062-0.328-0.117l0.305-0.883q0.117 0.055 0.242 0.086 0.289 0.102 0.586 0.102 0.656 0 1.051-0.457t0.52-1.137h-0.016q-0.164 0.18-0.48 0.289t-0.66 0.109q-0.828 0-1.352-0.559t-0.523-1.348q0-0.82 0.563-1.391t1.414-0.57q0.961 0 1.602 0.738t0.641 1.973z"></path>
</svg>
