<?xml version="1.0" encoding="utf-8"?>
<!-- Generated by IcoMoon.io -->
<!DOCTYPE svg PUBLIC "-//W3C//DTD SVG 1.1//EN" "http://www.w3.org/Graphics/SVG/1.1/DTD/svg11.dtd">
<svg version="1.1" xmlns="http://www.w3.org/2000/svg" xmlns:xlink="http://www.w3.org/1999/xlink" width="18" height="14" viewBox="0 0 18 14">
<path fill="#444444" d="M6.125 10.719l0.125-1.883-0.125-4.086q-0.008-0.078-0.059-0.133t-0.129-0.055q-0.070 0-0.125 0.055t-0.055 0.133l-0.109 4.086 0.109 1.883q0.008 0.078 0.059 0.129t0.121 0.051q0.172 0 0.187-0.18zM8.438 10.492l0.086-1.648-0.094-4.578q0-0.125-0.102-0.187-0.062-0.039-0.125-0.039t-0.125 0.039q-0.102 0.062-0.102 0.187l-0.008 0.047-0.078 4.523q0 0.008 0.086 1.844v0.008q0 0.078 0.047 0.133 0.070 0.086 0.18 0.086 0.086 0 0.156-0.070 0.070-0.055 0.070-0.156zM0.273 7.836l0.156 1-0.156 0.984q-0.016 0.070-0.070 0.070t-0.070-0.070l-0.133-0.984 0.133-1q0.016-0.070 0.070-0.070t0.070 0.070zM0.945 7.219l0.203 1.617-0.203 1.586q-0.016 0.070-0.078 0.070-0.070 0-0.070-0.078l-0.18-1.578 0.18-1.617q0-0.070 0.070-0.070 0.062 0 0.078 0.070zM1.664 6.922l0.195 1.914-0.195 1.852q0 0.086-0.086 0.086-0.078 0-0.094-0.086l-0.164-1.852 0.164-1.914q0.016-0.094 0.094-0.094 0.086 0 0.086 0.094zM2.398 6.867l0.18 1.969-0.18 1.906q-0.016 0.102-0.109 0.102-0.102 0-0.102-0.102l-0.164-1.906 0.164-1.969q0-0.102 0.102-0.102 0.094 0 0.109 0.102zM3.133 7.008l0.164 1.828-0.164 1.922q-0.016 0.125-0.125 0.125-0.047 0-0.082-0.035t-0.035-0.090l-0.156-1.922 0.156-1.828q0-0.047 0.035-0.082t0.082-0.035q0.109 0 0.125 0.117zM3.867 5.867l0.164 2.969-0.164 1.922q0 0.055-0.039 0.098t-0.094 0.043q-0.125 0-0.141-0.141l-0.141-1.922 0.141-2.969q0.016-0.141 0.141-0.141 0.055 0 0.094 0.043t0.039 0.098zM4.602 5.195l0.148 3.656-0.148 1.906q0 0.062-0.043 0.105t-0.105 0.043q-0.141 0-0.156-0.148l-0.125-1.906 0.125-3.656q0.016-0.148 0.156-0.148 0.062 0 0.105 0.043t0.043 0.105zM5.367 4.883l0.141 3.953-0.141 1.891q-0.016 0.164-0.172 0.164-0.148 0-0.164-0.164l-0.125-1.891 0.125-3.953q0-0.070 0.051-0.121t0.113-0.051q0.070 0 0.117 0.051t0.055 0.121zM8.43 10.68v0 0zM6.883 4.852l0.117 3.984-0.117 1.867q0 0.078-0.059 0.137t-0.137 0.059-0.133-0.055-0.062-0.141l-0.109-1.867 0.109-3.984q0-0.086 0.059-0.141t0.137-0.055 0.137 0.055 0.059 0.141zM7.656 5l0.109 3.844-0.109 1.844q0 0.086-0.062 0.148t-0.148 0.062-0.148-0.062-0.070-0.148l-0.094-1.844 0.094-3.844q0.008-0.094 0.070-0.156t0.148-0.062 0.145 0.062 0.066 0.156zM9.313 8.844l-0.109 1.805q0 0.102-0.070 0.172t-0.172 0.070-0.172-0.070-0.078-0.172l-0.047-0.891-0.047-0.914 0.094-4.969v-0.023q0.016-0.117 0.094-0.187 0.070-0.055 0.156-0.055 0.062 0 0.117 0.039 0.109 0.062 0.125 0.203zM18 8.695q0 0.914-0.648 1.559t-1.563 0.645h-6.141q-0.102-0.016-0.172-0.086t-0.070-0.172v-7.023q0-0.18 0.219-0.258 0.664-0.266 1.414-0.266 1.523 0 2.641 1.027t1.25 2.527q0.414-0.172 0.859-0.172 0.914 0 1.563 0.648t0.648 1.57z"></path>
</svg>
