<?xml version="1.0" encoding="utf-8"?>
<!-- Generated by IcoMoon.io -->
<!DOCTYPE svg PUBLIC "-//W3C//DTD SVG 1.1//EN" "http://www.w3.org/Graphics/SVG/1.1/DTD/svg11.dtd">
<svg version="1.1" xmlns="http://www.w3.org/2000/svg" xmlns:xlink="http://www.w3.org/1999/xlink" width="17" height="14" viewBox="0 0 17 14">
<path fill="#444444" d="M4.844 8.75q-0.859 0.5-2.094 0.5h-1v-0.5h-0.5q-0.102 0-0.176-0.184t-0.074-0.441q0-0.187 0.055-0.383-0.453-0.016-0.754-0.082t-0.301-0.16 0.301-0.16 0.754-0.082q-0.055-0.195-0.055-0.383 0-0.258 0.074-0.441t0.176-0.184h0.5v-0.5h1q1.234 0 2.094 0.5h8.695q0.328 0.055 0.832 0.141t0.629 0.109q0.695 0.117 1.172 0.316t0.652 0.371 0.176 0.312-0.176 0.312-0.652 0.371-1.172 0.316q-0.125 0.023-0.629 0.109t-0.832 0.141h-8.695zM13.586 6.781q0.414 0.281 0.414 0.719t-0.414 0.719l0.633 0.234q0.531-0.375 0.531-0.953t-0.531-0.953zM4.883 8.875h7.93q-1.695 0.297-3.562 0.625-0.445 0-0.883 0.187t-0.648 0.375l-0.219 0.187-2.25 2.25q-0.203 0.203-0.551 0.352t-0.699 0.148h-0.75l-0.727-3.625h0.227q1.227 0 2.133-0.5zM2.75 5.625h-0.227l0.727-3.625h0.75q0.359 0 0.703 0.148t0.547 0.352l2.25 2.25q0.031 0.031 0.086 0.082t0.238 0.18 0.379 0.227 0.48 0.18 0.566 0.082l3.562 0.625h-7.93q-0.906-0.5-2.133-0.5z"></path>
</svg>
