<?xml version="1.0" encoding="utf-8"?>
<!-- Generated by IcoMoon.io -->
<!DOCTYPE svg PUBLIC "-//W3C//DTD SVG 1.1//EN" "http://www.w3.org/Graphics/SVG/1.1/DTD/svg11.dtd">
<svg version="1.1" xmlns="http://www.w3.org/2000/svg" xmlns:xlink="http://www.w3.org/1999/xlink" width="12" height="14" viewBox="0 0 12 14">
<path fill="#444444" d="M8.805 9.453q0-0.25-0.234-0.398-1.508-0.898-3.492-0.898-1.039 0-2.242 0.266-0.328 0.070-0.328 0.406 0 0.156 0.105 0.27t0.277 0.113q0.039 0 0.289-0.062 1.031-0.211 1.898-0.211 1.766 0 3.102 0.805 0.148 0.086 0.258 0.086 0.148 0 0.258-0.105t0.109-0.27zM9.555 7.773q0-0.312-0.273-0.477-1.852-1.102-4.281-1.102-1.195 0-2.367 0.328-0.375 0.102-0.375 0.5 0 0.195 0.137 0.332t0.332 0.137q0.055 0 0.289-0.062 0.953-0.258 1.961-0.258 2.18 0 3.812 0.969 0.187 0.102 0.297 0.102 0.195 0 0.332-0.137t0.137-0.332zM10.398 5.836q0-0.367-0.312-0.547-0.984-0.57-2.289-0.863t-2.68-0.293q-1.594 0-2.844 0.367-0.18 0.055-0.301 0.199t-0.121 0.379q0 0.242 0.16 0.406t0.402 0.164q0.086 0 0.312-0.062 1.039-0.289 2.398-0.289 1.242 0 2.418 0.266t1.98 0.742q0.164 0.094 0.312 0.094 0.227 0 0.395-0.16t0.168-0.402zM12 7q0 1.633-0.805 3.012t-2.184 2.184-3.012 0.805-3.012-0.805-2.184-2.184-0.805-3.012 0.805-3.012 2.184-2.184 3.012-0.805 3.012 0.805 2.184 2.184 0.805 3.012z"></path>
</svg>
