<?xml version="1.0" encoding="utf-8"?>
<!-- Generated by IcoMoon.io -->
<!DOCTYPE svg PUBLIC "-//W3C//DTD SVG 1.1//EN" "http://www.w3.org/Graphics/SVG/1.1/DTD/svg11.dtd">
<svg version="1.1" xmlns="http://www.w3.org/2000/svg" xmlns:xlink="http://www.w3.org/1999/xlink" width="11" height="14" viewBox="0 0 11 14">
<path fill="#444444" d="M7.25 10.945v1.18l-5.523 0.008v-1.18zM9.133 8.242v5.477l-0.008 0.273v0.008l-9.125-0.008v-5.75h0.945v4.828h7.25v-4.828h0.937zM1.883 8.93l5.5 0.508-0.102 1.172-5.508-0.508zM2.414 6.461l5.336 1.43-0.305 1.141-5.336-1.43zM3.687 3.734l4.758 2.812-0.602 1.016-4.758-2.812zM6.5 1.148l3.109 4.57-0.969 0.664-3.117-4.562zM10.039 0l0.945 5.445-1.164 0.203-0.945-5.445z"></path>
</svg>
