<?xml version="1.0" encoding="utf-8"?>
<!-- Generated by IcoMoon.io -->
<!DOCTYPE svg PUBLIC "-//W3C//DTD SVG 1.1//EN" "http://www.w3.org/Graphics/SVG/1.1/DTD/svg11.dtd">
<svg version="1.1" xmlns="http://www.w3.org/2000/svg" xmlns:xlink="http://www.w3.org/1999/xlink" width="13" height="14" viewBox="0 0 13 14">
<path fill="#444444" d="M9.266 7.477l2.008-1.953-3.297-0.484-0.234-0.469-1.242-2.516v7.523l0.461 0.242 2.484 1.313-0.469-2.773-0.094-0.516zM12.797 5.43l-2.836 2.766 0.672 3.906q0.039 0.258-0.047 0.402t-0.266 0.145q-0.133 0-0.312-0.094l-3.508-1.844-3.508 1.844q-0.18 0.094-0.312 0.094-0.18 0-0.266-0.145t-0.047-0.402l0.672-3.906-2.844-2.766q-0.25-0.25-0.18-0.465t0.422-0.27l3.922-0.57 1.758-3.555q0.156-0.32 0.383-0.32 0.219 0 0.383 0.32l1.758 3.555 3.922 0.57q0.352 0.055 0.422 0.27t-0.187 0.465z"></path>
</svg>
