<?xml version="1.0" encoding="utf-8"?>
<!-- Generated by IcoMoon.io -->
<!DOCTYPE svg PUBLIC "-//W3C//DTD SVG 1.1//EN" "http://www.w3.org/Graphics/SVG/1.1/DTD/svg11.dtd">
<svg version="1.1" xmlns="http://www.w3.org/2000/svg" xmlns:xlink="http://www.w3.org/1999/xlink" width="12" height="14" viewBox="0 0 12 14">
<path fill="#444444" d="M9.703 5.055q0-0.625-0.445-1.066t-1.070-0.441-1.066 0.445-0.441 1.062q0 0.625 0.441 1.066t1.066 0.441 1.070-0.441 0.445-1.066zM4.938 9.648q0 0.648-0.453 1.098t-1.094 0.449q-0.438 0-0.805-0.227t-0.563-0.602q0.406 0.156 0.766 0.312 0.469 0.187 0.937-0.012t0.664-0.676q0.187-0.469-0.012-0.937t-0.676-0.656l-0.641-0.258q0.172-0.039 0.328-0.039 0.641 0 1.094 0.449t0.453 1.098zM12 3.25v7.5q0 0.93-0.66 1.59t-1.59 0.66h-7.5q-0.93 0-1.59-0.66t-0.66-1.59v-1.195l1.344 0.539q0.156 0.719 0.73 1.187t1.316 0.469q0.813 0 1.414-0.547t0.68-1.352l2.695-1.969q1.172 0 1.996-0.824t0.824-1.988q0-1.172-0.824-1.996t-1.996-0.824q-1.156 0-1.977 0.816t-0.836 1.973l-1.758 2.516q-0.070-0.008-0.219-0.008-0.586 0-1.070 0.289l-2.32-0.93v-3.656q0-0.93 0.66-1.59t1.59-0.66h7.5q0.93 0 1.59 0.66t0.66 1.59zM10.070 5.070q0 0.781-0.555 1.332t-1.336 0.551-1.332-0.551-0.551-1.332 0.551-1.336 1.332-0.555q0.789 0 1.34 0.551t0.551 1.34z"></path>
</svg>
