<?xml version="1.0" encoding="utf-8"?>
<!-- Generated by IcoMoon.io -->
<!DOCTYPE svg PUBLIC "-//W3C//DTD SVG 1.1//EN" "http://www.w3.org/Graphics/SVG/1.1/DTD/svg11.dtd">
<svg version="1.1" xmlns="http://www.w3.org/2000/svg" xmlns:xlink="http://www.w3.org/1999/xlink" width="14" height="14" viewBox="0 0 14 14">
<path fill="#444444" d="M12.359 4.547q0 0.789-0.559 1.348t-1.348 0.559-1.348-0.559-0.559-1.348 0.559-1.348 1.348-0.559 1.348 0.559 0.559 1.348zM6.344 10.344q0-0.813-0.57-1.383t-1.383-0.57q-0.211 0-0.422 0.047l0.813 0.328q0.602 0.242 0.855 0.832t0.012 1.184q-0.242 0.602-0.836 0.852t-1.187 0.008q-0.164-0.062-0.484-0.191t-0.477-0.191q0.25 0.469 0.711 0.754t1.016 0.285q0.813 0 1.383-0.57t0.57-1.383zM12.828 4.555q0-0.984-0.699-1.684t-1.684-0.699q-0.992 0-1.691 0.699t-0.699 1.684q0 0.992 0.699 1.688t1.691 0.695q0.984 0 1.684-0.695t0.699-1.688zM14 4.555q0 1.477-1.043 2.516t-2.512 1.039l-3.414 2.492q-0.094 1.008-0.852 1.703t-1.789 0.695q-0.945 0-1.672-0.594t-0.922-1.5l-1.797-0.719v-3.352l3.039 1.227q0.617-0.375 1.352-0.375 0.102 0 0.273 0.016l2.219-3.18q0.016-1.461 1.059-2.492t2.504-1.031q1.469 0 2.512 1.043t1.043 2.512z"></path>
</svg>
