<?xml version="1.0" encoding="utf-8"?>
<!-- Generated by IcoMoon.io -->
<!DOCTYPE svg PUBLIC "-//W3C//DTD SVG 1.1//EN" "http://www.w3.org/Graphics/SVG/1.1/DTD/svg11.dtd">
<svg version="1.1" xmlns="http://www.w3.org/2000/svg" xmlns:xlink="http://www.w3.org/1999/xlink" width="14" height="14" viewBox="0 0 14 14">
<path fill="#444444" d="M4.62 7.28c0 0.462-0.378 0.84-0.84 0.84s-0.84-0.378-0.84-0.84 0.378-0.84 0.84-0.84 0.84 0.378 0.84 0.84z"></path>
<path fill="#444444" d="M7.63 9.94h-1.344l-0.266-0.406-0.182-0.266-0.266-0.42c-0.14-0.252-0.406-0.448-0.812-0.448h-1.82c-0.7 0-0.98 0.56-0.98 0.98v2.1h3.080v-1.96h0.14l0.616 0.952c0 0 0 0.014 0.014 0.014v0 0c0.070 0.084 0.168 0.14 0.28 0.14h1.54c0.196 0 0.35-0.154 0.35-0.35 0-0.182-0.154-0.336-0.35-0.336z"></path>
<path fill="#444444" d="M12.040 8.4h-6.16v-6.16h6.16v6.16zM6.16 8.12h5.6v-5.6h-5.6v5.6z"></path>
<path fill="#444444" d="M8.358 4.41c0 0 0-0.014-0.014-0.014l-0.406-0.518v-0.658c0.084 0 0.14-0.056 0.14-0.14s-0.056-0.14-0.14-0.14h-0.84c-0.084 0-0.14 0.056-0.14 0.14s0.056 0.14 0.14 0.14v0.658l-0.406 0.518c0 0-0.014 0.014-0.014 0.014-0.056 0.098-0.056 0.224 0 0.336 0.056 0.098 0.168 0.168 0.28 0.168h1.12c0.126 0 0.224-0.056 0.28-0.168s0.056-0.238 0-0.336zM7.658 3.22v0.7c0 0.028 0.014 0.056 0.028 0.084l0.154 0.196h-0.644l0.154-0.196c0.014-0.028 0.028-0.056 0.028-0.084v-0.7h0.28z"></path>
<path fill="#444444" d="M8.54 6.86v-0.28h-0.294c-0.014-0.084-0.056-0.168-0.098-0.252l0.21-0.21-0.196-0.196-0.21 0.21c-0.070-0.042-0.154-0.084-0.252-0.098v-0.294h-0.28v0.294c-0.084 0.014-0.168 0.056-0.252 0.098l-0.21-0.21-0.196 0.196 0.21 0.21c-0.042 0.070-0.084 0.154-0.098 0.252h-0.294v0.28h0.294c0.014 0.084 0.056 0.168 0.098 0.252l-0.21 0.21 0.196 0.196 0.21-0.21c0.070 0.042 0.154 0.084 0.252 0.098v0.294h0.28v-0.294c0.084-0.014 0.168-0.056 0.252-0.098l0.21 0.21 0.196-0.196-0.21-0.21c0.042-0.070 0.084-0.154 0.098-0.252h0.294zM7.546 7c-0.154 0-0.28-0.126-0.28-0.28s0.126-0.28 0.28-0.28 0.28 0.126 0.28 0.28c0 0.154-0.126 0.28-0.28 0.28z"></path>
<path fill="#444444" d="M11.214 6.16v-0.28h-1.386c0 0-0.322 0-0.42 0.448 0 0-0.014 0.084 0.056 0.056 0.098-0.028 0.070-0.28 0.462-0.238 0 0 0.042 0.826-0.322 1.19 0 0-0.154 0.126 0.014 0.238 0.084 0.070 0.364-0.028 0.476-0.308 0.126-0.35 0.14-1.12 0.14-1.12h0.266c0 0-0.266 1.47 0.35 1.47 0.308 0 0.378-0.546 0.378-0.546h-0.056c0 0-0.182 0.42-0.336 0.21-0.21-0.28-0.056-1.12-0.056-1.12h0.434z"></path>
<path fill="#444444" d="M9.002 3.71l0.196 0.196c0.546-0.546 1.428-0.546 1.96 0l0.196-0.196c-0.644-0.658-1.708-0.658-2.352 0z"></path>
<path fill="#444444" d="M9.422 4.060l0.196 0.196c0.154-0.154 0.35-0.238 0.56-0.238s0.42 0.084 0.56 0.238l0.196-0.196c-0.406-0.434-1.092-0.434-1.512 0z"></path>
<path fill="#444444" d="M10.458 4.508c0 0.155-0.125 0.28-0.28 0.28s-0.28-0.125-0.28-0.28c0-0.155 0.125-0.28 0.28-0.28s0.28 0.125 0.28 0.28z"></path>
</svg>
