<?xml version="1.0" encoding="utf-8"?>
<!-- Generated by IcoMoon.io -->
<!DOCTYPE svg PUBLIC "-//W3C//DTD SVG 1.1//EN" "http://www.w3.org/Graphics/SVG/1.1/DTD/svg11.dtd">
<svg version="1.1" xmlns="http://www.w3.org/2000/svg" xmlns:xlink="http://www.w3.org/1999/xlink" width="11" height="14" viewBox="0 0 11 14">
<path fill="#444444" d="M10 5.5q0-0.203-0.148-0.352t-0.352-0.148-0.352 0.148-0.148 0.352 0.148 0.352 0.352 0.148 0.352-0.148 0.148-0.352zM11 5.5q0 0.484-0.277 0.867t-0.723 0.547v3.086q0 1.242-1.027 2.121t-2.473 0.879-2.473-0.879-1.027-2.121v-1.031q-1.281-0.156-2.141-1t-0.859-1.969v-4q0-0.203 0.148-0.352t0.352-0.148q0.047 0 0.125 0.016 0.133-0.234 0.367-0.375t0.508-0.141q0.414 0 0.707 0.293t0.293 0.707-0.293 0.707-0.707 0.293q-0.258 0-0.5-0.141v3.141q0 0.828 0.734 1.414t1.766 0.586 1.766-0.586 0.734-1.414v-3.141q-0.242 0.141-0.5 0.141-0.414 0-0.707-0.293t-0.293-0.707 0.293-0.707 0.707-0.293q0.273 0 0.508 0.141t0.367 0.375q0.078-0.016 0.125-0.016 0.203 0 0.352 0.148t0.148 0.352v4q0 1.125-0.859 1.969t-2.141 1v1.031q0 0.828 0.734 1.414t1.766 0.586 1.766-0.586 0.734-1.414v-3.086q-0.445-0.164-0.723-0.547t-0.277-0.867q0-0.625 0.438-1.062t1.062-0.438 1.062 0.438 0.438 1.062z"></path>
</svg>
