<?xml version="1.0" encoding="utf-8"?>
<!-- Generated by IcoMoon.io -->
<!DOCTYPE svg PUBLIC "-//W3C//DTD SVG 1.1//EN" "http://www.w3.org/Graphics/SVG/1.1/DTD/svg11.dtd">
<svg version="1.1" xmlns="http://www.w3.org/2000/svg" xmlns:xlink="http://www.w3.org/1999/xlink" width="12" height="14" viewBox="0 0 12 14">
<path fill="#444444" d="M10.938 10h-1.937v1.937q0.227-0.078 0.32-0.172l1.445-1.445q0.094-0.094 0.172-0.32zM8.75 9h2.25v-7h-10v10h7v-2.25q0-0.312 0.219-0.531t0.531-0.219zM12 1.75v8q0 0.312-0.156 0.688t-0.375 0.594l-1.438 1.438q-0.219 0.219-0.594 0.375t-0.688 0.156h-8q-0.312 0-0.531-0.219t-0.219-0.531v-10.5q0-0.312 0.219-0.531t0.531-0.219h10.5q0.312 0 0.531 0.219t0.219 0.531z"></path>
</svg>
