<?xml version="1.0" encoding="utf-8"?>
<!-- Generated by IcoMoon.io -->
<!DOCTYPE svg PUBLIC "-//W3C//DTD SVG 1.1//EN" "http://www.w3.org/Graphics/SVG/1.1/DTD/svg11.dtd">
<svg version="1.1" xmlns="http://www.w3.org/2000/svg" xmlns:xlink="http://www.w3.org/1999/xlink" width="11" height="14" viewBox="0 0 11 14">
<path fill="#444444" d="M11 12q0 0.492-0.48 0.887t-1.281 0.633-1.758 0.359-1.98 0.121-1.98-0.121-1.758-0.359-1.281-0.633-0.48-0.887q0-0.383 0.258-0.691t0.711-0.52 0.922-0.348 1.023-0.23q0.203-0.039 0.375 0.082t0.203 0.324q0.039 0.203-0.082 0.375t-0.324 0.203q-0.453 0.078-0.828 0.184t-0.598 0.199-0.379 0.184-0.215 0.152-0.066 0.094q0.023 0.086 0.211 0.207t0.57 0.258 0.891 0.254 1.254 0.195 1.574 0.078 1.574-0.078 1.254-0.195 0.891-0.258 0.57-0.262 0.211-0.215q-0.008-0.031-0.066-0.086t-0.215-0.148-0.379-0.184-0.598-0.195-0.828-0.184q-0.203-0.031-0.324-0.203t-0.082-0.375q0.031-0.203 0.203-0.324t0.375-0.082q0.555 0.094 1.023 0.23t0.922 0.348 0.711 0.52 0.258 0.691zM8 5v3q0 0.203-0.148 0.352t-0.352 0.148h-0.5v3q0 0.203-0.148 0.352t-0.352 0.148h-2q-0.203 0-0.352-0.148t-0.148-0.352v-3h-0.5q-0.203 0-0.352-0.148t-0.148-0.352v-3q0-0.414 0.293-0.707t0.707-0.293h3q0.414 0 0.707 0.293t0.293 0.707zM7.25 2q0 0.727-0.512 1.238t-1.238 0.512-1.238-0.512-0.512-1.238 0.512-1.238 1.238-0.512 1.238 0.512 0.512 1.238z"></path>
</svg>
