<?xml version="1.0" encoding="utf-8"?>
<!-- Generated by IcoMoon.io -->
<!DOCTYPE svg PUBLIC "-//W3C//DTD SVG 1.1//EN" "http://www.w3.org/Graphics/SVG/1.1/DTD/svg11.dtd">
<svg version="1.1" xmlns="http://www.w3.org/2000/svg" xmlns:xlink="http://www.w3.org/1999/xlink" width="14" height="14" viewBox="0 0 14 14">
<path fill="#444444" d="M13.75 7q0.109 0 0.18 0.070t0.070 0.18v0.5q0 0.109-0.070 0.18t-0.18 0.070h-13.5q-0.109 0-0.18-0.070t-0.070-0.18v-0.5q0-0.109 0.070-0.18t0.18-0.070h13.5zM3.773 6.5q-0.219-0.273-0.398-0.625-0.375-0.758-0.375-1.469 0-1.414 1.047-2.414 1.039-0.992 3.070-0.992 0.391 0 1.305 0.148 0.516 0.094 1.383 0.375 0.078 0.297 0.164 0.922 0.109 0.961 0.109 1.43 0 0.141-0.039 0.352l-0.094 0.023-0.656-0.047-0.109-0.016q-0.391-1.164-0.805-1.602-0.688-0.711-1.641-0.711-0.891 0-1.422 0.461-0.523 0.453-0.523 1.141 0 0.57 0.516 1.094t2.18 1.008q0.539 0.156 1.352 0.516 0.453 0.219 0.742 0.406h-5.805zM7.734 8.5h3.211q0.055 0.305 0.055 0.719 0 0.867-0.32 1.656-0.18 0.43-0.555 0.813-0.289 0.273-0.852 0.633-0.625 0.375-1.195 0.516-0.625 0.164-1.586 0.164-0.891 0-1.523-0.18l-1.094-0.312q-0.445-0.125-0.563-0.219-0.062-0.062-0.062-0.172v-0.102q0-0.844-0.016-1.219-0.008-0.234 0-0.531l0.016-0.289v-0.344l0.797-0.016q0.117 0.266 0.234 0.555t0.176 0.438 0.098 0.211q0.273 0.445 0.625 0.734 0.336 0.281 0.82 0.445 0.461 0.172 1.031 0.172 0.5 0 1.086-0.211 0.602-0.203 0.953-0.672 0.367-0.477 0.367-1.008 0-0.656-0.633-1.227-0.266-0.227-1.070-0.555z"></path>
</svg>
