<?xml version="1.0" encoding="utf-8"?>
<!-- Generated by IcoMoon.io -->
<!DOCTYPE svg PUBLIC "-//W3C//DTD SVG 1.1//EN" "http://www.w3.org/Graphics/SVG/1.1/DTD/svg11.dtd">
<svg version="1.1" xmlns="http://www.w3.org/2000/svg" xmlns:xlink="http://www.w3.org/1999/xlink" width="15" height="14" viewBox="0 0 15 14">
<path fill="#444444" d="M8.297 5.562v-0.922q0-0.328-0.234-0.563t-0.563-0.234-0.563 0.234-0.234 0.563v4.781q0 1.367-0.984 2.336t-2.367 0.969q-1.391 0-2.371-0.98t-0.98-2.371v-2.078h2.563v2.047q0 0.336 0.234 0.566t0.563 0.23 0.563-0.23 0.234-0.566v-4.844q0-1.336 0.988-2.281t2.355-0.945q1.375 0 2.359 0.953t0.984 2.297v1.062l-1.523 0.453zM12.437 7.297h2.563v2.078q0 1.391-0.98 2.371t-2.371 0.98q-1.383 0-2.367-0.973t-0.984-2.348v-2.094l1.023 0.477 1.523-0.453v2.109q0 0.328 0.234 0.559t0.563 0.23 0.563-0.23 0.234-0.559v-2.148z"></path>
</svg>
