<?xml version="1.0" encoding="utf-8"?>
<!-- Generated by IcoMoon.io -->
<!DOCTYPE svg PUBLIC "-//W3C//DTD SVG 1.1//EN" "http://www.w3.org/Graphics/SVG/1.1/DTD/svg11.dtd">
<svg version="1.1" xmlns="http://www.w3.org/2000/svg" xmlns:xlink="http://www.w3.org/1999/xlink" width="12" height="14" viewBox="0 0 12 14">
<path fill="#444444" d="M6.766 6.555l0.703-0.211v-0.484q0-0.617-0.453-1.055t-1.078-0.438-1.078 0.434-0.453 1.051v2.211q0 0.156-0.109 0.262t-0.258 0.105-0.254-0.105-0.105-0.262v-0.937h-1.18v0.953q0 0.641 0.449 1.086t1.090 0.445q0.633 0 1.082-0.441t0.449-1.066v-2.188q0-0.148 0.105-0.258t0.262-0.109q0.148 0 0.254 0.109t0.105 0.258v0.422zM9.367 8.078v-0.953h-1.172v0.984q0 0.156-0.105 0.262t-0.262 0.105q-0.148 0-0.254-0.109t-0.105-0.258v-0.961l-0.703 0.203-0.469-0.219v0.961q0 0.625 0.453 1.070t1.086 0.445 1.082-0.445 0.449-1.086zM12 7q0 1.633-0.805 3.012t-2.184 2.184-3.012 0.805-3.012-0.805-2.184-2.184-0.805-3.012 0.805-3.012 2.184-2.184 3.012-0.805 3.012 0.805 2.184 2.184 0.805 3.012z"></path>
</svg>
