<?xml version="1.0" encoding="utf-8"?>
<!-- Generated by IcoMoon.io -->
<!DOCTYPE svg PUBLIC "-//W3C//DTD SVG 1.1//EN" "http://www.w3.org/Graphics/SVG/1.1/DTD/svg11.dtd">
<svg version="1.1" xmlns="http://www.w3.org/2000/svg" xmlns:xlink="http://www.w3.org/1999/xlink" width="12" height="14" viewBox="0 0 12 14">
<path fill="#444444" d="M7.008 10.695v1.305h-1.937l-1.242-1.969-0.187-0.328q-0.062-0.070-0.086-0.164h-0.023l-0.070 0.164q-0.078 0.156-0.195 0.344l-1.211 1.953h-2.016v-1.305h1l1.539-2.273-1.445-2.125h-1.070v-1.313h2.156l1.086 1.781q0.016 0.031 0.18 0.328 0.062 0.070 0.086 0.164h0.023q0.023-0.070 0.086-0.164l0.195-0.328 1.094-1.781h2.008v1.313h-0.977l-1.438 2.086 1.594 2.313h0.852zM12 12.391v1.609h-4.016l-0.031-0.211q-0.023-0.352-0.023-0.359 0-0.5 0.203-0.914t0.508-0.676 0.656-0.508 0.656-0.426 0.508-0.422 0.203-0.5q0-0.297-0.23-0.488t-0.551-0.191q-0.398 0-0.758 0.305-0.109 0.086-0.281 0.297l-0.82-0.719q0.203-0.289 0.492-0.516 0.625-0.508 1.469-0.508 0.859 0 1.391 0.465t0.531 1.238q0 0.516-0.27 0.926t-0.656 0.672-0.777 0.488-0.68 0.492-0.32 0.57h1.812v-0.625h0.984z"></path>
</svg>
