<?xml version="1.0" encoding="utf-8"?>
<!-- Generated by IcoMoon.io -->
<!DOCTYPE svg PUBLIC "-//W3C//DTD SVG 1.1//EN" "http://www.w3.org/Graphics/SVG/1.1/DTD/svg11.dtd">
<svg version="1.1" xmlns="http://www.w3.org/2000/svg" xmlns:xlink="http://www.w3.org/1999/xlink" width="14" height="14" viewBox="0 0 14 14">
<path fill="#444444" d="M5 3h4v-1h-4v1zM2.25 3v10h-0.5q-0.719 0-1.234-0.516t-0.516-1.234v-6.5q0-0.719 0.516-1.234t1.234-0.516h0.5zM11 3v10h-8v-10h1v-1.25q0-0.312 0.219-0.531t0.531-0.219h4.5q0.312 0 0.531 0.219t0.219 0.531v1.25h1zM14 4.75v6.5q0 0.719-0.516 1.234t-1.234 0.516h-0.5v-10h0.5q0.719 0 1.234 0.516t0.516 1.234z"></path>
</svg>
