<?xml version="1.0" encoding="utf-8"?>
<!-- Generated by IcoMoon.io -->
<!DOCTYPE svg PUBLIC "-//W3C//DTD SVG 1.1//EN" "http://www.w3.org/Graphics/SVG/1.1/DTD/svg11.dtd">
<svg version="1.1" xmlns="http://www.w3.org/2000/svg" xmlns:xlink="http://www.w3.org/1999/xlink" width="14" height="14" viewBox="0 0 14 14">
<path fill="#444444" d="M11.5 7q0-0.914-0.355-1.746t-0.961-1.438-1.438-0.961-1.746-0.355-1.746 0.355-1.438 0.961-0.961 1.438-0.355 1.746 0.355 1.746 0.961 1.438 1.438 0.961 1.746 0.355 1.746-0.355 1.438-0.961 0.961-1.438 0.355-1.746zM13.656 9.164q-0.031 0.117-0.156 0.156l-2.281 0.75v2.391q0 0.125-0.102 0.203-0.117 0.078-0.227 0.031l-2.281-0.734-1.406 1.937q-0.078 0.102-0.203 0.102t-0.203-0.102l-1.406-1.937-2.281 0.734q-0.109 0.047-0.227-0.031-0.102-0.078-0.102-0.203v-2.391l-2.281-0.75q-0.125-0.039-0.156-0.156-0.039-0.133 0.031-0.227l1.406-1.937-1.406-1.937q-0.070-0.102-0.031-0.227 0.031-0.117 0.156-0.156l2.281-0.75v-2.391q0-0.125 0.102-0.203 0.117-0.078 0.227-0.031l2.281 0.734 1.406-1.937q0.070-0.094 0.203-0.094t0.203 0.094l1.406 1.937 2.281-0.734q0.109-0.047 0.227 0.031 0.102 0.078 0.102 0.203v2.391l2.281 0.75q0.125 0.039 0.156 0.156 0.039 0.125-0.031 0.227l-1.406 1.937 1.406 1.937q0.070 0.094 0.031 0.227z"></path>
</svg>
