<?xml version="1.0" encoding="utf-8"?>
<!-- Generated by IcoMoon.io -->
<!DOCTYPE svg PUBLIC "-//W3C//DTD SVG 1.1//EN" "http://www.w3.org/Graphics/SVG/1.1/DTD/svg11.dtd">
<svg version="1.1" xmlns="http://www.w3.org/2000/svg" xmlns:xlink="http://www.w3.org/1999/xlink" width="10" height="14" viewBox="0 0 10 14">
<path fill="#444444" d="M6.578 4.469q0 0.625-0.445 1.066t-1.062 0.441q-0.469 0-0.867-0.273-0.484 0.523-0.898 1.141-1.93 2.898-1.578 6.711 0.008 0.172-0.098 0.301t-0.27 0.145h-0.039q-0.156 0-0.273-0.105t-0.133-0.262q-0.109-0.984-0.027-1.934t0.23-1.695 0.422-1.453 0.539-1.215 0.578-0.977q0.477-0.703 1.031-1.289-0.125-0.273-0.125-0.602 0-0.625 0.441-1.066t1.066-0.441 1.066 0.441 0.441 1.066zM9.555 4.555q0 1.234-0.609 2.281t-1.66 1.656-2.285 0.609q-0.5 0-1.023-0.109-0.164-0.039-0.254-0.184t-0.051-0.309q0.039-0.156 0.18-0.246t0.305-0.059q0.398 0.102 0.844 0.102 0.758 0 1.453-0.297t1.195-0.797 0.797-1.195 0.297-1.453-0.297-1.453-0.797-1.195-1.195-0.797-1.453-0.297-1.453 0.297-1.195 0.797-0.797 1.195-0.297 1.453q0 0.891 0.406 1.703 0.078 0.156 0.027 0.312t-0.199 0.234-0.309 0.023-0.238-0.203q-0.5-0.961-0.5-2.070 0-0.93 0.363-1.773t0.973-1.453 1.453-0.969 1.766-0.359q1.234 0 2.285 0.609t1.66 1.66 0.609 2.285z"></path>
</svg>
