<?xml version="1.0" encoding="utf-8"?>
<!-- Generated by IcoMoon.io -->
<!DOCTYPE svg PUBLIC "-//W3C//DTD SVG 1.1//EN" "http://www.w3.org/Graphics/SVG/1.1/DTD/svg11.dtd">
<svg version="1.1" xmlns="http://www.w3.org/2000/svg" xmlns:xlink="http://www.w3.org/1999/xlink" width="13" height="14" viewBox="0 0 13 14">
<path fill="#444444" d="M4.57 7.68l-3.641 3.641q-0.078 0.078-0.18 0.078t-0.18-0.078l-0.391-0.391q-0.078-0.078-0.078-0.18t0.078-0.18l3.070-3.070-3.070-3.070q-0.078-0.078-0.078-0.18t0.078-0.18l0.391-0.391q0.078-0.078 0.18-0.078t0.18 0.078l3.641 3.641q0.078 0.078 0.078 0.18t-0.078 0.18zM13 11.25v0.5q0 0.109-0.070 0.18t-0.18 0.070h-7.5q-0.109 0-0.18-0.070t-0.070-0.18v-0.5q0-0.109 0.070-0.18t0.18-0.070h7.5q0.109 0 0.18 0.070t0.070 0.18z"></path>
</svg>
