<?xml version="1.0" encoding="utf-8"?>
<!-- Generated by IcoMoon.io -->
<!DOCTYPE svg PUBLIC "-//W3C//DTD SVG 1.1//EN" "http://www.w3.org/Graphics/SVG/1.1/DTD/svg11.dtd">
<svg version="1.1" xmlns="http://www.w3.org/2000/svg" xmlns:xlink="http://www.w3.org/1999/xlink" width="12" height="14" viewBox="0 0 12 14">
<path fill="#444444" d="M0.633 1.008l0.422 0.211q0.094 0.039 1.648 0.039 0.344 0 1.031-0.016t1.031-0.016q0.547 0 1.926-0.008t2.379-0.004 1.93 0.035q0.258 0.008 0.438-0.242l0.328-0.008q0.031 0 0.109 0.004t0.109 0.004q0.016 0.875 0.016 2.625 0 0.625-0.039 0.852-0.305 0.109-0.531 0.141-0.195-0.344-0.422-1-0.023-0.070-0.086-0.371t-0.117-0.574-0.055-0.281q-0.078-0.102-0.211-0.148-0.039-0.016-0.516-0.016-0.234 0-0.727-0.008t-0.805-0.008-0.734 0.016-0.75 0.055q-0.070 0.633-0.062 1.062l0.008 1.187v-0.406q0 0.43 0.008 1.203t0.012 1.406 0.004 1.195q0 0.125-0.020 0.559t0 0.715 0.098 0.539q0.312 0.164 0.969 0.332t0.937 0.293q0.039 0.312 0.039 0.391 0 0.109-0.023 0.227l-0.266 0.008q-0.594 0.016-1.703-0.062t-1.617-0.078q-0.391 0-1.18 0.070t-1.187 0.070q-0.023-0.398-0.023-0.406v-0.070q0.133-0.211 0.48-0.336t0.77-0.227 0.609-0.211q0.055-0.125 0.090-0.578t0.047-1.137 0.012-1.211-0.004-1.199-0.004-0.695q0-0.055-0.020-0.168t-0.020-0.176q0-0.055 0.004-0.344t0.008-0.57 0-0.598-0.023-0.527-0.051-0.25q-0.086-0.094-1.266-0.094-0.32 0-1.273 0.105t-1.078 0.191q-0.148 0.094-0.266 0.559t-0.246 0.871-0.332 0.422q-0.328-0.203-0.438-0.344v-2.992zM10.234 11.023q0.094 0 0.328 0.152t0.449 0.324 0.465 0.383 0.281 0.234q0.203 0.164 0.203 0.383t-0.203 0.383q-0.031 0.023-0.281 0.234t-0.465 0.383-0.449 0.324-0.328 0.152q-0.102 0-0.16-0.082t-0.078-0.223-0.020-0.262 0.012-0.258 0.012-0.152h-8q0 0.016 0.012 0.152t0.012 0.258-0.020 0.262-0.078 0.223-0.16 0.082q-0.094 0-0.328-0.152t-0.449-0.324-0.465-0.383-0.281-0.234q-0.203-0.164-0.203-0.383t0.203-0.383q0.031-0.023 0.281-0.234t0.465-0.383 0.449-0.324 0.328-0.152q0.102 0 0.16 0.082t0.078 0.223 0.020 0.262-0.012 0.258-0.012 0.152h8q0-0.016-0.012-0.152t-0.012-0.258 0.020-0.262 0.078-0.223 0.16-0.082z"></path>
</svg>
