<?xml version="1.0" encoding="utf-8"?>
<!-- Generated by IcoMoon.io -->
<!DOCTYPE svg PUBLIC "-//W3C//DTD SVG 1.1//EN" "http://www.w3.org/Graphics/SVG/1.1/DTD/svg11.dtd">
<svg version="1.1" xmlns="http://www.w3.org/2000/svg" xmlns:xlink="http://www.w3.org/1999/xlink" width="14" height="14" viewBox="0 0 14 14">
<path fill="#444444" d="M13.625 11q0.258 0 0.328 0.145t-0.086 0.348l-0.984 1.266q-0.156 0.203-0.383 0.203t-0.383-0.203l-0.984-1.266q-0.156-0.203-0.086-0.348t0.328-0.145h0.625v-8h-0.625q-0.258 0-0.328-0.145t0.086-0.348l0.984-1.266q0.156-0.203 0.383-0.203t0.383 0.203l0.984 1.266q0.156 0.203 0.086 0.348t-0.328 0.145h-0.625v8h0.625zM0.633 1.008l0.422 0.211q0.094 0.039 1.648 0.039 0.344 0 1.031-0.016t1.031-0.016q0.281 0 0.84 0.004t0.84 0.004h2.289q0.047 0 0.164 0.004t0.16 0 0.125-0.023 0.137-0.070 0.117-0.137l0.328-0.008q0.031 0 0.109 0.004t0.109 0.004q0.016 0.875 0.016 2.625 0 0.625-0.039 0.852-0.305 0.109-0.531 0.141-0.195-0.344-0.422-1-0.023-0.070-0.086-0.375t-0.113-0.574-0.059-0.277q-0.047-0.062-0.094-0.098t-0.121-0.047-0.102-0.020-0.141-0.004-0.129 0.004q-0.133 0-0.52-0.004t-0.582-0.004-0.5 0.016-0.555 0.047q-0.070 0.633-0.062 1.062 0 0.734 0.016 3.031t0.016 3.555q0 0.125-0.020 0.559t0 0.715 0.098 0.539q0.312 0.164 0.969 0.332t0.937 0.293q0.039 0.312 0.039 0.391 0 0.109-0.023 0.227l-0.266 0.008q-0.594 0.016-1.703-0.062t-1.617-0.078q-0.391 0-1.18 0.070t-1.187 0.070q-0.023-0.398-0.023-0.406v-0.070q0.133-0.211 0.48-0.336t0.77-0.227 0.609-0.211q0.148-0.328 0.148-2.992 0-0.789-0.023-2.367t-0.023-2.367v-0.914q0-0.016 0.004-0.121t0.004-0.195-0.008-0.199-0.023-0.187-0.039-0.109q-0.086-0.094-1.266-0.094-0.258 0-0.727 0.094t-0.625 0.203q-0.148 0.102-0.266 0.566t-0.246 0.867-0.332 0.418q-0.328-0.203-0.438-0.344v-2.992z"></path>
</svg>
