<?xml version="1.0" encoding="utf-8"?>
<!-- Generated by IcoMoon.io -->
<!DOCTYPE svg PUBLIC "-//W3C//DTD SVG 1.1//EN" "http://www.w3.org/Graphics/SVG/1.1/DTD/svg11.dtd">
<svg version="1.1" xmlns="http://www.w3.org/2000/svg" xmlns:xlink="http://www.w3.org/1999/xlink" width="13" height="14" viewBox="0 0 13 14">
<path fill="#444444" d="M2 4.5q0 0.203-0.148 0.352t-0.352 0.148q-0.211 0-0.355-0.148t-0.145-0.352q0-0.211 0.145-0.355t0.355-0.145q0.203 0 0.352 0.145t0.148 0.355zM3.25 8.5v-5q0-0.203-0.148-0.352t-0.352-0.148h-2.25q-0.203 0-0.352 0.148t-0.148 0.352v5q0 0.203 0.148 0.352t0.352 0.148h2.25q0.203 0 0.352-0.148t0.148-0.352zM12.070 7.336q0.43 0.477 0.43 1.164-0.008 0.609-0.449 1.055t-1.051 0.445h-2.164q0.031 0.109 0.062 0.187t0.086 0.172 0.078 0.141q0.141 0.289 0.211 0.445t0.148 0.457 0.078 0.598q0 0.187-0.004 0.305t-0.039 0.352-0.094 0.391-0.187 0.352-0.312 0.316-0.469 0.203-0.645 0.082q-0.203 0-0.352-0.148-0.156-0.156-0.266-0.391t-0.152-0.406-0.098-0.477q-0.070-0.328-0.105-0.473t-0.137-0.379-0.242-0.375q-0.258-0.258-0.789-0.937-0.383-0.5-0.789-0.945t-0.594-0.461q-0.195-0.016-0.336-0.16t-0.141-0.34v-5.008q0-0.203 0.148-0.348t0.352-0.152q0.273-0.008 1.234-0.344 0.602-0.203 0.941-0.309t0.949-0.227 1.125-0.121h1.008q1.039 0.016 1.539 0.609 0.453 0.539 0.383 1.414 0.305 0.289 0.422 0.734 0.133 0.477 0 0.914 0.359 0.477 0.336 1.070 0 0.25-0.117 0.594z"></path>
</svg>
