<?xml version="1.0" encoding="utf-8"?>
<!-- Generated by IcoMoon.io -->
<!DOCTYPE svg PUBLIC "-//W3C//DTD SVG 1.1//EN" "http://www.w3.org/Graphics/SVG/1.1/DTD/svg11.dtd">
<svg version="1.1" xmlns="http://www.w3.org/2000/svg" xmlns:xlink="http://www.w3.org/1999/xlink" width="12" height="14" viewBox="0 0 12 14">
<path fill="#444444" d="M2 3.5q0-0.203-0.148-0.352t-0.352-0.148-0.352 0.148-0.148 0.352 0.148 0.352 0.352 0.148 0.352-0.148 0.148-0.352zM11 8q0-0.273-0.168-0.633t-0.418-0.367q0.117-0.133 0.195-0.371t0.078-0.434q0-0.539-0.414-0.93 0.141-0.25 0.141-0.539t-0.137-0.574-0.371-0.41q0.039-0.234 0.039-0.438 0-0.664-0.383-0.984t-1.062-0.32h-1q-1.023 0-2.672 0.57-0.039 0.016-0.227 0.082t-0.277 0.098-0.273 0.090-0.297 0.086-0.258 0.051-0.246 0.023h-0.25v5h0.25q0.125 0 0.277 0.070t0.312 0.211 0.301 0.277 0.312 0.344 0.27 0.332 0.246 0.32 0.18 0.234q0.43 0.531 0.602 0.711 0.32 0.336 0.465 0.855t0.238 0.98 0.297 0.664q0.75 0 1-0.367t0.25-1.133q0-0.461-0.375-1.254t-0.375-1.246h2.75q0.391 0 0.695-0.301t0.305-0.699zM12 8.008q0 0.805-0.594 1.398t-1.406 0.594h-1.375q0.375 0.773 0.375 1.5 0 0.922-0.273 1.453-0.273 0.539-0.797 0.793t-1.18 0.254q-0.398 0-0.703-0.289-0.266-0.258-0.422-0.641t-0.199-0.707-0.137-0.66-0.242-0.5q-0.375-0.391-0.836-0.992-0.789-1.023-1.070-1.211h-2.141q-0.414 0-0.707-0.293t-0.293-0.707v-5q0-0.414 0.293-0.707t0.707-0.293h2.25q0.172 0 1.078-0.312 1-0.344 1.742-0.516t1.563-0.172h0.875q1.094 0 1.77 0.617t0.668 1.688v0.039q0.469 0.602 0.469 1.391 0 0.172-0.023 0.336 0.297 0.523 0.297 1.125 0 0.281-0.070 0.539 0.383 0.578 0.383 1.273z"></path>
</svg>
