<?xml version="1.0" encoding="utf-8"?>
<!-- Generated by IcoMoon.io -->
<!DOCTYPE svg PUBLIC "-//W3C//DTD SVG 1.1//EN" "http://www.w3.org/Graphics/SVG/1.1/DTD/svg11.dtd">
<svg version="1.1" xmlns="http://www.w3.org/2000/svg" xmlns:xlink="http://www.w3.org/1999/xlink" width="12" height="14" viewBox="0 0 12 14">
<path fill="#444444" d="M2 10.5q0-0.203-0.148-0.352t-0.352-0.148-0.352 0.148-0.148 0.352 0.148 0.352 0.352 0.148 0.352-0.148 0.148-0.352zM11 6q0-0.398-0.305-0.699t-0.695-0.301h-2.75q0-0.453 0.375-1.246t0.375-1.254q0-0.766-0.25-1.133t-1-0.367q-0.203 0.203-0.297 0.664t-0.238 0.98-0.465 0.855q-0.172 0.18-0.602 0.711-0.031 0.039-0.18 0.234t-0.246 0.32-0.27 0.332-0.312 0.344-0.301 0.277-0.312 0.211-0.277 0.070h-0.25v5h0.25q0.102 0 0.246 0.023t0.258 0.051 0.297 0.086 0.273 0.090 0.277 0.098 0.227 0.082q1.648 0.57 2.672 0.57h0.945q1.5 0 1.5-1.305 0-0.203-0.039-0.438 0.234-0.125 0.371-0.41t0.137-0.574-0.141-0.539q0.414-0.391 0.414-0.93 0-0.195-0.078-0.434t-0.195-0.371q0.25-0.008 0.418-0.367t0.168-0.633zM12 5.992q0 0.695-0.383 1.273 0.070 0.258 0.070 0.539 0 0.602-0.297 1.125 0.023 0.164 0.023 0.336 0 0.789-0.469 1.391 0.008 1.086-0.664 1.715t-1.773 0.629h-1.008q-0.75 0-1.48-0.176t-1.691-0.512q-0.906-0.312-1.078-0.312h-2.25q-0.414 0-0.707-0.293t-0.293-0.707v-5q0-0.414 0.293-0.707t0.707-0.293h2.141q0.281-0.187 1.070-1.211 0.453-0.586 0.836-1 0.187-0.195 0.277-0.668t0.238-0.988 0.484-0.844q0.305-0.289 0.703-0.289 0.656 0 1.18 0.254t0.797 0.793 0.273 1.453q0 0.727-0.375 1.5h1.375q0.813 0 1.406 0.594t0.594 1.398z"></path>
</svg>
