<?xml version="1.0" encoding="utf-8"?>
<!-- Generated by IcoMoon.io -->
<!DOCTYPE svg PUBLIC "-//W3C//DTD SVG 1.1//EN" "http://www.w3.org/Graphics/SVG/1.1/DTD/svg11.dtd">
<svg version="1.1" xmlns="http://www.w3.org/2000/svg" xmlns:xlink="http://www.w3.org/1999/xlink" width="13" height="14" viewBox="0 0 13 14">
<path fill="#444444" d="M2 10.5q0-0.203-0.148-0.352t-0.352-0.148q-0.211 0-0.355 0.148t-0.145 0.352q0 0.211 0.145 0.355t0.355 0.145q0.203 0 0.352-0.145t0.148-0.355zM3.25 6.5v5q0 0.203-0.148 0.352t-0.352 0.148h-2.25q-0.203 0-0.352-0.148t-0.148-0.352v-5q0-0.203 0.148-0.352t0.352-0.148h2.25q0.203 0 0.352 0.148t0.148 0.352zM12.5 6.5q0 0.672-0.43 1.164 0.117 0.344 0.117 0.594 0.023 0.594-0.336 1.070 0.133 0.438 0 0.914-0.117 0.445-0.422 0.734 0.070 0.875-0.383 1.414-0.5 0.594-1.539 0.609h-1.008q-0.516 0-1.125-0.121t-0.949-0.227-0.941-0.309q-0.961-0.336-1.234-0.344-0.203-0.008-0.352-0.152t-0.148-0.348v-5.008q0-0.195 0.141-0.34t0.336-0.16q0.187-0.016 0.594-0.461t0.789-0.945q0.531-0.68 0.789-0.937 0.141-0.141 0.242-0.375t0.137-0.379 0.105-0.473q0.055-0.305 0.098-0.477t0.152-0.406 0.266-0.391q0.148-0.148 0.352-0.148 0.359 0 0.645 0.082t0.469 0.203 0.312 0.316 0.187 0.352 0.094 0.391 0.039 0.352 0.004 0.305q0 0.297-0.074 0.594t-0.148 0.469-0.215 0.438q-0.023 0.047-0.078 0.141t-0.086 0.172-0.062 0.187h2.164q0.609 0 1.055 0.445t0.445 1.055z"></path>
</svg>
