<?xml version="1.0" encoding="utf-8"?>
<!-- Generated by IcoMoon.io -->
<!DOCTYPE svg PUBLIC "-//W3C//DTD SVG 1.1//EN" "http://www.w3.org/Graphics/SVG/1.1/DTD/svg11.dtd">
<svg version="1.1" xmlns="http://www.w3.org/2000/svg" xmlns:xlink="http://www.w3.org/1999/xlink" width="15" height="14" viewBox="0 0 15 14">
<path fill="#444444" d="M6.695 4.25v0.914q0 0.102-0.074 0.172t-0.176 0.070h-2.328v6.344q0 0.102-0.070 0.176t-0.172 0.074h-1.055q-0.102 0-0.176-0.070t-0.074-0.18v-6.344h-2.32q-0.102 0-0.176-0.070t-0.074-0.172v-0.914q0-0.109 0.070-0.18t0.18-0.070h6.195q0.102 0 0.176 0.074t0.074 0.176zM14.805 4.227l0.602 7.508q0.008 0.102-0.062 0.187-0.078 0.078-0.18 0.078h-1.047q-0.094 0-0.164-0.066t-0.078-0.16l-0.359-4.594-1.477 3.32q-0.062 0.148-0.227 0.148h-0.937q-0.156 0-0.227-0.148l-1.469-3.336-0.352 4.609q-0.008 0.094-0.078 0.16t-0.164 0.066h-1.055q-0.102 0-0.18-0.078-0.070-0.078-0.070-0.187l0.609-7.508q0.008-0.094 0.078-0.16t0.164-0.066h1.109q0.156 0 0.227 0.148l1.719 4.063q0.078 0.187 0.156 0.398 0.023-0.055 0.074-0.191t0.082-0.207l1.727-4.063q0.070-0.148 0.227-0.148h1.102q0.102 0 0.172 0.066t0.078 0.16z"></path>
</svg>
