<?xml version="1.0" encoding="utf-8"?>
<!-- Generated by IcoMoon.io -->
<!DOCTYPE svg PUBLIC "-//W3C//DTD SVG 1.1//EN" "http://www.w3.org/Graphics/SVG/1.1/DTD/svg11.dtd">
<svg version="1.1" xmlns="http://www.w3.org/2000/svg" xmlns:xlink="http://www.w3.org/1999/xlink" width="14" height="14" viewBox="0 0 14 14">
<path fill="#444444" d="M9.8 6.86v-2.1c0-1.54-1.26-2.8-2.8-2.8s-2.8 1.26-2.8 2.8v2.1h-0.98v5.18h7.56v-5.18h-0.98zM7.21 11.060h-0.28c-0.084 0-0.14-0.056-0.14-0.14s0.056-0.14 0.14-0.14h0.28c0.084 0 0.14 0.056 0.14 0.14s-0.056 0.14-0.14 0.14zM7.35 10.64h-0.56c-0.084 0-0.14-0.056-0.14-0.14s0.056-0.14 0.14-0.14h0.56c0.084 0 0.14 0.056 0.14 0.14s-0.056 0.14-0.14 0.14zM7.77 9.464c-0.294 0.364-0.28 0.616-0.28 0.616 0 0.084-0.056 0.14-0.14 0.14h-0.56c-0.084 0-0.14-0.056-0.14-0.14 0 0 0.014-0.252-0.28-0.616v0c-0.126-0.154-0.21-0.35-0.21-0.574 0-0.504 0.406-0.91 0.91-0.91s0.91 0.406 0.91 0.91c0 0.224-0.070 0.42-0.21 0.574v0zM5.32 6.86v-2.1c0-0.924 0.756-1.68 1.68-1.68s1.68 0.756 1.68 1.68v2.1h-3.36z"></path>
</svg>
