<?xml version="1.0" encoding="utf-8"?>
<!-- Generated by IcoMoon.io -->
<!DOCTYPE svg PUBLIC "-//W3C//DTD SVG 1.1//EN" "http://www.w3.org/Graphics/SVG/1.1/DTD/svg11.dtd">
<svg version="1.1" xmlns="http://www.w3.org/2000/svg" xmlns:xlink="http://www.w3.org/1999/xlink" width="13" height="14" viewBox="0 0 13 14">
<path fill="#444444" d="M10 0.25q0-0.109 0.070-0.18t0.18-0.070h2.25q0.203 0 0.352 0.148t0.148 0.352v2.25q0 0.109-0.070 0.18t-0.18 0.070h-0.5q-0.109 0-0.18-0.070t-0.070-0.18v-1.047l-1.984 1.992q0.984 1.234 0.984 2.805 0 1.727-1.152 3.004t-2.848 1.465v1.031h0.75q0.109 0 0.18 0.070t0.070 0.18v0.5q0 0.109-0.070 0.18t-0.18 0.070h-0.75v0.75q0 0.109-0.070 0.18t-0.18 0.070h-0.5q-0.109 0-0.18-0.070t-0.070-0.18v-0.75h-0.75q-0.109 0-0.18-0.070t-0.070-0.18v-0.5q0-0.109 0.070-0.18t0.18-0.070h0.75v-1.031q-1.695-0.187-2.848-1.465t-1.152-3.004q0-1.57 0.984-2.805l-0.406-0.414-0.789 0.867q-0.070 0.078-0.172 0.082t-0.18-0.059l-0.375-0.344q-0.078-0.062-0.082-0.168t0.066-0.184l0.82-0.898-0.867-0.875v1.047q0 0.109-0.070 0.18t-0.18 0.070h-0.5q-0.109 0-0.18-0.070t-0.070-0.18v-2.25q0-0.203 0.148-0.352t0.352-0.148h2.25q0.109 0 0.18 0.070t0.070 0.18v0.5q0 0.109-0.070 0.18t-0.18 0.070h-1.039l0.828 0.836 0.672-0.734q0.070-0.078 0.172-0.082t0.18 0.059l0.375 0.344q0.078 0.062 0.082 0.168t-0.066 0.184l-0.703 0.773 0.445 0.438q1.234-0.984 2.805-0.984t2.805 0.984l1.992-1.984h-1.047q-0.109 0-0.18-0.070t-0.070-0.18v-0.5zM6.5 10q1.445 0 2.473-1.027t1.027-2.473-1.027-2.473-2.473-1.027-2.473 1.027-1.027 2.473 1.027 2.473 2.473 1.027z"></path>
</svg>
