<?xml version="1.0" encoding="utf-8"?>
<!-- Generated by IcoMoon.io -->
<!DOCTYPE svg PUBLIC "-//W3C//DTD SVG 1.1//EN" "http://www.w3.org/Graphics/SVG/1.1/DTD/svg11.dtd">
<svg version="1.1" xmlns="http://www.w3.org/2000/svg" xmlns:xlink="http://www.w3.org/1999/xlink" width="12" height="14" viewBox="0 0 12 14">
<path fill="#444444" d="M11.75 11.5q0 0.203-0.148 0.352t-0.352 0.148h-3.609q0.008 0.133 0.047 0.684t0.039 0.848q0 0.195-0.141 0.332t-0.336 0.137h-2.5q-0.195 0-0.336-0.137t-0.141-0.332q0-0.297 0.039-0.848t0.047-0.684h-3.609q-0.203 0-0.352-0.148t-0.148-0.352 0.148-0.352l3.141-3.148h-1.789q-0.203 0-0.352-0.148t-0.148-0.352 0.148-0.352l3.141-3.148h-1.539q-0.203 0-0.352-0.148t-0.148-0.352 0.148-0.352l3-3q0.148-0.148 0.352-0.148t0.352 0.148l3 3q0.148 0.148 0.148 0.352t-0.148 0.352-0.352 0.148h-1.539l3.141 3.148q0.148 0.148 0.148 0.352t-0.148 0.352-0.352 0.148h-1.789l3.141 3.148q0.148 0.148 0.148 0.352z"></path>
</svg>
