<?xml version="1.0" encoding="utf-8"?>
<!-- Generated by IcoMoon.io -->
<!DOCTYPE svg PUBLIC "-//W3C//DTD SVG 1.1//EN" "http://www.w3.org/Graphics/SVG/1.1/DTD/svg11.dtd">
<svg version="1.1" xmlns="http://www.w3.org/2000/svg" xmlns:xlink="http://www.w3.org/1999/xlink" width="12" height="14" viewBox="0 0 12 14">
<path fill="#444444" d="M5.5 10.5v-8q0-0.109-0.070-0.18t-0.18-0.070h-3.75q-0.109 0-0.18 0.070t-0.070 0.18v8q0 0.109 0.070 0.18t0.18 0.070h3.75q0.109 0 0.18-0.070t0.070-0.18zM10.75 7.5v-5q0-0.109-0.070-0.18t-0.18-0.070h-3.75q-0.109 0-0.18 0.070t-0.070 0.18v5q0 0.109 0.070 0.18t0.18 0.070h3.75q0.109 0 0.18-0.070t0.070-0.18zM12 1.5v11q0 0.203-0.148 0.352t-0.352 0.148h-11q-0.203 0-0.352-0.148t-0.148-0.352v-11q0-0.203 0.148-0.352t0.352-0.148h11q0.203 0 0.352 0.148t0.148 0.352z"></path>
</svg>
