<?xml version="1.0" encoding="utf-8"?>
<!-- Generated by IcoMoon.io -->
<!DOCTYPE svg PUBLIC "-//W3C//DTD SVG 1.1//EN" "http://www.w3.org/Graphics/SVG/1.1/DTD/svg11.dtd">
<svg version="1.1" xmlns="http://www.w3.org/2000/svg" xmlns:xlink="http://www.w3.org/1999/xlink" width="18" height="14" viewBox="0 0 18 14">
<path fill="#444444" d="M5.086 7.789q0 0.305-0.215 0.52t-0.512 0.215q-0.305 0-0.52-0.215t-0.215-0.52q0-0.297 0.215-0.512t0.52-0.215q0.297 0 0.512 0.215t0.215 0.512zM14.102 7.781q0 0.305-0.215 0.52t-0.52 0.215-0.52-0.215-0.215-0.52 0.215-0.516 0.52-0.211 0.52 0.211 0.215 0.516zM5.977 7.789q0-0.617-0.441-1.062t-1.066-0.445-1.066 0.441-0.441 1.066 0.441 1.066 1.066 0.441 1.066-0.441 0.441-1.066zM14.984 7.781q0-0.625-0.441-1.066t-1.066-0.441q-0.617 0-1.062 0.441t-0.445 1.066 0.441 1.066 1.066 0.441 1.066-0.441 0.441-1.066zM6.641 7.789q0 0.906-0.637 1.543t-1.535 0.637q-0.906 0-1.543-0.641t-0.637-1.539 0.641-1.535 1.539-0.637 1.535 0.637 0.637 1.535zM15.656 7.781q0 0.898-0.637 1.535t-1.543 0.637q-0.898 0-1.535-0.637t-0.637-1.535 0.637-1.535 1.535-0.637q0.906 0 1.543 0.637t0.637 1.535zM8.125 7.805q0-1.492-1.059-2.551t-2.551-1.059q-0.977 0-1.805 0.484t-1.312 1.316-0.484 1.809 0.484 1.809 1.312 1.316 1.805 0.484q1.492 0 2.551-1.059t1.059-2.551zM13.344 3.328q-1.984-0.867-4.344-0.867-2.492 0-4.477 0.859 0.914 0 1.742 0.355t1.426 0.957 0.953 1.43 0.355 1.742q0-0.898 0.34-1.715t0.922-1.41 1.387-0.961 1.695-0.391zM17.086 7.805q0-1.492-1.055-2.551t-2.547-1.059-2.551 1.059-1.059 2.551 1.059 2.551 2.551 1.059 2.547-1.059 1.055-2.551zM15.008 3.383h2.992q-0.344 0.398-0.586 0.895t-0.312 0.895q0.859 1.18 0.859 2.633 0 1.219-0.602 2.25t-1.633 1.629-2.242 0.598q-1.039 0-1.945-0.438t-1.531-1.211q-0.367 0.438-1.008 1.398-0.086-0.172-0.418-0.645t-0.582-0.762q-0.625 0.773-1.535 1.215t-1.949 0.441q-1.211 0-2.242-0.598t-1.633-1.629-0.602-2.25q0-1.453 0.859-2.633-0.070-0.398-0.312-0.895t-0.586-0.895h2.852q1.164-0.781 2.773-1.223t3.375-0.441q1.75 0 3.289 0.437t2.719 1.227z"></path>
</svg>
