<?xml version="1.0" encoding="utf-8"?>
<!-- Generated by IcoMoon.io -->
<!DOCTYPE svg PUBLIC "-//W3C//DTD SVG 1.1//EN" "http://www.w3.org/Graphics/SVG/1.1/DTD/svg11.dtd">
<svg version="1.1" xmlns="http://www.w3.org/2000/svg" xmlns:xlink="http://www.w3.org/1999/xlink" width="14" height="14" viewBox="0 0 14 14">
<path fill="#444444" d="M5 11q0-0.406-0.297-0.703t-0.703-0.297-0.703 0.297-0.297 0.703 0.297 0.703 0.703 0.297 0.703-0.297 0.297-0.703zM2 7h3v-2h-1.234q-0.102 0-0.172 0.070l-1.523 1.523q-0.070 0.070-0.070 0.172v0.234zM12 11q0-0.406-0.297-0.703t-0.703-0.297-0.703 0.297-0.297 0.703 0.297 0.703 0.703 0.297 0.703-0.297 0.297-0.703zM14 2.5v8q0 0.117-0.031 0.207t-0.105 0.145-0.129 0.090-0.184 0.047-0.176 0.016-0.199 0-0.176-0.004q0 0.828-0.586 1.414t-1.414 0.586-1.414-0.586-0.586-1.414h-3q0 0.828-0.586 1.414t-1.414 0.586-1.414-0.586-0.586-1.414h-0.5q-0.023 0-0.176 0.004t-0.199 0-0.176-0.016-0.184-0.047-0.129-0.090-0.105-0.145-0.031-0.207q0-0.203 0.148-0.352t0.352-0.148v-2.5q0-0.062-0.004-0.273t0-0.297 0.020-0.27 0.051-0.289 0.109-0.238 0.176-0.234l1.547-1.547q0.148-0.148 0.395-0.25t0.457-0.102h1.25v-1.5q0-0.203 0.148-0.352t0.352-0.148h8q0.203 0 0.352 0.148t0.148 0.352z"></path>
</svg>
