<?xml version="1.0" encoding="utf-8"?>
<!-- Generated by IcoMoon.io -->
<!DOCTYPE svg PUBLIC "-//W3C//DTD SVG 1.1//EN" "http://www.w3.org/Graphics/SVG/1.1/DTD/svg11.dtd">
<svg version="1.1" xmlns="http://www.w3.org/2000/svg" xmlns:xlink="http://www.w3.org/1999/xlink" width="14" height="14" viewBox="0 0 14 14">
<path fill="#444444" d="M3.5 10.25v1.5q0 0.109-0.070 0.18t-0.18 0.070h-1.5q-0.109 0-0.18-0.070t-0.070-0.18v-1.5q0-0.109 0.070-0.18t0.18-0.070h1.5q0.109 0 0.18 0.070t0.070 0.18zM2 7.25v1.5q0 0.109-0.070 0.18t-0.18 0.070h-1.5q-0.109 0-0.18-0.070t-0.070-0.18v-1.5q0-0.109 0.070-0.18t0.18-0.070h1.5q0.109 0 0.18 0.070t0.070 0.18zM6.5 10.25v1.5q0 0.109-0.070 0.18t-0.18 0.070h-1.5q-0.109 0-0.18-0.070t-0.070-0.18v-1.5q0-0.109 0.070-0.18t0.18-0.070h1.5q0.109 0 0.18 0.070t0.070 0.18zM5 7.25v1.5q0 0.109-0.070 0.18t-0.18 0.070h-1.5q-0.109 0-0.18-0.070t-0.070-0.18v-1.5q0-0.109 0.070-0.18t0.18-0.070h1.5q0.109 0 0.18 0.070t0.070 0.18zM0.516 6q-0.219 0-0.367-0.148t-0.148-0.359v-1.008h4.016v1.008q0 0.211-0.148 0.359t-0.359 0.148h-2.992zM9.5 10.25v1.5q0 0.109-0.070 0.18t-0.18 0.070h-1.5q-0.109 0-0.18-0.070t-0.070-0.18v-1.5q0-0.109 0.070-0.18t0.18-0.070h1.5q0.109 0 0.18 0.070t0.070 0.18zM8 7.25v1.5q0 0.109-0.070 0.18t-0.18 0.070h-1.5q-0.109 0-0.18-0.070t-0.070-0.18v-1.5q0-0.109 0.070-0.18t0.18-0.070h1.5q0.109 0 0.18 0.070t0.070 0.18zM12.5 10.25v1.5q0 0.109-0.070 0.18t-0.18 0.070h-1.5q-0.109 0-0.18-0.070t-0.070-0.18v-1.5q0-0.109 0.070-0.18t0.18-0.070h1.5q0.109 0 0.18 0.070t0.070 0.18zM11 7.25v1.5q0 0.109-0.070 0.18t-0.18 0.070h-1.5q-0.109 0-0.18-0.070t-0.070-0.18v-1.5q0-0.109 0.070-0.18t0.18-0.070h1.5q0.109 0 0.18 0.070t0.070 0.18zM14 4.063v0.102h-4.016v-0.078q0-0.813-2.984-0.797-2.984 0.008-2.984 0.797v0.078h-4.016v-0.102q0-0.133 0.066-0.336t0.266-0.5 0.512-0.59 0.863-0.594 1.25-0.527 1.75-0.371 2.293-0.145 2.289 0.145 1.75 0.371 1.254 0.527 0.863 0.594 0.512 0.59 0.266 0.5 0.066 0.336zM14 7.25v1.5q0 0.109-0.070 0.18t-0.18 0.070h-1.5q-0.109 0-0.18-0.070t-0.070-0.18v-1.5q0-0.109 0.070-0.18t0.18-0.070h1.5q0.109 0 0.18 0.070t0.070 0.18zM14 4.484v1.008q0 0.211-0.148 0.359t-0.359 0.148h-3q-0.211 0-0.359-0.148t-0.148-0.359v-1.008h4.016z"></path>
</svg>
