<?xml version="1.0" encoding="utf-8"?>
<!-- Generated by IcoMoon.io -->
<!DOCTYPE svg PUBLIC "-//W3C//DTD SVG 1.1//EN" "http://www.w3.org/Graphics/SVG/1.1/DTD/svg11.dtd">
<svg version="1.1" xmlns="http://www.w3.org/2000/svg" xmlns:xlink="http://www.w3.org/1999/xlink" width="8" height="14" viewBox="0 0 8 14">
<path fill="#444444" d="M7.375 10.383l0.625 1.852q-0.18 0.273-0.867 0.516t-1.383 0.25q-0.813 0.016-1.488-0.203t-1.113-0.578-0.742-0.828-0.434-0.937-0.129-0.922v-4.25h-1.313v-1.68q0.563-0.203 1.008-0.543t0.711-0.703 0.453-0.797 0.266-0.773 0.117-0.691q0.008-0.039 0.035-0.066t0.059-0.027h1.906v3.313h2.602v1.969h-2.609v4.047q0 0.234 0.051 0.438t0.176 0.41 0.387 0.324 0.637 0.109q0.609-0.016 1.047-0.227z"></path>
</svg>
