<?xml version="1.0" encoding="utf-8"?>
<!-- Generated by IcoMoon.io -->
<!DOCTYPE svg PUBLIC "-//W3C//DTD SVG 1.1//EN" "http://www.w3.org/Graphics/SVG/1.1/DTD/svg11.dtd">
<svg version="1.1" xmlns="http://www.w3.org/2000/svg" xmlns:xlink="http://www.w3.org/1999/xlink" width="12" height="14" viewBox="0 0 12 14">
<path fill="#444444" d="M8.875 11.414l-0.484-1.43q-0.344 0.172-0.805 0.172-0.281 0.008-0.484-0.082t-0.301-0.246-0.137-0.316-0.039-0.34v-3.109h2.008v-1.516h-2v-2.547h-1.469q-0.062 0-0.070 0.078-0.039 0.344-0.137 0.68t-0.305 0.742-0.602 0.742-0.926 0.531v1.289h1.016v3.266q0 0.445 0.168 0.898t0.508 0.867 0.945 0.668 1.379 0.238q0.539-0.008 1.066-0.195t0.668-0.391zM12 3.25v7.5q0 0.93-0.66 1.59t-1.59 0.66h-7.5q-0.93 0-1.59-0.66t-0.66-1.59v-7.5q0-0.93 0.66-1.59t1.59-0.66h7.5q0.93 0 1.59 0.66t0.66 1.59z"></path>
</svg>
