<?xml version="1.0" encoding="utf-8"?>
<!-- Generated by IcoMoon.io -->
<!DOCTYPE svg PUBLIC "-//W3C//DTD SVG 1.1//EN" "http://www.w3.org/Graphics/SVG/1.1/DTD/svg11.dtd">
<svg version="1.1" xmlns="http://www.w3.org/2000/svg" xmlns:xlink="http://www.w3.org/1999/xlink" width="13" height="14" viewBox="0 0 13 14">
<path fill="#444444" d="M7 6.469v4.531q0 0.813-0.594 1.406t-1.406 0.594-1.406-0.594-0.594-1.406q0-0.203 0.148-0.352t0.352-0.148 0.352 0.148 0.148 0.352q0 0.391 0.305 0.695t0.695 0.305 0.695-0.305 0.305-0.695v-4.531q0.258-0.086 0.5-0.086t0.5 0.086zM13 6.68q0 0.102-0.074 0.176t-0.176 0.074q-0.086 0-0.18-0.078-0.383-0.359-0.727-0.539t-0.797-0.18q-0.531 0-1 0.289t-0.805 0.758q-0.055 0.078-0.137 0.219t-0.113 0.187q-0.086 0.133-0.219 0.133-0.141 0-0.227-0.133-0.031-0.047-0.113-0.187t-0.137-0.219q-0.336-0.469-0.801-0.758t-0.996-0.289-0.996 0.289-0.801 0.758q-0.055 0.078-0.137 0.219t-0.113 0.187q-0.086 0.133-0.227 0.133-0.133 0-0.219-0.133-0.031-0.047-0.113-0.187t-0.137-0.219q-0.336-0.469-0.805-0.758t-1-0.289q-0.453 0-0.797 0.18t-0.727 0.539q-0.094 0.078-0.18 0.078-0.102 0-0.176-0.074t-0.074-0.176q0-0.039 0.008-0.055 0.352-1.43 1.348-2.496t2.328-1.598 2.816-0.531q1.094 0 2.145 0.312t1.926 0.887 1.52 1.461 0.902 1.965q0.008 0.016 0.008 0.055zM7 1v0.766q-0.328-0.016-0.5-0.016t-0.5 0.016v-0.766q0-0.203 0.148-0.352t0.352-0.148 0.352 0.148 0.148 0.352z"></path>
</svg>
