<?xml version="1.0" encoding="utf-8"?>
<!-- Generated by IcoMoon.io -->
<!DOCTYPE svg PUBLIC "-//W3C//DTD SVG 1.1//EN" "http://www.w3.org/Graphics/SVG/1.1/DTD/svg11.dtd">
<svg version="1.1" xmlns="http://www.w3.org/2000/svg" xmlns:xlink="http://www.w3.org/1999/xlink" width="12" height="14" viewBox="0 0 12 14">
<path fill="#444444" d="M0.375 1.742q-0.289-0.016-0.352-0.031l-0.023-0.688q0.102-0.008 0.312-0.008 0.469 0 0.875 0.031 1.031 0.055 1.297 0.055 0.672 0 1.313-0.023 0.906-0.031 1.141-0.039 0.438 0 0.672-0.016l-0.008 0.109 0.016 0.5v0.070q-0.469 0.070-0.969 0.070-0.469 0-0.617 0.195-0.102 0.109-0.102 1.031 0 0.102 0.004 0.254t0.004 0.199l0.008 1.789 0.109 2.188q0.047 0.969 0.398 1.578 0.273 0.461 0.75 0.719 0.688 0.367 1.383 0.367 0.813 0 1.492-0.219 0.438-0.141 0.773-0.398 0.375-0.281 0.508-0.5 0.281-0.438 0.414-0.891 0.164-0.57 0.164-1.789 0-0.617-0.027-1t-0.086-0.957-0.105-1.246l-0.031-0.461q-0.039-0.523-0.187-0.688-0.266-0.273-0.602-0.266l-0.781 0.016-0.109-0.023 0.016-0.672h0.656l1.602 0.078q0.594 0.023 1.531-0.078l0.141 0.016q0.047 0.297 0.047 0.398 0 0.055-0.031 0.242-0.352 0.094-0.656 0.102-0.57 0.086-0.617 0.133-0.117 0.117-0.117 0.32 0 0.055 0.012 0.211t0.012 0.242q0.062 0.148 0.172 3.094 0.047 1.523-0.117 2.375-0.117 0.594-0.32 0.953-0.297 0.508-0.875 0.961-0.586 0.445-1.422 0.695-0.852 0.258-1.992 0.258-1.305 0-2.219-0.359-0.93-0.367-1.398-0.953-0.477-0.594-0.648-1.523-0.125-0.625-0.125-1.852v-2.602q0-1.469-0.133-1.664-0.195-0.281-1.148-0.305zM12 12.75v-0.5q0-0.109-0.070-0.18t-0.18-0.070h-11.5q-0.109 0-0.18 0.070t-0.070 0.18v0.5q0 0.109 0.070 0.18t0.18 0.070h11.5q0.109 0 0.18-0.070t0.070-0.18z"></path>
</svg>
