<?xml version="1.0" encoding="utf-8"?>
<!-- Generated by IcoMoon.io -->
<!DOCTYPE svg PUBLIC "-//W3C//DTD SVG 1.1//EN" "http://www.w3.org/Graphics/SVG/1.1/DTD/svg11.dtd">
<svg version="1.1" xmlns="http://www.w3.org/2000/svg" xmlns:xlink="http://www.w3.org/1999/xlink" width="11" height="14" viewBox="0 0 11 14">
<path fill="#444444" d="M4.5 12l0.75-3.5-0.75-1-1-0.5zM6.5 12l1-5-1 0.5-0.75 1zM7.75 4.109q-0.016-0.031-0.031-0.047-0.078-0.062-0.75-0.062-0.547 0-1.305 0.148-0.055 0.016-0.164 0.016t-0.164-0.016q-0.758-0.148-1.305-0.148-0.672 0-0.75 0.062-0.016 0.016-0.031 0.047 0.016 0.141 0.031 0.211 0.016 0.023 0.059 0.051t0.059 0.082q0.016 0.031 0.059 0.16t0.055 0.16 0.059 0.133 0.066 0.133 0.070 0.109 0.094 0.105 0.109 0.074 0.137 0.062 0.16 0.031 0.191 0.016q0.281 0 0.461-0.098t0.254-0.234 0.113-0.27 0.090-0.23 0.137-0.098h0.094q0.086 0 0.137 0.098t0.090 0.23 0.113 0.27 0.254 0.234 0.461 0.098q0.102 0 0.191-0.016t0.16-0.031 0.137-0.062 0.109-0.074 0.094-0.105 0.070-0.109 0.066-0.133 0.059-0.133 0.055-0.16 0.059-0.16q0.016-0.055 0.059-0.082t0.059-0.051q0.016-0.070 0.031-0.211zM11 10.977q0 0.945-0.57 1.484t-1.516 0.539h-6.828q-0.945 0-1.516-0.539t-0.57-1.484q0-0.477 0.035-0.922t0.148-0.98 0.293-0.965 0.496-0.809 0.73-0.582l-0.703-1.719h1.672q-0.172-0.5-0.172-1 0-0.094 0.016-0.25-1.516-0.312-1.516-0.75 0-0.445 1.641-0.773 0.133-0.484 0.402-1.047t0.551-0.891q0.25-0.289 0.594-0.289 0.234 0 0.656 0.242t0.656 0.242 0.656-0.242 0.656-0.242q0.344 0 0.594 0.289 0.281 0.328 0.551 0.891t0.402 1.047q1.641 0.328 1.641 0.773 0 0.438-1.516 0.75 0.055 0.633-0.156 1.25h1.672l-0.641 1.758q0.492 0.258 0.84 0.754t0.512 1.121 0.227 1.184 0.062 1.16z"></path>
</svg>
