<?xml version="1.0" encoding="utf-8"?>
<!-- Generated by IcoMoon.io -->
<!DOCTYPE svg PUBLIC "-//W3C//DTD SVG 1.1//EN" "http://www.w3.org/Graphics/SVG/1.1/DTD/svg11.dtd">
<svg version="1.1" xmlns="http://www.w3.org/2000/svg" xmlns:xlink="http://www.w3.org/1999/xlink" width="16" height="14" viewBox="0 0 16 14">
<path fill="#444444" d="M5.5 7q-1.242 0-2.121-0.879t-0.879-2.121 0.879-2.121 2.121-0.879 2.121 0.879 0.879 2.121-0.879 2.121-2.121 0.879zM13.914 9.5l1.945 1.945q0.070 0.070 0.070 0.18 0 0.102-0.070 0.172l-1.062 1.062q-0.070 0.070-0.172 0.070-0.109 0-0.18-0.070l-1.945-1.945-1.945 1.945q-0.070 0.070-0.18 0.070-0.102 0-0.172-0.070l-1.062-1.062q-0.070-0.070-0.070-0.172 0-0.109 0.070-0.18l1.945-1.945-1.945-1.945q-0.070-0.070-0.070-0.18 0-0.102 0.070-0.172l1.062-1.062q0.070-0.070 0.172-0.070 0.109 0 0.18 0.070l1.945 1.945 1.945-1.945q0.070-0.070 0.18-0.070 0.102 0 0.172 0.070l1.062 1.062q0.070 0.070 0.070 0.172 0 0.109-0.070 0.18zM10.023 9.5l-1.414 1.414q-0.289 0.289-0.289 0.711 0 0.414 0.289 0.703l0.648 0.648q-0.164 0.023-0.344 0.023h-6.828q-0.945 0-1.516-0.539t-0.57-1.484q0-0.414 0.027-0.809t0.109-0.852 0.207-0.848 0.336-0.762 0.484-0.633 0.668-0.418 0.871-0.156q0.148 0 0.305 0.133 1.203 0.953 2.492 0.953t2.492-0.953q0.156-0.133 0.305-0.133 0.219 0 0.445 0.047-0.219 0.211-0.32 0.391t-0.102 0.438q0 0.422 0.289 0.711z"></path>
</svg>
