<?xml version="1.0" encoding="utf-8"?>
<!-- Generated by IcoMoon.io -->
<!DOCTYPE svg PUBLIC "-//W3C//DTD SVG 1.1//EN" "http://www.w3.org/Graphics/SVG/1.1/DTD/svg11.dtd">
<svg version="1.1" xmlns="http://www.w3.org/2000/svg" xmlns:xlink="http://www.w3.org/1999/xlink" width="16" height="14" viewBox="0 0 16 14">
<path fill="#444444" d="M13 0.25q0-0.109 0.070-0.18t0.18-0.070h2.25q0.203 0 0.352 0.148t0.148 0.352v2.25q0 0.109-0.070 0.18t-0.18 0.070h-0.5q-0.109 0-0.18-0.070t-0.070-0.18v-1.047l-1.984 1.992q0.594 0.742 0.84 1.672t0.074 1.93q-0.25 1.406-1.285 2.422t-2.449 1.227q-1.742 0.266-3.195-0.703-0.914 0.609-2 0.727v1.031h0.75q0.109 0 0.18 0.070t0.070 0.18v0.5q0 0.109-0.070 0.18t-0.18 0.070h-0.75v0.75q0 0.109-0.070 0.18t-0.18 0.070h-0.5q-0.109 0-0.18-0.070t-0.070-0.18v-0.75h-0.75q-0.109 0-0.18-0.070t-0.070-0.18v-0.5q0-0.109 0.070-0.18t0.18-0.070h0.75v-1.031q-1.211-0.133-2.184-0.855t-1.461-1.855-0.309-2.398q0.195-1.461 1.246-2.52t2.504-1.285q1.75-0.266 3.203 0.703 1.141-0.758 2.5-0.758 1.57 0 2.805 0.984l1.992-1.984h-1.047q-0.109 0-0.18-0.070t-0.070-0.18v-0.5zM7 8.945q1-1.023 1-2.445t-1-2.445q-1 1.023-1 2.445t1 2.445zM1 6.5q0 1.445 1.027 2.473t2.473 1.027q0.914 0 1.703-0.445-1.203-1.305-1.203-3.055t1.203-3.055q-0.789-0.445-1.703-0.445-1.445 0-2.473 1.027t-1.027 2.473zM9.5 10q1.445 0 2.473-1.027t1.027-2.473-1.027-2.473-2.473-1.027q-0.914 0-1.703 0.445 1.203 1.305 1.203 3.055t-1.203 3.055q0.789 0.445 1.703 0.445z"></path>
</svg>
