<?xml version="1.0" encoding="utf-8"?>
<!-- Generated by IcoMoon.io -->
<!DOCTYPE svg PUBLIC "-//W3C//DTD SVG 1.1//EN" "http://www.w3.org/Graphics/SVG/1.1/DTD/svg11.dtd">
<svg version="1.1" xmlns="http://www.w3.org/2000/svg" xmlns:xlink="http://www.w3.org/1999/xlink" width="9" height="14" viewBox="0 0 9 14">
<path fill="#444444" d="M9 4.5q0 1.727-1.152 3.004t-2.848 1.465v2.031h1.75q0.109 0 0.18 0.070t0.070 0.18v0.5q0 0.109-0.070 0.18t-0.18 0.070h-1.75v1.75q0 0.109-0.070 0.18t-0.18 0.070h-0.5q-0.109 0-0.18-0.070t-0.070-0.18v-1.75h-1.75q-0.109 0-0.18-0.070t-0.070-0.18v-0.5q0-0.109 0.070-0.18t0.18-0.070h1.75v-2.031q-1.172-0.125-2.121-0.805t-1.453-1.75-0.41-2.281q0.086-1.047 0.629-1.945t1.422-1.469 1.918-0.688q1.328-0.148 2.492 0.422t1.844 1.656 0.68 2.391zM1 4.5q0 1.445 1.027 2.473t2.473 1.027 2.473-1.027 1.027-2.473-1.027-2.473-2.473-1.027-2.473 1.027-1.027 2.473z"></path>
</svg>
