<?xml version="1.0" encoding="utf-8"?>
<!-- Generated by IcoMoon.io -->
<!DOCTYPE svg PUBLIC "-//W3C//DTD SVG 1.1//EN" "http://www.w3.org/Graphics/SVG/1.1/DTD/svg11.dtd">
<svg version="1.1" xmlns="http://www.w3.org/2000/svg" xmlns:xlink="http://www.w3.org/1999/xlink" width="14" height="14" viewBox="0 0 14 14">
<path fill="#444444" d="M13.984 4.133q0.094 1.211-0.41 2.281t-1.453 1.75-2.121 0.805v2.031h1.75q0.109 0 0.18 0.070t0.070 0.18v0.5q0 0.109-0.070 0.18t-0.18 0.070h-1.75v1.75q0 0.109-0.070 0.18t-0.18 0.070h-0.5q-0.109 0-0.18-0.070t-0.070-0.18v-1.75h-4v1.75q0 0.109-0.070 0.18t-0.18 0.070h-0.5q-0.109 0-0.18-0.070t-0.070-0.18v-1.75h-1.75q-0.109 0-0.18-0.070t-0.070-0.18v-0.5q0-0.109 0.070-0.18t0.18-0.070h1.75v-2.031q-1.172-0.125-2.121-0.805t-1.453-1.75-0.41-2.281q0.133-1.609 1.285-2.785t2.754-1.324q1.609-0.164 2.945 0.734 1.336-0.898 2.945-0.734 1.602 0.148 2.754 1.324t1.285 2.785zM7 6.945q1-1.023 1-2.445t-1-2.445q-1 1.023-1 2.445t1 2.445zM4.5 8q0.898 0 1.703-0.445-1.203-1.289-1.203-3.055 0-1.75 1.203-3.055-0.805-0.445-1.703-0.445-1.445 0-2.473 1.027t-1.027 2.473 1.027 2.473 2.473 1.027zM9 11v-2.031q-1.070-0.117-2-0.734-0.93 0.617-2 0.734v2.031h4zM9.5 8q1.445 0 2.473-1.027t1.027-2.473-1.027-2.473-2.473-1.027q-0.898 0-1.703 0.445 1.203 1.305 1.203 3.055 0 1.766-1.203 3.055 0.805 0.445 1.703 0.445z"></path>
</svg>
