<?xml version="1.0" encoding="utf-8"?>
<!-- Generated by IcoMoon.io -->
<!DOCTYPE svg PUBLIC "-//W3C//DTD SVG 1.1//EN" "http://www.w3.org/Graphics/SVG/1.1/DTD/svg11.dtd">
<svg version="1.1" xmlns="http://www.w3.org/2000/svg" xmlns:xlink="http://www.w3.org/1999/xlink" width="14" height="14" viewBox="0 0 14 14">
<path fill="#444444" d="M13.352 4.047q-0.078 1.844-2.594 5.086-2.602 3.367-4.391 3.367-1.109 0-1.875-2.055-0.344-1.25-1.031-3.766-0.563-2.047-1.227-2.047-0.141 0-0.992 0.594l-0.602-0.766q0.187-0.164 0.844-0.754t1.016-0.902q1.219-1.078 1.883-1.141 0.742-0.070 1.195 0.434t0.633 1.59q0.344 2.242 0.516 2.914 0.43 1.945 0.937 1.945 0.398 0 1.203-1.258 0.789-1.258 0.852-1.922 0.102-1.086-0.852-1.086-0.445 0-0.945 0.203 0.937-3.070 3.586-2.984 1.961 0.062 1.844 2.547z"></path>
</svg>
