<?xml version="1.0" encoding="utf-8"?>
<!-- Generated by IcoMoon.io -->
<!DOCTYPE svg PUBLIC "-//W3C//DTD SVG 1.1//EN" "http://www.w3.org/Graphics/SVG/1.1/DTD/svg11.dtd">
<svg version="1.1" xmlns="http://www.w3.org/2000/svg" xmlns:xlink="http://www.w3.org/1999/xlink" width="12" height="14" viewBox="0 0 12 14">
<path fill="#444444" d="M11.695 6.461v1.547q-0.789 0.18-1.547 0.18-0.508 1.062-1.293 2.117t-1.418 1.684-1 0.832q-0.625 0.352-1.266-0.023-0.219-0.133-0.473-0.34t-0.664-0.652-0.801-1.004-0.84-1.438-0.824-1.906-0.715-2.457-0.551-3.047h2.211q0.203 1.703 0.547 3.113t0.816 2.477 0.949 1.84 1.094 1.523q1.32-1.32 2.242-3.172-1.109-0.563-1.742-1.719t-0.633-2.602q0-1.5 0.813-2.457t2.219-0.957q1.391 0 2.133 0.824t0.742 2.324q0 1.242-0.453 2.234-0.055 0.008-0.152 0.023t-0.359 0.016-0.492-0.047-0.484-0.199-0.395-0.402q0.242-0.805 0.242-1.438 0-0.68-0.227-1.031t-0.617-0.352q-0.414 0-0.664 0.387t-0.25 1.098q0 1.453 0.82 2.293t2.086 0.84q0.484 0 0.945-0.109z"></path>
</svg>
