<?xml version="1.0" encoding="utf-8"?>
<!-- Generated by IcoMoon.io -->
<!DOCTYPE svg PUBLIC "-//W3C//DTD SVG 1.1//EN" "http://www.w3.org/Graphics/SVG/1.1/DTD/svg11.dtd">
<svg version="1.1" xmlns="http://www.w3.org/2000/svg" xmlns:xlink="http://www.w3.org/1999/xlink" width="15" height="14" viewBox="0 0 15 14">
<path fill="#444444" d="M14.977 4.063q0.18 0.5-1.172 2.297-0.187 0.25-0.508 0.664-0.609 0.781-0.703 1.023-0.133 0.32 0.109 0.633 0.133 0.164 0.633 0.641h0.008l0.031 0.031q1.102 1.023 1.492 1.727 0.023 0.039 0.051 0.098t0.055 0.207-0.004 0.266-0.195 0.215-0.461 0.098l-2 0.031q-0.187 0.039-0.438-0.039t-0.406-0.172l-0.156-0.094q-0.234-0.164-0.547-0.5t-0.535-0.605-0.477-0.453-0.441-0.121q-0.023 0.008-0.062 0.027t-0.133 0.113-0.168 0.23-0.133 0.406-0.051 0.605q0 0.117-0.027 0.215t-0.059 0.145l-0.031 0.039q-0.141 0.148-0.414 0.172h-0.898q-0.555 0.031-1.141-0.129t-1.027-0.414-0.805-0.516-0.551-0.449l-0.195-0.187q-0.078-0.078-0.215-0.234t-0.559-0.711-0.828-1.18-0.957-1.648-1.020-2.125q-0.047-0.125-0.047-0.211t0.023-0.125l0.031-0.047q0.117-0.148 0.445-0.148l2.141-0.016q0.094 0.016 0.18 0.051t0.125 0.066l0.039 0.023q0.125 0.086 0.187 0.25 0.156 0.391 0.359 0.809t0.32 0.637l0.125 0.227q0.227 0.469 0.438 0.813t0.379 0.535 0.324 0.301 0.266 0.109 0.211-0.039q0.016-0.008 0.039-0.039t0.094-0.172 0.105-0.367 0.074-0.633 0-0.977q-0.016-0.312-0.070-0.57t-0.109-0.359l-0.047-0.094q-0.195-0.266-0.664-0.336-0.102-0.016 0.039-0.187 0.133-0.148 0.297-0.234 0.414-0.203 1.867-0.187 0.641 0.008 1.055 0.102 0.156 0.039 0.262 0.105t0.16 0.187 0.082 0.25 0.027 0.355-0.008 0.43-0.020 0.551-0.012 0.645q0 0.086-0.008 0.328t-0.004 0.375 0.027 0.316 0.090 0.305 0.176 0.191q0.062 0.016 0.133 0.031t0.203-0.086 0.297-0.27 0.406-0.523 0.531-0.84q0.469-0.813 0.836-1.758 0.031-0.078 0.078-0.137t0.086-0.082l0.031-0.023 0.039-0.020t0.102-0.023 0.156-0.004l2.25-0.016q0.305-0.039 0.5 0.020t0.242 0.129z"></path>
</svg>
