<?xml version="1.0" encoding="utf-8"?>
<!-- Generated by IcoMoon.io -->
<!DOCTYPE svg PUBLIC "-//W3C//DTD SVG 1.1//EN" "http://www.w3.org/Graphics/SVG/1.1/DTD/svg11.dtd">
<svg version="1.1" xmlns="http://www.w3.org/2000/svg" xmlns:xlink="http://www.w3.org/1999/xlink" width="16" height="14" viewBox="0 0 16 14">
<path fill="#444444" d="M4.531 3.602q0-0.32-0.195-0.516t-0.516-0.195q-0.336 0-0.594 0.199t-0.258 0.512q0 0.305 0.258 0.504t0.594 0.199q0.32 0 0.516-0.191t0.195-0.512zM10.336 7.563q0-0.219-0.199-0.391t-0.512-0.172q-0.211 0-0.387 0.176t-0.176 0.387q0 0.219 0.176 0.395t0.387 0.176q0.312 0 0.512-0.172t0.199-0.398zM8.492 3.602q0-0.32-0.191-0.516t-0.512-0.195q-0.336 0-0.594 0.199t-0.258 0.512q0 0.305 0.258 0.504t0.594 0.199q0.32 0 0.512-0.191t0.191-0.512zM13.453 7.563q0-0.219-0.203-0.391t-0.508-0.172q-0.211 0-0.387 0.176t-0.176 0.387q0 0.219 0.176 0.395t0.387 0.176q0.305 0 0.508-0.172t0.203-0.398zM11.375 4.461q-0.242-0.031-0.547-0.031-1.32 0-2.43 0.602t-1.746 1.629-0.637 2.246q0 0.609 0.18 1.187-0.273 0.023-0.531 0.023-0.203 0-0.391-0.012t-0.43-0.051-0.348-0.055-0.426-0.082-0.391-0.082l-1.977 0.992 0.563-1.703q-2.266-1.586-2.266-3.828 0-1.32 0.762-2.43t2.062-1.746 2.84-0.637q1.375 0 2.598 0.516t2.047 1.426 1.066 2.035zM16 8.844q0 0.914-0.535 1.746t-1.449 1.512l0.43 1.414-1.555-0.852q-1.172 0.289-1.703 0.289-1.32 0-2.43-0.551t-1.746-1.496-0.637-2.062 0.637-2.062 1.746-1.496 2.43-0.551q1.258 0 2.367 0.551t1.777 1.5 0.668 2.059z"></path>
</svg>
