<?xml version="1.0" encoding="utf-8"?>
<!-- Generated by IcoMoon.io -->
<!DOCTYPE svg PUBLIC "-//W3C//DTD SVG 1.1//EN" "http://www.w3.org/Graphics/SVG/1.1/DTD/svg11.dtd">
<svg version="1.1" xmlns="http://www.w3.org/2000/svg" xmlns:xlink="http://www.w3.org/1999/xlink" width="14" height="14" viewBox="0 0 14 14">
<path fill="#444444" d="M5.273 10.031q0.164-0.266 0.086-0.539t-0.352-0.391q-0.266-0.109-0.57-0.008t-0.469 0.359q-0.172 0.266-0.102 0.535t0.336 0.395 0.582 0.020 0.488-0.371zM6.008 9.086q0.062-0.102 0.027-0.207t-0.137-0.145q-0.109-0.039-0.223 0.004t-0.168 0.145q-0.133 0.242 0.102 0.352 0.109 0.039 0.227-0.004t0.172-0.145zM7.367 9.922q-0.352 0.797-1.234 1.172t-1.75 0.094q-0.836-0.266-1.152-0.988t0.051-1.465q0.367-0.727 1.184-1.086t1.645-0.148q0.867 0.227 1.238 0.934t0.020 1.488zM9.805 8.672q-0.070-0.75-0.695-1.328t-1.629-0.852-2.145-0.164q-1.742 0.18-2.887 1.105t-1.035 2.066q0.070 0.75 0.695 1.328t1.629 0.852 2.145 0.164q1.742-0.18 2.887-1.105t1.035-2.066zM12.211 8.703q0 0.531-0.289 1.090t-0.852 1.070-1.316 0.918-1.766 0.648-2.113 0.242-2.148-0.262-1.879-0.727-1.34-1.18-0.508-1.559q0-0.898 0.543-1.914t1.543-2.016q1.32-1.32 2.668-1.844t1.926 0.055q0.508 0.5 0.156 1.633-0.031 0.109-0.008 0.156t0.078 0.055 0.113-0.004 0.105-0.027l0.047-0.016q1.086-0.461 1.922-0.461t1.195 0.477q0.352 0.492 0 1.391-0.016 0.102-0.035 0.156t0.035 0.098 0.094 0.059 0.133 0.047q0.445 0.141 0.805 0.367t0.625 0.637 0.266 0.91zM11.633 3.828q0.328 0.367 0.426 0.848t-0.051 0.918q-0.062 0.18-0.23 0.266t-0.348 0.031q-0.18-0.062-0.266-0.23t-0.031-0.348q0.156-0.492-0.187-0.867t-0.836-0.273q-0.187 0.039-0.352-0.062t-0.195-0.289q-0.039-0.187 0.062-0.348t0.289-0.199q0.469-0.102 0.93 0.043t0.789 0.512zM13.047 2.555q0.68 0.75 0.879 1.738t-0.105 1.887q-0.070 0.211-0.266 0.312t-0.406 0.031-0.312-0.266-0.039-0.406q0.219-0.641 0.078-1.344t-0.625-1.234q-0.484-0.539-1.156-0.746t-1.352-0.066q-0.219 0.047-0.406-0.074t-0.234-0.34 0.074-0.402 0.34-0.23q0.961-0.203 1.906 0.090t1.625 1.051z"></path>
</svg>
