<?xml version="1.0" encoding="utf-8"?>
<!-- Generated by IcoMoon.io -->
<!DOCTYPE svg PUBLIC "-//W3C//DTD SVG 1.1//EN" "http://www.w3.org/Graphics/SVG/1.1/DTD/svg11.dtd">
<svg version="1.1" xmlns="http://www.w3.org/2000/svg" xmlns:xlink="http://www.w3.org/1999/xlink" width="12" height="14" viewBox="0 0 12 14">
<path fill="#444444" d="M7.695 7.609q0.102 0 0.762 0.344t0.699 0.414q0.016 0.039 0.016 0.117 0 0.258-0.133 0.594-0.125 0.305-0.555 0.512t-0.797 0.207q-0.445 0-1.484-0.484-0.766-0.352-1.328-0.922t-1.156-1.445q-0.563-0.836-0.555-1.516v-0.062q0.023-0.711 0.578-1.234 0.187-0.172 0.406-0.172 0.047 0 0.141 0.012t0.148 0.012q0.148 0 0.207 0.051t0.121 0.215q0.062 0.156 0.258 0.688t0.195 0.586q0 0.164-0.27 0.449t-0.27 0.363q0 0.055 0.039 0.117 0.266 0.57 0.797 1.070 0.438 0.414 1.18 0.789 0.094 0.055 0.172 0.055 0.117 0 0.422-0.379t0.406-0.379zM6.109 11.75q0.992 0 1.902-0.391t1.566-1.047 1.047-1.566 0.391-1.902-0.391-1.902-1.047-1.566-1.566-1.047-1.902-0.391-1.902 0.391-1.566 1.047-1.047 1.566-0.391 1.902q0 1.586 0.937 2.875l-0.617 1.82 1.891-0.602q1.234 0.813 2.695 0.813zM6.109 0.953q1.195 0 2.285 0.469t1.879 1.258 1.258 1.879 0.469 2.285-0.469 2.285-1.258 1.879-1.879 1.258-2.285 0.469q-1.523 0-2.852-0.734l-3.258 1.047 1.062-3.164q-0.844-1.391-0.844-3.039 0-1.195 0.469-2.285t1.258-1.879 1.879-1.258 2.285-0.469z"></path>
</svg>
