<?xml version="1.0" encoding="utf-8"?>
<!-- Generated by IcoMoon.io -->
<!DOCTYPE svg PUBLIC "-//W3C//DTD SVG 1.1//EN" "http://www.w3.org/Graphics/SVG/1.1/DTD/svg11.dtd">
<svg version="1.1" xmlns="http://www.w3.org/2000/svg" xmlns:xlink="http://www.w3.org/1999/xlink" width="13" height="14" viewBox="0 0 13 14">
<path fill="#444444" d="M7.992 9.273l0.797 1.594q-0.453 1.398-1.641 2.266t-2.648 0.867q-1.219 0-2.254-0.605t-1.641-1.641-0.605-2.254q0-1.414 0.816-2.578t2.145-1.648l0.133 1.023q-0.953 0.422-1.523 1.293t-0.57 1.91q0 1.445 1.027 2.473t2.473 1.027q0.984 0 1.816-0.508t1.289-1.371 0.387-1.848zM12.273 10.055l0.453 0.891-2 1q-0.102 0.055-0.227 0.055-0.312 0-0.445-0.273l-1.867-3.727h-3.687q-0.187 0-0.332-0.129t-0.168-0.316l-0.75-6.086q-0.016-0.125 0.047-0.328 0.109-0.398 0.445-0.645t0.758-0.246q0.516 0 0.883 0.367t0.367 0.883q0 0.539-0.406 0.918t-0.937 0.324l0.289 2.258h3.305v1h-3.18l0.125 1h3.555q0.312 0 0.445 0.273l1.781 3.555z"></path>
</svg>
