<?xml version="1.0" encoding="utf-8"?>
<!-- Generated by IcoMoon.io -->
<!DOCTYPE svg PUBLIC "-//W3C//DTD SVG 1.1//EN" "http://www.w3.org/Graphics/SVG/1.1/DTD/svg11.dtd">
<svg version="1.1" xmlns="http://www.w3.org/2000/svg" xmlns:xlink="http://www.w3.org/1999/xlink" width="16" height="14" viewBox="0 0 16 14">
<path fill="#444444" d="M8 11.898q-0.156 0-0.727-0.574t-0.57-0.73q0-0.25 0.488-0.422t0.809-0.172 0.809 0.172 0.488 0.422q0 0.156-0.57 0.73t-0.727 0.574zM10.109 9.781q-0.016 0-0.312-0.195t-0.793-0.391-1.004-0.195-1.004 0.195-0.789 0.391-0.316 0.195q-0.141 0-0.73-0.586t-0.59-0.727q0-0.102 0.078-0.18 0.609-0.602 1.531-0.945t1.82-0.344 1.82 0.344 1.531 0.945q0.078 0.078 0.078 0.18 0 0.141-0.59 0.727t-0.73 0.586zM12.242 7.656q-0.086 0-0.18-0.062-1.062-0.82-1.969-1.207t-2.094-0.387q-0.664 0-1.332 0.172t-1.164 0.414-0.887 0.484-0.617 0.414-0.242 0.172q-0.133 0-0.719-0.586t-0.586-0.727q0-0.094 0.078-0.172 1.031-1.031 2.5-1.602t2.969-0.57 2.969 0.57 2.5 1.602q0.078 0.078 0.078 0.172 0 0.141-0.586 0.727t-0.719 0.586zM14.359 5.539q-0.086 0-0.172-0.070-1.398-1.227-2.902-1.848t-3.285-0.621-3.285 0.621-2.902 1.848q-0.086 0.070-0.172 0.070-0.133 0-0.723-0.586t-0.59-0.727q0-0.102 0.078-0.18 1.461-1.453 3.477-2.25t4.117-0.797 4.117 0.797 3.477 2.25q0.078 0.078 0.078 0.18 0 0.141-0.59 0.727t-0.723 0.586z"></path>
</svg>
