<?xml version="1.0" encoding="utf-8"?>
<!-- Generated by IcoMoon.io -->
<!DOCTYPE svg PUBLIC "-//W3C//DTD SVG 1.1//EN" "http://www.w3.org/Graphics/SVG/1.1/DTD/svg11.dtd">
<svg version="1.1" xmlns="http://www.w3.org/2000/svg" xmlns:xlink="http://www.w3.org/1999/xlink" width="18" height="14" viewBox="0 0 18 14">
<path fill="#444444" d="M11.672 12.805l-2.305-5.43q-0.195 0.383-1.238 2.387t-1.551 3.043q-0.008 0.008-0.215 0.004t-0.207-0.012q-0.641-1.508-1.996-4.586t-2.027-4.656q-0.164-0.391-0.52-0.84t-0.809-0.785-0.797-0.336q0-0.039-0.004-0.187t-0.004-0.211h4.555v0.391q-0.305 0.016-0.621 0.125t-0.52 0.336-0.078 0.5q0.203 0.461 1.691 3.898t1.84 4.219q0.242-0.477 1.094-2.082t1.023-1.934q-0.148-0.305-0.984-2.195t-1.062-2.305q-0.297-0.539-1.57-0.555v-0.391l4.008 0.008v0.367q-0.469 0.016-0.73 0.195t-0.098 0.539q0.258 0.547 0.68 1.48t0.672 1.465q0.859-1.672 1.352-2.836 0.187-0.43-0.078-0.621t-1.008-0.207q0.008-0.055 0.008-0.195v-0.187q0.5 0 1.332-0.004t1.406-0.008 0.723-0.004v0.383q-0.484 0.016-0.93 0.258t-0.703 0.633l-1.664 3.453q0.102 0.258 0.996 2.266t0.949 2.141l3.445-7.945q-0.109-0.297-0.387-0.488t-0.508-0.246-0.434-0.062v-0.391l3.594 0.031 0.008 0.016-0.008 0.344q-1.086 0.031-1.57 1.133-4.109 9.5-4.367 10.086h-0.383z"></path>
</svg>
