<?xml version="1.0" encoding="utf-8"?>
<!-- Generated by IcoMoon.io -->
<!DOCTYPE svg PUBLIC "-//W3C//DTD SVG 1.1//EN" "http://www.w3.org/Graphics/SVG/1.1/DTD/svg11.dtd">
<svg version="1.1" xmlns="http://www.w3.org/2000/svg" xmlns:xlink="http://www.w3.org/1999/xlink" width="14" height="14" viewBox="0 0 14 14">
<path fill="#444444" d="M0.992 7q0-1.273 0.523-2.445l2.867 7.852q-1.531-0.742-2.461-2.195t-0.93-3.211zM11.055 6.695q0 0.148-0.020 0.301t-0.078 0.387-0.090 0.344-0.137 0.461-0.137 0.453l-0.594 2-2.172-6.453q0.359-0.023 0.688-0.062 0.148-0.016 0.203-0.145t-0.020-0.242-0.223-0.105l-1.602 0.078q-0.586-0.008-1.578-0.078-0.094-0.008-0.16 0.039t-0.090 0.117-0.012 0.145 0.070 0.129 0.152 0.062l0.625 0.062 0.937 2.563-1.313 3.938-2.188-6.5q0.359-0.023 0.688-0.062 0.148-0.016 0.203-0.145t-0.020-0.242-0.223-0.105l-1.602 0.078q-0.055 0-0.18-0.004t-0.203-0.004q0.82-1.25 2.145-1.98t2.871-0.73q1.148 0 2.191 0.414t1.863 1.164h-0.078q-0.43 0-0.719 0.316t-0.289 0.746q0 0.094 0.016 0.187t0.031 0.168 0.062 0.18 0.070 0.164 0.094 0.176 0.098 0.164 0.113 0.187 0.109 0.18q0.492 0.836 0.492 1.656zM7.102 7.523l1.852 5.055q0.008 0.047 0.039 0.086-0.984 0.344-1.992 0.344-0.875 0-1.695-0.25zM12.266 4.117q0.742 1.359 0.742 2.883 0 1.633-0.813 3.012t-2.18 2.176l1.836-5.297q0.461-1.32 0.461-2.156 0-0.328-0.047-0.617zM7 0q1.422 0 2.719 0.555t2.234 1.492 1.492 2.234 0.555 2.719-0.555 2.719-1.492 2.234-2.234 1.492-2.719 0.555-2.719-0.555-2.234-1.492-1.492-2.234-0.555-2.719 0.555-2.719 1.492-2.234 2.234-1.492 2.719-0.555zM7 13.68q1.352 0 2.59-0.531t2.133-1.426 1.426-2.133 0.531-2.59-0.531-2.59-1.426-2.133-2.133-1.426-2.59-0.531-2.59 0.531-2.133 1.426-1.426 2.133-0.531 2.59 0.531 2.59 1.426 2.133 2.133 1.426 2.59 0.531z"></path>
</svg>
