<?xml version="1.0" encoding="utf-8"?>
<!-- Generated by IcoMoon.io -->
<!DOCTYPE svg PUBLIC "-//W3C//DTD SVG 1.1//EN" "http://www.w3.org/Graphics/SVG/1.1/DTD/svg11.dtd">
<svg version="1.1" xmlns="http://www.w3.org/2000/svg" xmlns:xlink="http://www.w3.org/1999/xlink" width="11" height="14" viewBox="0 0 11 14">
<path fill="#444444" d="M4.664 5.211q-0.078 0.141-2.008 3.562-0.211 0.359-0.508 0.359h-1.867q-0.164 0-0.242-0.133t0-0.281l1.977-3.5q0.008 0 0-0.008l-1.258-2.18q-0.094-0.172-0.008-0.289 0.070-0.117 0.25-0.117h1.867q0.312 0 0.516 0.352zM10.961 0.195q0.086 0.125 0 0.289l-4.125 7.297v0.008l2.625 4.805q0.086 0.156 0.008 0.289-0.078 0.117-0.25 0.117h-1.867q-0.328 0-0.516-0.352l-2.648-4.859q0.141-0.25 4.148-7.359 0.195-0.352 0.5-0.352h1.883q0.172 0 0.242 0.117z"></path>
</svg>
