<?xml version="1.0" encoding="utf-8"?>
<!-- Generated by IcoMoon.io -->
<!DOCTYPE svg PUBLIC "-//W3C//DTD SVG 1.1//EN" "http://www.w3.org/Graphics/SVG/1.1/DTD/svg11.dtd">
<svg version="1.1" xmlns="http://www.w3.org/2000/svg" xmlns:xlink="http://www.w3.org/1999/xlink" width="12" height="14" viewBox="0 0 12 14">
<path fill="#444444" d="M5.352 5.977q0-0.008-0.984-1.734-0.164-0.266-0.406-0.266h-1.438q-0.141 0-0.203 0.086-0.055 0.094 0.008 0.227l0.977 1.688v0.008l-1.531 2.703q-0.070 0.109 0 0.219 0.062 0.102 0.187 0.102h1.445q0.242 0 0.391-0.281zM10.227 2.094q-0.055-0.094-0.187-0.094h-1.461q-0.234 0-0.383 0.273l-3.211 5.695q0.008 0.016 2.047 3.758 0.156 0.273 0.406 0.273h1.438q0.141 0 0.195-0.094 0.062-0.102-0.008-0.219l-2.031-3.719v-0.008l3.195-5.648q0.062-0.125 0-0.219zM12 3.25v7.5q0 0.93-0.66 1.59t-1.59 0.66h-7.5q-0.93 0-1.59-0.66t-0.66-1.59v-7.5q0-0.93 0.66-1.59t1.59-0.66h7.5q0.93 0 1.59 0.66t0.66 1.59z"></path>
</svg>
