<?xml version="1.0" encoding="utf-8"?>
<!-- Generated by IcoMoon.io -->
<!DOCTYPE svg PUBLIC "-//W3C//DTD SVG 1.1//EN" "http://www.w3.org/Graphics/SVG/1.1/DTD/svg11.dtd">
<svg version="1.1" xmlns="http://www.w3.org/2000/svg" xmlns:xlink="http://www.w3.org/1999/xlink" width="12" height="14" viewBox="0 0 12 14">
<path fill="#444444" d="M6.711 7.477l0.102 5.523q-0.484-0.086-0.82-0.086-0.32 0-0.82 0.086l0.102-5.523q-0.312-0.539-1.316-2.309t-1.691-2.926-1.414-2.242q0.453 0.117 0.844 0.117 0.336 0 0.867-0.117 0.492 0.867 1.043 1.793t1.305 2.16 1.082 1.773q0.289-0.477 0.855-1.387t0.918-1.484 0.82-1.375 0.836-1.48q0.422 0.109 0.836 0.109 0.438 0 0.891-0.109v0q-0.219 0.305-0.469 0.691t-0.387 0.613-0.441 0.75-0.383 0.656q-1.141 1.937-2.758 4.766z"></path>
</svg>
