<?xml version="1.0" encoding="utf-8"?>
<!-- Generated by IcoMoon.io -->
<!DOCTYPE svg PUBLIC "-//W3C//DTD SVG 1.1//EN" "http://www.w3.org/Graphics/SVG/1.1/DTD/svg11.dtd">
<svg version="1.1" xmlns="http://www.w3.org/2000/svg" xmlns:xlink="http://www.w3.org/1999/xlink" width="14" height="14" viewBox="0 0 14 14">
<path fill="#444444" d="M6.039 10.305v0.992q-0.008 2.281-0.047 2.383-0.094 0.25-0.398 0.312-0.422 0.070-1.418-0.297t-1.27-0.695q-0.102-0.117-0.133-0.281-0.008-0.094 0.031-0.203 0.031-0.078 0.266-0.367t1.414-1.688q0.008 0 0.469-0.547 0.117-0.148 0.309-0.191t0.387 0.027q0.187 0.078 0.293 0.227t0.098 0.328zM4.875 8.344q-0.023 0.43-0.406 0.547l-0.937 0.305q-2.148 0.688-2.281 0.688-0.273-0.016-0.422-0.281-0.094-0.195-0.133-0.586-0.062-0.594 0.008-1.301t0.234-0.973 0.437-0.25q0.102 0 1.578 0.602 0.547 0.227 0.898 0.367l0.656 0.266q0.18 0.070 0.277 0.238t0.090 0.379zM11.328 10.664q-0.055 0.422-0.715 1.258t-1.059 0.992q-0.289 0.109-0.492-0.055-0.109-0.078-1.438-2.242l-0.367-0.602q-0.109-0.164-0.090-0.359t0.152-0.359q0.273-0.336 0.648-0.203 0.008 0.008 0.93 0.312 1.586 0.516 1.891 0.621t0.367 0.16q0.219 0.172 0.172 0.477zM6.078 5.727q0.039 0.797-0.422 0.953-0.453 0.133-0.891-0.555l-2.953-4.672q-0.062-0.273 0.148-0.484 0.32-0.336 1.621-0.699t1.754-0.246q0.312 0.078 0.383 0.352 0.023 0.141 0.172 2.387t0.187 2.965zM11.25 6.57q0.023 0.305-0.203 0.461-0.117 0.078-2.57 0.672-0.523 0.117-0.711 0.18l0.008-0.016q-0.18 0.047-0.359-0.031t-0.289-0.25q-0.234-0.367 0-0.68 0.008-0.008 0.586-0.797 0.977-1.336 1.172-1.594t0.266-0.305q0.219-0.148 0.508-0.016 0.375 0.18 0.961 1.043t0.633 1.309v0.023z"></path>
</svg>
