<?xml version="1.0" encoding="utf-8"?>
<!-- Generated by IcoMoon.io -->
<!DOCTYPE svg PUBLIC "-//W3C//DTD SVG 1.1//EN" "http://www.w3.org/Graphics/SVG/1.1/DTD/svg11.dtd">
<svg version="1.1" xmlns="http://www.w3.org/2000/svg" xmlns:xlink="http://www.w3.org/1999/xlink" width="12" height="14" viewBox="0 0 12 14">
<path fill="#444444" d="M7.586 9.719v1.648q0 0.523-0.305 0.523-0.18 0-0.352-0.172v-2.352q0.172-0.172 0.352-0.172 0.305 0 0.305 0.523zM10.227 9.727v0.359h-0.703v-0.359q0-0.531 0.352-0.531t0.352 0.531zM2.68 8.023h0.836v-0.734h-2.438v0.734h0.82v4.445h0.781v-4.445zM4.93 12.469h0.695v-3.859h-0.695v2.953q-0.234 0.328-0.445 0.328-0.141 0-0.164-0.164-0.008-0.023-0.008-0.273v-2.844h-0.695v3.055q0 0.383 0.062 0.57 0.094 0.289 0.453 0.289 0.375 0 0.797-0.477v0.422zM8.281 11.313v-1.539q0-0.57-0.070-0.773-0.133-0.438-0.555-0.438-0.391 0-0.727 0.422v-1.695h-0.695v5.18h0.695v-0.375q0.352 0.43 0.727 0.43 0.422 0 0.555-0.43 0.070-0.211 0.070-0.781zM10.922 11.234v-0.102h-0.711q0 0.398-0.016 0.477-0.055 0.281-0.312 0.281-0.359 0-0.359-0.539v-0.68h1.398v-0.805q0-0.617-0.211-0.906-0.305-0.398-0.828-0.398-0.531 0-0.836 0.398-0.219 0.289-0.219 0.906v1.352q0 0.617 0.227 0.906 0.305 0.398 0.844 0.398 0.563 0 0.844-0.414 0.141-0.211 0.164-0.422 0.016-0.070 0.016-0.453zM6.172 4.102v-1.641q0-0.539-0.336-0.539t-0.336 0.539v1.641q0 0.547 0.336 0.547t0.336-0.547zM11.789 9.969q0 1.828-0.203 2.734-0.109 0.461-0.453 0.773t-0.797 0.359q-1.438 0.164-4.336 0.164t-4.336-0.164q-0.453-0.047-0.801-0.359t-0.449-0.773q-0.203-0.875-0.203-2.734 0-1.828 0.203-2.734 0.109-0.461 0.453-0.773t0.805-0.367q1.43-0.156 4.328-0.156t4.336 0.156q0.453 0.055 0.801 0.367t0.449 0.773q0.203 0.875 0.203 2.734zM3.992 0h0.797l-0.945 3.117v2.117h-0.781v-2.117q-0.109-0.578-0.477-1.656-0.289-0.805-0.508-1.461h0.828l0.555 2.055zM6.883 2.602v1.367q0 0.633-0.219 0.922-0.289 0.398-0.828 0.398-0.523 0-0.82-0.398-0.219-0.297-0.219-0.922v-1.367q0-0.625 0.219-0.914 0.297-0.398 0.82-0.398 0.539 0 0.828 0.398 0.219 0.289 0.219 0.914zM9.5 1.336v3.898h-0.711v-0.43q-0.414 0.484-0.805 0.484-0.359 0-0.461-0.289-0.062-0.187-0.062-0.586v-3.078h0.711v2.867q0 0.258 0.008 0.273 0.023 0.172 0.164 0.172 0.211 0 0.445-0.336v-2.977h0.711z"></path>
</svg>
