<?xml version="1.0" encoding="utf-8"?>
<!-- Generated by IcoMoon.io -->
<!DOCTYPE svg PUBLIC "-//W3C//DTD SVG 1.1//EN" "http://www.w3.org/Graphics/SVG/1.1/DTD/svg11.dtd">
<svg version="1.1" xmlns="http://www.w3.org/2000/svg" xmlns:xlink="http://www.w3.org/1999/xlink" width="12" height="14" viewBox="0 0 12 14">
<path fill="#444444" d="M7.18 10.18v-1.227q0-0.391-0.227-0.391-0.133 0-0.258 0.125v1.75q0.125 0.125 0.258 0.125 0.227 0 0.227-0.383zM8.617 9.227h0.516v-0.266q0-0.398-0.258-0.398t-0.258 0.398v0.266zM4.156 7.148v0.547h-0.625v3.305h-0.578v-3.305h-0.609v-0.547h1.812zM5.727 8.133v2.867h-0.523v-0.312q-0.305 0.352-0.594 0.352-0.258 0-0.328-0.219-0.047-0.125-0.047-0.422v-2.266h0.516v2.109q0 0.187 0.008 0.203 0.008 0.117 0.117 0.117 0.156 0 0.328-0.242v-2.188h0.523zM7.695 9v1.141q0 0.406-0.055 0.57-0.094 0.328-0.414 0.328-0.273 0-0.531-0.32v0.281h-0.523v-3.852h0.523v1.258q0.25-0.312 0.531-0.312 0.32 0 0.414 0.328 0.055 0.164 0.055 0.578zM9.656 10.008v0.070q0 0.227-0.016 0.336-0.023 0.172-0.117 0.312-0.211 0.312-0.625 0.312-0.406 0-0.633-0.297-0.164-0.211-0.164-0.672v-1.008q0-0.461 0.156-0.672 0.227-0.297 0.625-0.297t0.609 0.297q0.164 0.219 0.164 0.672v0.594h-1.039v0.508q0 0.398 0.266 0.398 0.187 0 0.234-0.203 0-0.008 0.004-0.055t0.004-0.129v-0.168h0.531zM6.133 3.57v1.219q0 0.398-0.25 0.398t-0.25-0.398v-1.219q0-0.406 0.25-0.406t0.25 0.406zM10.297 9.141q0-1.383-0.148-2.031-0.078-0.344-0.336-0.574t-0.594-0.27q-1.062-0.117-3.219-0.117-2.148 0-3.211 0.117-0.344 0.039-0.598 0.27t-0.332 0.574q-0.156 0.68-0.156 2.031 0 1.375 0.156 2.031 0.078 0.336 0.332 0.57t0.59 0.273q1.070 0.117 3.219 0.117t3.219-0.117q0.336-0.039 0.59-0.273t0.332-0.57q0.156-0.656 0.156-2.031zM4.398 4.055l0.703-2.313h-0.586l-0.398 1.523-0.414-1.523h-0.609l0.187 0.539t0.18 0.539q0.273 0.805 0.359 1.234v1.57h0.578v-1.57zM6.656 4.687v-1.016q0-0.453-0.164-0.68-0.227-0.297-0.609-0.297-0.398 0-0.609 0.297-0.164 0.227-0.164 0.68v1.016q0 0.453 0.164 0.68 0.211 0.297 0.609 0.297 0.383 0 0.609-0.297 0.164-0.211 0.164-0.68zM8.070 5.625h0.523v-2.891h-0.523v2.211q-0.172 0.242-0.328 0.242-0.117 0-0.125-0.125-0.008-0.016-0.008-0.203v-2.125h-0.523v2.289q0 0.289 0.047 0.43 0.086 0.211 0.336 0.211 0.281 0 0.602-0.352v0.312zM12 3.25v7.5q0 0.93-0.66 1.59t-1.59 0.66h-7.5q-0.93 0-1.59-0.66t-0.66-1.59v-7.5q0-0.93 0.66-1.59t1.59-0.66h7.5q0.93 0 1.59 0.66t0.66 1.59z"></path>
</svg>
