<?xml version="1.0" encoding="utf-8"?>
<!-- Generated by IcoMoon.io -->
<!DOCTYPE svg PUBLIC "-//W3C//DTD SVG 1.1//EN" "http://www.w3.org/Graphics/SVG/1.1/DTD/svg11.dtd">
<svg version="1.1" xmlns="http://www.w3.org/2000/svg" xmlns:xlink="http://www.w3.org/1999/xlink" width="14" height="14" viewBox="0 0 14 14">
<path fill="#444444" d="M10 7q0-0.289-0.234-0.422l-4-2.5q-0.242-0.156-0.508-0.016-0.258 0.141-0.258 0.438v5q0 0.297 0.258 0.438 0.125 0.062 0.242 0.062 0.156 0 0.266-0.078l4-2.5q0.234-0.133 0.234-0.422zM14 7q0 0.75-0.008 1.172t-0.066 1.066-0.176 1.152q-0.125 0.57-0.539 0.961t-0.969 0.453q-1.734 0.195-5.242 0.195t-5.242-0.195q-0.555-0.062-0.973-0.453t-0.543-0.961q-0.109-0.508-0.168-1.152t-0.066-1.066-0.008-1.172 0.008-1.172 0.066-1.066 0.176-1.152q0.125-0.57 0.539-0.961t0.969-0.453q1.734-0.195 5.242-0.195t5.242 0.195q0.555 0.062 0.973 0.453t0.543 0.961q0.109 0.508 0.168 1.152t0.066 1.066 0.008 1.172z"></path>
</svg>
