<?xml version="1.0" encoding="utf-8"?>
<!-- Generated by IcoMoon.io -->
<!DOCTYPE svg PUBLIC "-//W3C//DTD SVG 1.1//EN" "http://www.w3.org/Graphics/SVG/1.1/DTD/svg11.dtd">
<svg version="1.1" xmlns="http://www.w3.org/2000/svg" xmlns:xlink="http://www.w3.org/1999/xlink" width="1008" height="112" viewBox="0 0 1008 112">
<svg id="icon-utility-patent:after" width="48" height="48" viewBox="0 0 48 48" x="0" y="0">
<path fill="#444444" d="M31.2 21.12v-1.92l-2.592-0.432c-0.096-0.432-0.288-0.864-0.528-1.2l1.536-2.16-1.344-1.344-2.16 1.536c-0.384-0.24-0.768-0.384-1.2-0.528l-0.432-2.592h-1.92l-0.432 2.592c-0.432 0.096-0.864 0.288-1.2 0.528l-2.16-1.536-1.344 1.344 1.536 2.16c-0.24 0.384-0.384 0.768-0.528 1.2l-2.592 0.432v1.92l2.592 0.432c0.096 0.432 0.288 0.864 0.528 1.2l-1.536 2.16 1.344 1.344 2.16-1.536c0.384 0.24 0.768 0.384 1.2 0.528l0.432 2.592h1.92l0.432-2.592c0.432-0.096 0.864-0.288 1.2-0.528l2.16 1.536 1.344-1.344-1.536-2.16c0.24-0.384 0.384-0.768 0.528-1.2l2.592-0.432zM23.52 22.992c-1.584 0-2.832-1.296-2.832-2.832s1.296-2.832 2.832-2.832 2.832 1.296 2.832 2.832-1.248 2.832-2.832 2.832z"></path>
<path fill="#444444" d="M36.96 20.16c0-7.392-6.048-13.44-13.44-13.44s-13.44 6.048-13.44 13.44c0 4.272 1.968 8.064 5.088 10.512l-3.6 6.288h4.8l2.88 4.32 4.32-7.68 4.32 7.68 2.88-4.32h4.8l-3.6-6.336c3.024-2.496 4.992-6.24 4.992-10.464zM24.624 31.632c-0.336 0.048-0.72 0.048-1.104 0.048-0.336 0-0.672 0-1.008-0.048-2.448-0.192-4.656-1.152-6.384-2.64-2.544-2.112-4.128-5.28-4.128-8.832 0-6.336 5.184-11.52 11.52-11.52s11.52 5.184 11.52 11.52c0 3.504-1.584 6.624-4.032 8.736-1.776 1.536-3.936 2.496-6.384 2.736z"></path>
</svg>
<svg id="icon-patent-pending:after" width="48" height="48" viewBox="0 0 48 48" x="64" y="0">
<path fill="#444444" d="M23.52 33.6c-3.168 0-6.048-1.056-8.4-2.832v0l-3.6 6.288h4.8l2.88 4.32 4.32-7.776 4.32 7.776 2.88-4.32h4.8l-3.6-6.288c-2.304 1.776-5.232 2.832-8.4 2.832z"></path>
<path fill="#444444" d="M27.36 24.48c-0.192 0-0.336-0.048-0.528-0.144l-4.272-2.688v-6.288c0-0.528 0.432-0.96 0.96-0.96s0.96 0.432 0.96 0.96v5.232l3.408 2.112c0.432 0.288 0.576 0.864 0.288 1.344-0.192 0.288-0.48 0.432-0.816 0.432z"></path>
<path fill="#444444" d="M30.096 30.912v0c-0.912 0.528-1.824 0.96-2.784 1.248l-0.576-1.824c0.816-0.24 1.584-0.576 2.352-1.056l1.008 1.632zM31.776 29.76l-1.2-1.488c0.672-0.576 1.296-1.2 1.776-1.872l1.536 1.152c-0.624 0.816-1.296 1.536-2.112 2.208zM25.344 32.592c-1.008 0.144-2.016 0.144-3.072 0.048l0.192-1.92c0.864 0.096 1.728 0.048 2.592-0.048l0.288 1.92zM34.992 25.824l-1.68-0.912c0.384-0.768 0.72-1.584 0.96-2.448l1.872 0.48c-0.288 1.008-0.672 1.968-1.152 2.88zM20.256 32.304c-1.008-0.24-1.968-0.624-2.832-1.104l0.912-1.68c0.768 0.384 1.584 0.72 2.448 0.96l-0.528 1.824zM36.432 20.976l-1.92-0.192c0.096-0.864 0.048-1.728-0.048-2.592l1.92-0.288c0.144 1.008 0.192 2.064 0.048 3.072zM15.696 30.096c-0.816-0.624-1.536-1.344-2.208-2.112l1.488-1.2c0.576 0.672 1.2 1.296 1.872 1.776l-1.152 1.536zM35.952 15.936l-1.824 0.576c-0.24-0.816-0.576-1.632-1.056-2.352l-0.048-0.048 1.68-0.96c0.528 0.864 0.96 1.824 1.248 2.784zM13.968 25.344l-1.68 0.96c-0.528-0.912-0.96-1.872-1.248-2.832l1.824-0.576c0.288 0.864 0.672 1.632 1.104 2.448v0zM32.064 12.672c-0.576-0.672-1.2-1.296-1.872-1.824l1.152-1.536c0.816 0.624 1.536 1.344 2.208 2.112l-1.488 1.248zM12.528 21.216l-1.92 0.24c-0.144-1.008-0.144-2.016-0.048-3.072l1.92 0.192c-0.048 0.912-0.048 1.776 0.048 2.64zM28.752 9.936c-0.768-0.432-1.584-0.72-2.448-0.96l0.48-1.872c1.008 0.24 1.92 0.624 2.832 1.104l-0.864 1.728zM12.816 16.896l-1.872-0.48c0.24-1.008 0.624-1.92 1.104-2.832l1.68 0.912c-0.384 0.768-0.72 1.584-0.912 2.4zM24.624 8.688c-0.864-0.096-1.728-0.048-2.592 0.048l-0.24-1.92c1.008-0.144 2.016-0.144 3.072-0.048l-0.24 1.92zM14.688 13.008l-1.536-1.152c0.624-0.816 1.344-1.536 2.112-2.208l1.2 1.488c-0.624 0.576-1.248 1.2-1.776 1.872zM20.304 9.12c-0.816 0.24-1.632 0.624-2.352 1.056l-0.048 0.048-0.912-1.68c0.864-0.528 1.824-0.912 2.784-1.2l0.528 1.776z"></path>
</svg>
<svg id="icon-plant-patent:after" width="48" height="48" viewBox="0 0 48 48" x="128" y="0">
<path fill="#444444" d="M30.24 13.92h-3.36c-4.416 0-8.16 3.744-8.16 8.16v5.76h1.92v-3.36c0-3.072 1.728-6 4.56-7.632 0.24-0.144 0.528-0.048 0.672 0.192s0.048 0.528-0.192 0.672c-2.496 1.44-4.080 4.032-4.080 6.768h0.48c3.744 0 6.72-2.784 6.72-6.672 0-1.536 0.432-2.832 1.584-3.456 0.192-0.192 0.048-0.432-0.144-0.432z"></path>
<path fill="#444444" d="M36.96 20.16c0-7.392-6.048-13.44-13.44-13.44s-13.44 6.048-13.44 13.44c0 4.272 1.968 8.064 5.088 10.512l-3.6 6.288h4.8l2.88 4.32 4.32-7.68 4.32 7.68 2.88-4.32h4.8l-3.6-6.336c3.024-2.496 4.992-6.24 4.992-10.464zM24.624 31.632c-0.336 0.048-0.72 0.048-1.104 0.048-0.336 0-0.672 0-1.008-0.048-2.448-0.192-4.656-1.152-6.384-2.64-2.544-2.112-4.128-5.28-4.128-8.832 0-6.336 5.184-11.52 11.52-11.52s11.52 5.184 11.52 11.52c0 3.504-1.584 6.624-4.032 8.736-1.776 1.536-3.936 2.496-6.384 2.736z"></path>
</svg>
<svg id="icon-pro-se:after" width="48" height="48" viewBox="0 0 48 48" x="192" y="0">
<path fill="#444444" d="M29.76 20.64c0 2.4-1.92 4.32-4.32 4.32s-4.32-1.92-4.32-4.32 1.92-4.32 4.32-4.32c2.4 0 4.32 1.92 4.32 4.32z"></path>
<path fill="#444444" d="M23.52 31.68h3.84v0.96h-3.84v-0.96z"></path>
<path fill="#444444" d="M27.36 33.792v-0.192h-3.84v0.96h2.64c0.336-0.336 0.72-0.624 1.2-0.768z"></path>
<path fill="#444444" d="M23.52 35.52v0.96h1.92c0-0.336 0.048-0.672 0.192-0.96h-2.112z"></path>
<path fill="#444444" d="M23.52 37.44v0.96h2.64c-0.24-0.288-0.432-0.624-0.576-0.96h-2.064z"></path>
<path fill="#444444" d="M38.112 35.472l-3.792-6.192c-0.96-1.776-2.784-2.832-4.752-2.832h-8.064l-4.608-1.968-1.632-4.944c-0.336-1.008-1.44-1.536-2.448-1.2s-1.536 1.44-1.2 2.448l1.92 5.76c0.192 0.528 0.576 0.96 1.056 1.152l4.608 1.92v11.664h12v-1.92h-8.64v-8.64h5.76v2.88h2.88v-2.064l1.872 3.024h-4.752c-1.056 0-1.92 0.864-1.92 1.92s0.864 1.92 1.92 1.92v0h8.16c0.672 0 1.344-0.384 1.68-0.96 0.336-0.624 0.336-1.392-0.048-1.968z"></path>
<path fill="#444444" d="M14.4 15.84h-1.92c-0.288 0-0.48-0.192-0.48-0.48s0.192-0.48 0.48-0.48h1.92c0.288 0 0.48 0.192 0.48 0.48s-0.192 0.48-0.48 0.48z"></path>
<path fill="#444444" d="M13.92 17.28h-0.96c-0.288 0-0.48-0.192-0.48-0.48s0.192-0.48 0.48-0.48h0.96c0.288 0 0.48 0.192 0.48 0.48s-0.192 0.48-0.48 0.48z"></path>
<path fill="#444444" d="M16.56 9.84c0-1.728-1.392-3.12-3.12-3.12s-3.12 1.392-3.12 3.12c0 0.768 0.24 1.44 0.72 1.968v0c1.008 1.248 0.96 2.112 0.96 2.112 0 0.288 0.192 0.48 0.48 0.48h1.92c0.288 0 0.48-0.192 0.48-0.48 0 0-0.048-0.864 0.96-2.112v0c0.48-0.528 0.72-1.2 0.72-1.968z"></path>
</svg>
<svg id="icon-invention:after" width="48" height="48" viewBox="0 0 48 48" x="256" y="0">
<path fill="#444444" d="M22.608 20.064c0 0.61-0.494 1.104-1.104 1.104s-1.104-0.494-1.104-1.104c0-0.61 0.494-1.104 1.104-1.104s1.104 0.494 1.104 1.104z"></path>
<path fill="#444444" d="M27.456 24.24c0 0.636-0.516 1.152-1.152 1.152s-1.152-0.516-1.152-1.152c0-0.636 0.516-1.152 1.152-1.152s1.152 0.516 1.152 1.152z"></path>
<path fill="#444444" d="M31.68 22.080c0-4.224-3.456-7.68-7.68-7.68s-7.68 3.456-7.68 7.68c0 1.68 0.528 3.216 1.44 4.464v0c2.352 3.072 2.88 4.656 2.88 6.096 0 0.528 0.432 0.96 0.96 0.96h4.8c0.528 0 0.96-0.432 0.96-0.96 0-0.048 0-0.096 0-0.096 0.048-1.344 0.576-2.832 2.544-5.52 1.104-1.344 1.776-3.072 1.776-4.944zM22.032 22.032c-0.144 0.048-0.336 0.048-0.528 0.048l-0.384 0.96-0.72-0.192 0.096-1.008c-0.144-0.096-0.288-0.192-0.384-0.288l-0.96 0.384-0.384-0.624 0.768-0.672c-0.048-0.144-0.048-0.336-0.048-0.528l-0.96-0.432 0.192-0.72 1.008 0.096c0.096-0.144 0.192-0.288 0.288-0.384l-0.384-0.96 0.624-0.384 0.672 0.768c0.144-0.048 0.336-0.048 0.528-0.048l0.432-0.912 0.72 0.192-0.096 1.008c0.144 0.096 0.288 0.192 0.384 0.288l0.96-0.384 0.384 0.624-0.768 0.672c0.048 0.144 0.048 0.336 0.048 0.528l0.912 0.432-0.192 0.72-1.008-0.096c-0.096 0.144-0.192 0.288-0.288 0.384l0.384 0.96-0.624 0.384-0.672-0.816zM29.472 24.624l-1.056 0.192c-0.048 0.192-0.096 0.336-0.192 0.48l0.624 0.864-0.576 0.576-0.864-0.624c-0.144 0.096-0.336 0.144-0.48 0.192l-0.192 1.056h-0.816l-0.192-1.056c-0.192-0.048-0.336-0.096-0.48-0.192l-0.864 0.624-0.576-0.576 0.624-0.864c-0.096-0.144-0.144-0.336-0.192-0.48l-1.056-0.192v-0.768l1.056-0.192c0.048-0.192 0.096-0.336 0.192-0.48l-0.624-0.864 0.576-0.576 0.864 0.624c0.144-0.096 0.336-0.144 0.48-0.192l0.192-1.056h0.768l0.192 1.056c0.192 0.048 0.336 0.096 0.48 0.192l0.864-0.624 0.576 0.576-0.624 0.864c0.096 0.144 0.144 0.336 0.192 0.48l1.056 0.192v0.768z"></path>
<path fill="#444444" d="M24 13.44c-0.528 0-0.96-0.432-0.96-0.96v-4.8c0-0.528 0.432-0.96 0.96-0.96s0.96 0.432 0.96 0.96v4.8c0 0.528-0.432 0.96-0.96 0.96z"></path>
<path fill="#444444" d="M26.16 34.56h-4.32c-0.672 0-1.2 0.528-1.2 1.2s0.528 1.2 1.2 1.2h4.32c0.672 0 1.2-0.528 1.2-1.2s-0.528-1.2-1.2-1.2z"></path>
<path fill="#444444" d="M26.16 37.92h-4.32c-0.672 0-1.2 0.528-1.2 1.2s0.528 1.2 1.2 1.2h0.24c0 0.528 0.432 0.96 0.96 0.96h1.92c0.528 0 0.96-0.432 0.96-0.96h0.24c0.672 0 1.2-0.528 1.2-1.2s-0.528-1.2-1.2-1.2z"></path>
<path fill="#444444" d="M17.28 16.32c-0.24 0-0.48-0.096-0.672-0.288l-3.36-3.36c-0.384-0.384-0.384-0.96 0-1.344s0.96-0.384 1.344 0l3.36 3.36c0.384 0.384 0.384 0.96 0 1.344-0.192 0.192-0.432 0.288-0.672 0.288z"></path>
<path fill="#444444" d="M30.72 16.32c-0.24 0-0.48-0.096-0.672-0.288-0.384-0.384-0.384-0.96 0-1.344l3.36-3.36c0.384-0.384 0.96-0.384 1.344 0s0.384 0.96 0 1.344l-3.36 3.36c-0.192 0.192-0.432 0.288-0.672 0.288z"></path>
<path fill="#444444" d="M14.4 23.040h-4.8c-0.528 0-0.96-0.432-0.96-0.96s0.432-0.96 0.96-0.96h4.8c0.528 0 0.96 0.432 0.96 0.96s-0.432 0.96-0.96 0.96z"></path>
<path fill="#444444" d="M38.4 23.040h-4.8c-0.528 0-0.96-0.432-0.96-0.96s0.432-0.96 0.96-0.96h4.8c0.528 0 0.96 0.432 0.96 0.96s-0.432 0.96-0.96 0.96z"></path>
</svg>
<svg id="icon-maker:after" width="48" height="48" viewBox="0 0 48 48" x="320" y="0">
<path fill="#444444" d="M24.432 9.888c-0.864-1.872-2.784-3.168-4.992-3.168s-4.080 1.296-4.992 3.12c-0.624 0.528-1.008 1.344-1.008 2.256 0 0.816 0.336 1.536 0.816 2.064 0.768 2.112 2.784 3.6 5.184 3.6s4.416-1.536 5.184-3.648c0.48-0.528 0.816-1.248 0.816-2.016 0-0.864-0.384-1.68-1.008-2.208zM22.416 14.112c-0.864 0-1.632-0.576-1.92-1.392-0.144-0.48-0.576-0.768-1.056-0.768s-0.912 0.336-1.104 0.768c-0.288 0.816-1.056 1.392-1.92 1.392-1.104 0-2.016-0.912-2.016-2.016s0.912-2.016 2.016-2.016h6c1.104 0 2.016 0.912 2.016 2.016s-0.864 2.016-2.016 2.016z"></path>
<path fill="#444444" d="M37.92 32.64h-6.72v-6.72c0-3.696-3.024-6.72-6.72-6.72v0h-11.040c-3.648 0.048-6.624 2.976-6.72 6.624v0 13.536c0 1.056 0.864 1.92 1.92 1.92s1.92-0.864 1.92-1.92v-13.344h1.44v15.264h13.92v-15.312h1.44v8.592c0 1.056 0.864 1.92 1.92 1.92h8.64c1.056 0 1.92-0.864 1.92-1.92s-0.864-1.92-1.92-1.92z"></path>
<path fill="#444444" d="M40.848 21.984h-0.48c-0.288 0-0.48 0.24-0.48 0.48 0 0.336-0.768 0.336-1.104 0.096l-0.528-0.384c-0.24-0.144-0.528-0.24-0.816-0.24h-1.056c-3.36 0-4.176 2.448-4.176 2.448l0.672 0.528c0.576-0.72 1.056-1.008 2.016-1.008 0.576 0 1.008 0.432 1.008 1.008l-0.48 11.040h3.024l-0.48-11.040c0-0.288 0.048-1.008 1.008-1.008 1.008 0 1.008 0.48 1.008 0.48 0 0.288 0.24 0.48 0.48 0.48h0.48c0.288 0 0.48-0.24 0.48-0.48v-2.016c-0.096-0.192-0.336-0.384-0.576-0.384z"></path>
</svg>
<svg id="icon-intellectual-property:after" width="48" height="48" viewBox="0 0 48 48" x="384" y="0">
<path fill="#444444" d="M29.52 13.2c0 3.072-2.496 5.52-5.52 5.52-3.072 0-5.52-2.448-5.52-5.52s2.448-5.52 5.52-5.52c3.024 0 5.52 2.448 5.52 5.52z"></path>
<path fill="#444444" d="M13.584 22.272c-0.816 0.624-1.44 1.392-1.92 2.256-0.096 0.144-0.144 0.288-0.192 0.48 0.048-0.144 0.096-0.336 0.192-0.48 0.48-0.912 1.152-1.68 1.92-2.256z"></path>
<path fill="#444444" d="M13.584 22.272c0.528-0.384 1.104-0.768 1.776-1.008-0.624 0.24-1.2 0.576-1.776 1.008z"></path>
<path fill="#444444" d="M15.36 21.264c0.336-0.144 0.624-0.24 0.96-0.336-0.288 0.096-0.624 0.192-0.96 0.336z"></path>
<path fill="#444444" d="M38.832 32.544c0-0.24-0.048-0.432-0.144-0.672l-2.496-7.056c-0.048-0.096-0.096-0.192-0.144-0.336-0.144-0.288-0.336-0.576-0.528-0.864-0.384-0.528-0.864-1.008-1.392-1.44s-1.104-0.768-1.776-1.008c-0.336-0.144-0.624-0.24-0.96-0.336-0.672-0.096-1.392-0.192-2.112-0.192h-11.088c-0.72 0-1.44 0.096-2.112 0.288-0.336 0.096-0.672 0.192-0.96 0.336-0.624 0.24-1.248 0.624-1.776 1.008-0.192 0.144-0.384 0.336-0.576 0.48-0.528 0.528-1.008 1.104-1.344 1.776-0.096 0.144-0.144 0.288-0.192 0.48l-2.016 7.056c-0.144 0.48-0.144 1.008 0.048 1.488 0.048 0.144 0.096 0.288 0.192 0.432s0.144 0.24 0.24 0.384l5.040 6.048c0.288 0.384 0.72 0.624 1.152 0.768 0.24 0.096 0.528 0.144 0.816 0.144v0 0h5.52c0.144 0 0.288-0.048 0.384-0.096 0.144-0.048 0.24-0.144 0.336-0.192 0.096-0.096 0.144-0.192 0.192-0.336s0.096-0.24 0.096-0.384c0-0.288-0.096-0.576-0.336-0.72-0.048-0.048-0.144-0.096-0.24-0.144-0.048-0.096-0.192-0.096-0.336-0.096h-1.776l-6.096-7.248 1.248-4.464h0.96v5.568l4.32 5.184h5.712l4.128-4.704v-6.048h1.056l1.584 4.464-2.64 3.024-3.696 4.224h-1.728c-0.048 0-0.144 0-0.192 0-0.192 0.048-0.432 0.096-0.576 0.24-0.048 0.048-0.096 0.096-0.144 0.144-0.096 0.096-0.144 0.192-0.192 0.336 0 0.048-0.048 0.144-0.048 0.192 0 0.336 0.192 0.672 0.432 0.816 0.096 0.096 0.24 0.144 0.384 0.144 0.048 0 0.144 0 0.192 0h5.52c0.672 0 1.344-0.288 1.872-0.816l5.52-6.048c0.336-0.336 0.528-0.768 0.624-1.2 0.048-0.144 0.096-0.384 0.048-0.624zM24.48 36h-0.96c-0.288 0-0.48-0.192-0.48-0.48s0.192-0.48 0.48-0.48h0.96c0.288 0 0.48 0.192 0.48 0.48s-0.192 0.48-0.48 0.48zM24.96 34.56h-1.92c-0.288 0-0.48-0.192-0.48-0.48s0.192-0.48 0.48-0.48h1.92c0.288 0 0.48 0.192 0.48 0.48s-0.192 0.48-0.48 0.48zM26.4 30.528v0c-1.008 1.248-0.96 2.112-0.96 2.112 0 0.288-0.192 0.48-0.48 0.48h-1.92c-0.288 0-0.48-0.192-0.48-0.48 0 0 0.048-0.864-0.96-2.112v0c-0.432-0.528-0.72-1.2-0.72-1.968 0-1.728 1.392-3.12 3.12-3.12s3.12 1.392 3.12 3.12c0 0.768-0.24 1.44-0.72 1.968z"></path>
</svg>
<svg id="icon-design-patent:after" width="48" height="48" viewBox="0 0 48 48" x="448" y="0">
<path fill="#444444" d="M37.392 20.16c0-7.392-6.048-13.44-13.44-13.44s-13.44 6.048-13.44 13.44c0 4.272 1.968 8.064 5.088 10.512l-3.6 6.288h4.8l2.88 4.32 4.32-7.68 4.32 7.68 2.88-4.32h4.8l-3.6-6.336c3.024-2.496 4.992-6.24 4.992-10.464zM25.056 31.632c-0.336 0.048-0.72 0.048-1.104 0.048-0.336 0-0.672 0-1.008-0.048-2.448-0.192-4.656-1.152-6.384-2.64-2.496-2.112-4.128-5.28-4.128-8.832 0-6.336 5.184-11.52 11.52-11.52s11.52 5.184 11.52 11.52c0 3.504-1.584 6.624-4.032 8.736-1.776 1.536-3.984 2.496-6.384 2.736z"></path>
<path fill="#444444" d="M18.384 22.944l-1.008 4.416 4.416-1.008 7.824-7.824-3.408-3.408-7.824 7.824zM21.12 25.68l-1.68 0.336-0.72-0.672 0.336-1.68 2.064 2.016z"></path>
<path fill="#444444" d="M31.632 15.12l-2.016-2.016c-0.384-0.384-0.96-0.384-1.344 0l-1.392 1.344 3.408 3.408 1.344-1.344c0.384-0.384 0.384-1.008 0-1.392z"></path>
</svg>
<svg id="icon-prior-art:after" width="48" height="48" viewBox="0 0 48 48" x="512" y="0">
<path fill="#444444" d="M21.84 20.88h4.128v4.128h-4.128v-4.128z"></path>
<path fill="#444444" d="M19.392 14.592l-1.344 2.4-1.392 2.352h5.52l-1.392-2.352z"></path>
<path fill="#444444" d="M36 33.264l-0.672 0.672-1.344-1.344c0.768-1.056 1.2-2.304 1.2-3.696 0-3.36-2.688-6.144-6.096-6.24v-12h-4.512v-3.936h-16.896v21.936h4.512v3.984h11.76c1.152 1.536 2.976 2.544 4.992 2.544 1.392 0 2.64-0.432 3.696-1.2l1.344 1.344-0.72 0.672 5.232 5.232 2.736-2.736-5.232-5.232zM12.192 26.736h-2.592v-18.096h13.056v2.064h-10.464v16.032zM22.704 28.944c0 0.624 0.096 1.2 0.288 1.776h-8.88v-18.096h13.104v10.32c-2.64 0.768-4.512 3.168-4.512 6zM28.944 33.264c-0.816 0-1.536-0.24-2.208-0.624-0.768-0.432-1.344-1.104-1.728-1.92-0.24-0.528-0.384-1.152-0.384-1.776 0-1.776 1.056-3.264 2.544-3.936 0.528-0.24 1.152-0.384 1.776-0.384 0.048 0 0.096 0 0.144 0 2.304 0.096 4.176 1.968 4.176 4.32s-1.968 4.32-4.32 4.32z"></path>
<path fill="#444444" d="M20.832 26.208c0 1.432-1.16 2.592-2.592 2.592s-2.592-1.16-2.592-2.592c0-1.432 1.16-2.592 2.592-2.592s2.592 1.16 2.592 2.592z"></path>
</svg>
<svg id="icon-small-inventor:after" width="48" height="48" viewBox="0 0 48 48" x="576" y="0">
<path fill="#444444" d="M39.456 24.96l-15.36-12.96-14.88 12.96h3.84v16.32h6.24l-0.432-5.328c-0.576-0.192-1.008-0.72-1.008-1.392v-2.88c0-0.816 0.624-1.44 1.44-1.44h2.4c0.816 0 1.44 0.624 1.44 1.44v2.88c0 0.672-0.432 1.2-1.008 1.392l-0.432 5.328h5.28l-0.432-5.328c-0.576-0.192-1.008-0.72-1.008-1.392v-2.88c0-0.816 0.624-1.44 1.44-1.44h2.4c0.816 0 1.44 0.624 1.44 1.44v2.88c0 0.672-0.432 1.2-1.008 1.392l-0.432 5.328h6.24v-16.32h3.84zM20.496 29.28c-0.672 0-1.2-0.528-1.2-1.2s0.528-1.2 1.2-1.2c0.672 0 1.2 0.528 1.2 1.2 0 0.624-0.576 1.2-1.2 1.2zM28.176 29.28c-0.672 0-1.2-0.528-1.2-1.2s0.528-1.2 1.2-1.2c0.672 0 1.2 0.528 1.2 1.2 0 0.624-0.576 1.2-1.2 1.2z"></path>
<path fill="#444444" d="M36.24 15.84h-1.92c-0.288 0-0.48-0.192-0.48-0.48s0.192-0.48 0.48-0.48h1.92c0.288 0 0.48 0.192 0.48 0.48s-0.192 0.48-0.48 0.48z"></path>
<path fill="#444444" d="M35.76 17.28h-0.96c-0.288 0-0.48-0.192-0.48-0.48s0.192-0.48 0.48-0.48h0.96c0.288 0 0.48 0.192 0.48 0.48s-0.192 0.48-0.48 0.48z"></path>
<path fill="#444444" d="M38.4 9.84c0-1.728-1.392-3.12-3.12-3.12s-3.12 1.392-3.12 3.12c0 0.768 0.24 1.44 0.72 1.968v0c1.008 1.248 0.96 2.112 0.96 2.112 0 0.288 0.192 0.48 0.48 0.48h1.92c0.288 0 0.48-0.192 0.48-0.48 0 0-0.048-0.864 0.96-2.112v0c0.48-0.528 0.72-1.2 0.72-1.968z"></path>
</svg>
<svg id="icon-large-inventor:after" width="48" height="48" viewBox="0 0 48 48" x="640" y="0">
<path fill="#444444" d="M31.68 20.64v3.84l-9.6-3.84v3.84l-9.6-3.84v3.84h-0.96l-0.96-17.76h-2.4l-0.96 17.76v16.8h3.36l-0.432-5.328c-0.576-0.24-1.008-0.768-1.008-1.392v-2.88c0-0.816 0.624-1.44 1.44-1.44h2.4c0.816 0 1.44 0.624 1.44 1.44v2.88c0 0.672-0.432 1.2-1.008 1.392l-0.432 5.328h3.84l-0.432-5.328c-0.576-0.24-1.008-0.768-1.008-1.392v-2.88c0-0.816 0.624-1.44 1.44-1.44h2.4c0.816 0 1.44 0.624 1.44 1.44v2.88c0 0.672-0.432 1.2-1.008 1.392l-0.432 5.328h3.84l-0.432-5.328c-0.576-0.24-1.008-0.768-1.008-1.392v-2.88c0-0.816 0.624-1.44 1.44-1.44h2.4c0.816 0 1.44 0.624 1.44 1.44v2.88c0 0.672-0.432 1.2-1.008 1.392l-0.432 5.328h3.84l-0.432-5.328c-0.576-0.24-1.008-0.768-1.008-1.392v-2.88c0-0.816 0.624-1.44 1.44-1.44h2.4c0.816 0 1.44 0.624 1.44 1.44v2.88c0 0.672-0.432 1.2-1.008 1.392l-0.432 5.328h3.84l-0.432-5.328c-0.576-0.24-1.008-0.768-1.008-1.392v-2.88c0-0.816 0.624-1.44 1.44-1.44h2.4c0.816 0 1.44 0.624 1.44 1.44v2.88c0 0.672-0.432 1.2-1.008 1.392l-0.432 5.328h3.36v-16.8l-9.6-3.84zM11.76 29.28c-0.672 0-1.2-0.528-1.2-1.2s0.528-1.2 1.2-1.2c0.672 0 1.2 0.528 1.2 1.2 0 0.624-0.528 1.2-1.2 1.2zM18 29.28c-0.672 0-1.2-0.528-1.2-1.2s0.528-1.2 1.2-1.2c0.672 0 1.2 0.528 1.2 1.2 0 0.624-0.528 1.2-1.2 1.2zM24.24 29.28c-0.672 0-1.2-0.528-1.2-1.2s0.528-1.2 1.2-1.2c0.672 0 1.2 0.528 1.2 1.2 0 0.624-0.528 1.2-1.2 1.2zM30.48 29.28c-0.672 0-1.2-0.528-1.2-1.2s0.528-1.2 1.2-1.2c0.672 0 1.2 0.528 1.2 1.2 0 0.624-0.528 1.2-1.2 1.2zM36.72 29.28c-0.672 0-1.2-0.528-1.2-1.2s0.528-1.2 1.2-1.2c0.672 0 1.2 0.528 1.2 1.2 0 0.624-0.528 1.2-1.2 1.2z"></path>
<path fill="#444444" d="M36.24 15.84h-1.92c-0.288 0-0.48-0.192-0.48-0.48s0.192-0.48 0.48-0.48h1.92c0.288 0 0.48 0.192 0.48 0.48s-0.192 0.48-0.48 0.48z"></path>
<path fill="#444444" d="M35.76 17.28h-0.96c-0.288 0-0.48-0.192-0.48-0.48s0.192-0.48 0.48-0.48h0.96c0.288 0 0.48 0.192 0.48 0.48s-0.192 0.48-0.48 0.48z"></path>
<path fill="#444444" d="M38.4 9.84c0-1.728-1.392-3.12-3.12-3.12s-3.12 1.392-3.12 3.12c0 0.768 0.24 1.44 0.72 1.968v0c1.008 1.248 0.96 2.112 0.96 2.112 0 0.288 0.192 0.48 0.48 0.48h1.92c0.288 0 0.48-0.192 0.48-0.48 0 0-0.048-0.864 0.96-2.112v0c0.48-0.528 0.72-1.2 0.72-1.968z"></path>
</svg>
<svg id="icon-infringement:after" width="48" height="48" viewBox="0 0 48 48" x="704" y="0">
<path fill="#444444" d="M29.76 13.152c1.728-0.336 2.88-2.064 2.496-3.84-0.336-1.776-2.064-2.88-3.792-2.544s-2.88 2.064-2.496 3.84c0.336 1.776 2.064 2.88 3.792 2.544z"></path>
<path fill="#444444" d="M35.568 16.608l1.152-2.064h-4.896l1.152 2.064c0.384-0.192 0.816-0.336 1.296-0.336s0.912 0.144 1.296 0.336z"></path>
<path fill="#444444" d="M36 21.024c-0.048 0.048-0.144 0.144-0.192 0.192l-5.904 3.936c-0.048 0.048-0.096 0.048-0.144 0.096h-0.048c-0.048 0-0.096 0.048-0.096 0.048-0.144 0.048-0.24 0.096-0.384 0.144-0.768 1.488-1.296 3.024-1.344 4.32 0 3.264 1.44 6.384 6.384 6.384v0c4.944 0 6.384-3.12 6.384-6.384 0-2.832-2.496-6.768-4.656-8.736zM34.8 34.176h-0.96c-0.288 0-0.48-0.24-0.48-0.48 0-0.288 0.24-0.48 0.48-0.48h0.96c0.288 0 0.48 0.24 0.48 0.48s-0.24 0.48-0.48 0.48zM35.28 32.688h-1.968c-0.288 0-0.48-0.24-0.48-0.48 0-0.288 0.24-0.48 0.48-0.48h1.968c0.288 0 0.48 0.24 0.48 0.48 0 0.288-0.192 0.48-0.48 0.48zM36.432 28.512c0 0-0.672 1.056-0.672 2.208 0 0.288-0.24 0.48-0.48 0.48h-1.92c-0.288 0-0.48-0.24-0.48-0.48 0-1.152-0.672-2.208-0.672-2.208v0c-0.192-0.336-0.336-0.768-0.336-1.2 0-1.344 1.104-2.448 2.448-2.448s2.448 1.104 2.448 2.448c0 0.432-0.144 0.864-0.336 1.2z"></path>
<path fill="#444444" d="M35.712 18.048c-0.096-0.096-0.144-0.192-0.24-0.288-0.048-0.048-0.048-0.048-0.096-0.096s-0.144-0.096-0.24-0.144c-0.048 0-0.096-0.048-0.096-0.048-0.096-0.048-0.144-0.048-0.24-0.096-0.048 0-0.048-0.048-0.096-0.048-0.144-0.048-0.288-0.048-0.384-0.048 0 0 0 0 0 0-0.096 0-0.192 0-0.288 0.048-0.048 0-0.048 0-0.096 0-0.096 0-0.144 0.048-0.24 0.048-0.048 0-0.048 0-0.096 0.048-0.096 0.048-0.192 0.096-0.288 0.144l-3.888 2.592-1.344-4.656c-0.288-0.96-1.056-1.68-2.064-1.92-0.096-0.048-0.24-0.048-0.336-0.048-0.048 0-0.096 0-0.144 0s-0.144 0-0.192 0c0 0 0 0 0 0-0.144 0-0.336 0-0.48 0.048-0.048 0-0.096 0-0.096 0.048-0.144 0.048-0.288 0.096-0.432 0.144 0 0-0.048 0-0.048 0-0.144 0.048-0.288 0.144-0.432 0.24-0.048 0-0.048 0.048-0.096 0.048-0.144 0.096-0.288 0.192-0.384 0.336-0.048 0.048-0.048 0.048-0.096 0.096l-6.336 7.152c-1.248 1.248-2.016 2.928-2.112 4.704l-0.672 4.416-5.712 1.2c-0.912 0.192-1.536 1.104-1.296 2.016 0.192 0.816 0.864 1.344 1.68 1.344 0.096 0 0.24 0 0.384-0.048l6.864-1.488c0 0 0.048 0 0.048 0 0.048 0 0.096-0.048 0.144-0.048s0.096-0.048 0.096-0.048c0.048 0 0.096-0.048 0.144-0.048s0.096-0.048 0.096-0.048c0.048 0 0.096-0.048 0.096-0.096 0.048-0.048 0.048-0.048 0.096-0.096s0.048-0.048 0.096-0.096 0.048-0.048 0.096-0.096 0.048-0.048 0.096-0.096 0.048-0.096 0.096-0.096c0-0.048 0.048-0.048 0.048-0.096s0.048-0.096 0.048-0.144c0-0.048 0.048-0.048 0.048-0.096l1.632-4.56 3.84 4.080-0.432 7.104c-0.048 0.96 0.672 1.776 1.584 1.824 0.048 0 0.096 0 0.096 0 0.912 0 1.632-0.72 1.728-1.632l0.48-7.824c0 0 0 0 0-0.048s0-0.048 0-0.096 0-0.144 0-0.192c0-0.048 0-0.096 0-0.096 0-0.048-0.048-0.144-0.048-0.192s-0.048-0.096-0.048-0.096-0.048-0.096-0.096-0.192c0-0.048-0.048-0.048-0.048-0.096 0 0 0-0.048-0.048-0.048l-4.224-6.096 4.176-4.512 0.912 3.264c0 0.048 0 0.048 0.048 0.096 0 0.048 0.048 0.096 0.048 0.144 0.048 0.048 0.048 0.096 0.096 0.144 0 0.048 0 0.048 0.048 0.096 0 0 0.048 0.048 0.048 0.048 0.048 0.096 0.144 0.144 0.192 0.24 0 0 0.048 0.048 0.048 0.048 0.096 0.096 0.192 0.144 0.288 0.192 0.048 0 0.048 0.048 0.096 0.048 0.096 0.048 0.192 0.096 0.288 0.096 0.048 0 0.096 0 0.144 0.048 0.096 0 0.192 0.048 0.24 0.048s0.048 0 0.096 0 0.048 0 0.096 0 0.048 0 0.096 0c0.096 0 0.192-0.048 0.288-0.048 0 0 0 0 0 0s0 0 0 0c0.096-0.048 0.192-0.048 0.288-0.096 0.048 0 0.048-0.048 0.096-0.048s0.048-0.048 0.096-0.048l0.96-0.624 4.848-3.216 0.048-0.048c0.72-0.528 0.912-1.584 0.384-2.352z"></path>
<path fill="#444444" d="M24.288 13.728c0.144-0.048 0.288-0.096 0.432-0.144-0.144 0.048-0.288 0.096-0.432 0.144z"></path>
<path fill="#444444" d="M23.328 14.352c0.144-0.144 0.24-0.24 0.384-0.336-0.144 0.096-0.24 0.192-0.384 0.336z"></path>
<path fill="#444444" d="M24.864 13.536c0.144-0.048 0.336-0.048 0.48-0.048-0.192 0-0.336 0.048-0.48 0.048z"></path>
<path fill="#444444" d="M23.808 13.968c0.144-0.096 0.288-0.192 0.432-0.24-0.144 0.048-0.288 0.144-0.432 0.24z"></path>
<path fill="#444444" d="M25.584 13.536c0.048 0 0.096 0 0.144 0-0.096 0-0.144 0-0.144 0z"></path>
</svg>
<svg id="icon-trade-secret:after" width="48" height="48" viewBox="0 0 48 48" x="768" y="0">
<path fill="#444444" d="M33.6 23.52v-7.2c0-5.28-4.32-9.6-9.6-9.6s-9.6 4.32-9.6 9.6v7.2h-3.36v17.76h25.92v-17.76h-3.36zM24.72 37.92h-0.96c-0.288 0-0.48-0.192-0.48-0.48s0.192-0.48 0.48-0.48h0.96c0.288 0 0.48 0.192 0.48 0.48s-0.192 0.48-0.48 0.48zM25.2 36.48h-1.92c-0.288 0-0.48-0.192-0.48-0.48s0.192-0.48 0.48-0.48h1.92c0.288 0 0.48 0.192 0.48 0.48s-0.192 0.48-0.48 0.48zM26.64 32.448c-1.008 1.248-0.96 2.112-0.96 2.112 0 0.288-0.192 0.48-0.48 0.48h-1.92c-0.288 0-0.48-0.192-0.48-0.48 0 0 0.048-0.864-0.96-2.112v0c-0.432-0.528-0.72-1.2-0.72-1.968 0-1.728 1.392-3.12 3.12-3.12s3.12 1.392 3.12 3.12c0 0.768-0.24 1.44-0.72 1.968v0zM18.24 23.52v-7.2c0-3.168 2.592-5.76 5.76-5.76s5.76 2.592 5.76 5.76v7.2h-11.52z"></path>
</svg>
<svg id="icon-micro-entity-inventor:after" width="48" height="48" viewBox="0 0 48 48" x="832" y="0">
<path fill="#444444" d="M23.52 14.496l-13.92 12.864h2.88v13.92h22.080v-13.92h2.88l-13.92-12.864zM23.52 26.88c0.672 0 1.2 0.528 1.2 1.2s-0.528 1.2-1.2 1.2-1.2-0.528-1.2-1.2c0-0.672 0.528-1.2 1.2-1.2zM26.16 34.56c0 0.672-0.432 1.2-1.008 1.392l-0.432 5.328h-2.4l-0.432-5.328c-0.576-0.192-1.008-0.72-1.008-1.392v-2.88c0-0.816 0.624-1.44 1.44-1.44h2.4c0.816 0 1.44 0.624 1.44 1.44v2.88z"></path>
<path fill="#444444" d="M33.84 15.84h-1.92c-0.288 0-0.48-0.192-0.48-0.48s0.192-0.48 0.48-0.48h1.92c0.288 0 0.48 0.192 0.48 0.48s-0.192 0.48-0.48 0.48z"></path>
<path fill="#444444" d="M33.36 17.28h-0.96c-0.288 0-0.48-0.192-0.48-0.48s0.192-0.48 0.48-0.48h0.96c0.288 0 0.48 0.192 0.48 0.48s-0.192 0.48-0.48 0.48z"></path>
<path fill="#444444" d="M36 9.84c0-1.728-1.392-3.12-3.12-3.12s-3.12 1.392-3.12 3.12c0 0.768 0.24 1.44 0.72 1.968v0c1.008 1.248 0.96 2.112 0.96 2.112 0 0.288 0.192 0.48 0.48 0.48h1.92c0.288 0 0.48-0.192 0.48-0.48 0 0-0.048-0.864 0.96-2.112v0c0.48-0.528 0.72-1.2 0.72-1.968z"></path>
</svg>
<svg id="icon-service-mark:after" width="48" height="48" viewBox="0 0 48 48" x="896" y="0">
<path fill="#444444" d="M40.32 27.84h-32.64c-0.528 0-0.96-0.432-0.96-0.96s0.432-0.96 0.96-0.96h32.64c0.528 0 0.96 0.432 0.96 0.96s-0.432 0.96-0.96 0.96z"></path>
<path fill="#444444" d="M29.184 28.896c-0.096-0.048-0.24-0.096-0.384-0.096h-8.16c-0.528 0-0.96 0.432-0.96 0.96s0.384 0.864 0.96 0.96l4.896 0.816c0.336 0.096 0.288 0.624-0.096 0.624h-4.128c-0.432 0-0.912-0.096-1.344-0.192l-7.584-3.072c-0.096-0.048-0.24-0.096-0.384-0.096-0.528 0-0.96 0.432-0.96 0.96 0 0.336 0.144 0.624 0.384 0.768v0 0c0 0 0 0 0 0l8.256 5.424c0.624 0.384 1.296 0.528 2.016 0.528h9.984l2.256 0.912 0.912-6-5.664-2.496z"></path>
<path fill="#444444" d="M36 30.24l-0.24 1.584-0.864 5.952-0.336 2.064 6.72 1.44v-10.080z"></path>
<path fill="#444444" d="M25.248 22.272h-2.688c-0.384 0-0.672-0.288-0.672-0.672s0.288-0.672 0.672-0.672h2.688c0.384 0 0.672 0.288 0.672 0.672s-0.336 0.672-0.672 0.672z"></path>
<path fill="#444444" d="M25.248 22.944h-2.688c-0.384 0-0.672 0.288-0.672 0.672s0.288 0.672 0.672 0.672h0.336c0 0.384 0.288 0.672 0.672 0.672h0.672c0.384 0 0.672-0.288 0.672-0.672h0.336c0.384 0 0.672-0.288 0.672-0.672s-0.336-0.672-0.672-0.672z"></path>
<path fill="#444444" d="M27.456 16.608c0.768-0.864 1.248-1.968 1.248-3.216 0-2.64-2.112-4.752-4.752-4.752s-4.752 2.112-4.752 4.752c0 1.2 0.432 2.304 1.152 3.12 0.336 0.336 1.536 1.824 1.536 2.976 0 0.384 0.288 0.672 0.672 0.672h2.688c0.384 0 0.672-0.288 0.672-0.672v-0.048c0.096-1.104 1.104-2.4 1.536-2.832z"></path>
</svg>
<svg id="icon-counterfeit:after" width="48" height="48" viewBox="0 0 48 48" x="960" y="0">
<path fill="#444444" d="M37.296 26.4c-0.048-0.096-0.048-0.192-0.048-0.192s0 0 0 0l-2.544-6.384c-0.144-7.152-6-13.104-13.2-13.104l-0.048 29.76h6.768c0.672 0 1.296-0.096 1.872-0.24s1.104-0.384 1.536-0.624c0.144-0.096 0.288-0.192 0.432-0.288 0.432-0.336 0.768-0.72 1.056-1.152 0.192-0.288 0.336-0.624 0.48-1.008 0.144-0.432 0.24-0.864 0.336-1.344h-4.32v-0.96h4.416c0-0.048 0-0.096 0-0.144v-2.64h1.968c0.192 0 0.336-0.048 0.528-0.096 0.144-0.048 0.288-0.144 0.432-0.288 0.24-0.24 0.384-0.576 0.384-0.912 0-0.144-0.048-0.288-0.048-0.384zM30.816 20.016c-0.672 0-1.2-0.528-1.2-1.2s0.528-1.2 1.2-1.2c0.672 0 1.2 0.528 1.2 1.2s-0.528 1.2-1.2 1.2z"></path>
<path fill="#444444" d="M20.544 7.68c-6.288 0.912-11.136 6.288-11.136 12.816 1.152 0.576 4.56 1.92 11.136 2.016v-14.832z"></path>
<path fill="#444444" d="M28.224 37.392h-7.728v-13.92c-6-0.048-9.456-1.152-11.040-1.872 0.288 3.168 1.68 6.048 3.84 8.16v11.52h15.552v-3.888c-0.192 0-0.432 0-0.624 0z"></path>
</svg>
<svg id="icon-ptotrademark:after" width="32" height="32" viewBox="0 0 48 48" x="10" y="70">
<path fill="#444444" d="M48,0H0v48h4.7V28.7H48L34.7,14L48,0z M12,9.8v12H7.9v-12H5V6h9.8v3.8H12z M27.3,21.8V10.5l-2.6,11.3H22l-2.7-11.3v11.3h-3.2V6.1h5.6l2,8.4l1.9-8.4h5.6v15.7H27.3z"/>
</svg>
<svg id="icon-stem:after" width="48" height="48" viewBox="0 0 48 48" x="64" y="64">
<path fill="#444444" d="M15.84 24.96c0 1.584-1.296 2.88-2.88 2.88s-2.88-1.296-2.88-2.88 1.296-2.88 2.88-2.88 2.88 1.296 2.88 2.88z"></path>
<path fill="#444444" d="M26.16 34.080h-4.608l-0.912-1.392-0.624-0.912-0.912-1.44c-0.48-0.864-1.392-1.536-2.784-1.536h-6.24c-2.4 0-3.36 1.92-3.36 3.36v7.2h10.56v-6.72h0.48l2.112 3.264c0 0 0 0.048 0.048 0.048v0 0c0.24 0.288 0.576 0.48 0.96 0.48h5.28c0.672 0 1.2-0.528 1.2-1.2 0-0.624-0.528-1.152-1.2-1.152z"></path>
<path fill="#444444" d="M41.28 28.8h-21.12v-21.12h21.12v21.12zM21.12 27.84h19.2v-19.2h-19.2v19.2z"></path>
<path fill="#444444" d="M28.656 15.12c0 0 0-0.048-0.048-0.048l-1.392-1.776v-2.256c0.288 0 0.48-0.192 0.48-0.48s-0.192-0.48-0.48-0.48h-2.88c-0.288 0-0.48 0.192-0.48 0.48s0.192 0.48 0.48 0.48v2.256l-1.392 1.776c0 0-0.048 0.048-0.048 0.048-0.192 0.336-0.192 0.768 0 1.152 0.192 0.336 0.576 0.576 0.96 0.576h3.84c0.432 0 0.768-0.192 0.96-0.576s0.192-0.816 0-1.152zM26.256 11.040v2.4c0 0.096 0.048 0.192 0.096 0.288l0.528 0.672h-2.208l0.528-0.672c0.048-0.096 0.096-0.192 0.096-0.288v-2.4h0.96z"></path>
<path fill="#444444" d="M29.28 23.52v-0.96h-1.008c-0.048-0.288-0.192-0.576-0.336-0.864l0.72-0.72-0.672-0.672-0.72 0.72c-0.24-0.144-0.528-0.288-0.864-0.336v-1.008h-0.96v1.008c-0.288 0.048-0.576 0.192-0.864 0.336l-0.72-0.72-0.672 0.672 0.72 0.72c-0.144 0.24-0.288 0.528-0.336 0.864h-1.008v0.96h1.008c0.048 0.288 0.192 0.576 0.336 0.864l-0.72 0.72 0.672 0.672 0.72-0.72c0.24 0.144 0.528 0.288 0.864 0.336v1.008h0.96v-1.008c0.288-0.048 0.576-0.192 0.864-0.336l0.72 0.72 0.672-0.672-0.72-0.72c0.144-0.24 0.288-0.528 0.336-0.864h1.008zM25.872 24c-0.528 0-0.96-0.432-0.96-0.96s0.432-0.96 0.96-0.96 0.96 0.432 0.96 0.96c0 0.528-0.432 0.96-0.96 0.96z"></path>
<path fill="#444444" d="M38.448 21.12v-0.96h-4.752c0 0-1.104 0-1.44 1.536 0 0-0.048 0.288 0.192 0.192 0.336-0.096 0.24-0.96 1.584-0.816 0 0 0.144 2.832-1.104 4.080 0 0-0.528 0.432 0.048 0.816 0.288 0.24 1.248-0.096 1.632-1.056 0.432-1.2 0.48-3.84 0.48-3.84h0.912c0 0-0.912 5.040 1.2 5.040 1.056 0 1.296-1.872 1.296-1.872h-0.192c0 0-0.624 1.44-1.152 0.72-0.72-0.96-0.192-3.84-0.192-3.84h1.488z"></path>
<path fill="#444444" d="M30.864 12.72l0.672 0.672c1.872-1.872 4.896-1.872 6.72 0l0.672-0.672c-2.208-2.256-5.856-2.256-8.064 0z"></path>
<path fill="#444444" d="M32.304 13.92l0.672 0.672c0.528-0.528 1.2-0.816 1.92-0.816s1.44 0.288 1.92 0.816l0.672-0.672c-1.392-1.488-3.744-1.488-5.184 0z"></path>
<path fill="#444444" d="M35.856 15.456c0 0.53-0.43 0.96-0.96 0.96s-0.96-0.43-0.96-0.96c0-0.53 0.43-0.96 0.96-0.96s0.96 0.43 0.96 0.96z"></path>
</svg>
<svg id="icon-pro-bono:after" width="48" height="48" viewBox="0 0 48 48" x="128" y="64">
<path fill="#444444" d="M31.68 34.56h-9.024l-0.144 0.288c-0.48 0.912-1.344 1.44-2.256 1.44-0.672 0-1.296-0.24-1.776-0.72l-4.128-3.792c-0.24-0.192-0.576-0.432-0.912-0.528-0.192-0.048-0.432-0.096-0.672-0.096v-1.2c0.384 0 0.72 0.048 1.056 0.144 0.672 0.192 1.2 0.624 1.488 0.864l3.984 3.744c0.288 0.24 0.624 0.336 0.96 0.336 0.576 0 1.104-0.432 1.344-0.912 0.048-0.144 0.096-0.336 0.096-0.48 0-0.432-0.192-0.768-0.432-1.056l-7.536-7.92c-0.816-0.816-1.872-1.248-3.024-1.248h-3.984v6.816h1.296c0.72 0 1.392 0.288 1.872 0.768l5.712 5.712c1.056 1.056 2.544 1.68 4.080 1.68h12c1.056 0 1.92-0.864 1.92-1.92s-0.864-1.92-1.92-1.92z"></path>
<path fill="#444444" d="M41.28 24.96c0 0 0-0.048 0 0v0c0-0.096 0-0.144-0.048-0.192l-3.84-11.040c0 0 0 0 0 0 0-0.048-0.048-0.096-0.048-0.096s0 0 0 0 0 0-0.048-0.048-0.048-0.048-0.096-0.096c0 0 0 0-0.048 0s-0.096-0.048-0.144-0.048c0 0 0 0-0.048 0 0 0-0.048 0-0.048 0h-6.576l-0.096-2.88c0-0.24-0.24-0.48-0.48-0.48s-0.48 0.192-0.48 0.48l-0.096 2.88h-6.624c0 0-0.048 0-0.048 0s0 0-0.048 0-0.096 0.048-0.144 0.048c0 0 0 0-0.048 0s-0.048 0.048-0.096 0.096c0 0 0 0-0.048 0.048 0 0 0 0 0 0-0.048 0.048-0.048 0.096-0.048 0.096s0 0 0 0l-3.84 11.040c0 0.048 0 0.096 0 0.144v0c0 0 0 0 0 0.048 0 0 0 0 0 0 0.048 1.824 1.968 3.312 4.32 3.312s4.272-1.488 4.32-3.312c0 0 0 0 0 0s0 0 0-0.048v0c0-0.048 0-0.096 0-0.144l-3.6-10.416h5.952l-0.432 14.448c-3.552 0.192-6.24 1.152-6.24 2.352h14.88c0-1.248-2.976-2.256-6.72-2.4l-0.384-14.4h5.952l-3.6 10.416c0 0.048 0 0.096 0 0.144v0c0 0 0 0 0 0.048 0 0 0 0 0 0 0.048 1.824 1.968 3.312 4.32 3.312s4.224-1.488 4.272-3.312c0 0 0 0 0 0zM19.248 24.912l2.832-8.208v8.208h-2.832zM25.872 24.912h-2.832v-8.208l2.832 8.208zM33.648 24.912l2.832-8.208v8.208h-2.832zM37.44 16.704l2.832 8.208h-2.832v-8.208z"></path>
</svg>
</svg>
